<?xml version="1.0" standalone="no"?>
<!DOCTYPE svg PUBLIC "-//W3C//DTD SVG 20010904//EN"
 "http://www.w3.org/TR/2001/REC-SVG-20010904/DTD/svg10.dtd">
<svg version="1.0" xmlns="http://www.w3.org/2000/svg"
 width="1280.000000pt" height="1280.000000pt" viewBox="0 0 1280.000000 1280.000000"
 preserveAspectRatio="xMidYMid meet">
<metadata>
Created by potrace 1.15, written by Peter Selinger 2001-2017
</metadata>
<g transform="translate(0.000000,1280.000000) scale(0.100000,-0.100000)"
fill="#e91e63" stroke="none">
<path d="M8910 12335 c-8 -9 -8 -15 -2 -15 12 0 26 19 19 26 -2 2 -10 -2 -17
-11z"/>
<path d="M7670 12290 c-84 -65 -117 -96 -162 -150 l-37 -45 9 35 c13 44 12 46
-2 32 -7 -7 -16 -12 -20 -12 -18 0 -6 21 44 77 37 41 41 48 14 23 -37 -33
-117 -134 -116 -145 1 -15 -34 -68 -38 -57 -2 7 2 20 10 29 7 9 12 23 10 32
-3 19 61 156 86 185 10 11 11 16 4 12 -8 -5 -27 -29 -43 -54 -16 -25 -29 -39
-29 -31 -1 13 -34 -37 -35 -53 0 -3 -4 -10 -9 -15 -6 -5 -6 -2 -1 6 5 8 -7 3
-26 -11 -19 -14 -45 -31 -59 -38 l-25 -13 20 23 20 24 -30 -21 c-16 -12 -48
-39 -70 -62 -38 -39 -72 -58 -45 -26 17 20 1 19 -22 -2 -16 -14 -18 -14 -18 0
0 8 9 36 20 62 11 26 20 50 20 53 -1 15 -49 -84 -50 -101 0 -10 -4 -16 -9 -12
-5 3 -13 0 -17 -6 -4 -8 -3 -9 4 -5 7 4 12 4 12 -1 0 -4 -11 -13 -25 -20 -27
-12 -32 -4 -15 28 15 27 -4 25 -32 -3 l-23 -23 -6 30 -5 30 -8 -32 c-7 -29
-31 -61 -40 -52 -2 2 3 26 12 53 16 46 22 52 82 83 68 35 68 47 0 14 -43 -21
-45 -20 -30 9 6 11 -11 -2 -37 -28 -49 -49 -113 -98 -113 -87 0 3 21 29 47 58
l47 52 -46 -44 c-25 -24 -50 -42 -54 -40 -5 2 -19 -17 -32 -43 -12 -26 -35
-57 -52 -69 -16 -12 -27 -25 -25 -29 3 -4 -3 -14 -13 -21 -15 -13 -16 -12 -3
4 10 12 10 17 1 17 -6 0 3 19 20 43 l32 42 -38 -40 c-22 -22 -47 -51 -57 -65
l-18 -25 7 30 c4 17 8 37 9 45 4 37 19 67 47 97 21 22 25 31 14 29 -21 -3
-195 -183 -208 -216 -6 -14 -12 -20 -15 -13 -7 20 26 85 47 90 11 3 20 10 20
15 0 5 -4 6 -10 3 -22 -14 -8 10 22 37 17 15 28 28 23 28 -4 0 0 10 11 22 10
13 -4 2 -33 -25 -55 -49 -76 -59 -67 -29 3 9 -2 5 -10 -10 -9 -14 -30 -35 -49
-46 -18 -12 -43 -32 -56 -46 -14 -14 -29 -26 -34 -26 -5 0 -16 -8 -24 -17 -14
-19 -14 -10 2 142 4 39 4 39 -6 10 -6 -16 -13 -48 -15 -69 -3 -22 -16 -61 -30
-87 -13 -27 -24 -51 -24 -54 0 -14 22 9 32 33 10 24 12 25 16 7 3 -13 -4 -25
-19 -35 -24 -16 -30 -22 -54 -55 -14 -19 -15 -18 -9 10 9 43 43 118 57 127 8
5 6 8 -6 8 -10 0 -21 -8 -25 -18 -4 -10 -32 -56 -63 -102 -31 -47 -62 -102
-69 -122 -12 -40 -30 -60 -30 -34 0 9 9 39 20 68 22 59 20 73 -5 30 -12 -19
-41 -40 -84 -60 -36 -17 -67 -29 -69 -28 -7 8 101 115 127 126 17 7 29 17 28
23 -1 6 29 30 68 54 80 50 78 58 -4 12 -49 -28 -114 -78 -239 -184 -38 -32
-149 -177 -162 -210 -18 -48 -21 -65 -11 -65 5 0 15 15 21 34 6 19 29 54 51
78 25 27 36 34 28 19 -8 -18 -8 -25 0 -31 8 -4 -8 -31 -46 -76 -32 -39 -66
-81 -76 -94 -49 -70 -46 -67 -47 -43 0 12 8 30 18 40 9 10 25 28 35 40 18 21
18 21 -2 16 -11 -3 -23 -14 -26 -24 -4 -10 -11 -19 -17 -19 -11 0 -7 56 8 117
4 16 4 25 0 22 -4 -4 -14 -44 -22 -90 -12 -70 -20 -89 -46 -116 -33 -34 -43
-56 -74 -155 -12 -41 -29 -69 -60 -99 -51 -50 -53 -44 -29 61 13 55 22 71 58
104 33 30 35 34 10 17 -43 -29 -42 -14 2 69 20 35 28 58 20 50 -8 -9 -35 -56
-60 -105 -25 -50 -43 -76 -40 -60 4 17 20 57 36 90 20 41 23 52 9 35 -11 -14
-34 -61 -51 -105 -17 -43 -44 -98 -60 -122 -53 -77 -109 -203 -90 -203 4 0 21
35 39 78 18 42 41 88 51 102 l20 25 -6 -65 c-3 -36 -14 -85 -24 -109 -18 -41
-18 -71 0 -42 12 18 21 0 19 -35 -1 -28 -33 -74 -49 -74 -4 0 -10 24 -12 53
l-3 52 -2 -61 c-2 -48 -8 -70 -32 -107 -32 -51 -45 -60 -35 -24 4 16 1 14 -11
-8 -9 -16 -16 -48 -16 -69 1 -22 -1 -49 -5 -61 -6 -19 -7 -19 -14 5 l-7 25 -1
-27 c-1 -30 -20 -78 -31 -78 -12 0 0 130 16 179 18 58 12 64 -9 9 -25 -67 -47
-168 -47 -221 0 -34 -11 -74 -36 -130 -19 -45 -44 -115 -55 -157 l-19 -75 5
91 c2 50 13 119 24 154 11 35 19 66 17 68 -5 4 -42 -110 -51 -154 -9 -47 -15
-256 -7 -268 16 -26 29 -101 24 -144 -3 -31 -17 -65 -42 -102 -60 -89 -94
-166 -104 -235 -2 -16 -9 -45 -15 -63 -17 -55 8 -33 33 28 21 53 89 164 106
175 4 3 2 -16 -6 -41 -7 -25 -18 -79 -23 -120 -6 -46 -21 -99 -40 -140 -37
-79 -38 -83 -9 -58 21 19 21 19 13 -1 -4 -11 -16 -47 -27 -80 -36 -109 -60
-160 -88 -190 -31 -35 -60 -76 -60 -87 0 -18 16 -6 38 28 13 20 25 34 27 32 2
-2 -3 -30 -11 -63 -16 -70 -19 -185 -4 -185 6 0 10 30 10 70 0 48 6 82 17 103
14 27 18 29 21 13 3 -15 6 -16 13 -5 6 10 9 3 9 -21 0 -54 18 -108 38 -112 13
-3 6 -15 -34 -58 -98 -106 -153 -187 -180 -263 -22 -61 1 -39 43 43 39 76 102
169 115 170 4 0 -4 -30 -18 -67 -28 -73 -45 -149 -36 -158 4 -3 16 31 28 77
12 46 34 108 48 138 l25 55 -5 -90 c-4 -49 -9 -94 -13 -100 -9 -16 -8 -59 2
-66 14 -10 -7 -66 -59 -156 -24 -43 -54 -109 -65 -148 -11 -38 -23 -77 -26
-85 -3 -8 -5 -19 -4 -24 3 -13 -20 -36 -52 -52 -40 -21 -43 -12 -7 24 29 30
42 54 18 34 -7 -5 -30 -17 -50 -25 l-38 -16 15 28 c8 16 26 43 41 60 15 18 19
29 11 25 -9 -3 -35 -35 -58 -71 -24 -36 -59 -75 -78 -88 -20 -12 -47 -34 -60
-49 -14 -14 -29 -26 -34 -26 -6 0 -3 8 6 18 10 10 17 24 17 30 0 6 9 16 20 22
11 6 20 17 20 24 0 8 24 35 53 62 28 26 41 41 29 35 -13 -7 -41 -28 -62 -47
-20 -19 -43 -34 -49 -34 -6 0 -11 -4 -11 -8 0 -4 -14 -23 -31 -42 l-30 -35 28
53 c15 30 57 86 93 125 38 42 50 60 30 43 -40 -33 -99 -101 -130 -151 -12 -19
-26 -35 -31 -35 -5 0 -17 -17 -26 -37 -17 -38 -103 -140 -103 -123 0 5 5 12
11 15 6 4 8 14 4 23 -3 9 -3 14 0 10 3 -3 19 8 36 24 16 17 28 32 26 34 -2 3
-10 -2 -17 -11 -7 -8 -18 -15 -26 -15 -7 0 -20 -7 -28 -16 -29 -28 -19 11 12
47 l27 33 -40 -23 c-40 -24 -76 -52 -45 -36 8 5 4 -4 -9 -18 -29 -32 -42 -37
-15 -5 17 19 17 21 1 15 -15 -6 -14 0 8 40 13 26 35 53 47 60 13 7 17 12 10
13 -13 0 -93 -38 -102 -49 -3 -3 -14 -8 -25 -9 -11 -2 -29 -11 -40 -21 -57
-48 -58 -49 -50 -11 4 19 10 40 14 45 6 11 8 17 10 40 0 8 25 29 54 46 28 17
43 28 32 24 -23 -7 -25 -8 -44 -6 -10 1 -8 9 10 27 13 15 17 23 8 18 -23 -13
-89 -72 -89 -80 0 -4 -16 -27 -37 -52 -32 -39 -37 -42 -46 -26 -10 18 3 33 59
72 10 7 1 4 -20 -8 l-39 -21 5 73 6 73 -14 -50 c-7 -27 -14 -62 -14 -76 0 -19
-11 -35 -35 -53 -40 -31 -44 -27 -13 17 20 30 18 29 -20 -8 -23 -21 -42 -36
-42 -31 0 15 23 52 44 69 17 14 18 16 3 11 -16 -6 -15 0 8 47 15 30 37 68 48
84 21 30 21 30 0 12 -11 -10 -28 -33 -39 -52 -13 -24 -33 -41 -67 -55 -27 -12
-51 -19 -54 -16 -3 3 5 20 17 38 21 32 21 32 -11 -4 -31 -35 -64 -53 -127 -73
-22 -6 -23 -5 -12 17 8 15 3 12 -15 -10 -15 -18 -40 -39 -56 -47 -26 -14 -28
-14 -22 2 3 10 10 23 15 29 4 6 5 20 1 29 -3 10 -2 16 3 13 5 -4 10 6 10 20 2
24 1 25 -10 8 -25 -42 -214 -212 -224 -202 -17 17 96 126 131 126 6 0 8 3 5 6
-4 3 -20 -2 -37 -10 -17 -9 -33 -15 -35 -14 -3 2 -21 -13 -40 -31 -21 -20 -36
-29 -36 -21 0 8 -13 -6 -28 -31 -16 -24 -36 -50 -45 -58 -15 -12 -17 -10 -17
23 0 27 9 46 37 78 21 24 26 33 12 21 -36 -33 -40 -29 -24 24 8 26 12 49 10
51 -2 2 -13 -26 -24 -63 -12 -37 -34 -84 -50 -104 -69 -87 -160 -331 -123
-331 4 0 13 30 20 67 13 70 74 210 110 253 l21 25 -6 -45 c-3 -25 -14 -57 -25
-72 -22 -32 -57 -108 -58 -125 0 -23 18 -14 24 12 3 13 16 41 29 62 l22 38 3
-47 c3 -41 -2 -54 -27 -85 -38 -49 -122 -208 -114 -217 13 -12 22 -5 32 27 6
17 25 52 41 77 l30 45 -7 -64 c-4 -47 -3 -62 5 -57 7 4 12 22 13 39 1 31 16
91 18 73 1 -5 9 -2 18 5 15 13 16 11 11 -16 -3 -16 -3 -52 2 -79 6 -41 3 -58
-16 -100 -12 -28 -26 -64 -30 -80 -6 -25 -4 -28 10 -23 20 8 21 11 -9 -47 -14
-27 -25 -56 -25 -63 0 -8 -9 -32 -21 -54 -11 -22 -18 -46 -16 -52 2 -7 10 0
17 16 7 15 17 27 22 27 4 0 8 6 8 13 0 7 11 28 25 47 l25 34 0 -53 c0 -29 -5
-61 -10 -72 -7 -13 -7 -19 0 -19 20 0 10 -27 -31 -81 -49 -65 -73 -109 -60
-109 5 0 19 16 31 36 12 19 24 33 27 30 2 -2 -2 -14 -9 -25 -10 -17 -10 -23
-1 -29 10 -6 9 -19 -2 -56 -17 -55 -20 -100 -6 -92 4 3 11 22 14 42 8 48 56
174 67 174 20 0 18 -21 -7 -65 -14 -26 -27 -60 -29 -76 -5 -38 -27 -81 -75
-142 -22 -27 -39 -53 -39 -58 0 -18 16 -9 32 19 9 15 25 35 35 44 25 23 -65
-160 -99 -200 -26 -32 -44 -70 -36 -78 3 -2 21 20 41 48 34 50 127 149 127
136 0 -3 -11 -26 -25 -49 -14 -24 -25 -50 -25 -57 0 -20 47 18 60 50 10 23 60
79 60 67 0 -3 -18 -52 -39 -110 -45 -119 -57 -169 -43 -169 6 0 13 13 17 30 7
34 44 111 45 94 0 -6 -7 -28 -15 -48 -13 -32 -14 -37 -1 -42 12 -4 5 -23 -29
-90 -24 -46 -41 -84 -37 -84 4 0 25 23 45 50 21 28 42 50 47 50 13 0 13 -6 -4
-38 -43 -86 -24 -97 22 -12 30 53 65 96 49 59 -45 -108 -56 -140 -63 -174 -4
-22 -17 -53 -29 -70 -31 -41 -68 -116 -61 -123 8 -7 6 -9 50 71 20 37 39 67
42 67 7 0 -5 -152 -16 -202 -11 -54 0 -54 27 0 19 39 22 42 18 17 -2 -16 -7
-40 -11 -52 -4 -14 -2 -23 5 -23 6 0 11 6 11 13 0 8 9 22 20 32 11 10 20 24
20 32 0 8 7 28 16 45 19 37 40 25 25 -15 -6 -16 -7 -29 -1 -32 5 -3 13 7 16
22 8 30 53 133 59 133 2 0 -1 -15 -6 -32 -14 -52 -12 -63 8 -47 15 12 16 12
10 -4 -4 -10 -7 -22 -7 -27 0 -5 -18 -30 -40 -55 -45 -51 -65 -85 -52 -85 5 0
23 21 42 46 22 31 35 42 40 34 5 -8 11 -2 17 16 9 26 11 23 17 -36 9 -86 24
-162 36 -180 17 -28 19 -4 4 45 -9 28 -16 89 -17 137 -2 74 1 90 17 105 18 17
19 17 11 -2 -4 -11 -10 -31 -12 -45 -4 -24 -4 -24 11 -6 9 11 16 25 17 30 0 6
5 0 11 -14 6 -14 12 -69 14 -123 2 -54 8 -106 14 -115 8 -13 10 -8 8 23 -1 22
0 78 2 125 3 82 3 83 10 30 5 -50 7 -52 14 -25 4 17 16 53 26 80 18 50 18 50
25 20 20 -86 27 -105 35 -105 5 0 4 13 -2 30 -11 32 -4 95 12 105 22 13 26
-60 8 -129 -19 -74 -24 -146 -9 -146 4 0 11 28 14 63 3 34 10 73 15 87 l9 25
18 -35 c21 -40 32 -25 16 22 -13 38 -14 78 -2 78 14 0 21 -27 21 -80 0 -27 5
-52 10 -55 6 -3 10 4 10 16 0 18 2 19 15 9 18 -15 21 1 5 31 -8 15 -7 19 4 19
8 0 16 5 18 11 2 6 14 -10 26 -35 24 -47 56 -62 68 -31 17 44 44 -3 44 -79 0
-17 4 -37 9 -44 5 -8 10 21 14 72 7 97 20 135 32 95 9 -31 35 -60 46 -53 5 3
2 18 -6 34 -20 39 -19 45 9 58 21 9 24 8 32 -20 13 -43 34 -48 34 -9 0 22 5
31 16 31 14 0 16 -7 11 -40 -5 -37 -3 -40 14 -35 11 4 19 2 19 -4 0 -6 5 -11
11 -11 6 0 8 7 5 16 -8 20 11 91 26 100 7 5 9 2 5 -9 -3 -9 -2 -19 3 -22 5 -3
6 -28 3 -55 -4 -34 -2 -50 6 -50 6 0 11 12 12 28 1 25 2 25 12 -8 5 -19 9 -70
8 -112 -2 -80 12 -107 22 -40 2 20 12 53 20 72 15 33 16 34 22 13 4 -13 12
-23 17 -23 6 0 7 8 3 18 -14 32 -17 70 -6 76 6 4 15 -11 22 -36 14 -52 48
-122 56 -114 3 3 -4 28 -16 55 -22 53 -27 91 -12 107 5 5 14 26 21 47 19 59
28 35 28 -69 0 -61 4 -100 11 -107 9 -9 10 4 5 56 -6 60 -5 67 10 61 13 -5 16
1 17 37 1 35 2 39 8 19 7 -24 7 -24 20 -5 11 18 12 18 6 -8 -5 -25 -4 -27 20
-21 19 5 25 2 25 -10 0 -17 33 -39 44 -29 3 3 6 -3 6 -15 0 -15 5 -20 15 -16
10 4 13 13 10 25 -4 10 -2 26 4 36 8 15 10 14 16 -12 11 -46 46 -125 56 -125
5 0 11 12 15 28 17 78 27 106 32 92 3 -8 9 -18 14 -21 5 -3 4 -17 -2 -33 -12
-34 -13 -46 -1 -46 5 0 11 10 13 23 2 16 9 21 25 19 12 -2 24 2 28 8 11 17 25
1 25 -28 -1 -15 -7 -38 -15 -52 -19 -33 -18 -45 1 -65 12 -11 13 -19 5 -29 -6
-7 -8 -16 -4 -20 4 -3 17 6 30 21 18 23 22 25 23 10 0 -11 -22 -43 -49 -73
-27 -31 -57 -72 -67 -92 -10 -20 -27 -49 -37 -64 -26 -39 -49 -98 -38 -98 5 0
25 28 45 63 19 35 53 83 75 108 34 38 39 41 35 19 -5 -20 -3 -22 5 -10 9 13
11 12 11 -5 0 -11 -17 -43 -38 -71 -66 -87 -139 -244 -114 -244 5 0 19 27 31
60 12 34 49 101 82 150 64 95 87 120 44 47 -14 -24 -23 -46 -20 -49 3 -3 -9
-34 -26 -69 -30 -60 -67 -173 -75 -229 -2 -14 -12 -65 -22 -115 -10 -49 -17
-96 -14 -102 8 -24 19 -13 24 25 3 21 22 71 42 112 20 41 34 63 31 47 -8 -42
10 -32 24 13 6 22 18 40 26 40 7 0 17 9 20 20 3 11 11 20 17 20 6 0 3 -10 -6
-23 -9 -12 -30 -49 -46 -82 -17 -33 -41 -77 -55 -97 -14 -20 -21 -39 -16 -43
5 -3 21 14 35 37 14 24 35 54 46 68 l21 25 -6 -40 c-4 -22 -20 -61 -36 -86
-29 -46 -37 -79 -20 -79 5 0 14 12 19 28 10 25 10 26 11 4 1 -13 -10 -38 -23
-55 -33 -45 -58 -96 -51 -107 3 -5 1 -11 -5 -15 -5 -3 -10 -10 -10 -16 0 -17
15 -9 32 18 9 15 25 27 37 28 20 2 20 1 2 -29 -31 -51 -91 -173 -91 -185 0
-27 18 -4 54 70 24 49 43 76 48 71 6 -6 3 -22 -6 -41 -27 -51 -3 -35 27 19 15
27 32 52 38 56 6 3 -4 -18 -20 -48 -32 -56 -35 -69 -50 -199 -5 -42 -12 -97
-16 -121 -4 -27 -3 -48 3 -52 6 -3 8 -16 4 -28 -3 -15 -2 -19 7 -14 9 6 10 0
5 -21 -11 -44 7 -19 28 39 22 64 38 83 38 45 0 -34 -39 -134 -84 -217 -20 -36
-36 -73 -36 -83 0 -27 18 -11 25 23 4 16 11 32 15 35 5 3 0 -20 -10 -51 -20
-58 -27 -106 -12 -88 4 5 14 32 20 59 7 28 22 62 32 77 11 15 20 34 20 43 0
21 24 14 28 -8 2 -9 -7 -30 -19 -46 -12 -17 -23 -38 -24 -48 -1 -10 -8 -31
-15 -46 -11 -22 -11 -30 -2 -36 9 -5 9 -16 1 -42 -12 -39 -19 -159 -9 -159 3
0 14 25 24 56 21 67 31 66 15 -2 -6 -27 -13 -62 -14 -79 -2 -16 -15 -62 -29
-102 -35 -95 -63 -264 -49 -295 8 -18 11 -8 17 57 4 44 16 118 27 164 16 72
26 92 65 138 26 30 48 52 50 50 2 -2 -6 -30 -17 -62 -11 -32 -18 -66 -16 -76
3 -9 -4 -41 -14 -70 -20 -60 -24 -99 -9 -99 6 0 10 12 11 28 1 35 22 95 35 99
7 2 5 -24 -4 -68 -11 -54 -24 -84 -53 -122 -21 -28 -35 -55 -33 -59 3 -5 19 9
35 32 16 22 31 40 33 40 7 0 -14 -99 -33 -152 -12 -32 -21 -67 -21 -78 0 -28
20 -15 20 13 1 12 7 36 15 52 13 29 13 27 8 -25 -6 -50 -12 -61 -64 -118 -54
-59 -97 -128 -86 -138 2 -3 16 14 30 38 14 24 44 65 68 91 36 41 44 46 51 32
7 -11 4 -29 -6 -56 -18 -44 -21 -93 -6 -84 6 3 10 15 10 26 0 20 50 148 70
179 21 33 17 0 -11 -85 -25 -78 -44 -162 -65 -292 -3 -18 -1 -33 3 -33 10 0
33 79 33 110 0 26 42 152 48 145 5 -5 4 -111 -3 -178 -2 -21 -12 -48 -22 -60
-21 -24 -53 -73 -53 -82 0 -17 21 2 49 45 18 27 37 53 44 57 6 4 1 -9 -11 -28
-29 -45 -148 -267 -163 -304 -19 -49 -49 -168 -49 -197 0 -16 5 -28 10 -28 6
0 10 12 10 28 1 78 71 270 134 365 45 68 62 82 42 34 -8 -20 -12 -38 -9 -41 3
-3 -8 -21 -26 -41 -17 -20 -31 -41 -31 -48 0 -7 11 1 23 17 13 16 29 26 35 22
7 -4 20 10 32 35 12 22 23 39 26 37 9 -9 -40 -104 -72 -142 -19 -22 -34 -44
-34 -50 0 -6 12 3 26 19 14 17 24 23 21 15 -23 -79 -51 -160 -63 -183 -9 -15
-17 -36 -19 -46 -2 -11 -15 -36 -29 -58 -24 -36 -44 -93 -33 -93 3 0 15 20 27
45 12 25 27 51 34 58 6 7 19 25 29 40 10 16 21 27 24 24 2 -3 -21 -54 -52
-114 -59 -113 -71 -163 -56 -234 7 -32 4 -38 -65 -111 -71 -74 -111 -134 -100
-146 3 -3 7 -3 9 -1 49 76 85 123 123 159 32 31 43 37 34 21 -7 -13 -13 -36
-15 -50 -1 -14 -12 -48 -24 -74 -12 -27 -25 -65 -28 -85 -4 -20 -21 -56 -40
-80 -18 -24 -33 -48 -33 -53 0 -20 16 -7 43 35 27 44 54 73 61 65 3 -5 -9
-117 -15 -138 -2 -8 5 -15 19 -17 18 -3 22 1 22 24 0 31 24 71 35 60 15 -15
-7 -79 -49 -140 -52 -76 -79 -128 -72 -136 7 -7 6 -8 45 60 34 61 51 79 51 54
0 -9 5 -16 10 -16 6 0 10 13 10 30 0 19 11 41 30 62 l29 33 2 -40 1 -40 13 45
13 45 -5 -58 c-4 -39 -2 -57 6 -57 6 0 11 17 11 40 0 22 5 40 11 40 13 0 4
-77 -19 -160 -8 -30 -21 -77 -28 -105 -16 -56 -18 -105 -5 -105 4 0 11 26 14
58 6 58 40 169 57 186 5 5 -2 -24 -15 -65 -13 -41 -26 -96 -30 -124 -4 -27
-14 -62 -22 -77 -8 -17 -9 -28 -3 -28 17 0 11 -22 -25 -94 -19 -37 -35 -78
-34 -90 0 -12 13 6 31 46 21 46 34 65 44 61 10 -4 14 3 14 25 0 46 16 47 17 1
2 -32 -8 -53 -51 -119 -50 -74 -73 -126 -62 -137 2 -2 16 18 30 47 14 28 39
70 55 94 32 46 71 67 71 38 0 -14 2 -14 9 -3 7 11 11 9 21 -9 10 -18 14 -20
21 -9 6 10 9 2 9 -24 0 -23 4 -36 10 -32 6 3 10 21 10 39 0 48 11 97 21 91 4
-3 6 -12 2 -20 -3 -8 -1 -15 5 -15 6 0 4 -22 -3 -57 -30 -136 -24 -170 15 -93
11 22 24 40 28 40 12 0 33 -40 27 -50 -4 -6 -2 -10 3 -10 5 0 12 18 16 40 6
38 26 57 26 25 0 -8 4 -15 10 -15 5 0 7 13 4 29 -3 16 -1 31 4 35 6 4 13 -23
17 -71 7 -95 14 -128 23 -119 3 4 6 24 5 44 -2 37 -2 37 9 10 14 -33 33 -38
24 -6 -4 13 -9 50 -11 83 l-5 60 21 -82 c11 -46 25 -83 31 -83 6 0 8 11 4 26
-4 15 -8 38 -10 53 -2 14 -1 18 1 9 2 -10 9 -18 14 -18 5 0 9 8 10 18 0 10 3
12 6 4 2 -6 9 -10 14 -6 5 3 9 -5 10 -18 l0 -23 10 24 9 23 21 -25 c11 -15 27
-50 35 -79 19 -62 44 -109 56 -102 4 3 -1 22 -11 42 -24 46 -55 151 -47 159 3
3 11 -6 17 -21 7 -14 16 -26 21 -26 4 0 8 -17 8 -37 0 -43 9 -83 19 -83 3 0 6
25 6 55 0 36 5 59 14 64 10 7 11 13 1 32 -10 22 -10 23 4 5 8 -10 17 -24 19
-30 2 -6 8 -8 12 -4 4 4 2 23 -5 43 -19 58 -5 51 16 -7 16 -43 24 -53 43 -54
22 -1 23 1 16 50 -4 31 -3 47 3 41 16 -17 32 -76 32 -116 0 -47 20 -53 21 -6
2 67 18 157 28 157 12 0 41 -109 42 -156 0 -44 11 -29 25 41 5 22 14 39 19 39
6 -1 21 -22 35 -48 28 -53 41 -59 35 -15 -2 20 1 32 11 36 8 3 14 18 14 36 0
29 1 30 19 13 19 -18 20 -17 24 30 3 42 4 40 5 -18 1 -37 7 -70 12 -73 6 -3
10 3 10 14 0 12 5 21 10 21 6 0 8 11 4 26 -5 18 -3 25 3 21 6 -4 14 -27 17
-52 4 -25 11 -45 16 -45 5 0 18 -20 29 -45 11 -25 25 -45 30 -45 14 0 14 6 -4
40 -9 18 -12 37 -7 50 6 17 10 12 25 -32 9 -29 18 -62 20 -73 5 -26 9 -13 31
86 10 42 24 85 31 95 13 17 14 15 15 -22 0 -44 17 -144 25 -152 12 -12 15 9 7
46 -12 51 -3 63 15 21 21 -51 24 -28 7 44 -15 60 -15 67 -1 82 13 12 14 21 5
40 -11 25 -3 79 11 71 4 -3 11 -37 15 -76 6 -66 41 -169 58 -170 4 0 4 22 1
50 -4 34 -2 50 6 50 6 0 11 -4 11 -10 0 -5 7 -10 15 -10 8 0 15 -5 15 -11 0
-14 25 -6 26 9 1 7 2 19 3 27 2 22 22 18 28 -5 7 -27 23 -25 23 3 0 12 12 -12
27 -53 14 -41 27 -77 29 -79 12 -14 12 14 -1 75 -9 42 -11 72 -5 78 11 11 17
-3 23 -63 3 -24 11 -49 18 -55 9 -8 10 -5 5 14 -3 14 -8 43 -11 65 -4 36 -3
35 8 -10 8 -31 19 -50 28 -50 8 0 13 8 11 20 -2 11 -6 34 -9 51 -3 18 0 35 6
38 6 4 11 26 12 49 0 41 17 99 19 67 6 -109 32 -210 52 -210 6 0 7 7 4 16 -12
32 -29 153 -23 168 10 27 30 19 23 -9 -4 -14 -2 -25 2 -25 5 0 12 -29 16 -64
7 -68 22 -125 39 -141 6 -7 7 0 3 20 -16 76 -18 101 -6 83 16 -25 44 -24 37 2
-3 11 -1 23 5 26 5 3 12 -3 15 -15 3 -12 10 -21 15 -21 5 0 6 10 2 23 -15 49
-14 51 6 14 24 -44 39 -44 17 0 -24 45 -48 136 -39 145 5 5 14 -10 21 -32 18
-61 28 -48 24 33 -3 55 -1 69 7 57 10 -12 11 -10 6 10 -3 16 1 31 14 45 13 14
16 25 10 35 -8 12 -10 10 -10 -9 0 -18 -3 -22 -11 -14 -8 8 -6 18 7 37 11 14
22 26 26 26 9 0 60 -107 77 -162 7 -21 17 -38 22 -38 12 0 12 0 -5 48 -8 22
-20 75 -26 117 -10 64 -9 79 2 86 10 7 10 9 0 9 -14 0 -12 76 3 99 5 10 4 16
-3 19 -7 2 -12 9 -12 17 0 14 30 42 31 29 0 -5 2 -19 5 -32 2 -13 -1 -32 -7
-44 -6 -11 -7 -18 -2 -15 5 3 10 -25 11 -61 3 -85 14 -134 31 -140 10 -3 11 2
6 19 -5 13 -11 52 -15 87 -5 52 -4 62 8 57 11 -4 12 -1 6 12 -4 10 -10 46 -12
80 -3 53 -1 62 15 66 14 4 15 5 2 6 -15 1 -15 8 2 81 10 44 35 113 54 153 19
39 27 63 17 52 -10 -11 -24 -21 -32 -23 -8 -2 -31 -15 -50 -30 -66 -50 -78
-37 -24 26 19 23 28 39 20 36 -19 -7 -21 6 -3 26 6 8 -2 3 -19 -13 -43 -39
-54 -33 -14 8 34 35 33 50 -2 18 -10 -9 -20 -14 -23 -12 -7 7 25 92 41 110 8
9 11 18 8 21 -3 4 0 16 6 28 7 12 8 20 2 16 -5 -3 -15 -19 -22 -36 -7 -16 -18
-30 -26 -30 -7 0 -22 -10 -34 -22 -11 -12 -20 -18 -20 -13 0 13 44 75 53 75 4
0 7 11 7 24 0 15 12 33 35 50 19 15 34 32 32 38 -1 6 12 21 30 32 35 23 45 43
12 26 -16 -9 -106 -40 -117 -40 -2 0 0 5 3 10 3 6 1 10 -4 10 -19 0 -12 66 9
85 10 9 18 21 17 25 -1 5 7 16 18 25 17 14 15 13 -12 -1 -18 -10 -30 -21 -27
-25 2 -4 -1 -11 -8 -15 -7 -4 -10 -4 -6 1 4 4 3 16 -3 26 -5 11 -6 18 -2 17
14 -4 53 26 53 41 0 11 -4 11 -18 -2 -22 -20 -32 -21 -32 -4 0 6 17 22 38 35
20 13 28 20 17 16 -11 -3 -29 -9 -40 -12 -19 -5 -19 -4 -3 15 10 10 38 29 63
42 44 22 61 37 28 24 -34 -13 -1 18 50 47 64 36 58 38 -17 5 -69 -30 -74 -31
-50 -4 19 22 19 22 -3 10 -12 -6 -24 -11 -27 -11 -11 0 -6 39 7 47 6 4 21 19
32 32 l20 25 -32 -22 c-29 -21 -38 -14 -20 15 4 6 3 13 -3 15 -6 2 -2 35 10
82 11 43 20 80 20 82 0 1 6 9 13 16 12 13 39 78 32 78 -2 0 -13 -16 -25 -34
-29 -48 -110 -97 -110 -66 0 5 12 16 28 24 15 9 20 16 12 16 -11 0 -8 6 9 20
18 15 19 20 7 20 -17 0 -18 6 -18 115 0 132 18 166 109 210 56 27 46 35 -12
10 -61 -27 -75 -30 -75 -15 0 6 7 10 15 10 13 0 14 4 5 20 -9 16 -8 22 5 27
13 4 14 8 4 14 -9 5 -2 14 22 29 25 16 28 21 12 17 -37 -8 -22 39 25 82 15 13
21 20 15 17 -20 -11 -15 8 8 38 11 14 28 26 37 27 11 0 12 2 4 6 -6 2 -9 10
-5 16 4 6 -6 2 -21 -11 -30 -23 -52 -29 -40 -11 4 7 -1 7 -16 -1 -32 -17 -35
-6 -10 37 16 28 17 33 3 17 -16 -20 -83 -60 -83 -51 0 2 11 17 25 33 14 16 26
37 26 47 2 30 4 35 13 44 5 5 6 3 2 -4 -10 -18 5 -16 29 3 l20 16 -20 -2 c-11
-1 -25 -2 -32 -1 -19 2 26 70 61 93 17 11 23 18 14 14 -27 -8 -22 7 12 39 32
30 43 59 13 33 -24 -21 -63 -32 -63 -18 0 7 -7 7 -22 -1 l-23 -12 20 23 c18
21 18 23 2 17 -11 -4 -16 -3 -12 4 4 6 13 8 20 6 7 -3 30 6 51 19 22 14 30 23
19 20 -62 -15 -75 -18 -75 -12 0 10 30 56 69 106 32 42 32 43 5 18 -16 -15
-43 -50 -59 -77 -25 -42 -62 -71 -91 -71 -9 0 12 38 33 61 19 21 21 28 10 32
-8 3 -20 0 -27 -6 -7 -7 -3 3 9 21 12 17 26 32 31 32 5 0 26 11 46 25 35 24
36 25 10 23 -14 -1 -26 -6 -26 -11 0 -4 -5 -5 -12 -1 -7 5 -8 3 -3 -6 6 -10 4
-12 -7 -7 -9 3 -21 0 -27 -6 -6 -6 -14 -7 -18 -3 -10 10 33 42 82 61 l40 15
-35 -6 c-19 -3 -39 -10 -45 -15 -5 -5 -13 -9 -19 -9 -14 0 25 40 59 61 17 11
26 19 21 19 -5 0 -24 -10 -43 -21 l-34 -21 35 66 c20 37 43 74 51 82 20 20 19
30 0 14 -9 -7 -32 -39 -52 -71 -20 -33 -42 -59 -49 -59 -8 0 -14 2 -14 4 0 14
52 140 67 163 10 15 24 40 31 55 6 15 28 46 49 70 l37 43 -38 -35 c-20 -19
-46 -49 -57 -67 -21 -34 -136 -104 -125 -77 3 9 6 20 6 24 0 5 17 21 38 36 27
19 31 24 13 19 -21 -6 -23 -5 -17 11 4 11 -7 2 -24 -18 -17 -21 -36 -38 -42
-38 -6 0 -5 7 3 17 10 11 10 14 2 9 -9 -5 -13 0 -13 18 0 19 10 29 44 45 24
12 48 21 52 19 5 -1 19 6 32 17 12 11 32 23 45 27 l22 6 -22 1 c-12 1 -52 -10
-88 -23 -51 -18 -63 -20 -53 -8 11 13 10 15 -6 9 -16 -6 -14 -2 8 27 14 19 26
39 26 45 0 22 147 110 187 112 11 0 13 3 5 6 -7 3 -32 -2 -55 -11 -36 -14 -39
-14 -23 -1 11 8 15 15 9 15 -7 0 -18 -6 -25 -13 -24 -23 -93 -72 -118 -85 -25
-12 -25 -12 -4 5 12 10 41 33 65 51 l44 33 -47 -5 c-27 -4 -48 -4 -48 0 0 15
25 52 54 77 l31 28 -35 -16 c-19 -9 -43 -20 -52 -25 -21 -12 -24 2 -5 22 6 8
18 24 25 37 14 25 19 24 -49 5 -34 -10 -9 25 77 105 50 47 65 65 43 52 -19
-11 -50 -36 -69 -56 -18 -19 -38 -35 -44 -35 -6 0 -20 -12 -33 -27 -12 -16
-22 -23 -23 -17 0 6 29 41 65 77 46 46 88 77 138 101 39 19 69 35 66 36 -14 1
-88 -29 -157 -63 -74 -37 -94 -32 -44 11 17 15 20 22 10 18 -23 -7 -25 32 -3
40 8 4 15 14 15 23 0 10 17 37 37 62 l37 44 -42 -39 c-32 -31 -40 -35 -35 -18
3 12 17 34 32 48 14 15 20 24 14 20 -41 -23 30 93 108 179 56 61 59 66 22 37
-24 -19 -45 -37 -47 -41 -2 -3 -24 -6 -48 -6 l-43 0 2 60 c0 33 2 71 3 85 l3
25 10 -23 c5 -12 14 -22 19 -22 11 0 10 0 -6 48 -14 39 -12 82 4 82 4 0 12 11
18 24 6 14 26 29 47 36 45 15 41 23 -5 10 -41 -12 -45 -9 -30 22 10 19 10 21
-1 11 -21 -21 -29 -15 -29 22 0 39 23 65 83 96 20 11 37 21 37 24 0 7 -74 -3
-103 -14 l-29 -11 29 31 c15 17 48 46 72 65 52 40 51 41 -14 10 -27 -14 -52
-23 -54 -21 -2 2 11 23 30 47 18 24 26 37 19 31 -22 -20 -25 -16 -28 31 -3 47
15 74 25 37 3 -12 10 -21 15 -21 6 0 8 10 4 23 -16 57 -17 96 -5 118 12 22 14
17 26 -65 14 -95 16 -102 32 -91 7 4 8 13 2 23 -4 9 -11 34 -15 55 -5 28 -4
37 6 35 7 -2 14 8 16 22 2 14 8 41 14 60 11 34 12 34 19 10 7 -24 7 -24 8 5 1
17 5 41 8 55 7 23 8 21 14 -15 l6 -40 2 38 c1 40 21 43 21 3 0 -25 45 -145 60
-160 15 -15 13 5 -5 47 -17 41 -21 142 -5 132 6 -3 10 -19 10 -36 0 -16 5 -29
11 -29 5 0 9 8 8 18 -3 30 1 46 8 38 5 -4 7 -35 5 -69 -2 -37 1 -57 6 -49 5 8
12 -5 21 -38 7 -27 18 -53 23 -57 8 -4 9 5 3 28 -10 43 -14 180 -5 174 4 -3
13 -32 21 -65 14 -64 24 -74 38 -37 10 25 13 20 31 -50 6 -23 16 -45 22 -49 8
-5 9 0 4 17 -34 110 -39 179 -14 179 5 0 7 -4 4 -8 -3 -5 -1 -22 4 -38 7 -25
9 -20 10 31 l1 60 23 -98 c12 -54 28 -103 36 -110 10 -10 11 -7 6 13 -19 71
-36 158 -35 185 1 17 3 22 6 13 2 -10 8 -18 13 -18 5 0 11 -15 13 -32 3 -18 4
-6 4 27 -2 71 9 97 29 70 9 -11 21 -16 36 -12 20 5 26 -2 45 -41 12 -26 25
-74 28 -107 7 -64 25 -100 25 -50 0 30 44 115 60 115 5 0 12 -16 16 -35 3 -19
11 -35 16 -35 6 0 8 12 4 30 -3 17 0 42 6 58 12 27 12 27 18 -18 7 -43 7 -42
9 20 1 47 7 72 21 90 26 34 34 21 19 -31 -18 -61 -18 -313 -1 -361 8 -21 18
-38 24 -38 6 0 7 8 3 18 -25 64 -34 276 -13 344 l11 39 14 -32 c7 -17 10 -35
7 -40 -6 -11 -34 -116 -34 -130 0 -24 18 4 25 37 3 20 9 34 11 31 3 -3 14 3
25 14 13 13 17 27 13 44 -4 15 -2 25 5 25 6 0 11 -1 11 -3 0 -1 9 -26 20 -56
20 -55 19 -59 -6 -178 -2 -13 0 -23 5 -23 5 0 13 20 17 45 7 53 24 70 24 26 0
-17 5 -31 11 -31 6 0 9 14 8 33 -4 55 12 137 28 137 11 0 11 4 3 20 -13 24 -5
41 15 33 12 -4 15 -26 15 -104 0 -59 4 -99 10 -99 6 0 11 24 12 53 0 30 4 11
8 -48 10 -159 27 -162 24 -3 -1 73 0 113 3 88 9 -87 22 -63 16 29 -4 61 -3 91
5 91 6 0 18 22 27 50 9 27 20 52 25 55 13 8 0 -95 -16 -127 -18 -35 -18 -43 1
-28 8 7 15 10 15 7 0 -2 -7 -21 -15 -40 -17 -42 -19 -67 -5 -67 6 0 10 9 10
20 0 11 5 20 10 20 6 0 10 -9 10 -20 0 -11 5 -20 11 -20 7 0 9 10 5 26 -6 21
-4 25 7 21 11 -4 16 6 20 40 2 24 10 50 16 56 9 9 11 0 5 -40 -7 -56 0 -103
16 -103 6 0 10 8 11 18 0 10 7 3 15 -17 21 -48 27 -33 8 20 -21 57 -23 158 -3
169 8 5 27 20 42 34 28 26 43 34 33 17 -3 -5 1 -11 9 -15 10 -3 15 1 15 14 0
10 7 26 16 35 23 23 41 4 61 -64 21 -74 63 -171 74 -171 14 0 11 14 -16 73
-25 55 -60 195 -51 204 3 3 8 -11 11 -31 8 -39 25 -59 25 -29 0 10 -4 35 -9
56 -5 20 -5 37 -1 37 8 0 35 -70 45 -117 4 -18 11 -33 16 -33 5 0 4 11 -1 26
-6 14 -12 65 -14 114 -4 82 -2 89 19 108 42 36 75 55 75 43 0 -7 4 -10 8 -7 4
3 7 25 6 50 -1 33 1 43 11 40 7 -3 15 4 18 15 3 12 1 19 -4 15 -5 -3 -9 -1 -9
5 0 6 14 18 31 26 17 9 29 19 26 21 -3 3 -19 -2 -36 -11 -44 -22 -38 0 7 25
32 18 25 20 -15 3 -7 -3 -13 2 -13 10 0 8 17 22 38 31 37 16 37 16 5 10 -38
-6 -47 14 -11 24 18 4 19 6 6 11 -14 5 -15 9 -3 30 l13 25 16 -32 c9 -18 21
-32 26 -32 14 0 13 5 -10 51 -12 22 -18 44 -15 48 3 5 1 11 -4 13 -4 1 -12 13
-15 26 -6 17 -3 22 11 22 14 0 15 2 5 9 -10 6 -6 15 20 36 35 29 22 25 -24 -7
-27 -19 -28 -19 -29 -1 -1 10 -2 25 -3 33 -2 22 14 51 25 45 8 -5 13 22 12 63
-1 22 14 12 27 -18 22 -53 23 -24 1 37 -26 73 -26 85 -2 107 18 16 19 15 23
-53 2 -39 9 -76 15 -82 9 -9 9 -2 2 27 -13 60 -11 154 4 154 9 0 8 3 -2 9 -16
10 -6 31 14 31 8 0 16 4 19 9 4 5 -3 7 -14 4 -34 -9 -23 18 28 65 45 43 46 44
7 16 -22 -16 -55 -45 -74 -64 -32 -34 -33 -34 -16 -5 9 17 31 43 49 58 17 16
22 24 11 19 -11 -6 -31 -22 -44 -36 -14 -14 -28 -26 -32 -26 -12 0 2 33 19 48
14 11 14 12 -3 12 -17 0 -15 5 13 33 27 27 34 30 42 17 8 -12 10 -11 10 6 0
26 10 35 81 74 70 39 54 39 -22 0 -57 -28 -73 -29 -46 -1 10 11 8 12 -10 6
-19 -5 -23 -2 -23 14 0 23 15 28 23 9 3 -7 3 1 0 18 -3 18 0 35 6 38 6 4 11
12 11 17 0 6 -5 7 -12 3 -7 -5 -8 -3 -3 5 5 9 14 6 33 -11 l25 -23 -6 24 c-3
14 -1 32 6 40 11 14 10 14 -5 2 -16 -12 -19 -10 -28 13 -7 20 -6 36 4 59 17
41 61 81 80 74 8 -3 16 2 19 13 3 11 -1 21 -9 24 -32 12 -4 74 69 156 18 20 3
8 -32 -27 -35 -35 -65 -63 -67 -63 -2 0 -8 17 -14 39 -9 34 -7 46 20 102 35
76 44 90 90 148 73 92 80 104 26 48 -54 -56 -107 -131 -135 -192 -11 -23 -15
-26 -18 -13 -3 10 5 31 16 47 12 16 21 33 21 37 0 4 8 17 17 28 10 12 2 6 -18
-11 -19 -18 -39 -33 -44 -33 -5 0 5 15 23 33 17 17 32 37 32 42 1 6 4 12 7 15
4 3 3 -1 -2 -9 -5 -10 2 -8 23 5 17 10 29 20 27 22 -3 3 -11 -1 -20 -8 -9 -7
-18 -10 -21 -7 -5 5 46 49 116 100 15 11 8 9 -19 -5 -24 -13 -64 -41 -89 -63
-77 -68 -103 -49 -29 22 50 49 137 105 204 132 26 11 42 20 35 20 -20 1 -136
-54 -186 -88 -56 -39 -63 -39 -36 2 l21 32 -23 -29 c-61 -76 -60 -76 -54 -31
l5 40 -14 -44 c-15 -46 -35 -68 -46 -50 -3 5 -13 7 -22 3 -9 -3 -15 -10 -12
-14 5 -8 -45 -50 -59 -50 -15 0 -4 17 22 32 l27 17 -27 1 c-16 0 -28 3 -28 6
0 3 14 25 30 49 41 59 127 133 203 173 65 34 41 34 -28 -1 -54 -27 -179 -111
-237 -160 -50 -40 -62 -38 -28 6 11 14 20 29 20 34 0 5 26 38 57 74 46 52 48
56 14 24 -24 -22 -61 -64 -83 -93 -22 -30 -42 -52 -44 -49 -8 8 64 123 112
178 l48 54 -48 -45 c-26 -25 -61 -66 -78 -92 -17 -27 -33 -48 -34 -48 -13 0 9
89 27 114 14 19 16 26 6 17 -9 -7 -17 -10 -17 -6 0 4 -22 -35 -49 -86 -27 -51
-55 -95 -61 -97 -8 -3 -10 0 -5 8 4 7 9 29 10 49 2 20 15 62 29 93 14 31 26
60 26 64 0 3 16 30 35 58 30 42 31 45 7 18 -16 -18 -42 -57 -57 -85 -15 -29
-44 -74 -65 -102 -20 -27 -39 -58 -43 -67 -3 -10 -11 -18 -16 -18 -6 0 -8 -6
-5 -13 2 -7 -4 -21 -15 -31 -19 -17 -19 -17 -14 3 3 12 9 21 14 21 5 0 6 7 3
15 -4 8 1 17 9 21 9 3 13 12 11 19 -8 19 33 93 91 165 11 14 -7 -1 -40 -32
-202 -191 -227 -213 -220 -188 l7 25 -18 -22 c-11 -12 -27 -36 -38 -55 -10
-18 -21 -28 -23 -21 -6 17 43 89 98 145 26 26 44 48 40 48 -9 0 -119 -115
-139 -145 -12 -19 -13 -19 -7 -1 5 16 3 17 -10 6 -8 -7 -15 -8 -15 -2 0 5 10
17 23 25 l22 15 -25 -2 c-22 -3 -45 -10 -75 -24 -5 -2 3 7 20 21 20 16 32 21
37 14 4 -7 11 -1 19 15 7 17 29 34 62 47 67 28 54 38 -14 11 -63 -24 -62 -23
-53 -8 4 6 -9 -1 -29 -16 -33 -25 -50 -25 -29 -1 10 12 33 65 28 65 -2 0 -18
-23 -36 -50 -34 -54 -96 -108 -83 -73 4 11 -9 4 -37 -20 -74 -63 -63 -7 16 83
45 52 36 48 -26 -10 -15 -14 -36 -39 -48 -56 -12 -18 -33 -34 -47 -36 -29 -6
-31 -1 -8 32 16 22 16 23 0 17 -28 -11 -19 10 16 37 17 14 27 26 20 26 -6 0
-15 -4 -18 -10 -9 -15 -27 -12 -19 3 4 6 -7 -1 -24 -17 -18 -16 -34 -27 -37
-25 -6 6 108 126 155 163 l35 27 -33 -18 c-18 -10 -60 -43 -93 -75 -32 -31
-59 -53 -59 -50 0 4 -14 -15 -30 -43 -33 -56 -38 -56 -14 0 8 20 13 40 10 43
-3 3 -11 -9 -17 -26 -6 -18 -15 -32 -20 -32 -13 0 -12 4 12 44 12 20 25 34 29
31 4 -3 7 3 6 13 0 9 5 16 12 14 8 -1 10 2 7 8 -4 6 -1 19 7 29 7 9 -10 -8
-39 -39 -29 -30 -52 -58 -53 -62 0 -5 -5 -8 -10 -8 -6 0 -33 -16 -60 -35 -27
-19 -53 -35 -56 -35 -4 0 -4 37 -1 83 4 56 3 75 -4 58 -5 -13 -10 -53 -10 -88
-1 -57 -5 -68 -30 -94 -36 -37 -44 -37 -24 1 9 17 20 28 25 25 6 -4 10 3 10
14 0 29 -3 27 -35 -20 -18 -28 -30 -38 -35 -30 -10 17 5 92 22 106 7 6 24 24
38 40 22 26 19 24 -23 -9 -26 -21 -53 -39 -60 -40 -7 -1 -17 -5 -24 -9 -7 -5
-10 3 -9 25 2 22 13 40 37 61 19 16 24 24 12 18 -31 -16 -38 -14 -22 6 13 15
12 15 -10 4 -17 -9 -20 -15 -11 -21 13 -8 9 -12 -39 -37 -20 -11 -22 -11 -17
3 3 9 6 20 6 25 0 5 7 9 16 9 8 0 13 4 9 9 -3 6 3 15 12 21 16 10 15 10 -5 5
l-22 -6 20 50 c28 72 16 63 -19 -14 -16 -36 -33 -65 -36 -65 -3 0 -3 6 1 13 4
6 -1 5 -12 -4 -92 -78 -190 -126 -137 -67 9 10 11 18 5 18 -6 0 -14 -4 -17
-10 -11 -17 -27 -11 -21 8 4 11 0 9 -10 -5 -22 -31 -35 -29 -24 5 4 15 11 41
14 57 5 27 3 25 -14 -10 -10 -22 -19 -47 -19 -56 -1 -9 -8 -22 -16 -29 -8 -7
-13 -16 -10 -20 3 -5 2 -11 -3 -14 -12 -7 -14 76 -3 107 8 19 7 27 -5 31 -10
4 -14 -2 -14 -20 0 -18 -10 -30 -35 -45 -19 -11 -37 -29 -40 -40 -4 -11 -9
-18 -12 -16 -2 3 5 23 17 46 11 23 16 41 10 41 -6 0 -13 -7 -16 -15 -4 -8 -26
-28 -50 -45 -36 -24 -43 -26 -34 -10 6 11 17 20 25 20 8 0 15 5 15 11 0 5 -4
8 -9 5 -18 -11 -19 22 -2 50 36 60 29 64 -20 12 -49 -52 -54 -50 -31 11 3 8 1
12 -5 8 -6 -4 -14 -22 -17 -40 -3 -18 -27 -58 -54 -89 -39 -48 -48 -54 -50
-37 -4 25 24 59 50 59 10 0 18 4 18 10 0 5 -7 7 -15 4 -20 -8 -19 5 2 30 11
13 7 11 -12 -5 -29 -25 -65 -44 -65 -33 0 12 74 121 93 137 12 10 53 34 92 53
76 37 75 46 -2 13 l-48 -20 30 32 c37 41 5 19 -52 -35 -58 -55 -65 -40 -8 19
53 54 42 50 -31 -12 -45 -38 -53 -41 -58 -26 -5 12 0 24 14 35 12 10 17 18 10
18 -10 0 -10 3 -1 14 10 11 8 15 -6 19 -14 3 -12 6 12 17 18 7 25 14 17 17 -8
3 -19 0 -25 -6 -18 -18 -26 -13 -24 13 1 14 12 34 24 45 34 32 40 25 8 -9 -39
-41 -19 -37 30 6 22 19 32 32 23 28 -20 -7 -24 6 -7 23 9 9 7 11 -8 7 -28 -8
-39 33 -12 41 24 8 15 25 -10 18 -25 -6 -33 18 -16 50 10 19 10 24 1 21 -8 -3
-12 7 -12 29 0 26 6 36 29 48 39 20 39 33 0 37 -40 4 -44 29 -11 75 15 22 17
28 5 18 -32 -25 -19 9 16 42 24 23 26 27 9 18 -23 -12 -24 -12 -17 21 9 42 10
42 70 67 28 11 45 20 39 20 -6 1 -28 -6 -48 -14 -20 -8 -36 -13 -36 -10 0 2
-19 -9 -42 -25 -44 -30 -54 -26 -44 15 5 18 11 23 24 18 15 -6 15 -5 -2 12
-18 18 -18 19 4 37 12 10 30 18 39 19 11 0 9 3 -6 9 -28 11 -29 24 -3 50 28
28 25 31 -17 24 -32 -5 -35 -4 -24 9 7 9 19 13 27 10 15 -5 15 -4 18 38 1 34
17 51 88 99 75 50 69 51 -17 4 l-66 -36 7 28 c11 49 21 60 29 35 3 -11 10 -19
15 -16 5 3 3 20 -5 38 -11 26 -11 37 -1 56 11 20 14 21 19 7 4 -10 11 -15 17
-11 6 4 5 14 -1 29 -12 26 4 71 22 61 5 -4 9 3 9 14 0 11 10 27 22 35 12 9 19
16 14 16 -5 0 -2 8 5 17 9 11 3 9 -15 -5 -16 -12 -33 -22 -37 -22 -5 0 -9 21
-9 48 l1 47 15 -27 c8 -16 19 -28 24 -28 13 0 12 10 -5 40 -12 23 -11 27 13
53 14 15 21 27 15 27 -6 0 -16 -7 -23 -15 -7 -8 -18 -15 -24 -15 -6 0 2 12 17
25 28 25 48 32 46 18 -4 -27 3 -53 15 -53 8 0 18 -9 21 -20 3 -11 11 -20 17
-20 6 0 7 7 3 18 -23 55 -26 110 -5 97 5 -3 12 1 17 8 4 8 15 17 23 20 12 4
12 6 -2 6 -22 1 -33 38 -18 57 11 12 14 12 27 -3 12 -16 13 -13 8 25 -5 33 -4
42 8 42 10 0 17 -15 21 -43 4 -27 14 -47 27 -55 30 -19 32 -11 9 39 -11 24
-19 58 -19 74 0 34 3 29 34 -57 9 -27 21 -48 27 -48 6 0 7 7 3 18 -14 33 -18
65 -7 58 6 -3 13 7 17 25 11 48 19 25 26 -72 9 -129 29 -140 23 -13 -2 55 -1
113 3 129 6 30 6 30 17 -14 17 -67 36 -65 29 3 -3 33 -2 56 4 56 13 0 43 -135
43 -197 0 -28 4 -55 10 -58 6 -4 8 25 4 83 -6 79 -5 91 12 108 10 10 19 25 20
32 2 28 5 32 18 32 8 0 22 -21 31 -51 25 -73 39 -58 43 44 4 114 31 114 32 0
0 -66 20 -63 22 4 1 32 1 68 1 79 -1 16 4 22 23 22 18 0 24 -6 24 -22 0 -23
26 -66 39 -66 5 0 7 30 5 68 -4 66 -3 65 20 -43 24 -113 61 -215 78 -215 6 0
7 8 3 18 -34 81 -46 120 -42 141 3 14 1 36 -4 49 -6 15 -5 21 1 17 18 -11 21
20 7 56 -12 28 -12 40 -1 69 7 19 13 28 14 20 3 -20 3 -22 -6 -45 -7 -17 -5
-18 7 -8 13 10 15 7 16 -24 1 -21 8 -42 17 -49 9 -6 16 -16 16 -22 0 -6 4 -13
10 -17 5 -3 7 27 3 81 -4 62 -3 85 5 80 6 -3 14 -27 18 -51 9 -62 28 -58 22 5
-5 54 -4 57 18 36 16 -17 18 -44 4 -80 -6 -17 -6 -26 0 -26 6 0 15 12 21 27
15 40 28 11 18 -40 -4 -23 -8 -62 -9 -86 0 -37 2 -42 15 -31 7 6 17 32 21 56
6 46 24 71 24 35 0 -11 5 -23 11 -26 7 -5 9 8 5 41 -5 41 -4 45 5 27 16 -31
31 -29 23 3 -5 19 -4 25 5 20 6 -4 11 -13 11 -21 0 -8 5 -17 12 -21 8 -5 9 -2
5 9 -3 10 -2 17 3 17 6 0 10 14 10 30 0 17 4 30 9 30 5 0 11 8 13 18 2 9 10
-10 18 -43 9 -38 15 -52 18 -38 2 15 8 20 18 16 12 -4 14 0 8 23 -6 28 -6 28
19 -7 14 -20 28 -51 32 -68 3 -17 11 -34 17 -37 7 -5 9 3 5 22 -16 69 -18 121
-8 148 15 37 25 26 40 -46 12 -56 24 -72 34 -45 2 6 1 21 -3 32 -15 42 -20 75
-12 75 11 0 32 -46 32 -70 0 -11 4 -20 8 -20 4 0 6 16 4 35 -3 21 0 35 7 35 6
0 11 -7 11 -15 0 -24 20 -17 21 8 1 16 2 18 6 5 2 -10 9 -18 13 -18 6 0 5 -11
0 -26 -12 -31 -12 -34 -1 -34 5 0 15 15 21 34 6 19 18 40 27 48 15 11 16 10 9
-12 -15 -52 -20 -133 -8 -126 7 4 12 24 13 44 1 35 2 34 15 -18 8 -30 12 -67
10 -81 -11 -58 10 -35 34 38 16 50 30 77 38 75 8 -1 12 5 11 15 -4 25 10 73
21 73 5 0 7 -15 5 -32 -15 -117 -17 -148 -8 -148 6 0 18 15 27 33 15 32 16 32
16 -55 0 -52 4 -88 10 -88 6 0 10 21 10 47 0 42 1 45 13 28 9 -11 16 -14 21
-7 3 6 2 13 -4 17 -13 8 -13 55 0 75 7 11 10 2 10 -32 0 -26 5 -50 11 -54 7
-4 10 6 9 32 -5 69 0 148 8 140 4 -4 12 -31 18 -59 l12 -52 1 45 c1 25 6 52
11 60 9 13 12 13 21 -2 19 -33 29 -18 12 17 -14 30 -15 38 -3 62 l14 28 4 -27
c2 -16 7 -28 12 -28 5 0 6 16 3 35 -4 28 -2 35 10 35 11 0 14 5 10 17 -4 10
-2 14 4 10 6 -4 14 -25 18 -47 4 -22 11 -40 16 -40 5 0 24 -30 41 -67 18 -36
34 -61 36 -54 2 6 -1 17 -6 24 -15 18 -52 133 -51 159 0 13 7 -1 15 -30 15
-59 43 -117 51 -109 3 3 -2 25 -10 49 -15 43 -31 110 -43 179 -4 27 -2 38 10
42 11 4 19 -4 28 -28 7 -21 16 -31 21 -26 5 5 4 17 -2 29 -21 39 -13 59 37 90
26 17 63 37 82 46 33 14 34 15 5 9 -16 -3 -48 -14 -69 -24 -48 -23 -46 -23
-46 -5 0 8 6 17 13 19 10 4 10 6 0 6 -22 2 -14 31 10 42 l22 10 -22 -5 c-22
-4 -31 12 -16 28 14 14 12 38 -4 32 -28 -11 -7 17 27 36 l35 18 -45 0 -45 0
30 25 c17 13 25 24 20 25 -6 0 -17 -6 -24 -12 -11 -11 -13 -10 -9 2 2 8 14 19
26 25 13 6 22 19 22 33 0 13 19 43 45 71 l44 47 -31 -4 c-21 -3 -29 -1 -24 6
12 19 114 83 163 102 27 11 39 19 28 19 -11 1 -56 -15 -100 -34 -44 -19 -81
-35 -83 -35 -10 0 64 55 114 85 32 19 54 35 49 35 -27 0 -197 -113 -220 -147
-9 -13 -20 -23 -26 -23 -16 0 19 58 40 65 22 7 59 45 44 45 -6 0 -16 -7 -23
-15 -7 -8 -17 -15 -22 -15 -6 0 -5 7 2 15 7 8 9 15 4 15 -5 0 -1 5 9 11 9 5
22 7 27 4 14 -9 12 8 -5 41 -14 27 -13 29 16 48 35 22 25 45 -11 26 -12 -7
-20 -8 -16 -2 3 5 -2 13 -12 17 -16 6 -16 7 2 21 17 12 18 14 3 14 -19 0 -22
13 -7 41 8 15 7 19 -4 19 -10 0 -13 6 -9 18 6 15 5 15 -10 3 -10 -8 -21 -11
-25 -7 -4 4 3 15 14 24 11 9 29 31 39 47 18 28 18 29 0 15 -17 -14 -17 -13
-12 10 6 21 5 20 -7 -4 -7 -16 -21 -31 -31 -32 -14 -2 -16 2 -10 24 3 15 9 38
11 52 5 20 16 29 57 43 35 11 41 15 20 12 -40 -5 -43 7 -5 23 l27 12 -32 -5
c-18 -2 -33 -2 -33 2 0 4 30 35 66 70 51 50 58 60 32 47 -18 -10 -37 -17 -42
-16 -5 2 -16 -3 -25 -11 -35 -30 -42 -30 -39 5 4 58 90 159 197 232 29 20 49
36 43 36 -5 0 -20 -8 -33 -19 -36 -28 -89 -53 -102 -48 -7 2 2 11 18 20 49 26
19 19 -36 -9 -57 -28 -66 -27 -49 8 8 17 4 14 -17 -10 -15 -18 -37 -32 -48
-32 -19 1 -19 1 -2 14 16 12 16 14 2 20 -9 3 -13 10 -10 16 9 14 75 41 85 35
5 -3 12 0 16 6 7 11 -38 8 -88 -7 -12 -4 -18 0 -18 10 0 9 5 16 11 16 7 0 9
11 6 27 -5 29 8 73 24 84 6 3 11 21 11 40 1 18 10 49 21 69 l19 35 -21 -25
c-11 -14 -21 -29 -21 -33 0 -5 -5 -5 -12 -1 -6 4 -9 3 -6 -2 4 -5 0 -22 -7
-39 l-13 -30 -1 31 c-2 59 12 94 50 132 l38 38 -30 -4 c-16 -2 -34 -12 -39
-22 -10 -19 -50 -34 -50 -19 0 5 4 9 9 9 4 0 22 14 39 30 18 17 39 30 49 30 9
0 14 3 10 6 -3 3 -26 -1 -51 -9 -41 -14 -63 -9 -36 8 6 3 10 11 10 17 0 7 -6
6 -15 -2 -8 -7 -15 -9 -15 -4 0 4 -5 3 -12 -4 -7 -7 -18 -12 -26 -12 -23 0 2
24 70 70 71 47 67 52 -9 10 -61 -34 -67 -36 -59 -14 4 12 2 15 -9 10 -18 -6
-20 15 -4 47 9 19 8 20 -3 5 -7 -9 -18 -25 -25 -35 -9 -14 -9 -9 0 21 7 25 22
46 42 58 27 18 27 19 5 13 -14 -4 -47 -23 -74 -42 -27 -20 -56 -36 -63 -37 -8
-1 -18 -7 -21 -12 -4 -5 -15 -10 -26 -12 -29 -5 -8 18 31 35 19 8 33 17 30 19
-3 3 -14 1 -25 -5 -39 -21 -42 -11 -16 42 33 66 15 50 -26 -23 -29 -51 -31
-53 -25 -20 5 26 4 31 -4 20 -6 -8 -11 -23 -11 -32 0 -17 -37 -58 -52 -58 -5
0 -4 9 2 19 17 33 11 48 -9 22 -18 -24 -51 -37 -51 -21 0 4 10 15 23 24 19 13
19 15 2 9 -15 -5 -11 4 18 40 45 55 42 60 -8 16 -34 -30 -44 -26 -26 9 4 9 11
31 14 47 4 17 -8 -2 -27 -40 -28 -59 -37 -71 -59 -73 -15 -1 -27 0 -27 3 0 2
15 21 32 42 18 21 23 29 10 19 -36 -31 -25 -2 20 50 l42 49 -38 -35 c-21 -19
-58 -61 -83 -92 -66 -86 -89 -74 -32 17 17 27 24 43 14 35 -9 -8 -31 -38 -47
-67 -16 -29 -34 -53 -39 -53 -12 0 -11 15 1 40 6 11 15 29 20 40 18 36 10 35
-15 -3 -14 -20 -29 -37 -34 -37 -11 0 -4 86 10 113 10 21 10 21 -5 3 -9 -11
-16 -25 -16 -31 0 -7 -13 -30 -29 -51 -29 -41 -151 -111 -171 -99 -5 3 -10 0
-10 -7 0 -7 -9 -19 -20 -26 -11 -7 -20 -10 -20 -7 0 12 41 70 47 67 4 -2 9 2
12 9 2 6 -1 9 -7 5 -20 -12 -2 47 28 91 28 41 28 43 6 26 -13 -10 -22 -21 -20
-24 2 -3 -8 -16 -21 -29 -13 -13 -22 -28 -18 -34 3 -6 2 -8 -2 -3 -5 4 -17 0
-27 -10 -16 -14 -18 -14 -18 -1 0 9 17 30 38 48 33 28 33 29 5 10 -48 -31 -40
-8 10 29 76 58 82 63 47 44 -73 -40 -85 -48 -93 -60 -4 -7 -12 -13 -18 -13 -5
0 -21 -12 -35 -27 -21 -23 -25 -24 -20 -8 l6 20 -15 -20 c-8 -11 -18 -24 -23
-30 -4 -5 -11 -18 -15 -27 -3 -10 -12 -18 -18 -18 -7 0 -8 4 -2 13 5 6 10 26
10 42 l2 30 -10 -26 c-6 -17 -20 -29 -34 -32 -14 -2 -25 -3 -25 -1 0 2 14 20
32 41 l32 38 -35 -30 c-18 -17 -46 -41 -61 -54 -35 -31 -36 -13 -2 31 14 18 3
9 -25 -21 -28 -30 -51 -53 -51 -50 0 2 4 19 9 37 13 42 -4 32 -19 -12 -10 -33
-34 -55 -73 -69 -17 -6 -17 -5 -1 23 10 16 20 27 24 25 3 -2 12 1 20 7 12 8
12 9 -2 4 -22 -7 -23 7 -3 24 8 7 15 17 15 23 0 6 -10 1 -23 -11 -28 -27 -37
-28 -37 -4 0 26 43 61 97 79 56 18 83 38 38 27 -16 -4 -34 -10 -40 -13 -24
-16 -65 -30 -65 -22 0 5 12 14 28 20 l27 11 -32 -5 c-38 -5 -41 2 -13 38 28
35 25 45 -5 17 -14 -13 -25 -20 -25 -15 0 5 -11 -2 -25 -15 -17 -16 -25 -19
-25 -9 0 8 -12 -1 -26 -19 -14 -18 -30 -30 -35 -27 -5 4 -9 2 -9 -3 0 -13 -41
-56 -73 -77 -17 -11 -27 -13 -27 -6 0 6 7 14 16 18 12 5 13 7 3 14 -8 5 -21 2
-31 -8 -25 -22 -23 -4 7 62 13 31 20 53 16 51 -5 -3 -14 -19 -21 -36 -18 -44
-30 -37 -26 18 2 26 2 37 -1 25 -3 -14 -25 -33 -59 -53 -31 -17 -76 -50 -101
-73 -55 -50 -44 -23 22 54 57 67 136 133 144 120 4 -5 11 1 18 15 6 13 8 24 5
24 -4 -1 -36 -23 -72 -50z m290 -59 c-11 -21 -30 -37 -30 -25 0 8 30 44 37 44
2 0 -1 -9 -7 -19z m-297 -61 c-9 -16 -20 -30 -23 -30 -4 0 -15 -7 -26 -15 -19
-15 -19 -15 1 -8 11 3 18 4 15 2 -3 -2 -16 -13 -30 -24 -24 -19 -24 -19 -10
-1 16 21 18 21 -37 -1 -28 -11 -5 15 55 63 67 52 80 55 55 14z m32 -54 c-6
-21 -62 -72 -71 -64 -9 9 26 77 48 92 12 9 17 16 10 16 -10 0 -10 5 0 23 13
21 13 21 16 -12 2 -19 1 -43 -3 -55z m1465 56 c0 -4 -7 -17 -15 -28 -8 -12
-12 -24 -10 -28 3 -3 0 -2 -6 3 -6 5 -19 7 -28 3 -14 -5 -14 -4 -2 11 7 9 20
17 27 17 8 0 13 3 13 8 -3 14 1 22 11 22 6 0 10 -3 10 -8z m-1690 -41 c0 -11
-14 -26 -37 -39 -29 -15 -31 2 -4 25 11 9 18 20 15 25 -3 4 2 5 10 2 9 -3 16
-9 16 -13z m396 -9 c-18 -16 -18 -16 -6 6 6 13 14 21 18 18 3 -4 -2 -14 -12
-24z m465 1 c-8 -15 -10 -15 -11 -2 0 17 10 32 18 25 2 -3 -1 -13 -7 -23z m44
-10 c-18 -42 -25 -52 -25 -34 0 14 28 71 35 71 3 0 -2 -17 -10 -37z m-1021 0
c-9 -36 -20 -49 -57 -68 -42 -21 -45 -12 -11 32 49 66 79 81 68 36z m1277 4
c-10 -9 -11 -8 -5 6 3 10 9 15 12 12 3 -3 0 -11 -7 -18z m-41 -2 c0 -8 -4 -15
-10 -15 -5 0 -7 7 -4 15 4 8 8 15 10 15 2 0 4 -7 4 -15z m-850 -15 c0 -5 -5
-10 -11 -10 -5 0 -7 5 -4 10 3 6 8 10 11 10 2 0 4 -4 4 -10z m455 -9 c-3 -6
-11 -11 -17 -11 -6 0 -6 6 2 15 14 17 26 13 15 -4z m905 14 c0 -2 -10 -10 -22
-16 -21 -11 -22 -11 -9 4 13 16 31 23 31 12z m-1829 -22 c-19 -34 -56 -70 -78
-75 -13 -4 -23 -3 -23 1 0 12 93 91 108 91 1 0 -2 -8 -7 -17z m1523 -6 c-3 -8
-12 -18 -20 -21 -10 -4 -13 -2 -8 7 21 37 41 47 28 14z m-1351 -19 c-21 -43
-27 -49 -19 -18 l7 25 -21 -24 c-11 -13 -23 -22 -25 -19 -6 6 55 68 66 68 4 0
0 -15 -8 -32z m1117 22 c0 -5 -5 -10 -11 -10 -5 0 -7 5 -4 10 3 6 8 10 11 10
2 0 4 -4 4 -10z m70 6 c0 -3 -4 -8 -10 -11 -5 -3 -10 -1 -10 4 0 6 5 11 10 11
6 0 10 -2 10 -4z m500 -6 c0 -5 -5 -10 -11 -10 -5 0 -7 5 -4 10 3 6 8 10 11
10 2 0 4 -4 4 -10z m-1337 -15 c-3 -9 -8 -14 -10 -11 -3 3 -2 9 2 15 9 16 15
13 8 -4z m-238 -15 c-10 -11 -21 -17 -24 -14 -3 3 3 12 13 20 28 20 32 17 11
-6z m50 -2 c-6 -15 -65 -64 -65 -54 0 9 62 77 67 73 2 -2 1 -11 -2 -19z m855
-7 c-19 -16 -37 -27 -40 -25 -6 6 52 53 65 53 6 0 -6 -13 -25 -28z m-1530 12
c-2 -17 -35 -76 -41 -72 -4 2 -16 -5 -28 -15 -39 -35 -16 20 27 67 25 26 42
35 42 20z m1255 -3 c-3 -5 -11 -10 -16 -10 -6 0 -7 5 -4 10 3 6 11 10 16 10 6
0 7 -4 4 -10z m215 -4 c0 -2 -8 -10 -17 -17 -16 -13 -17 -12 -4 4 13 16 21 21
21 13z m720 -10 c0 -2 -8 -10 -17 -17 -16 -13 -17 -12 -4 4 13 16 21 21 21 13z
m-1413 -28 c-3 -8 -6 -5 -6 6 -1 11 2 17 5 13 3 -3 4 -12 1 -19z m1508 12 c-3
-5 -12 -10 -18 -10 -7 0 -6 4 3 10 19 12 23 12 15 0z m-2210 -29 c-3 -6 -14
-11 -23 -11 -15 1 -15 2 2 15 21 16 32 13 21 -4z m255 12 c0 -10 -32 -43 -42
-43 -5 0 -1 11 8 25 15 23 34 33 34 18z m50 3 c0 -2 -8 -10 -17 -17 -16 -13
-17 -12 -4 4 13 16 21 21 21 13z m1950 0 c0 -2 -7 -7 -16 -10 -8 -3 -12 -2 -9
4 6 10 25 14 25 6z m-2436 -48 c-10 -20 -19 -28 -22 -20 -2 7 4 22 14 33 25
27 27 24 8 -13z m1557 -1 c-10 -9 -11 -8 -5 6 3 10 9 15 12 12 3 -3 0 -11 -7
-18z m-1765 -43 c-10 -14 -20 -23 -23 -21 -2 3 3 17 13 31 9 15 19 24 22 22 2
-3 -3 -17 -12 -32z m-146 3 c0 -2 -12 -14 -27 -28 l-28 -24 24 28 c23 25 31
32 31 24z m2793 -19 c-7 -27 -22 -48 -35 -48 -5 0 -6 6 -1 13 4 6 8 14 9 17 0
3 4 13 8 23 12 25 25 21 19 -5z m-2777 -33 c-3 -9 -9 -14 -13 -12 -5 3 -14 -1
-21 -9 -10 -11 -10 -14 0 -14 7 -1 0 -12 -17 -25 -16 -14 -26 -25 -21 -25 4 0
1 -11 -8 -25 -9 -14 -14 -25 -11 -25 3 0 -1 -14 -10 -30 -13 -25 -18 -28 -30
-18 -11 11 -11 17 3 38 8 13 25 32 36 42 16 13 17 18 6 18 -10 0 -4 9 15 25
17 14 26 25 22 25 -4 0 -3 9 3 20 6 11 17 20 25 20 8 0 15 5 15 12 0 6 3 9 6
5 4 -3 4 -13 0 -22z m95 -18 c-10 -9 -11 -8 -5 6 3 10 9 15 12 12 3 -3 0 -11
-7 -18z m340 -10 c-13 -12 -20 -15 -16 -7 14 26 28 41 33 35 3 -3 -5 -16 -17
-28z m2339 3 c0 -5 -10 -20 -22 -32 -27 -27 -37 -8 -11 21 19 23 33 27 33 11z
m-2550 -14 c0 -2 -8 -10 -17 -17 -16 -13 -17 -12 -4 4 13 16 21 21 21 13z
m-137 -26 c-6 -22 -23 -38 -23 -21 0 17 12 41 20 41 5 0 6 -9 3 -20z m-123
-24 c0 -2 -8 -10 -17 -17 -16 -13 -17 -12 -4 4 13 16 21 21 21 13z m-226 -38
c-7 -35 -32 -83 -40 -75 -5 4 36 107 43 107 1 0 0 -15 -3 -32z m3036 16 c0
-26 -20 -54 -38 -53 -12 0 -13 2 -3 6 9 4 10 8 2 12 -7 5 -6 14 5 29 18 26 34
29 34 6z m-20 -83 c0 -10 -9 -21 -20 -24 -24 -6 -26 6 -4 27 20 21 24 20 24
-3z m-3150 -63 c-9 -33 -35 -56 -48 -43 -3 2 7 23 22 46 32 48 39 47 26 -3z
m3145 22 c-3 -5 -11 -10 -16 -10 -6 0 -7 5 -4 10 3 6 11 10 16 10 6 0 7 -4 4
-10z m-3175 -4 c0 -3 -9 -20 -21 -40 -20 -34 -137 -132 -127 -105 18 44 17 50
-2 22 -29 -44 -35 -42 -11 5 23 45 43 64 102 96 44 24 59 30 59 22z m-140 -46
c-11 -16 -26 -33 -33 -37 -12 -7 0 11 32 50 23 28 24 20 1 -13z m3484 -5 c-10
-8 -26 -14 -34 -14 -9 0 -4 6 10 14 33 19 49 19 24 0z m-3324 -31 c0 -15 -71
-87 -78 -79 -9 9 21 66 42 80 26 19 36 19 36 -1z m3190 2 c0 -3 -4 -8 -10 -11
-5 -3 -10 -1 -10 4 0 6 5 11 10 11 6 0 10 -2 10 -4z m68 -36 c-25 -35 -24 -34
-32 -15 -6 17 19 45 40 45 11 0 9 -7 -8 -30z m-3355 -47 c-14 -39 -18 -44 -24
-28 -7 17 -8 17 -8 -6 -1 -14 -15 -44 -32 -65 -26 -32 -30 -35 -24 -14 4 14
14 36 22 48 8 13 12 26 10 29 -3 3 -14 -10 -23 -29 -18 -32 -19 -32 -22 -9 -5
31 64 104 77 83 6 -10 10 -7 15 12 3 14 11 26 16 26 5 0 2 -21 -7 -47z m3298
4 c-8 -8 -11 -5 -11 9 0 27 14 41 18 19 2 -9 -1 -22 -7 -28z m-3240 -15 c-11
-21 -51 -58 -51 -48 0 11 44 65 53 65 4 1 3 -7 -2 -17z m3230 -35 c-10 -9 -11
-8 -5 6 3 10 9 15 12 12 3 -3 0 -11 -7 -18z m-3412 -99 c-16 -60 -24 -29 -8
35 9 34 15 45 17 30 2 -12 -2 -41 -9 -65z m3511 78 c0 -2 -8 -10 -17 -17 -16
-13 -17 -12 -4 4 13 16 21 21 21 13z m-3546 -58 c-5 -7 -9 -15 -9 -18 -8 -51
-19 -91 -25 -95 -5 -3 -7 -12 -4 -20 3 -8 -4 -19 -18 -26 -23 -12 -23 -12 -4
10 20 22 9 30 -12 9 -26 -26 -11 40 18 80 17 23 30 45 30 50 0 11 22 33 28 27
2 -2 0 -10 -4 -17z m3446 -38 c0 -5 -5 -10 -11 -10 -5 0 -7 5 -4 10 3 6 8 10
11 10 2 0 4 -4 4 -10z m-28 -102 c-7 -7 -12 -8 -12 -2 0 14 12 26 19 19 2 -3
-1 -11 -7 -17z m-3565 -10 c-3 -8 -6 -5 -6 6 -1 11 2 17 5 13 3 -3 4 -12 1
-19z m44 -21 c-16 -16 -25 -1 -10 16 8 8 16 11 18 5 2 -5 -2 -15 -8 -21z m49
-18 c-7 -11 -14 -18 -17 -15 -3 3 0 12 7 21 18 21 23 19 10 -6z m-99 -12 c-10
-9 -11 -8 -5 6 3 10 9 15 12 12 3 -3 0 -11 -7 -18z m5 -35 c-18 -16 -18 -16
-6 6 6 13 14 21 18 18 3 -4 -2 -14 -12 -24z m55 -39 c-8 -15 -10 -15 -11 -2 0
17 10 32 18 25 2 -3 -1 -13 -7 -23z m-267 -55 c-8 -35 -14 -73 -14 -85 0 -13
-5 -23 -10 -23 -7 0 -9 14 -5 38 19 117 23 132 34 132 4 0 2 -28 -5 -62z
m3826 47 c0 -8 -9 -19 -19 -25 -15 -8 -19 -7 -17 6 1 9 9 20 17 25 19 12 19
11 19 -6z m-3603 -57 c-3 -8 -6 -5 -6 6 -1 11 2 17 5 13 3 -3 4 -12 1 -19z
m3608 1 c-4 -5 -13 -9 -22 -9 -13 0 -13 3 -3 15 13 15 35 11 25 -6z m-3747
-28 c-16 -45 -75 -161 -80 -161 -5 0 -8 17 -8 38 0 37 14 65 53 110 20 22 42
30 35 13z m3756 -7 c6 -16 -9 -44 -25 -44 -11 0 -22 38 -14 50 10 15 32 12 39
-6z m-50 -43 c3 -5 -1 -14 -9 -21 -13 -10 -15 -9 -15 9 0 21 14 28 24 12z m47
-58 c-35 -15 -39 -8 -11 23 22 23 25 23 31 7 5 -13 0 -21 -20 -30z m-3781 -30
c-11 -17 -11 -17 -6 0 3 10 6 24 7 30 0 9 2 9 5 0 3 -7 0 -20 -6 -30z m-72
-17 c1 -25 -2 -47 -8 -51 -6 -4 -10 12 -10 44 0 63 14 68 18 7z m-24 -158
c-10 -18 -19 -27 -22 -20 -4 14 26 67 35 59 2 -3 -3 -20 -13 -39z m3926 17
c-27 -28 -40 -32 -40 -10 0 15 26 34 49 35 10 0 7 -8 -9 -25z m-60 -34 c0 -16
-41 -71 -54 -71 -2 0 -2 9 1 20 3 11 10 20 16 20 6 0 7 3 4 7 -4 3 0 15 10 25
20 23 23 23 23 -1z m-3963 -88 c-17 -18 -22 -8 -11 22 5 12 10 13 17 6 8 -8 6
-16 -6 -28z m23 -7 c0 -2 -8 -10 -17 -17 -16 -13 -17 -12 -4 4 13 16 21 21 21
13z m-65 -36 c-4 -12 -9 -19 -12 -17 -3 3 -2 15 2 27 4 12 9 19 12 17 3 -3 2
-15 -2 -27z m-30 -189 c-6 -13 -9 -12 -16 8 -6 16 -5 36 3 60 l13 36 3 -44 c2
-24 0 -51 -3 -60z m-39 -38 c-10 -26 -18 -8 -9 23 5 21 8 24 11 11 2 -10 1
-25 -2 -34z m4041 12 c-4 -8 -11 -15 -17 -15 -14 0 -13 27 3 33 16 6 21 1 14
-18z m-51 -32 c-10 -10 -19 5 -10 18 6 11 8 11 12 0 2 -7 1 -15 -2 -18z
m-4057 -57 c-9 -8 -10 -7 -5 7 3 10 7 24 7 30 1 7 3 4 6 -7 3 -10 -1 -23 -8
-30z m55 -21 c-4 -8 -8 -15 -10 -15 -2 0 -4 7 -4 15 0 8 4 15 10 15 5 0 7 -7
4 -15z m3182 -72 c-10 -10 -19 5 -10 18 6 11 8 11 12 0 2 -7 1 -15 -2 -18z
m-3236 -33 c4 0 11 7 14 16 4 9 9 14 12 11 3 -3 -3 -22 -14 -44 -12 -24 -18
-51 -15 -74 4 -25 0 -39 -13 -50 -16 -13 -17 -12 -11 4 4 11 10 31 13 45 l5
27 -14 -25 c-8 -14 -21 -44 -28 -67 -6 -24 -16 -43 -21 -43 -14 0 -9 103 7
130 8 14 17 32 21 40 21 52 29 63 32 47 2 -10 7 -17 12 -17z m85 20 c-3 -5
-11 -10 -16 -10 -6 0 -7 5 -4 10 3 6 11 10 16 10 6 0 7 -4 4 -10z m3628 -15
c-3 -9 -8 -14 -10 -11 -3 3 -2 9 2 15 9 16 15 13 8 -4z m-123 -5 c0 -5 -2 -10
-4 -10 -3 0 -8 5 -11 10 -3 6 -1 10 4 10 6 0 11 -4 11 -10z m-38 -35 c2 -19 0
-35 -4 -35 -4 0 -8 16 -8 35 0 19 2 35 4 35 2 0 6 -16 8 -35z m289 -25 l-10
-25 0 27 c-1 14 2 35 6 45 7 17 8 17 11 -2 1 -12 -2 -32 -7 -45z m-1064 -17
c-3 -10 -5 -4 -5 12 0 17 2 24 5 18 2 -7 2 -21 0 -30z m563 -23 c0 -13 -1 -13
-10 0 -5 8 -10 22 -10 30 0 13 1 13 10 0 5 -8 10 -22 10 -30z m332 18 c7 -21
-25 -120 -34 -106 -11 19 -10 100 2 93 6 -3 10 1 10 9 0 19 17 21 22 4z
m-1085 -75 c-3 -10 -5 -4 -5 12 0 17 2 24 5 18 2 -7 2 -21 0 -30z m1190 15
c-3 -8 -6 -5 -6 6 -1 11 2 17 5 13 3 -3 4 -12 1 -19z m27 -32 c-3 -15 -8 -25
-11 -23 -2 3 -1 17 3 31 3 15 8 25 11 23 2 -3 1 -17 -3 -31z m-3804 -3 c0 -10
-14 -45 -30 -78 l-30 -60 3 52 c4 51 28 103 47 103 6 0 10 -8 10 -17z m2380
-25 c0 -5 -4 -8 -10 -8 -5 0 -10 10 -10 23 0 18 2 19 10 7 5 -8 10 -18 10 -22z
m300 -1 c0 -12 -4 -28 -9 -36 -6 -9 -10 -3 -14 20 -2 19 -3 37 0 42 8 13 23
-4 23 -26z m-238 1 c-7 -7 -12 -8 -12 -2 0 14 12 26 19 19 2 -3 -1 -11 -7 -17z
m-37 -99 c-4 -16 -11 -27 -16 -24 -16 10 -26 69 -15 87 10 16 12 15 24 -8 8
-15 11 -37 7 -55z m152 9 c-3 -7 -5 -2 -5 12 0 14 2 19 5 13 2 -7 2 -19 0 -25z
m-307 -65 c0 -43 -9 -39 -15 6 -2 17 1 31 6 31 5 0 9 -16 9 -37z m-2298 -20
c-6 -10 -23 -29 -38 -43 -20 -18 -24 -19 -14 -5 8 11 18 22 21 25 3 3 12 16
18 28 7 13 15 21 18 19 2 -3 0 -14 -5 -24z m-2 -69 c-18 -21 -24 -10 -9 18 8
14 14 18 17 10 2 -7 -2 -19 -8 -28z m2264 1 c3 -8 1 -15 -4 -15 -6 0 -10 7
-10 15 0 8 2 15 4 15 2 0 6 -7 10 -15z m-94 1 c0 -3 -4 -8 -10 -11 -5 -3 -10
-1 -10 4 0 6 5 11 10 11 6 0 10 -2 10 -4z m53 -20 c4 -9 -5 -21 -20 -31 l-25
-17 18 31 c21 36 20 35 27 17z m-2283 -46 c-12 -16 -23 -30 -26 -30 -2 0 2 14
11 30 9 17 20 30 26 30 6 0 1 -13 -11 -30z m-56 -57 c-16 -37 -34 -64 -34 -50
0 11 39 87 45 87 2 0 -3 -17 -11 -37z m116 11 c-6 -14 -10 -37 -10 -51 0 -13
-9 -36 -20 -50 l-20 -26 1 49 c1 56 16 108 19 64 2 -24 2 -23 16 8 17 38 28
43 14 6z m34 -2 c2 -4 -5 -19 -16 -32 -14 -18 -18 -20 -14 -7 3 10 6 25 6 33
0 15 16 19 24 6z m2106 -48 c-18 -21 -24 -10 -9 18 8 14 14 18 17 10 2 -7 -2
-19 -8 -28z m2 -86 c-6 -6 -17 -8 -26 -6 -14 3 -13 8 6 38 l23 35 3 -29 c2
-16 -1 -33 -6 -38z m-2215 -5 c-3 -10 -5 -4 -5 12 0 17 2 24 5 18 2 -7 2 -21
0 -30z m2233 -21 c0 -11 -22 -32 -34 -32 -5 0 -1 7 10 16 18 15 18 15 -5 8
-16 -4 -21 -3 -17 5 8 13 46 15 46 3z m-50 -77 c0 -8 -4 -15 -10 -15 -5 0 -10
7 -10 15 0 8 5 15 10 15 6 0 10 -7 10 -15z m-39 -105 c-7 -22 -16 -38 -21 -35
-5 3 -5 18 0 34 4 16 6 32 3 35 -3 2 -2 10 2 16 5 8 10 9 18 1 7 -7 7 -22 -2
-51z m-17 -65 c-6 -16 -24 -21 -24 -7 0 11 11 22 21 22 5 0 6 -7 3 -15z
m-2168 -37 c-18 -26 -22 -17 -5 14 6 11 13 17 16 15 3 -3 -2 -16 -11 -29z m14
-33 c0 -8 -4 -15 -10 -15 -5 0 -7 7 -4 15 4 8 8 15 10 15 2 0 4 -7 4 -15z
m2130 -20 c-7 -9 -15 -13 -18 -10 -3 2 1 11 8 20 7 9 15 13 18 10 3 -2 -1 -11
-8 -20z m-2148 -45 c-12 -21 -18 -25 -20 -14 -4 16 15 44 29 44 4 0 0 -13 -9
-30z m2168 -4 c0 -2 -8 -10 -17 -17 -16 -13 -17 -12 -4 4 13 16 21 21 21 13z
m-30 -61 c-7 -9 -15 -13 -18 -10 -3 2 1 11 8 20 7 9 15 13 18 10 3 -2 -1 -11
-8 -20z m-2210 -3 c0 -10 -7 -27 -15 -38 -14 -18 -15 -17 -9 11 10 47 24 62
24 27z m111 -5 c-10 -9 -11 -8 -5 6 3 10 9 15 12 12 3 -3 0 -11 -7 -18z m-37
-71 c-3 -15 -8 -25 -11 -23 -2 3 -1 17 3 31 3 15 8 25 11 23 2 -3 1 -17 -3
-31z m-19 -70 c8 -53 -6 -88 -16 -41 -10 46 -10 85 0 85 6 0 13 -20 16 -44z
m2091 -13 c-11 -11 -17 4 -9 23 7 18 8 18 11 1 2 -10 1 -21 -2 -24z m99 18
c-3 -6 -14 -11 -23 -11 -15 1 -15 2 2 15 21 16 32 13 21 -4z m-27 -37 c-9 -9
-22 -14 -30 -11 -8 3 -4 8 12 15 35 15 37 14 18 -4z m-2153 -139 c-3 -26 -8
-45 -11 -43 -2 3 -1 26 2 52 4 25 9 44 12 42 2 -3 1 -26 -3 -51z m39 30 c-4
-8 -8 -15 -10 -15 -2 0 -4 7 -4 15 0 8 4 15 10 15 5 0 7 -7 4 -15z m2091 -224
c-3 -6 -11 -11 -17 -11 -6 0 -6 6 2 15 14 17 26 13 15 -4z m23 -42 c-10 -5
-18 -19 -18 -29 0 -11 -5 -20 -11 -20 -6 0 -8 9 -3 23 7 23 22 37 39 37 6 -1
2 -5 -7 -11z m18 -36 c-10 -10 -19 5 -10 18 6 11 8 11 12 0 2 -7 1 -15 -2 -18z
m-2201 -90 c-3 -16 -16 -48 -28 -73 -12 -25 -21 -48 -20 -52 4 -10 -47 -117
-58 -124 -19 -12 -21 5 -5 59 32 110 135 285 111 190z m71 -59 c-4 -9 -9 -15
-11 -12 -3 3 -3 13 1 22 4 9 9 15 11 12 3 -3 3 -13 -1 -22z m2066 -16 c-7 -7
-12 -8 -12 -2 0 14 12 26 19 19 2 -3 -1 -11 -7 -17z m-2140 -60 c-7 -7 -12 -8
-12 -2 0 14 12 26 19 19 2 -3 -1 -11 -7 -17z m-32 -38 c-16 -31 -23 -18 -8 15
7 15 14 23 16 17 2 -6 -2 -21 -8 -32z m3854 -73 c-14 -26 -30 -47 -36 -47 -6
0 -5 7 2 18 7 9 -4 -1 -26 -24 -21 -22 -50 -49 -64 -60 -14 -10 -7 1 15 24 21
23 35 42 30 42 -6 1 15 23 45 50 30 27 56 48 57 46 2 -2 -8 -24 -23 -49z
m-1044 -1 c0 -25 -12 -46 -26 -46 -7 0 -17 -6 -21 -13 -9 -15 -63 -40 -70 -33
-7 6 95 106 108 106 5 0 9 -6 9 -14z m1200 -26 c-16 -31 -23 -18 -8 15 7 15
14 23 16 17 2 -6 -2 -21 -8 -32z m-1676 -12 c-10 -18 -19 -27 -22 -20 -4 14
26 67 35 59 2 -3 -3 -20 -13 -39z m526 29 c0 -2 -10 -12 -22 -23 l-23 -19 19
23 c18 21 26 27 26 19z m-375 -27 c-10 -11 -21 -17 -24 -14 -3 3 3 12 13 20
28 20 32 17 11 -6z m1416 -26 c-11 -15 -21 -23 -21 -18 0 14 31 56 37 50 3 -3
-4 -17 -16 -32z m-1282 -16 c-7 -13 -14 -18 -16 -11 -3 7 1 22 8 35 7 13 14
18 16 11 3 -7 -1 -22 -8 -35z m51 -5 c-24 -27 -45 -50 -48 -53 -2 -3 3 9 11
26 14 26 61 72 76 74 2 0 -16 -21 -39 -47z m179 15 c-7 -12 -12 -27 -11 -31 1
-5 -2 -6 -8 -2 -5 3 -10 0 -11 -7 0 -10 -2 -10 -6 -1 -2 7 5 27 17 43 25 35
38 34 19 -2z m292 4 c-6 -11 -18 -22 -26 -26 -18 -6 -13 6 13 37 19 22 27 15
13 -11z m-755 -10 c-18 -16 -18 -16 -6 6 6 13 14 21 18 18 3 -4 -2 -14 -12
-24z m-3166 14 c0 -2 -8 -10 -17 -17 -16 -13 -17 -12 -4 4 13 16 21 21 21 13z
m559 -13 c-27 -37 -63 -73 -71 -73 -16 0 24 56 51 73 33 21 36 21 20 0z m136
-15 c-4 -18 -12 -37 -17 -43 -10 -10 -2 49 9 68 10 17 14 5 8 -25z m3338 15
c-4 -11 -3 -14 5 -9 7 4 12 2 12 -4 0 -7 -7 -10 -15 -6 -8 3 -19 -2 -24 -12
-5 -9 -13 -14 -17 -10 -8 9 22 58 36 58 5 0 6 -7 3 -17z m746 -25 c-7 -13 -14
-18 -16 -11 -3 7 1 22 8 35 7 13 14 18 16 11 3 -7 -1 -22 -8 -35z m-5009 24
c0 -13 -23 -37 -58 -61 -18 -12 -29 -27 -26 -33 4 -6 2 -8 -3 -5 -6 4 -10 -1
-9 -10 0 -9 -6 -18 -14 -21 -12 -4 -13 -2 -3 9 11 14 13 19 13 39 0 16 71 90
86 90 8 0 14 -4 14 -8z m-86 -47 c-21 -24 -40 -43 -42 -41 -7 7 20 50 42 68
38 31 38 19 0 -27z m3675 1 c-9 -8 -10 -7 -5 7 3 10 7 24 7 30 1 7 3 4 6 -7 3
-10 -1 -23 -8 -30z m204 24 c-6 -21 -21 -35 -29 -27 -6 6 18 47 27 47 4 0 5
-9 2 -20z m287 -10 c-12 -16 -23 -30 -26 -30 -8 0 18 44 30 52 19 13 18 9 -4
-22z m95 1 c-8 -17 -20 -33 -26 -37 -7 -4 -9 -3 -6 3 4 6 11 22 16 37 6 14 15
26 21 26 6 0 4 -12 -5 -29z m-875 12 c0 -5 -10 -19 -21 -33 l-20 -25 16 33
c15 30 25 41 25 25z m161 -37 c-21 -20 -22 -20 -15 -1 11 32 28 49 32 35 3 -7
-5 -22 -17 -34z m447 24 c-7 -10 -14 -17 -17 -15 -4 4 18 35 25 35 2 0 -1 -9
-8 -20z m-4028 7 c0 -2 -18 -21 -41 -42 -22 -22 -37 -32 -34 -22 12 31 -3 18
-32 -28 -34 -54 -45 -58 -30 -9 10 34 40 63 69 68 7 1 24 9 38 19 24 17 30 20
30 14z m5070 -22 c-7 -9 -15 -13 -18 -10 -3 2 1 11 8 20 7 9 15 13 18 10 3 -2
-1 -11 -8 -20z m-4082 3 c-2 -6 -10 -14 -16 -16 -7 -2 -10 2 -6 12 7 18 28 22
22 4z m2513 -15 c-8 -15 -10 -15 -11 -2 0 17 10 32 18 25 2 -3 -1 -13 -7 -23z
m-3706 -2 c-3 -6 -11 -11 -17 -11 -6 0 -6 6 2 15 14 17 26 13 15 -4z m516 1
c-5 -9 -19 -26 -32 -37 -26 -23 -17 -2 14 33 25 27 31 28 18 4z m3311 -4 c-7
-7 -12 -8 -12 -2 0 14 12 26 19 19 2 -3 -1 -11 -7 -17z m1050 0 c-7 -7 -12 -8
-12 -2 0 14 12 26 19 19 2 -3 -1 -11 -7 -17z m248 -18 c-16 -31 -23 -19 -9 16
6 16 13 24 16 17 2 -7 -1 -22 -7 -33z m-1104 15 c-11 -8 -25 -15 -30 -15 -6 1
0 7 14 15 32 19 40 18 16 0z m234 -8 c0 -7 -9 -13 -20 -14 -17 -2 -18 1 -10
18 11 20 30 17 30 -4z m182 1 c-7 -7 -12 -8 -12 -2 0 14 12 26 19 19 2 -3 -1
-11 -7 -17z m494 -5 c-7 -35 -21 -48 -23 -21 -2 19 12 48 23 48 3 0 2 -12 0
-27z m-4649 -35 c-10 -28 -24 -48 -42 -56 -36 -18 -40 -11 -13 23 12 15 22 37
23 49 1 11 7 21 12 21 6 0 15 3 19 8 15 14 15 -2 1 -45z m131 23 c-2 -22 -6
-27 -20 -23 -10 2 -26 -2 -35 -9 -15 -13 -15 -12 -5 8 10 18 49 53 59 53 2 0
2 -13 1 -29z m242 -6 c-13 -14 -20 -25 -17 -25 4 0 -2 -18 -13 -40 -11 -22
-27 -40 -35 -40 -22 0 -18 11 17 47 18 18 27 33 21 33 -6 0 -32 -23 -57 -52
-25 -29 -49 -49 -52 -45 -4 4 28 41 71 82 42 42 80 74 83 70 3 -3 -5 -16 -18
-30z m3440 14 c-7 -11 -14 -18 -17 -15 -8 8 5 36 17 36 7 0 7 -6 0 -21z
m-3917 -8 c-3 -11 -23 -34 -46 -52 -40 -32 -39 -29 12 39 28 36 42 41 34 13z
m907 9 c0 -5 -5 -10 -11 -10 -5 0 -7 5 -4 10 3 6 8 10 11 10 2 0 4 -4 4 -10z
m2662 -12 c-7 -7 -12 -8 -12 -2 0 14 12 26 19 19 2 -3 -1 -11 -7 -17z m450 0
c-7 -7 -12 -8 -12 -2 0 14 12 26 19 19 2 -3 -1 -11 -7 -17z m-4202 8 c0 -2 -8
-10 -17 -17 -16 -13 -17 -12 -4 4 13 16 21 21 21 13z m630 1 c0 -1 -21 -21
-47 -42 -32 -27 -42 -32 -31 -16 18 25 78 70 78 58z m2975 -27 c-9 -16 -20
-30 -26 -30 -5 0 -3 14 6 30 9 17 20 30 26 30 5 0 3 -13 -6 -30z m185 1 c-6
-12 -15 -21 -21 -21 -10 0 -5 13 14 38 15 19 20 7 7 -17z m-2617 7 c-4 -7 -8
-15 -8 -18 0 -3 -6 -14 -13 -25 -11 -18 -12 -17 -6 10 4 17 12 33 18 37 16 11
18 10 9 -4z m4387 -3 c-7 -9 -15 -13 -17 -11 -7 7 7 26 19 26 6 0 6 -6 -2 -15z
m40 5 c0 -13 -61 -82 -68 -76 -4 5 56 86 64 86 2 0 4 -4 4 -10z m-4707 -15
c-3 -9 -8 -14 -10 -11 -3 3 -2 9 2 15 9 16 15 13 8 -4z m3367 2 c0 -18 -36
-50 -49 -46 -6 2 0 16 12 31 24 30 37 35 37 15z m-4210 -22 c-7 -9 -15 -13
-18 -10 -3 2 1 11 8 20 7 9 15 13 18 10 3 -2 -1 -11 -8 -20z m460 17 c0 -10
-49 -82 -57 -82 -3 0 0 7 7 15 7 8 10 15 6 15 -4 0 0 14 9 30 14 27 35 41 35
22z m3220 1 c0 -5 -5 -15 -10 -23 -8 -12 -10 -11 -10 8 0 12 5 22 10 22 6 0
10 -3 10 -7z m106 -20 c-10 -10 -19 5 -10 18 6 11 8 11 12 0 2 -7 1 -15 -2
-18z m218 12 c-4 -8 -10 -15 -15 -15 -4 0 -6 7 -3 15 4 8 10 15 15 15 4 0 6
-7 3 -15z m1012 -13 c-18 -16 -18 -16 -6 6 6 13 14 21 18 18 3 -4 -2 -14 -12
-24z m394 18 c0 -5 -5 -10 -11 -10 -5 0 -7 5 -4 10 3 6 8 10 11 10 2 0 4 -4 4
-10z m-5551 -17 c-61 -73 -79 -93 -79 -85 0 10 79 102 87 102 4 0 0 -8 -8 -17z
m61 -7 c0 -2 -8 -10 -17 -17 -16 -13 -17 -12 -4 4 13 16 21 21 21 13z m441
-19 c-10 -9 -11 -8 -5 6 3 10 9 15 12 12 3 -3 0 -11 -7 -18z m450 -10 c-13
-12 -20 -15 -16 -7 14 26 28 41 33 35 3 -3 -5 -16 -17 -28z m2829 25 c0 -5 -7
-17 -16 -28 -8 -10 -14 -14 -11 -9 2 6 7 18 10 28 7 17 17 23 17 9z m-3340
-27 c-7 -9 -15 -13 -17 -11 -7 7 7 26 19 26 6 0 6 -6 -2 -15z m350 -10 c-7 -8
-17 -15 -23 -15 -5 0 -2 9 8 20 21 23 35 19 15 -5z m-919 -42 c-9 -16 -10 -16
-11 4 0 12 3 30 7 40 7 16 8 16 11 -4 2 -12 -1 -30 -7 -40z m5106 25 c-3 -7
-5 -2 -5 12 0 14 2 19 5 13 2 -7 2 -19 0 -25z m599 16 c-3 -9 -6 -21 -7 -27 0
-7 -4 -3 -8 8 -9 22 -5 35 11 35 5 0 7 -7 4 -16z m-5732 -61 c-7 -53 -20 -83
-34 -83 -17 0 -11 64 10 98 11 17 22 32 25 32 4 0 3 -21 -1 -47z m5756 33 c0
-3 -4 -8 -10 -11 -5 -3 -10 -1 -10 4 0 6 5 11 10 11 6 0 10 -2 10 -4z m-5330
-10 c0 -3 -4 -8 -10 -11 -5 -3 -10 -1 -10 4 0 6 5 11 10 11 6 0 10 -2 10 -4z
m5280 -6 c0 -5 -4 -10 -10 -10 -5 0 -10 5 -10 10 0 6 5 10 10 10 6 0 10 -4 10
-10z m-4775 -19 c-3 -6 -11 -11 -17 -11 -6 0 -6 6 2 15 14 17 26 13 15 -4z
m4775 -11 c0 -5 -5 -10 -11 -10 -5 0 -7 5 -4 10 3 6 8 10 11 10 2 0 4 -4 4
-10z m136 -16 c-4 -9 -9 -15 -11 -12 -3 3 -3 13 1 22 4 9 9 15 11 12 3 -3 3
-13 -1 -22z m-5669 -96 c-3 -8 -6 -5 -6 6 -1 11 2 17 5 13 3 -3 4 -12 1 -19z
m5701 -3 c0 -13 -7 -30 -16 -37 -13 -11 -15 -10 -9 12 4 14 7 31 7 38 0 6 4
12 9 12 5 0 9 -11 9 -25z m-5718 -19 c0 -2 -7 -9 -15 -16 -13 -11 -14 -10 -9
4 5 14 24 23 24 12z m-170 -16 c0 -5 -5 -10 -11 -10 -5 0 -7 5 -4 10 3 6 8 10
11 10 2 0 4 -4 4 -10z m5893 -17 c-6 -25 -32 -58 -39 -51 -5 5 34 68 42 68 1
0 0 -8 -3 -17z m-5931 -35 c-7 -7 -12 -8 -12 -2 0 14 12 26 19 19 2 -3 -1 -11
-7 -17z m5958 9 c0 -14 -20 -37 -32 -37 -4 0 -2 11 4 25 12 27 28 34 28 12z
m-103 -19 c-3 -8 -6 -5 -6 6 -1 11 2 17 5 13 3 -3 4 -12 1 -19z m-66 -111
c-10 -9 -11 -8 -5 6 3 10 9 15 12 12 3 -3 0 -11 -7 -18z m-5696 -63 c-9 -24
-21 -44 -27 -44 -10 0 -4 24 19 80 22 50 29 18 8 -36z m5705 42 c0 -2 -8 -10
-17 -17 -16 -13 -17 -12 -4 4 13 16 21 21 21 13z m7 -118 c-3 -8 -6 -5 -6 6
-1 11 2 17 5 13 3 -3 4 -12 1 -19z m-21 -14 c-4 -9 -9 -15 -11 -12 -3 3 -3 13
1 22 4 9 9 15 11 12 3 -3 3 -13 -1 -22z m26 -26 c-7 -7 -12 -8 -12 -2 0 14 12
26 19 19 2 -3 -1 -11 -7 -17z m-22 -21 c0 -23 -17 -47 -33 -47 -5 0 -4 7 3 15
6 8 9 19 5 25 -7 12 2 30 16 30 5 0 9 -10 9 -23z m38 -36 c-27 -23 -38 -19
-16 6 9 10 13 25 10 33 -4 11 -1 10 12 -3 17 -17 17 -18 -6 -36z m-5749 -67
c-12 -27 -13 -28 -17 -6 -2 12 2 39 10 60 l13 37 3 -31 c2 -16 -3 -43 -9 -60z
m5627 19 c-10 -10 -19 5 -10 18 6 11 8 11 12 0 2 -7 1 -15 -2 -18z m100 -170
c-10 -10 -19 5 -10 18 6 11 8 11 12 0 2 -7 1 -15 -2 -18z m-5736 -58 c0 -14
-4 -25 -10 -25 -5 0 -10 11 -10 25 0 14 5 25 10 25 6 0 10 -11 10 -25z m5693
-78 c-9 -16 -26 12 -18 30 7 17 8 17 15 -2 4 -11 5 -24 3 -28z m-31 -69 c-7
-7 -12 -8 -12 -2 0 14 12 26 19 19 2 -3 -1 -11 -7 -17z m-29 -98 c3 -11 1 -23
-4 -26 -5 -3 -9 6 -9 20 0 31 6 34 13 6z m-100 -25 c-3 -9 -8 -14 -10 -11 -3
3 -2 9 2 15 9 16 15 13 8 -4z m-5583 -37 c-14 -36 -48 -78 -62 -78 -5 0 1 18
13 40 13 22 26 40 30 40 4 0 9 10 12 22 4 12 9 19 13 15 4 -3 1 -21 -6 -39z
m5710 -33 c10 -31 9 -42 -9 -79 -11 -25 -29 -46 -40 -49 -28 -7 -26 -1 7 28
25 22 25 24 5 18 -15 -3 -24 -1 -25 8 0 8 -2 21 -3 29 -3 29 8 33 27 9 l19
-24 -6 38 c-5 33 -1 57 10 57 2 0 9 -16 15 -35z m-5680 -20 c-7 -9 -15 -13
-18 -10 -3 2 1 11 8 20 7 9 15 13 18 10 3 -2 -1 -11 -8 -20z m5608 -80 c-3 -3
-9 2 -12 12 -6 14 -5 15 5 6 7 -7 10 -15 7 -18z m31 -56 c-9 -17 -13 -19 -19
-8 -11 16 -4 29 16 29 12 0 13 -4 3 -21z m-69 -39 c0 -5 -5 -10 -11 -10 -5 0
-7 5 -4 10 3 6 8 10 11 10 2 0 4 -4 4 -10z m-57 -85 c4 -8 2 -17 -3 -20 -6 -4
-10 3 -10 14 0 25 6 27 13 6z m107 -14 c0 -6 -4 -13 -10 -16 -5 -3 -10 1 -10
9 0 9 5 16 10 16 6 0 10 -4 10 -9z m-5592 -41 c-14 -22 -24 -19 -15 5 4 8 11
15 17 15 6 0 6 -7 -2 -20z m5592 -5 c0 -8 -4 -15 -10 -15 -5 0 -10 7 -10 15 0
8 5 15 10 15 6 0 10 -7 10 -15z m-26 -27 c-3 -4 -12 -8 -20 -8 -12 0 -12 4 -2
20 8 13 15 16 19 8 4 -7 5 -16 3 -20z m-44 -22 c0 -3 -4 -8 -10 -11 -5 -3 -10
-1 -10 4 0 6 5 11 10 11 6 0 10 -2 10 -4z m-5505 -53 c-3 -16 -10 -32 -15 -37
-5 -5 -4 7 2 27 13 43 23 50 13 10z m5461 -30 c-10 -10 -19 5 -10 18 6 11 8
11 12 0 2 -7 1 -15 -2 -18z m-5405 -26 c-10 -9 -11 -8 -5 6 3 10 9 15 12 12 3
-3 0 -11 -7 -18z m19 -49 c0 -19 -18 -43 -25 -36 -4 3 -2 16 5 27 12 24 20 27
20 9z m5263 -3 c-3 -9 -8 -14 -10 -11 -3 3 -2 9 2 15 9 16 15 13 8 -4z m-5303
-3 c0 -5 -7 -17 -16 -28 -14 -17 -15 -17 -10 -1 3 10 6 23 6 28 0 5 5 9 10 9
6 0 10 -4 10 -8z m4310 4 c0 -2 -7 -9 -15 -16 -13 -11 -14 -10 -9 4 5 14 24
23 24 12z m-4154 -32 c-4 -9 -9 -15 -11 -12 -3 3 -3 13 1 22 4 9 9 15 11 12 3
-3 3 -13 -1 -22z m4541 -18 c-10 -26 -25 -18 -19 10 3 17 8 22 15 15 5 -5 7
-17 4 -25z m293 30 c0 -3 -4 -8 -10 -11 -5 -3 -10 -1 -10 4 0 6 5 11 10 11 6
0 10 -2 10 -4z m-760 -64 c-7 -13 -9 -8 -9 23 0 35 1 37 10 17 6 -15 5 -30 -1
-40z m757 5 c-12 -37 -27 -50 -27 -22 0 16 30 68 36 63 1 -2 -3 -20 -9 -41z
m-4977 17 c0 -19 -31 -74 -42 -74 -11 0 -10 4 8 50 16 41 34 53 34 24z m4570
8 c0 -4 -6 -14 -12 -21 -10 -11 -10 -14 0 -18 18 -7 15 -84 -6 -116 -10 -15
-22 -24 -25 -20 -12 11 -7 67 8 93 16 29 19 44 6 36 -5 -3 -12 1 -15 10 -3 9
-2 12 5 9 6 -4 13 2 16 14 5 20 23 30 23 13z m-670 -6 c0 -3 -4 -8 -10 -11 -5
-3 -10 -1 -10 4 0 6 5 11 10 11 6 0 10 -2 10 -4z m599 -91 c-1 -24 -3 -21 -15
20 -17 62 -17 79 1 40 8 -16 14 -43 14 -60z m132 42 c-8 -8 -11 -5 -11 9 0 27
14 41 18 19 2 -9 -1 -22 -7 -28z m565 11 c-11 -15 -16 -18 -16 -7 0 16 21 42
28 34 2 -2 -3 -14 -12 -27z m-4729 0 c-3 -8 -6 -5 -6 6 -1 11 2 17 5 13 3 -3
4 -12 1 -19z m3505 0 c-7 -7 -12 -8 -12 -2 0 14 12 26 19 19 2 -3 -1 -11 -7
-17z m308 -10 c-1 -33 -25 -77 -36 -65 -4 3 -3 27 0 52 9 54 36 64 36 13z
m-4104 -15 c-11 -11 -17 4 -9 23 7 18 8 18 11 1 2 -10 1 -21 -2 -24z m116 10
c3 -10 -1 -31 -8 -48 -13 -30 -13 -29 -14 23 0 50 12 64 22 25z m592 -7 c-3
-15 -8 -25 -11 -23 -2 3 -1 17 3 31 3 15 8 25 11 23 2 -3 1 -17 -3 -31z m3550
19 c-4 -8 -10 -15 -15 -15 -4 0 -6 7 -3 15 4 8 10 15 15 15 4 0 6 -7 3 -15z
m-4390 -19 c-3 -9 -10 -16 -15 -16 -6 0 -5 9 1 21 13 24 24 20 14 -5z m313 2
c-3 -8 -6 -5 -6 6 -1 11 2 17 5 13 3 -3 4 -12 1 -19z m229 -55 c7 -52 7 -86 1
-103 l-10 -25 -7 30 c-11 42 -12 175 -2 175 4 0 13 -35 18 -77z m71 55 c-3 -8
-6 -5 -6 6 -1 11 2 17 5 13 3 -3 4 -12 1 -19z m4114 -15 c-10 -17 -10 -16 -11
3 0 23 13 41 18 25 2 -6 -1 -18 -7 -28z m-936 18 c3 -5 1 -12 -5 -16 -5 -3
-10 1 -10 9 0 18 6 21 15 7z m212 -28 c-3 -10 -5 -4 -5 12 0 17 2 24 5 18 2
-7 2 -21 0 -30z m183 2 c0 -19 -4 -35 -10 -35 -11 0 -14 53 -3 63 11 12 13 8
13 -28z m-309 -22 c-9 -16 -10 -16 -11 -1 0 9 3 25 7 35 7 16 8 17 11 1 2 -10
-1 -25 -7 -35z m966 25 c-3 -8 -6 -5 -6 6 -1 11 2 17 5 13 3 -3 4 -12 1 -19z
m-4487 -8 c0 -11 -2 -20 -4 -20 -2 0 -6 9 -9 20 -3 11 -1 20 4 20 5 0 9 -9 9
-20z m720 5 c0 -8 -4 -15 -10 -15 -5 0 -10 7 -10 15 0 8 5 15 10 15 6 0 10 -7
10 -15z m3723 -5 c-3 -12 -8 -19 -11 -16 -5 6 5 36 12 36 2 0 2 -9 -1 -20z
m-743 -11 c0 -6 -4 -7 -10 -4 -5 3 -10 11 -10 16 0 6 5 7 10 4 6 -3 10 -11 10
-16z m-3425 -59 c-8 -25 -13 -34 -10 -20 3 14 5 38 5 55 0 19 3 26 10 19 7 -7
5 -25 -5 -54z m541 33 c-10 -10 -19 5 -10 18 6 11 8 11 12 0 2 -7 1 -15 -2
-18z m2714 -73 l-20 -75 2 60 c0 35 8 72 17 88 24 42 24 12 1 -73z m-3312 59
c-3 -8 -7 -3 -11 10 -4 17 -3 21 5 13 5 -5 8 -16 6 -23z m4236 -1 c-8 -46 -14
-62 -20 -55 -6 5 14 87 21 87 3 0 2 -15 -1 -32z m-1030 6 c9 -24 7 -31 -9 -38
-11 -4 -15 2 -15 24 0 32 14 40 24 14z m1006 6 c0 -5 -4 -10 -10 -10 -5 0 -10
5 -10 10 0 6 5 10 10 10 6 0 10 -4 10 -10z m-3393 -22 c-3 -8 -6 -5 -6 6 -1
11 2 17 5 13 3 -3 4 -12 1 -19z m2433 2 c0 -5 -2 -10 -4 -10 -3 0 -8 5 -11 10
-3 6 -1 10 4 10 6 0 11 -4 11 -10z m-2520 -17 c0 -5 -5 -15 -10 -23 -8 -12
-10 -11 -10 8 0 12 5 22 10 22 6 0 10 -3 10 -7z m93 -24 c3 -12 0 -36 -8 -53
l-13 -31 -1 30 c-1 17 -4 40 -7 53 -5 16 -2 22 9 22 8 0 17 -10 20 -21z m68
-20 c-9 -23 -10 -22 -10 11 -1 23 2 31 9 24 7 -7 7 -19 1 -35z m-425 4 c-10
-10 -19 5 -10 18 6 11 8 11 12 0 2 -7 1 -15 -2 -18z m2741 10 c-9 -9 -20 -13
-24 -9 -4 4 -1 11 7 16 25 16 35 11 17 -7z m-2787 -8 c0 -8 -4 -15 -10 -15 -5
0 -10 7 -10 15 0 8 5 15 10 15 6 0 10 -7 10 -15z m594 -50 c-24 -37 -27 -26
-6 26 13 34 18 39 20 22 2 -12 -4 -33 -14 -48z m-27 23 c-3 -8 -6 -5 -6 6 -1
11 2 17 5 13 3 -3 4 -12 1 -19z m2163 12 c0 -5 -5 -10 -11 -10 -5 0 -7 5 -4
10 3 6 8 10 11 10 2 0 4 -4 4 -10z m-2371 -33 c0 -21 -1 -21 -9 -2 -12 28 -12
37 0 30 6 -3 10 -16 9 -28z m133 11 c-7 -7 -12 -8 -12 -2 0 14 12 26 19 19 2
-3 -1 -11 -7 -17z m2298 -7 c-11 -21 -29 -36 -35 -29 -3 2 2 14 11 26 19 28
39 30 24 3z m-60 -1 c0 -5 -5 -10 -11 -10 -5 0 -7 5 -4 10 3 6 8 10 11 10 2 0
4 -4 4 -10z m49 -62 c-8 -14 -14 -18 -17 -10 -4 13 17 46 25 38 3 -2 -1 -15
-8 -28z m-2182 -20 c-3 -8 -6 -5 -6 6 -1 11 2 17 5 13 3 -3 4 -12 1 -19z m53
-47 c-12 -23 -30 -28 -30 -9 0 16 34 52 38 39 2 -5 -2 -19 -8 -30z m-73 -3
c-3 -8 -6 -5 -6 6 -1 11 2 17 5 13 3 -3 4 -12 1 -19z m2175 -42 c-3 -5 -9 -1
-12 10 -4 10 -5 23 -2 28 3 5 9 1 12 -10 4 -10 5 -23 2 -28z m-2148 8 c13 -5
14 -9 5 -20 -13 -16 -29 -9 -29 12 0 16 2 16 24 8z m2155 -70 c-27 -29 -36
-25 -18 8 7 12 14 26 15 31 1 4 2 10 3 15 1 4 6 -1 12 -11 9 -15 6 -24 -12
-43z m-2068 19 c-12 -20 -14 -14 -5 12 4 9 9 14 11 11 3 -2 0 -13 -6 -23z
m2031 -15 c-6 -6 -15 -8 -19 -4 -4 4 -1 11 7 16 19 12 27 3 12 -12z m-2142
-11 c0 -2 -10 -12 -22 -23 l-23 -19 19 23 c18 21 26 27 26 19z m2125 -46 c-3
-6 -11 -11 -17 -11 -6 0 -6 6 2 15 14 17 26 13 15 -4z m65 16 c0 -2 -10 -12
-22 -23 l-23 -19 19 23 c18 21 26 27 26 19z m-2180 -57 c-17 -32 -22 -18 -8
21 8 22 13 28 16 17 2 -9 -2 -27 -8 -38z m2150 -49 c0 -5 -7 -12 -16 -15 -14
-5 -15 -4 -4 9 14 17 20 19 20 6z m-2070 -10 c0 -6 -4 -13 -10 -16 -5 -3 -10
1 -10 9 0 9 5 16 10 16 6 0 10 -4 10 -9z m2068 -58 c-5 -25 -28 -28 -28 -4 0
12 6 21 16 21 9 0 14 -7 12 -17z m-1 -53 c1 -11 -3 -23 -9 -26 -7 -5 -9 -1 -5
9 3 10 2 17 -4 17 -6 0 -7 5 -4 10 10 16 21 12 22 -10z m-54 -5 c4 -8 2 -17
-3 -20 -6 -4 -10 3 -10 14 0 25 6 27 13 6z m-2157 -62 c-14 -26 -25 -45 -26
-40 0 12 42 98 47 93 2 -2 -7 -26 -21 -53z m2186 -31 c3 -9 1 -26 -3 -37 -4
-11 -8 -32 -8 -47 -1 -19 -6 -28 -17 -28 -11 0 -15 6 -11 20 3 11 2 20 -2 20
-13 0 -11 61 2 76 17 19 34 17 39 -4z m-96 -120 c-36 -37 -40 -24 -8 28 24 41
27 43 30 21 3 -15 -5 -33 -22 -49z m-2112 6 c-4 -13 -20 -45 -36 -73 -23 -41
-27 -44 -22 -20 10 48 42 115 54 115 7 0 9 -8 4 -22z m2146 -7 c0 -16 -59 -76
-66 -68 -4 4 8 22 27 41 38 39 39 40 39 27z m46 -48 c-10 -10 -19 5 -10 18 6
11 8 11 12 0 2 -7 1 -15 -2 -18z m-39 -15 c-3 -8 -6 -5 -6 6 -1 11 2 17 5 13
3 -3 4 -12 1 -19z m-2071 -49 c-18 -41 -21 -26 -4 22 6 18 13 29 15 23 2 -6
-3 -26 -11 -45z m2114 25 c0 -8 -7 -14 -15 -14 -15 0 -21 21 -9 33 10 9 24 -2
24 -19z m40 -34 c-8 -5 -17 -7 -19 -4 -3 3 1 9 9 14 8 5 17 7 19 4 3 -3 -1 -9
-9 -14z m44 8 c-16 -28 -47 -57 -56 -52 -5 4 3 19 18 35 28 29 51 39 38 17z
m-84 -8 c0 -5 -5 -10 -11 -10 -5 0 -7 5 -4 10 3 6 8 10 11 10 2 0 4 -4 4 -10z
m-26 -32 c-10 -16 -22 -7 -17 13 4 15 8 17 14 8 4 -7 5 -17 3 -21z m-41 -20
c-3 -18 -12 -39 -19 -46 -9 -7 -10 -8 -4 0 6 7 10 24 10 38 0 23 7 40 16 40 2
0 1 -15 -3 -32z m-2018 -27 c-17 -17 -17 -13 2 37 6 16 6 16 11 -2 2 -10 -4
-26 -13 -35z m-35 -10 c-12 -45 -30 -64 -30 -31 0 24 29 85 36 77 3 -3 0 -23
-6 -46z m2126 -15 c-15 -20 -32 -36 -38 -36 -6 0 -5 7 3 18 7 9 20 26 29 38 8
11 -10 -5 -39 -35 -30 -31 -47 -45 -38 -31 10 14 20 32 24 40 4 8 18 27 32 43
22 24 27 26 39 13 13 -13 12 -19 -12 -50z m-113 19 c-7 -21 -13 -19 -13 6 0
11 4 18 10 14 5 -3 7 -12 3 -20z m66 -106 c-8 -5 -21 -9 -29 -9 -10 1 -7 7 10
21 17 14 26 17 28 9 3 -7 -2 -16 -9 -21z m-2049 -4 c-7 -9 -15 -13 -17 -11 -7
7 7 26 19 26 6 0 6 -6 -2 -15z m20 -54 c0 -5 -9 -19 -20 -32 -19 -23 -19 -23
-20 -3 0 20 17 44 32 44 4 0 8 -4 8 -9z m2002 -13 c-7 -7 -12 -8 -12 -2 0 14
12 26 19 19 2 -3 -1 -11 -7 -17z m-2089 -3 c-3 -9 -8 -14 -10 -11 -3 3 -2 9 2
15 9 16 15 13 8 -4z m17 -71 c-18 -21 -24 -10 -9 18 8 14 14 18 17 10 2 -7 -2
-19 -8 -28z m2057 14 c-3 -8 -6 -5 -6 6 -1 11 2 17 5 13 3 -3 4 -12 1 -19z
m-32 -18 c-3 -5 -13 -10 -21 -10 -8 0 -12 5 -9 10 3 6 13 10 21 10 8 0 12 -4
9 -10z m18 -76 c-23 -17 -33 -17 -33 0 0 16 19 25 38 18 9 -3 8 -8 -5 -18z
m-2006 -46 c-3 -7 -5 -2 -5 12 0 14 2 19 5 13 2 -7 2 -19 0 -25z m-56 -180
c-19 -114 -36 -142 -28 -47 5 56 34 156 42 147 2 -2 -5 -47 -14 -100z m2087
52 c-12 -18 -38 -35 -38 -25 0 8 34 43 43 44 4 1 2 -8 -5 -19z m-2051 -12 c-3
-8 -6 -5 -6 6 -1 11 2 17 5 13 3 -3 4 -12 1 -19z m13 -43 c0 -8 -4 -15 -10
-15 -5 0 -10 7 -10 15 0 8 5 15 10 15 6 0 10 -7 10 -15z m-20 -39 c0 -3 -4 -8
-10 -11 -5 -3 -10 -1 -10 4 0 6 5 11 10 11 6 0 10 -2 10 -4z m2021 -109 c-10
-9 -11 -8 -5 6 3 10 9 15 12 12 3 -3 0 -11 -7 -18z m1 -49 c-7 -7 -12 -8 -12
-2 0 14 12 26 19 19 2 -3 -1 -11 -7 -17z m-1941 -31 c-10 -9 -11 -8 -5 6 3 10
9 15 12 12 3 -3 0 -11 -7 -18z m-48 -42 c4 -8 2 -17 -3 -20 -6 -4 -10 3 -10
14 0 25 6 27 13 6z m-4 -159 c-30 -65 -37 -49 -8 21 13 32 25 51 27 42 2 -10
-7 -38 -19 -63z m2109 23 c-14 -30 -24 -39 -35 -34 -9 3 -20 0 -25 -7 -5 -9
-8 -6 -8 10 0 12 3 22 8 22 4 0 18 10 32 21 21 17 22 20 5 15 -19 -6 -19 -5
-2 8 35 27 47 9 25 -35z m-68 37 c0 -3 -4 -8 -10 -11 -5 -3 -10 -1 -10 4 0 6
5 11 10 11 6 0 10 -2 10 -4z m-40 -35 c0 -5 -7 -11 -14 -14 -10 -4 -13 -1 -9
9 6 15 23 19 23 5z m0 -36 c-7 -8 -18 -15 -24 -15 -6 0 -2 7 8 15 25 19 32 19
16 0z m-1975 -39 c-18 -38 -35 -55 -35 -35 0 15 41 81 47 75 3 -2 -3 -21 -12
-40z m1977 2 c-7 -7 -12 -8 -12 -2 0 14 12 26 19 19 2 -3 -1 -11 -7 -17z m81
-6 c-6 -25 -18 -29 -27 -7 -3 8 2 19 12 24 21 12 23 10 15 -17z m-2122 -35
c-10 -9 -11 -8 -5 6 3 10 9 15 12 12 3 -3 0 -11 -7 -18z m2149 -16 c0 -5 -7
-14 -15 -21 -12 -10 -15 -10 -15 2 0 8 3 18 7 21 9 10 23 9 23 -2z m-2077 -26
c-3 -9 -8 -14 -10 -11 -3 3 -2 9 2 15 9 16 15 13 8 -4z m2022 5 c-3 -5 -13
-10 -21 -10 -8 0 -14 5 -14 10 0 6 9 10 21 10 11 0 17 -4 14 -10z m-2128 -32
c-3 -7 -5 -2 -5 12 0 14 2 19 5 13 2 -7 2 -19 0 -25z m2123 2 c-20 -13 -33
-13 -25 0 3 6 14 10 23 10 15 0 15 -2 2 -10z m-2060 -40 c-16 -31 -23 -18 -8
15 7 15 14 23 16 17 2 -6 -2 -21 -8 -32z m35 4 c-1 -14 -17 -40 -35 -58 l-32
-31 17 35 c20 38 46 80 50 80 2 0 2 -12 0 -26z m2020 6 c-3 -5 -10 -10 -16
-10 -5 0 -9 5 -9 10 0 6 7 10 16 10 8 0 12 -4 9 -10z m-9 -66 c-4 -9 -9 -15
-11 -12 -3 3 -3 13 1 22 4 9 9 15 11 12 3 -3 3 -13 -1 -22z m-2015 -91 c-8
-15 -10 -15 -11 -2 0 17 10 32 18 25 2 -3 -1 -13 -7 -23z m2079 -62 c0 -5 -7
-12 -16 -15 -14 -5 -15 -4 -4 9 14 17 20 19 20 6z m49 -28 c-13 -16 -12 -16
14 0 28 18 28 18 17 -2 -7 -14 -19 -20 -35 -19 -29 3 -32 13 -7 27 24 15 26
13 11 -6z m-2112 -85 c-3 -8 -6 -5 -6 6 -1 11 2 17 5 13 3 -3 4 -12 1 -19z
m83 -17 c-10 -20 -30 -29 -30 -13 0 4 8 18 17 32 19 27 30 12 13 -19z m-93
-63 c-3 -8 -6 -5 -6 6 -1 11 2 17 5 13 3 -3 4 -12 1 -19z m2083 -113 c-7 -9
-15 -13 -18 -10 -3 2 1 11 8 20 7 9 15 13 18 10 3 -2 -1 -11 -8 -20z m-2056
-26 c5 -31 2 -42 -20 -68 -35 -42 -44 -39 -33 11 8 35 39 102 45 95 1 -1 4
-18 8 -38z m1936 32 c0 -5 -7 -12 -16 -15 -14 -5 -15 -4 -4 9 14 17 20 19 20
6z m182 -38 c-29 -40 -82 -89 -82 -76 0 7 12 21 26 32 15 12 22 21 15 21 -19
0 -12 15 17 32 39 25 46 22 24 -9z m-2071 -94 c-5 -13 -10 -19 -10 -12 -1 15
10 45 15 40 3 -2 0 -15 -5 -28z m2017 -4 c-10 -23 -28 -34 -28 -18 0 7 31 43
36 43 2 0 -2 -11 -8 -25z m-71 -17 c-3 -8 -6 -5 -6 6 -1 11 2 17 5 13 3 -3 4
-12 1 -19z m-2045 -10 c-7 -7 -12 -8 -12 -2 0 6 3 14 7 17 3 4 9 5 12 2 2 -3
-1 -11 -7 -17z m104 -144 c-14 -27 -26 -43 -26 -36 0 15 43 92 48 87 2 -2 -8
-25 -22 -51z m1916 -56 c-7 -7 -12 -8 -12 -2 0 14 12 26 19 19 2 -3 -1 -11 -7
-17z m-1923 -44 c-17 -21 -21 -11 -8 22 10 23 13 25 16 11 3 -10 -1 -25 -8
-33z m1936 -74 c3 -5 3 -15 -1 -21 -6 -11 -23 6 -24 24 0 10 18 9 25 -3z m-81
-55 c-4 -8 -13 -15 -22 -15 -13 0 -12 3 4 15 24 18 25 18 18 0z m150 -148 c-3
-9 -20 -20 -37 -26 l-32 -11 34 30 c37 31 45 33 35 7z m-25 -73 c-7 -16 -11
-42 -10 -59 1 -23 0 -27 -8 -15 -6 8 -11 30 -11 48 0 17 -5 32 -11 32 -5 0 -7
5 -3 11 5 8 9 8 14 -1 6 -9 12 -6 21 11 16 32 23 10 8 -27z m-70 -39 c-22 -36
-37 -49 -20 -16 6 10 7 21 3 25 -3 4 0 11 8 16 27 17 30 10 9 -25z m-1949 -35
c-6 -12 -14 -20 -17 -17 -2 3 1 14 8 26 17 26 24 19 9 -9z m1958 -41 c-18 -12
-23 17 -6 38 12 15 13 14 16 -7 2 -12 -2 -27 -10 -31z m-48 27 c0 -3 -4 -8
-10 -11 -5 -3 -10 -1 -10 4 0 6 5 11 10 11 6 0 10 -2 10 -4z m84 -11 c3 -8 1
-15 -4 -15 -6 0 -10 7 -10 15 0 8 2 15 4 15 2 0 6 -7 10 -15z m-17 -102 c-3
-3 -11 -2 -17 2 -8 5 -7 11 2 22 12 15 13 14 16 -1 2 -10 1 -20 -1 -23z m23
-13 c0 -5 -5 -10 -11 -10 -5 0 -7 5 -4 10 3 6 8 10 11 10 2 0 4 -4 4 -10z m40
-10 c0 -5 -5 -10 -11 -10 -5 0 -7 5 -4 10 3 6 8 10 11 10 2 0 4 -4 4 -10z
m-90 -14 c0 -2 -8 -10 -17 -17 -16 -13 -17 -12 -4 4 13 16 21 21 21 13z
m-2048 -199 c-11 -12 -25 -33 -32 -45 -6 -13 -14 -22 -16 -19 -5 4 21 64 46
107 l15 25 3 -23 c2 -14 -5 -33 -16 -45z m2048 28 c0 -8 -4 -15 -10 -15 -5 0
-10 7 -10 15 0 8 5 15 10 15 6 0 10 -7 10 -15z m-58 -27 c-7 -7 -12 -8 -12 -2
0 14 12 26 19 19 2 -3 -1 -11 -7 -17z m26 -25 c-14 -18 -19 -12 -11 16 4 16 8
19 14 10 4 -7 3 -19 -3 -26z m-2032 -48 c-44 -73 -55 -83 -26 -25 29 56 52 92
57 87 2 -2 -12 -30 -31 -62z m1984 51 c0 -3 -4 -8 -10 -11 -5 -3 -10 -1 -10 4
0 6 5 11 10 11 6 0 10 -2 10 -4z m10 -26 c0 -5 -5 -10 -11 -10 -5 0 -7 5 -4
10 3 6 8 10 11 10 2 0 4 -4 4 -10z m70 -19 c0 -18 -18 -41 -32 -41 -5 0 -1 11
8 25 8 13 12 30 8 36 -4 8 -3 9 4 5 7 -4 12 -15 12 -25z m-2012 12 c-50 -112
-123 -213 -83 -115 24 57 65 122 76 122 6 0 9 -3 7 -7z m2075 -86 c-15 -19
-37 -38 -48 -43 -11 -5 -19 -16 -17 -25 1 -9 -5 -22 -13 -29 -9 -8 -15 -8 -15
-2 0 6 5 14 10 17 6 4 8 11 4 16 -6 11 79 99 97 99 6 0 -2 -15 -18 -33z m-83
8 c0 -2 -9 -9 -20 -15 -12 -6 -20 -7 -20 -1 0 5 8 12 18 14 9 3 18 5 20 6 1 0
2 -1 2 -4z m-1950 -36 c-7 -11 -14 -18 -17 -15 -8 8 5 36 17 36 7 0 7 -6 0
-21z m-50 -89 c-17 -32 -22 -18 -8 21 8 22 13 28 16 17 2 -9 -2 -27 -8 -38z
m19 -40 c-34 -65 -49 -77 -41 -32 4 22 57 92 70 92 2 0 -11 -27 -29 -60z m-73
13 c-8 -15 -15 -25 -16 -21 0 12 23 58 27 54 3 -2 -2 -17 -11 -33z m-6 -103
c0 -5 -5 -10 -11 -10 -5 0 -7 5 -4 10 3 6 8 10 11 10 2 0 4 -4 4 -10z m2040
-34 c-16 -48 -35 -60 -27 -16 7 33 26 64 34 56 3 -3 0 -21 -7 -40z m-2110 -21
c-6 -15 -13 -25 -17 -22 -3 4 0 21 8 38 16 39 24 24 9 -16z m81 -35 c12 0 3
-17 -34 -60 -15 -18 -30 -30 -33 -27 -4 3 -3 28 1 56 5 37 10 48 21 44 9 -3
14 2 14 14 0 34 15 37 18 4 2 -17 8 -31 13 -31z m2121 28 c-15 -15 -42 -19
-42 -6 0 6 6 8 14 5 8 -3 17 1 20 10 4 9 9 13 13 9 4 -3 1 -12 -5 -18z m80
-40 c-11 -19 -23 -49 -27 -66 -7 -32 -21 -49 -33 -38 -3 4 2 19 11 35 9 15 14
30 11 33 -2 3 2 11 11 18 8 7 15 17 15 22 0 6 -7 5 -15 -2 -9 -7 -18 -11 -21
-8 -3 3 10 15 28 26 18 12 34 19 36 18 2 -2 -6 -19 -16 -38z m-2182 -122 c-22
-21 -31 -25 -26 -13 3 10 6 23 6 28 0 6 5 7 10 4 6 -4 16 8 23 27 11 30 12 31
15 9 3 -17 -6 -33 -28 -55z m2110 53 c-7 -11 -14 -18 -17 -15 -3 3 0 12 7 21
18 21 23 19 10 -6z m-20 -59 c0 -5 -5 -10 -11 -10 -5 0 -7 5 -4 10 3 6 8 10
11 10 2 0 4 -4 4 -10z m43 -10 c-3 -11 -9 -20 -13 -20 -5 0 -6 9 -3 20 3 11 9
20 13 20 5 0 6 -9 3 -20z m-53 -30 c0 -5 -5 -10 -11 -10 -5 0 -7 5 -4 10 3 6
8 10 11 10 2 0 4 -4 4 -10z m20 -50 c0 -5 -5 -10 -11 -10 -5 0 -7 5 -4 10 3 6
8 10 11 10 2 0 4 -4 4 -10z m-60 -124 c0 -2 -7 -9 -15 -16 -13 -11 -14 -10 -9
4 5 14 24 23 24 12z m-1865 -65 c3 -5 1 -12 -4 -15 -5 -3 -11 1 -15 9 -6 16 9
21 19 6z m-115 -58 c-10 -16 -11 -15 -6 7 3 14 6 32 7 40 1 8 4 5 6 -7 2 -12
-1 -30 -7 -40z m95 -23 c-10 -11 -20 -18 -23 -15 -7 6 18 35 31 35 5 0 2 -9
-8 -20z m-24 -63 c-10 -9 -11 -8 -5 6 3 10 9 15 12 12 3 -3 0 -11 -7 -18z m9
-37 c0 -5 -4 -10 -10 -10 -5 0 -10 5 -10 10 0 6 5 10 10 10 6 0 10 -4 10 -10z
m1727 -32 c-3 -7 -5 -2 -5 12 0 14 2 19 5 13 2 -7 2 -19 0 -25z m83 10 c0 -19
-2 -20 -10 -8 -13 19 -13 30 0 30 6 0 10 -10 10 -22z m-1778 -48 c-6 -41 -12
-38 -12 6 0 19 4 33 8 30 5 -3 7 -19 4 -36z m1778 0 c0 -11 -2 -20 -4 -20 -2
0 -6 9 -9 20 -3 11 -1 20 4 20 5 0 9 -9 9 -20z m-1230 -22 c0 -23 -3 -29 -9
-19 -8 12 -4 51 5 51 2 0 4 -15 4 -32z m-583 0 c-3 -8 -6 -5 -6 6 -1 11 2 17
5 13 3 -3 4 -12 1 -19z m200 -30 c-3 -8 -6 -5 -6 6 -1 11 2 17 5 13 3 -3 4
-12 1 -19z m-80 -25 c-3 -10 -5 -4 -5 12 0 17 2 24 5 18 2 -7 2 -21 0 -30z
m480 0 c-3 -10 -5 -4 -5 12 0 17 2 24 5 18 2 -7 2 -21 0 -30z m500 5 c-3 -8
-6 -5 -6 6 -1 11 2 17 5 13 3 -3 4 -12 1 -19z m470 0 c-3 -8 -6 -5 -6 6 -1 11
2 17 5 13 3 -3 4 -12 1 -19z m-1190 -10 c-3 -8 -6 -5 -6 6 -1 11 2 17 5 13 3
-3 4 -12 1 -19z m101 -73 l0 -50 -15 46 c-10 30 -13 57 -8 75 l8 29 7 -25 c5
-14 8 -47 8 -75z m552 76 c0 -6 -4 -13 -10 -16 -5 -3 -10 1 -10 9 0 9 5 16 10
16 6 0 10 -4 10 -9z m-355 -58 c-10 -40 -17 -20 -9 23 5 24 9 32 12 21 2 -10
1 -30 -3 -44z m845 25 c0 -5 -4 -8 -10 -8 -5 0 -10 10 -10 23 0 18 2 19 10 7
5 -8 10 -18 10 -22z m-1430 -3 c0 -14 -4 -25 -9 -25 -4 0 -6 11 -3 25 2 14 6
25 8 25 2 0 4 -11 4 -25z m779 -37 c0 -33 -2 -38 -9 -23 -12 28 -12 65 0 65 6
0 10 -19 9 -42z m-459 11 c0 -6 -4 -7 -10 -4 -5 3 -10 11 -10 16 0 6 5 7 10 4
6 -3 10 -11 10 -16z m629 -26 c0 -33 -1 -35 -9 -15 -8 20 -4 52 6 52 2 0 4
-17 3 -37z m86 -31 c-6 -14 -9 -12 -16 11 -11 40 1 71 14 34 5 -15 6 -35 2
-45z m615 23 c0 -17 -2 -17 -10 -5 -5 8 -10 24 -10 35 0 17 2 17 10 5 5 -8 10
-24 10 -35z m-631 -70 l0 -20 -9 20 c-5 11 -9 27 -9 35 -1 13 0 13 9 0 5 -8 9
-24 9 -35z"/>
<path d="M6370 11715 c-7 -9 -10 -18 -7 -21 3 -3 10 4 17 15 13 25 8 27 -10 6z"/>
<path d="M4967 1323 c-4 -3 -7 -13 -7 -22 1 -13 3 -13 11 2 11 19 8 33 -4 20z"/>
<path d="M8500 12310 c-8 -5 -10 -10 -5 -10 6 0 17 5 25 10 8 5 11 10 5 10 -5
0 -17 -5 -25 -10z"/>
<path d="M8945 12189 c-4 -6 -5 -12 -2 -15 2 -3 7 2 10 11 7 17 1 20 -8 4z"/>
<path d="M8429 12163 c-13 -16 -12 -17 4 -4 16 13 21 21 13 21 -2 0 -10 -8
-17 -17z"/>
<path d="M9369 11973 l-24 -28 28 24 c15 14 27 26 27 28 0 8 -8 1 -31 -24z"/>
<path d="M6679 11963 c-13 -16 -12 -17 4 -4 16 13 21 21 13 21 -2 0 -10 -8
-17 -17z"/>
<path d="M6160 11770 c-8 -5 -12 -12 -9 -15 4 -3 12 1 19 10 14 17 11 19 -10
5z"/>
<path d="M5362 10820 c0 -14 2 -19 5 -12 2 6 2 18 0 25 -3 6 -5 1 -5 -13z"/>
<path d="M7211 8960 c-35 -17 -62 -32 -60 -35 2 -2 36 12 74 30 39 19 66 34
60 35 -5 0 -39 -14 -74 -30z"/>
<path d="M7208 8593 c7 -3 16 -2 19 1 4 3 -2 6 -13 5 -11 0 -14 -3 -6 -6z"/>
<path d="M8355 8140 c-3 -6 1 -7 9 -4 18 7 21 14 7 14 -6 0 -13 -4 -16 -10z"/>
<path d="M7441 8074 c0 -11 3 -14 6 -6 3 7 2 16 -1 19 -3 4 -6 -2 -5 -13z"/>
<path d="M4026 8065 c-3 -9 -6 -22 -5 -28 0 -7 5 -1 10 12 5 13 8 26 5 28 -2
2 -6 -3 -10 -12z"/>
<path d="M7810 8070 c-8 -5 -10 -10 -5 -10 6 0 17 5 25 10 8 5 11 10 5 10 -5
0 -17 -5 -25 -10z"/>
<path d="M7299 8003 c-13 -16 -12 -17 4 -4 9 7 17 15 17 17 0 8 -8 3 -21 -13z"/>
<path d="M7829 7963 l-24 -28 28 24 c15 14 27 26 27 28 0 8 -8 1 -31 -24z"/>
<path d="M9460 7970 c-8 -5 -10 -10 -5 -10 6 0 17 5 25 10 8 5 11 10 5 10 -5
0 -17 -5 -25 -10z"/>
<path d="M9058 6343 c7 -3 16 -2 19 1 4 3 -2 6 -13 5 -11 0 -14 -3 -6 -6z"/>
<path d="M8871 6010 c0 -8 4 -24 9 -35 l9 -20 0 20 c0 11 -4 27 -9 35 -9 13
-10 13 -9 0z"/>
<path d="M7170 1465 c-14 -8 -20 -14 -14 -15 5 0 19 7 30 15 24 18 16 19 -16
0z"/>
</g>
</svg>
