<?xml version="1.0" standalone="no"?>
<!DOCTYPE svg PUBLIC "-//W3C//DTD SVG 20010904//EN"
 "http://www.w3.org/TR/2001/REC-SVG-20010904/DTD/svg10.dtd">
<svg version="1.0" xmlns="http://www.w3.org/2000/svg"
 width="1280.000000pt" height="1280.000000pt" viewBox="0 0 1280.000000 1280.000000"
 preserveAspectRatio="xMidYMid meet">
<g transform="translate(0.000000,1280.000000) scale(0.100000,-0.100000)"
fill="#e91e63" stroke="none">
<path d="M3352 11373 c-8 -14 -9 -24 -2 -28 12 -7 24 18 18 37 -3 8 -9 5 -16
-9z"/>
<path d="M3295 11329 c-4 -6 -5 -12 -2 -15 2 -3 7 2 10 11 7 17 1 20 -8 4z"/>
<path d="M2945 11296 c-22 -12 -53 -34 -69 -49 -16 -15 -37 -27 -47 -27 -11 0
-27 -15 -39 -37 -39 -70 -90 -137 -109 -145 -14 -5 -19 -3 -15 5 2 7 -5 13
-19 13 -16 1 -28 -8 -40 -29 -10 -16 -20 -27 -24 -24 -9 10 -43 -12 -43 -27 0
-8 -7 -19 -15 -26 -18 -15 -19 -7 -3 20 7 10 9 23 4 27 -13 13 -46 -40 -46
-74 0 -49 -26 -54 -43 -8 -7 18 -17 -1 -39 -76 -16 -55 -30 -82 -56 -107 -36
-34 -38 -59 -2 -27 11 10 22 16 25 14 8 -8 -15 -78 -28 -86 -7 -5 -19 -22 -28
-38 -13 -26 -13 -33 -2 -43 19 -18 16 -47 -9 -95 -12 -23 -25 -60 -30 -82 -35
-156 -49 -264 -37 -285 5 -8 9 -12 9 -8 0 4 12 -4 26 -17 l26 -24 -20 -38
c-26 -48 -32 -79 -25 -115 5 -27 7 -28 23 -13 17 15 20 15 44 0 17 -11 26 -26
26 -44 0 -14 5 -33 10 -41 8 -13 11 -12 24 5 16 20 16 20 22 -3 4 -13 13 -21
22 -20 10 2 20 -13 31 -52 9 -30 20 -61 25 -69 16 -24 28 -92 35 -191 4 -52 8
-85 9 -73 1 12 7 25 12 28 6 4 8 26 4 55 -7 51 11 150 27 150 5 0 9 -18 9 -40
0 -47 11 -52 27 -10 6 17 18 30 27 30 22 0 20 -26 -4 -50 -18 -18 -25 -80 -9
-80 9 0 29 49 29 70 0 11 7 20 15 20 8 0 15 7 15 15 0 8 5 15 10 15 6 0 10 -4
10 -9 0 -6 -4 -13 -10 -16 -15 -9 -12 -25 5 -25 17 0 38 -70 29 -94 -4 -11 -2
-16 7 -14 10 2 14 -8 13 -34 -1 -21 3 -38 7 -38 9 0 10 10 13 72 1 15 5 30 8
33 8 8 58 -24 58 -36 0 -22 21 -6 35 27 13 31 17 34 30 24 8 -7 15 -20 15 -29
0 -27 25 -57 35 -42 5 9 17 4 40 -19 l33 -32 7 23 c22 80 64 128 57 65 -2 -18
2 -26 13 -26 8 0 20 -11 26 -24 10 -22 13 -23 40 -9 20 10 29 22 29 39 0 13 4
24 9 24 14 0 23 -52 12 -63 -14 -14 -14 -47 -1 -47 6 0 10 -10 10 -22 0 -22 1
-22 25 6 14 16 25 37 25 48 0 10 5 18 10 18 6 0 10 -30 10 -70 0 -43 4 -70 11
-70 6 0 8 9 4 21 -4 13 -1 25 8 32 9 7 17 21 19 32 5 30 32 25 36 -7 4 -33 10
-35 28 -10 12 15 15 15 24 2 8 -13 10 -13 10 2 0 23 33 41 48 26 7 -7 9 1 5
29 -4 28 -1 42 11 52 9 7 16 20 16 27 0 8 7 14 15 14 11 0 15 -11 15 -36 0
-43 20 -114 32 -114 4 0 8 23 8 50 0 36 4 50 14 50 9 0 16 17 21 51 9 61 29
73 61 36 l22 -26 6 32 c4 18 9 47 13 65 7 43 19 41 27 -6 4 -26 15 -45 35 -60
l29 -21 7 35 c4 26 9 33 18 26 9 -8 12 6 12 58 0 38 3 71 7 75 15 15 48 -16
49 -48 1 -18 4 -43 8 -57 6 -21 8 -22 14 -7 3 9 2 29 -3 43 -23 61 -3 129 26
89 15 -20 20 -12 26 35 2 14 10 26 18 28 32 6 53 -25 71 -104 l19 -79 -7 70
c-11 107 -3 225 15 225 3 0 16 -10 29 -22 22 -21 23 -21 23 -2 0 11 4 24 10
30 6 6 6 22 0 44 -13 45 -13 97 0 105 6 3 13 -1 16 -9 7 -18 25 -11 23 7 -3
28 3 37 25 37 14 0 27 4 30 8 7 12 -16 85 -29 94 -5 4 -10 41 -10 83 0 41 -4
75 -9 75 -4 0 -5 16 -2 35 4 21 2 42 -6 54 -9 15 -9 25 0 46 14 30 32 25 32
-10 0 -13 4 -26 9 -30 11 -6 3 61 -10 87 -5 9 -9 27 -9 40 l0 22 -16 -22 c-16
-23 -44 -30 -44 -11 0 19 21 49 34 49 15 0 28 24 19 34 -4 3 -14 -1 -23 -9
-26 -24 -48 -9 -48 32 0 20 -4 38 -10 42 -5 3 -13 20 -16 38 -6 25 -3 36 13
50 26 22 27 33 2 33 -17 0 -18 4 -11 31 9 30 8 31 -9 15 -9 -9 -21 -16 -24
-16 -12 0 -8 45 5 58 16 16 -5 16 -32 0 -10 -7 -22 -9 -25 -6 -10 10 14 48 30
48 8 0 19 9 25 19 14 28 13 36 -5 21 -23 -19 -48 -5 -36 19 8 15 7 20 -6 26
-10 3 -19 1 -21 -4 -2 -6 -12 -11 -22 -11 -11 0 -40 -13 -66 -30 -26 -16 -51
-27 -55 -24 -14 8 -10 43 7 70 20 30 13 40 -16 24 -20 -11 -21 -10 -15 9 8 26
-11 28 -37 4 -17 -15 -18 -14 -18 22 0 22 7 47 18 58 17 20 17 20 -8 5 -14 -9
-44 -18 -67 -21 -49 -6 -55 6 -26 50 17 25 17 26 -7 18 -23 -7 -24 -7 -10 10
14 17 13 18 -18 13 -24 -3 -32 -1 -32 10 0 12 -4 11 -21 -4 -22 -19 -22 -19
-14 6 7 22 6 23 -9 11 -9 -7 -16 -19 -16 -27 0 -18 -38 -81 -53 -87 -9 -3 -13
10 -13 47 0 49 0 51 -27 49 -34 -2 -34 13 -2 43 14 13 25 28 25 35 0 6 -20
-10 -45 -37 -25 -26 -48 -44 -53 -40 -4 4 -7 28 -6 52 1 26 -4 44 -10 44 -16
-1 -52 -32 -59 -52 -9 -25 -40 -24 -32 1 9 29 -7 32 -37 6 -26 -23 -28 -45 -1
-23 7 6 16 8 19 5 9 -9 -16 -47 -31 -47 -7 0 -17 -9 -20 -20 -3 -11 -11 -20
-16 -20 -11 0 -11 -2 1 38 8 30 7 33 -8 27 -41 -17 -52 -17 -52 0 0 25 -28 1
-32 -28 -2 -12 -12 -23 -23 -26 -20 -3 -20 -3 -2 17 11 12 16 26 12 31 -8 14
-95 -58 -89 -74 3 -6 -3 -18 -12 -26 -16 -13 -17 -12 -12 8 4 16 2 20 -10 16
-12 -5 -14 1 -10 40 3 26 3 47 0 47 -3 0 -15 -9 -27 -20 -19 -18 -24 -19 -34
-6 -10 12 -9 18 9 33 11 10 24 18 28 18 18 1 52 27 52 40 0 19 -5 18 -55 -9z
m-61 -101 c-6 -16 -24 -21 -24 -7 0 11 11 22 21 22 5 0 6 -7 3 -15z m426 6 c0
-6 -4 -13 -10 -16 -5 -3 -10 1 -10 9 0 9 5 16 10 16 6 0 10 -4 10 -9z m-374
-44 c2 -26 -13 -57 -27 -57 -11 0 -4 63 8 83 7 12 16 0 19 -26z m234 -8 c-7
-11 -14 -18 -17 -15 -8 8 5 36 17 36 7 0 7 -6 0 -21z m95 -30 c-4 -5 -13 -9
-22 -9 -13 0 -13 3 -3 15 13 15 35 11 25 -6z m-400 1 c-3 -5 -11 -10 -16 -10
-6 0 -7 5 -4 10 3 6 11 10 16 10 6 0 7 -4 4 -10z m-12 -75 c-3 -8 -9 -15 -14
-15 -10 0 -12 24 -3 33 11 11 24 -3 17 -18z m37 0 c0 -8 -4 -15 -10 -15 -5 0
-7 7 -4 15 4 8 8 15 10 15 2 0 4 -7 4 -15z m854 -10 c-6 -16 -24 -21 -24 -7 0
11 11 22 21 22 5 0 6 -7 3 -15z m62 -21 c-4 -9 -9 -15 -11 -12 -3 3 -3 13 1
22 4 9 9 15 11 12 3 -3 3 -13 -1 -22z m149 -44 c-3 -5 -11 -10 -16 -10 -6 0
-7 5 -4 10 3 6 11 10 16 10 6 0 7 -4 4 -10z m-1625 -640 c0 -16 -23 -60 -32
-60 -9 0 -11 31 -2 54 7 17 34 22 34 6z m-30 -185 c0 -8 -7 -15 -15 -15 -16 0
-20 12 -8 23 11 12 23 8 23 -8z m1720 -330 c0 -8 -4 -15 -10 -15 -5 0 -10 7
-10 15 0 8 5 15 10 15 6 0 10 -7 10 -15z m-1520 -105 c0 -33 -15 -41 -22 -12
-6 21 1 42 13 42 5 0 9 -13 9 -30z m120 -75 c0 -8 -4 -15 -9 -15 -13 0 -22 16
-14 24 11 11 23 6 23 -9z m1190 0 c0 -8 -4 -15 -10 -15 -5 0 -10 7 -10 15 0 8
5 15 10 15 6 0 10 -7 10 -15z m-1290 -50 c0 -8 -4 -15 -10 -15 -5 0 -10 7 -10
15 0 8 5 15 10 15 6 0 10 -7 10 -15z m220 -65 c0 -5 -4 -10 -10 -10 -5 0 -10
5 -10 10 0 6 5 10 10 10 6 0 10 -4 10 -10z m676 -19 c-2 -44 -16 -50 -16 -8 0
21 4 37 9 37 5 0 8 -13 7 -29z m-246 -31 c0 -11 -4 -20 -10 -20 -5 0 -10 9
-10 20 0 11 5 20 10 20 6 0 10 -9 10 -20z m220 -45 c0 -8 -4 -15 -10 -15 -5 0
-10 7 -10 15 0 8 5 15 10 15 6 0 10 -7 10 -15z m27 -57 c-3 -8 -6 -5 -6 6 -1
11 2 17 5 13 3 -3 4 -12 1 -19z"/>
<path d="M2621 11118 c-1 -15 4 -30 9 -33 12 -7 12 12 0 40 -8 18 -9 17 -9 -7z"/>
<path d="M2572 11075 c-17 -38 -14 -43 8 -15 21 27 25 40 12 40 -5 0 -14 -11
-20 -25z"/>
<path d="M2441 10954 c0 -11 3 -14 6 -6 3 7 2 16 -1 19 -3 4 -6 -2 -5 -13z"/>
<path d="M2218 10330 c-7 -24 -3 -38 8 -28 3 4 4 17 2 30 l-3 23 -7 -25z"/>
<path d="M2220 10044 c0 -8 5 -12 10 -9 6 3 10 10 10 16 0 5 -4 9 -10 9 -5 0
-10 -7 -10 -16z"/>
<path d="M3791 9418 c0 -7 4 -22 9 -33 8 -18 9 -17 9 7 1 15 -3 30 -9 33 -5 3
-10 0 -9 -7z"/>
<path d="M5745 8978 c-22 -11 -48 -27 -57 -35 -18 -16 -38 -10 -38 13 0 10
-20 2 -64 -26 -72 -45 -73 -46 -78 -24 -2 12 -10 9 -37 -15 -33 -30 -58 -32
-47 -5 3 8 -20 0 -56 -19 -60 -32 -81 -54 -113 -124 -8 -18 -22 -33 -30 -33
-9 0 -15 -9 -15 -24 0 -13 -8 -34 -18 -47 -10 -13 -24 -37 -32 -54 l-15 -30
-3 35 c-4 48 38 152 66 165 12 5 22 15 22 22 0 15 -16 17 -25 3 -3 -5 -15 -10
-25 -10 -11 0 -25 -10 -31 -22 -6 -13 -21 -33 -33 -46 -17 -19 -17 -22 -3 -16
21 8 23 -13 2 -43 -17 -24 -64 -147 -102 -267 -20 -63 -23 -86 -15 -110 10
-30 10 -29 11 17 1 27 5 46 10 43 10 -7 21 27 21 67 0 21 5 27 21 27 12 0 28
8 35 18 12 15 15 15 24 2 23 -35 -3 -123 -49 -164 -12 -11 -21 -26 -21 -35 0
-11 10 -5 28 17 25 30 30 32 55 23 27 -11 27 -11 12 -41 -14 -27 -14 -30 0
-30 11 0 15 -11 15 -38 0 -40 -12 -63 -45 -80 -19 -11 -19 -11 3 -12 31 0 38
-25 18 -67 -9 -20 -15 -38 -12 -40 2 -2 7 5 11 16 6 21 16 26 28 15 11 -11
-31 -81 -53 -87 -20 -5 -29 -37 -10 -37 6 0 10 -8 10 -17 1 -16 3 -15 19 4 25
30 35 17 14 -18 -18 -30 -33 -38 -33 -17 0 9 -3 9 -11 1 -6 -6 -17 -9 -25 -6
-8 3 -15 -5 -19 -24 -3 -15 -15 -56 -26 -91 -13 -43 -16 -69 -10 -80 9 -15 10
-15 16 3 19 56 28 74 41 79 8 3 14 16 14 28 0 13 9 34 20 48 18 23 19 24 26 6
4 -10 2 -32 -4 -48 -12 -34 0 -80 20 -76 17 4 11 -111 -7 -132 -7 -8 -25 -39
-39 -67 l-26 -53 22 3 c19 2 23 -3 24 -25 1 -15 5 -33 10 -40 6 -7 15 -29 22
-49 11 -34 10 -41 -22 -105 -30 -61 -32 -71 -20 -85 13 -15 13 -17 -1 -22 -9
-4 -15 -19 -15 -36 0 -16 -5 -33 -10 -36 -6 -4 -8 -16 -5 -26 4 -11 2 -26 -5
-34 -9 -11 -7 -12 8 -8 17 4 20 -2 24 -39 3 -23 1 -51 -5 -62 -6 -12 -5 -26 1
-40 28 -58 21 -112 -25 -173 -16 -22 -19 -31 -8 -27 23 9 30 -24 13 -60 -26
-51 -41 -96 -35 -103 16 -15 36 10 43 53 8 53 53 129 67 115 6 -6 2 -22 -12
-44 -13 -21 -21 -51 -21 -76 0 -28 -5 -44 -15 -47 -17 -7 -21 -59 -5 -69 15
-10 12 -63 -6 -90 -10 -15 -14 -36 -11 -52 16 -78 24 -98 47 -110 20 -10 24
-20 26 -70 1 -32 -4 -71 -11 -88 -8 -16 -15 -46 -18 -65 -6 -48 -42 -139 -66
-164 -18 -19 -25 -70 -14 -89 3 -5 14 10 24 32 10 23 23 41 28 41 6 0 17 15
24 33 8 17 21 38 30 46 15 12 17 11 17 -5 0 -11 -4 -34 -9 -52 -7 -25 -7 -32
4 -32 9 0 15 -20 20 -60 6 -49 3 -68 -13 -102 -11 -24 -23 -52 -27 -63 -7 -19
-8 -19 -17 5 -5 14 -8 42 -6 62 2 24 -1 39 -9 42 -18 7 -16 26 7 71 24 47 24
45 5 45 -8 0 -15 -7 -15 -16 0 -27 -33 -74 -52 -74 -10 0 -18 -3 -19 -7 0 -5
-2 -27 -5 -50 -5 -43 2 -53 23 -32 15 15 48 -54 48 -103 0 -43 15 -49 38 -15
28 42 31 6 3 -49 -18 -36 -26 -64 -23 -82 6 -34 -8 -62 -32 -62 -13 0 -25 -16
-39 -49 -11 -27 -18 -52 -14 -55 13 -14 22 -4 22 23 0 36 24 59 44 42 22 -18
27 -69 11 -107 -16 -39 -32 -43 -45 -11 -7 18 -9 15 -9 -20 -1 -23 -5 -45 -11
-48 -15 -9 -12 -25 5 -25 17 0 19 -27 5 -66 -16 -42 -6 -38 25 11 15 25 32 45
36 45 12 0 11 -47 -1 -55 -5 -3 -10 -16 -10 -28 0 -16 3 -18 12 -9 9 9 16 8
30 -5 24 -21 23 -33 -5 -75 -13 -19 -26 -45 -29 -59 -4 -13 -13 -50 -22 -82
-20 -73 -20 -111 0 -128 23 -19 11 -76 -36 -176 -43 -90 -49 -116 -25 -107 19
8 19 -27 0 -81 -25 -68 -17 -61 28 26 23 45 47 83 52 83 6 1 11 -14 13 -33 2
-19 10 -40 18 -48 20 -20 18 -86 -5 -114 -10 -13 -21 -40 -25 -60 -3 -19 -17
-51 -31 -69 -14 -19 -25 -40 -25 -47 0 -7 -8 -17 -19 -22 -10 -6 -21 -23 -23
-38 -3 -16 -8 -37 -12 -48 -4 -11 5 -1 19 22 31 50 49 53 81 15 26 -29 30 -47
14 -57 -5 -3 -10 -12 -10 -18 0 -7 7 -4 14 6 7 9 18 17 25 17 14 0 15 -47 1
-55 -6 -4 -8 -21 -4 -42 5 -27 2 -41 -15 -63 -27 -37 -28 -59 -1 -35 32 29 35
10 10 -48 -13 -28 -31 -70 -41 -92 -20 -48 -31 -179 -16 -194 8 -8 7 -21 -1
-44 -18 -50 -14 -56 10 -17 25 39 38 51 50 44 23 -14 -22 -104 -52 -104 -8 0
-23 -19 -32 -41 -17 -40 -17 -41 2 -46 26 -7 25 -37 -1 -74 -15 -21 -19 -37
-14 -58 4 -18 -2 -48 -15 -82 -24 -64 -23 -59 -5 -59 9 0 15 9 15 24 0 35 10
56 26 56 8 0 17 7 20 15 10 24 24 17 24 -11 0 -22 2 -25 15 -14 13 11 15 8 15
-19 0 -17 -7 -43 -16 -57 -13 -19 -14 -30 -6 -48 6 -13 8 -34 5 -46 -4 -16 1
-28 17 -40 20 -15 22 -21 12 -33 -18 -21 -33 -77 -21 -77 21 0 -6 -81 -36
-105 -7 -5 -15 -30 -18 -55 -4 -25 -9 -65 -13 -89 -5 -32 -3 -45 7 -52 12 -8
11 -11 -2 -22 -18 -13 -39 -50 -39 -67 0 -5 13 4 29 22 27 30 30 31 37 15 4
-11 0 -33 -10 -53 -20 -42 -20 -45 -1 -38 21 8 19 -25 -2 -49 -21 -23 -26 -92
-5 -75 6 6 12 20 12 32 0 12 7 31 15 42 13 16 16 17 25 4 14 -21 12 -43 -5
-66 -18 -24 -19 -45 -1 -38 8 3 21 -10 33 -35 l20 -40 12 26 c8 17 15 23 22
16 15 -15 -1 -65 -22 -70 -19 -5 -25 -42 -11 -73 8 -17 52 -22 52 -7 0 6 17
-8 38 -31 22 -23 42 -42 46 -42 4 0 4 16 0 36 -5 26 -3 35 4 30 6 -4 16 3 22
14 18 34 39 24 51 -24 6 -25 17 -47 25 -50 8 -3 14 -12 14 -21 0 -8 5 -15 10
-15 6 0 10 21 10 46 0 78 33 114 46 49 5 -29 9 -33 20 -24 8 6 14 17 14 25 0
7 7 17 14 21 8 5 21 26 28 48 7 22 18 39 23 37 16 -4 9 -95 -8 -107 -19 -14
-26 -67 -9 -72 7 -3 12 5 12 21 0 34 18 43 29 14 l10 -23 0 23 c1 13 9 37 18
55 l17 32 9 -38 c8 -34 10 -36 22 -20 13 17 14 17 21 0 8 -23 51 -67 64 -67 6
0 10 9 10 19 0 11 4 23 10 26 5 3 10 28 10 56 0 27 4 49 9 49 5 0 14 14 21 30
20 49 28 35 24 -47 -3 -64 -7 -81 -24 -95 -11 -9 -20 -21 -20 -27 0 -20 15
-11 37 24 14 21 28 32 37 29 9 -3 17 3 21 15 9 29 23 26 35 -5 9 -22 13 -24
25 -14 8 7 15 26 15 42 0 38 21 33 35 -8 5 -16 22 -48 37 -72 15 -24 28 -50
28 -58 0 -8 4 -13 9 -10 4 3 11 31 14 63 3 32 11 59 17 61 5 2 10 19 10 38 0
19 4 34 10 34 16 0 30 -37 31 -82 l0 -43 21 53 c18 46 38 68 38 43 0 -5 9 -7
19 -4 14 4 24 -3 35 -26 9 -16 16 -37 16 -46 0 -10 5 -13 12 -9 6 4 17 -2 25
-12 13 -18 15 -18 27 -2 14 20 36 24 36 8 0 -40 46 30 65 100 14 47 45 68 45
31 0 -11 5 -23 10 -26 6 -3 10 -28 10 -54 0 -28 6 -53 13 -60 21 -17 36 6 30
47 -2 21 0 48 5 62 8 23 10 20 17 -27 3 -28 4 -60 1 -70 -3 -10 -1 -25 4 -33
8 -12 10 -11 10 8 0 12 3 22 6 22 3 0 14 -10 25 -22 l18 -23 2 30 c1 17 3 56
4 88 4 92 17 108 47 60 14 -22 18 -24 18 -10 0 10 5 15 10 12 15 -9 12 -34 -5
-51 -20 -20 -19 -27 6 -43 20 -12 21 -11 17 7 -8 28 13 19 35 -16 l16 -27 1
30 c0 42 13 59 39 50 12 -4 21 -2 21 4 0 27 20 7 26 -26 9 -54 21 -65 61 -58
26 4 35 1 40 -13 4 -9 15 -28 25 -41 16 -21 18 -22 18 -4 0 10 5 24 11 30 8 8
8 13 0 17 -16 11 -13 53 4 60 9 3 23 22 31 41 14 34 33 47 35 23 0 -7 4 -4 9
7 4 11 4 24 -1 29 -15 16 -10 56 6 56 8 0 15 -3 15 -8 0 -4 9 -13 20 -19 18
-12 20 -9 31 30 6 23 14 47 19 52 4 6 13 46 20 90 6 44 16 85 21 91 5 6 5 31
0 60 -8 43 -7 51 10 67 24 23 24 31 0 18 -14 -8 -22 -6 -34 7 -19 21 -7 48 17
39 20 -8 22 24 4 53 -10 16 -10 24 1 41 10 17 10 23 1 29 -7 4 -9 16 -6 28 5
14 1 21 -13 25 -14 3 -20 16 -23 48 -3 24 -1 48 3 54 6 5 9 4 9 -3 0 -7 5 -12
10 -12 13 0 13 26 -2 67 -9 26 -10 38 -1 52 10 16 9 20 -8 24 -18 5 -19 11
-13 57 5 38 3 54 -6 60 -16 10 -4 30 17 30 12 0 14 7 9 36 -5 22 -3 41 5 50 8
10 8 14 0 14 -19 0 -33 48 -21 71 9 16 7 21 -11 27 -18 7 -19 10 -8 23 8 8 15
41 17 74 2 36 11 73 23 93 20 34 17 61 -4 44 -7 -5 -27 -13 -44 -17 -26 -5
-33 -3 -33 9 0 8 5 18 11 21 6 4 7 19 4 37 -6 24 -1 37 24 69 29 36 30 39 11
39 -12 0 -20 6 -20 18 0 38 28 134 43 145 8 7 18 24 21 40 l7 28 -21 -21 c-23
-23 -42 -19 -33 8 4 9 19 33 35 52 27 33 28 35 8 38 -20 3 -29 22 -9 22 5 0 7
5 4 10 -3 6 4 28 16 50 22 38 22 41 6 58 -17 16 -17 15 -11 -16 6 -30 5 -32
-23 -32 -16 0 -32 2 -35 6 -10 10 11 77 27 86 12 7 14 18 9 46 -3 20 -10 41
-15 47 -14 14 -11 37 11 80 11 22 20 47 20 56 0 9 9 28 20 42 l20 25 -35 -1
c-19 -1 -35 -5 -35 -9 0 -4 -4 -8 -10 -8 -5 0 -10 9 -10 21 0 11 5 17 10 14
10 -6 12 18 15 150 0 32 -4 54 -13 61 -11 8 -9 16 14 43 l27 33 -21 51 c-28
66 -27 74 3 120 25 36 21 53 -5 22 -7 -8 -16 -15 -20 -15 -16 0 -19 33 -5 53
19 27 19 38 0 31 -21 -9 -19 10 5 31 22 20 27 41 8 29 -8 -5 -8 -1 1 10 10 11
22 15 38 11 29 -7 31 14 3 46 -16 20 -19 21 -20 6 0 -23 -46 -45 -62 -29 -8 8
-6 18 6 37 14 21 24 26 43 22 24 -4 25 -3 19 34 -3 21 -2 40 4 44 18 11 11 27
-10 22 -21 -5 -29 16 -10 28 6 3 10 17 10 29 0 13 9 34 19 48 21 26 29 95 16
141 -5 19 -2 35 10 53 12 18 13 29 6 38 -7 8 -7 24 -1 46 9 31 3 60 -7 33 -3
-7 -12 -13 -20 -13 -10 0 -13 5 -8 18 4 9 8 33 9 53 2 20 10 51 19 69 19 38
22 66 7 75 -5 3 -10 15 -10 26 0 21 -16 26 -22 7 -3 -7 -9 -8 -18 -3 -10 6
-10 10 3 20 13 9 16 24 13 61 -5 62 -14 84 -32 77 -20 -7 -18 6 11 71 21 48
23 58 10 62 -11 4 -14 18 -11 52 2 26 2 41 -1 35 -5 -14 -33 -18 -33 -5 0 16
52 62 70 62 22 0 22 3 11 73 -6 35 -4 50 6 59 10 8 17 8 25 0 16 -16 28 -15
28 3 0 8 11 24 24 36 16 14 22 27 18 45 -2 13 1 30 7 38 6 7 9 21 5 30 -7 19
16 22 34 4 9 -9 12 -5 12 21 0 54 22 171 33 171 5 0 16 -8 23 -17 12 -17 13
-16 14 7 0 18 9 29 33 40 19 9 30 21 28 30 -12 47 -12 63 -1 90 7 17 19 30 28
30 12 0 14 -9 9 -45 -6 -43 6 -64 16 -27 4 13 -1 -86 -7 -122 0 -5 5 -11 12
-13 8 -3 12 5 12 22 0 21 4 26 16 21 14 -5 15 -1 12 26 -3 18 -1 45 4 59 5 15
5 35 0 50 -6 14 -6 34 -1 48 8 20 12 21 25 10 13 -11 14 -9 9 13 -5 19 -1 28
18 41 25 16 47 7 47 -17 -1 -16 -36 -56 -49 -56 -14 0 -14 -16 1 -39 11 -18
12 -17 33 5 12 13 26 24 30 24 15 0 45 43 45 65 0 25 34 60 49 50 6 -3 11 -20
11 -36 0 -26 2 -29 19 -19 13 6 21 23 23 47 2 20 9 38 17 41 9 3 11 -1 7 -16
-4 -13 -1 -22 9 -26 8 -3 15 -12 15 -20 0 -7 7 -16 15 -19 20 -8 54 38 48 63
-3 11 0 20 6 20 6 0 11 -4 11 -8 0 -5 11 -14 25 -20 15 -7 25 -20 25 -32 0
-11 7 -20 15 -20 7 0 18 -6 22 -13 4 -8 16 -16 26 -20 21 -8 22 -40 2 -57 -13
-11 -13 -14 2 -26 15 -11 22 -10 41 2 17 11 27 12 36 5 15 -13 26 -4 26 21 0
22 28 68 41 68 6 0 12 -8 16 -17 34 -99 68 -136 43 -48 -14 50 -7 69 13 40 13
-17 14 -17 20 -1 4 10 5 22 1 27 -12 19 16 8 30 -13 12 -16 18 -19 29 -10 11
9 13 2 14 -39 0 -28 6 -56 12 -62 8 -8 11 -1 11 25 0 34 14 57 26 45 3 -3 6
-32 7 -66 1 -36 6 -56 11 -51 14 14 35 -20 36 -55 1 -27 2 -28 12 -10 6 10 12
42 13 70 2 27 3 53 4 58 2 17 31 5 54 -23 27 -32 36 -28 62 23 15 30 41 33 48
6 6 -22 7 -22 25 -6 27 24 35 21 30 -13 -5 -34 15 -48 40 -28 13 11 15 8 10
-29 -4 -24 -2 -46 3 -49 5 -3 9 -14 9 -25 0 -23 25 -25 34 -2 6 15 8 15 23 0
15 -15 15 -18 -1 -41 -9 -14 -12 -26 -7 -26 5 0 11 7 15 15 10 28 32 16 32
-17 0 -41 24 -98 41 -98 7 0 13 5 13 10 0 6 4 10 9 10 15 0 23 -74 11 -105 -7
-19 -8 -31 0 -39 5 -5 10 -21 10 -35 0 -19 3 -22 12 -13 7 7 20 12 30 12 10 0
18 6 19 13 0 6 5 2 11 -11 9 -18 8 -28 -9 -50 -26 -35 -38 -138 -17 -146 20
-8 17 -34 -11 -94 -14 -30 -25 -66 -25 -80 l0 -27 20 33 c22 35 35 40 44 17 3
-8 2 -15 -2 -15 -5 0 -14 -17 -22 -37 -8 -21 -16 -41 -18 -45 -2 -5 4 -8 12
-8 9 0 19 7 22 15 10 25 26 17 22 -12 -2 -17 -12 -32 -25 -38 -13 -5 -23 -14
-23 -20 0 -10 -24 -58 -62 -125 l-20 -35 31 34 c17 18 31 38 31 43 0 12 53 78
62 78 5 0 6 -37 3 -82 -4 -76 -4 -81 10 -58 8 14 14 35 15 47 0 25 18 41 24
21 1 -7 8 -28 14 -45 7 -23 7 -35 0 -39 -16 -10 -51 -95 -50 -123 0 -14 -5
-29 -11 -32 -11 -8 -37 -76 -37 -100 0 -9 -6 -22 -14 -28 -8 -7 -12 -21 -8
-33 5 -21 6 -20 29 8 12 16 23 41 23 56 0 29 13 43 30 33 8 -5 8 -11 0 -20 -8
-9 -5 -14 10 -18 36 -9 34 -35 -6 -81 -61 -69 -87 -117 -86 -157 1 -20 -9 -64
-23 -99 -29 -74 -32 -105 -5 -43 24 55 55 60 46 9 -9 -46 11 -57 39 -23 11 15
26 27 33 27 15 0 15 4 -4 -60 -9 -30 -18 -68 -20 -85 -2 -16 -6 -42 -10 -57
-5 -22 -3 -28 10 -28 17 0 19 -13 7 -45 -5 -12 -4 -25 2 -33 7 -9 6 -29 -3
-65 -7 -29 -14 -75 -15 -103 0 -36 -7 -58 -23 -78 -12 -16 -22 -39 -22 -53 0
-13 -6 -39 -14 -57 -13 -30 -12 -35 4 -49 21 -17 30 -13 30 15 0 11 5 16 10
13 6 -4 17 -1 25 5 12 10 15 10 15 -1 -1 -20 -46 -73 -57 -66 -5 3 -19 -15
-32 -40 -19 -39 -20 -45 -5 -39 15 6 16 -2 12 -84 -3 -49 -2 -90 3 -90 5 0 9
12 9 26 0 14 5 34 11 45 15 29 39 6 39 -38 0 -19 7 -41 15 -49 21 -21 19 -66
-4 -95 -13 -17 -19 -41 -19 -84 0 -44 2 -55 9 -42 6 9 17 17 24 17 15 0 16 6
19 84 0 22 6 41 13 43 8 3 12 -14 11 -57 0 -36 4 -65 10 -69 13 -8 4 -81 -9
-81 -5 0 -9 16 -9 35 0 19 -4 35 -10 35 -5 0 -10 -6 -10 -12 -2 -72 -14 -187
-22 -201 -5 -10 -5 -24 0 -34 6 -11 5 -28 -4 -49 -14 -33 -9 -94 7 -94 5 0 9
-20 9 -45 0 -31 -4 -45 -13 -45 -16 0 -40 -47 -31 -61 3 -5 14 1 24 13 l19 23
1 -43 c0 -23 -9 -60 -20 -81 -10 -21 -17 -41 -14 -44 10 -10 -17 -76 -42 -107
-14 -16 -27 -46 -30 -67 l-5 -38 20 37 c12 20 25 40 31 43 5 3 10 14 10 24 0
23 36 69 46 59 12 -13 -18 -100 -37 -105 -17 -5 -25 -32 -33 -103 -2 -19 -7
-52 -11 -73 -6 -32 -5 -36 9 -31 9 3 16 12 16 19 0 7 8 23 18 34 14 18 21 20
42 12 25 -10 25 -10 3 -17 -13 -3 -31 -25 -44 -50 -11 -24 -28 -48 -37 -53
-22 -12 -45 -91 -27 -91 8 0 16 8 20 19 7 24 43 56 52 47 4 -3 -1 -23 -11 -43
-12 -25 -14 -39 -7 -41 6 -2 11 -13 11 -25 0 -16 3 -18 12 -9 18 18 28 15 28
-9 0 -13 -8 -23 -20 -26 -12 -3 -30 -23 -40 -43 -19 -38 -19 -38 1 -64 19 -24
19 -29 6 -98 -8 -40 -18 -82 -22 -93 -6 -16 -3 -15 14 5 11 14 21 28 21 33 0
4 7 7 15 7 20 0 19 -30 -2 -60 -12 -17 -13 -25 -5 -28 7 -2 12 -21 12 -43 0
-26 7 -46 20 -59 15 -15 18 -25 10 -38 -5 -9 -19 -37 -30 -62 -21 -44 -21 -45
-1 -20 28 34 26 21 -8 -55 -32 -70 -47 -84 -37 -35 3 19 2 29 -4 25 -6 -3 -10
-38 -10 -76 0 -44 4 -68 10 -64 6 3 10 19 10 35 0 16 5 32 10 35 6 4 22 29 35
56 14 27 29 49 34 49 27 0 41 -15 41 -42 0 -26 2 -29 15 -18 28 24 29 -19 1
-90 -15 -38 -26 -77 -24 -87 3 -11 10 -1 18 27 8 28 15 38 17 28 3 -10 8 -18
13 -18 5 0 10 -15 12 -32 5 -55 22 -33 34 42 6 39 16 76 22 82 19 19 37 -7 36
-52 -1 -28 3 -40 12 -40 9 0 14 12 14 33 0 38 14 65 25 48 5 -9 10 -9 21 0 11
9 14 7 14 -15 0 -14 4 -26 9 -26 5 0 16 -3 25 -6 11 -4 15 3 18 33 2 29 8 39
24 41 13 2 23 14 30 35 5 18 17 33 27 35 14 3 17 -4 17 -32 0 -20 4 -36 9 -36
19 0 23 -41 7 -59 -9 -10 -16 -32 -16 -50 0 -28 2 -31 19 -21 28 14 28 14 41
-25 15 -46 32 -35 24 15 -5 28 -2 47 10 64 9 14 16 32 16 39 0 17 47 50 59 42
5 -3 11 1 14 7 2 7 8 9 13 5 5 -5 2 -14 -6 -20 -28 -22 -10 -157 21 -157 5 0
9 17 9 39 0 22 6 44 15 51 8 7 15 21 15 32 0 11 5 18 13 15 7 -2 11 -17 9 -36
-3 -37 9 -40 31 -9 15 22 15 21 10 -19 -4 -29 -2 -43 6 -43 6 0 11 10 12 23 1
39 35 122 51 125 21 4 31 -38 22 -94 -4 -31 -3 -44 6 -44 7 0 9 8 5 20 -3 11
-3 20 2 20 9 0 33 -48 33 -67 0 -26 18 -12 33 26 9 21 23 41 31 44 9 4 16 15
16 26 0 27 36 47 55 31 12 -10 13 -6 8 24 -4 29 -2 36 11 36 9 0 16 -6 16 -14
0 -7 7 -19 15 -26 20 -16 19 -54 -1 -75 -9 -9 -14 -18 -12 -21 3 -2 11 2 18
11 11 13 15 12 31 -9 11 -13 19 -29 19 -35 0 -6 5 -11 11 -11 7 0 9 10 4 28
-13 45 -11 67 5 67 10 0 16 -13 18 -42 2 -24 6 -43 11 -43 14 0 31 24 31 45 0
12 7 30 15 41 14 18 14 18 15 -6 l0 -25 20 25 c16 20 22 22 29 11 10 -16 31
-6 31 15 0 8 5 14 10 14 6 0 10 6 10 14 0 21 67 89 80 81 10 -6 7 -70 -7 -117
-8 -32 27 -20 38 12 17 46 32 37 25 -14 -4 -24 -3 -47 2 -50 5 -3 7 6 4 19 -3
19 0 25 12 25 12 0 16 -7 14 -22 -2 -17 2 -23 17 -23 15 0 20 7 21 25 0 25 30
79 37 69 7 -8 36 -114 47 -171 11 -56 30 -88 30 -51 0 11 11 34 25 53 30 41
31 46 6 53 -37 9 -40 150 -4 164 27 10 38 -15 35 -80 -3 -61 -3 -61 17 -43 24
21 41 14 41 -18 0 -13 7 -29 15 -36 13 -11 16 -8 21 18 6 31 37 72 54 72 6 0
10 -19 10 -42 0 -23 3 -38 7 -35 3 4 12 2 20 -4 10 -9 13 -5 13 21 0 17 16 65
35 106 19 40 34 77 33 81 -3 13 14 75 33 120 21 48 18 52 -18 23 -14 -11 -34
-20 -44 -20 -11 0 -19 -4 -19 -10 0 -5 -4 -10 -10 -10 -17 0 -11 53 10 95 11
22 20 49 20 60 0 12 6 27 13 34 10 11 8 12 -10 6 -31 -9 -30 9 2 47 14 16 25
39 25 51 -1 20 -2 21 -14 4 -16 -21 -26 -22 -26 -2 0 9 7 18 16 22 12 4 15 18
13 62 -2 31 0 61 4 68 4 7 6 34 3 61 -3 36 0 57 14 79 10 17 16 41 13 55 -3
15 3 37 13 54 l18 27 -41 -6 c-24 -4 -44 -3 -48 3 -8 13 13 50 29 50 16 0 41
28 33 37 -4 3 -13 0 -22 -7 -20 -16 -29 -8 -20 19 4 12 15 21 27 21 17 0 19 4
13 27 -3 15 -11 31 -16 34 -6 3 -12 32 -13 65 -5 80 -12 97 -38 83 -19 -10
-20 -9 -15 23 11 65 20 93 39 117 13 18 15 27 7 32 -15 9 -2 30 15 23 7 -3 16
2 19 10 4 9 2 16 -3 16 -6 0 -10 9 -10 20 0 11 -4 20 -10 20 -5 0 -10 10 -10
23 -1 20 -2 20 -16 -6 -10 -19 -21 -27 -31 -23 -8 3 -16 6 -17 6 -2 0 -1 11 2
25 2 15 13 27 26 31 21 5 45 53 50 99 1 11 7 31 15 43 15 28 9 39 -9 17 -7 -8
-19 -15 -26 -15 -31 0 -6 180 30 219 21 23 20 28 -6 27 -19 -1 -22 4 -20 23 1
14 10 34 20 45 16 18 16 19 -1 13 -43 -16 -40 20 6 71 20 21 20 22 1 24 -10 0
-29 0 -42 -1 -20 -2 -22 2 -16 26 12 57 17 68 33 87 19 21 22 66 5 66 -7 0
-16 -4 -19 -10 -11 -18 -26 -11 -23 10 2 12 7 19 11 18 14 -5 30 33 19 44 -14
14 5 66 28 78 22 12 26 80 4 80 -16 0 -19 16 -4 25 6 3 10 18 10 33 1 15 14
42 30 62 38 43 39 70 5 70 -18 0 -25 5 -25 20 0 25 -9 25 -26 3 -12 -17 -13
-17 -19 0 -4 9 -2 23 4 30 7 9 7 17 0 24 -7 7 -1 18 19 35 27 23 29 29 25 79
-2 30 -7 65 -10 79 -6 23 -7 22 -12 -10 -4 -22 -12 -35 -21 -35 -8 0 -13 7
-11 15 2 8 6 27 9 43 2 15 11 27 18 27 8 0 14 5 14 10 0 6 -7 10 -15 10 -8 0
-15 2 -15 5 0 12 35 75 42 75 4 0 8 11 8 25 0 14 7 42 15 62 20 48 19 55 -10
51 -13 -2 -25 -1 -25 2 -4 17 22 58 44 69 14 8 26 20 26 28 0 12 -6 14 -50 17
-11 1 -15 14 -15 49 -1 27 3 51 8 54 4 2 3 11 -4 19 -9 11 -8 19 6 34 25 27
34 25 46 -10 6 -16 15 -30 21 -30 6 0 7 7 3 18 -13 30 -34 146 -35 190 0 23
-4 42 -10 42 -5 0 -10 -11 -10 -25 0 -14 -4 -25 -10 -25 -5 0 -10 20 -10 44 0
25 5 48 10 51 16 10 12 35 -5 35 -9 0 -18 -7 -21 -15 -4 -8 -10 -12 -15 -9
-14 8 -11 23 11 41 11 10 20 22 20 29 0 6 9 19 20 29 21 19 28 65 10 65 -5 0
-10 12 -10 27 0 25 0 26 -20 8 -11 -10 -23 -15 -26 -12 -8 7 22 73 36 82 6 3
10 13 10 20 0 12 -6 12 -35 -2 -47 -22 -61 -9 -41 39 9 20 22 38 31 42 9 3 13
10 10 16 -12 19 6 52 25 47 14 -4 17 2 17 35 0 24 -5 42 -13 45 -19 7 -28 67
-16 103 7 18 7 32 1 35 -5 4 -5 13 1 25 27 50 -2 79 -42 43 -16 -14 -18 -15
-18 0 0 9 4 18 9 22 5 3 20 25 34 49 24 42 22 77 -2 61 -7 -4 -23 -8 -37 -10
-33 -3 -31 19 6 62 23 25 28 38 21 47 -6 7 -8 16 -5 19 4 3 -3 21 -15 40 -11
19 -21 46 -21 61 0 15 -7 37 -15 50 -15 22 -14 27 6 66 17 33 19 44 9 50 -8 5
-11 19 -7 39 8 39 3 39 -33 -1 -31 -34 -46 -33 -35 1 3 12 15 21 26 21 13 0
19 7 19 23 0 13 6 29 13 36 10 11 9 12 -1 7 -7 -4 -20 -2 -28 5 -13 11 -18 10
-25 -4 -13 -23 -26 -21 -32 5 -7 26 8 58 28 58 8 0 15 5 15 10 0 6 -6 10 -14
10 -8 0 -18 10 -21 22 -6 16 -1 26 16 39 13 10 21 21 17 25 -4 4 -14 1 -23 -6
-13 -11 -15 -8 -15 17 0 17 9 42 20 56 11 14 20 30 20 37 0 7 -8 9 -20 5 -29
-9 -26 19 5 39 54 36 19 49 -41 15 -43 -23 -68 -19 -59 11 3 11 8 44 10 73 1
28 6 63 9 77 l7 25 -17 -22 c-29 -39 -43 -29 -39 27 3 46 2 49 -18 47 -12 -1
-22 3 -22 8 0 6 -4 16 -9 23 -5 9 1 26 17 49 15 20 24 40 22 44 -8 12 -45 -2
-45 -17 0 -8 -6 -14 -13 -14 -18 0 -20 48 -2 73 8 12 15 26 15 32 0 14 -39 12
-67 -3 -13 -7 -24 -8 -27 -3 -7 12 9 57 23 66 19 11 12 27 -9 20 -24 -8 -26 5
-5 45 22 43 -4 40 -39 -5 -16 -19 -32 -35 -37 -35 -19 0 -8 57 15 79 21 20 42
81 27 81 -3 0 -18 -12 -34 -27 -23 -23 -27 -24 -21 -8 4 11 12 26 17 33 18 24
-3 26 -34 3 -33 -25 -50 -22 -28 5 7 9 18 31 25 49 l11 33 -51 -36 c-28 -20
-61 -47 -74 -61 l-22 -26 6 40 c5 26 19 51 43 74 34 34 35 35 14 39 -22 3 -27
12 -24 40 3 17 -19 15 -41 -5 -24 -22 -34 -9 -19 24 11 23 6 21 -27 -14 -43
-47 -71 -59 -51 -22 6 12 13 37 14 55 2 18 6 42 10 54 5 17 2 20 -22 20 -16 0
-34 -5 -41 -12 -9 -9 -15 -9 -24 0 -10 10 -16 8 -30 -10 -15 -21 -17 -21 -24
-5 -4 10 0 25 9 35 16 19 28 82 15 82 -4 0 -8 -4 -8 -10 0 -11 -70 -43 -78
-35 -3 3 2 13 11 23 33 36 10 57 -33 30 -15 -10 -22 -10 -32 0 -9 9 -5 22 21
58 18 25 30 48 28 50 -6 6 -56 -16 -90 -39 -38 -26 -55 -10 -27 25 17 22 18
28 6 37 -10 8 -16 9 -21 1 -9 -14 -42 -13 -48 3 -3 9 -9 9 -26 -1 -18 -10 -21
-10 -21 3 0 9 10 20 23 26 13 6 29 20 36 31 14 22 16 22 -34 2 -10 -4 -15 0
-15 10 0 9 -4 16 -10 16 -5 0 -10 -3 -10 -8 0 -4 -17 -16 -37 -26 -21 -10 -46
-22 -55 -27 -12 -6 -18 -5 -18 1 0 6 6 13 14 16 11 4 36 52 36 70 0 3 -61 -17
-82 -27 -43 -22 -49 0 -18 61 11 22 20 44 20 49 0 6 -26 -1 -57 -16 -32 -14
-68 -31 -80 -36 -31 -14 -38 -4 -18 26 27 42 -2 44 -44 3 -20 -20 -40 -36 -44
-36 -12 0 -8 40 8 71 14 26 14 30 0 35 -9 4 -24 -1 -34 -10 -23 -21 -33 -20
-60 6 -21 18 -28 20 -53 10 -29 -11 -29 -10 -23 19 8 35 3 36 -36 7 -23 -18
-32 -20 -38 -10 -6 11 -15 9 -42 -7 -19 -12 -37 -21 -41 -21 -13 0 -9 35 5 49
10 11 7 12 -15 7 -25 -6 -27 -4 -34 39 -7 50 -7 50 -35 34 -16 -8 -18 -14 -9
-24 9 -10 0 -28 -37 -76 -35 -47 -49 -59 -51 -45 -2 9 3 25 11 34 8 9 22 32
31 50 13 26 14 32 3 32 -8 0 -22 -9 -33 -21 -10 -11 -26 -25 -36 -30 -28 -15
-29 7 -1 35 19 19 22 26 10 26 -8 0 -17 5 -19 12 -5 14 -70 -31 -109 -75 -33
-39 -59 -33 -29 6 30 37 19 46 -14 11 -33 -36 -41 -27 -20 21 l16 38 -24 -15
c-23 -15 -98 -21 -98 -9 0 4 5 13 10 21 14 22 -34 29 -94 13 -31 -7 -54 -9
-61 -3 -6 5 -21 7 -33 3 -35 -9 -27 21 16 56 32 26 34 29 12 24 -14 -3 -42
-21 -63 -40 -37 -33 -57 -41 -57 -23 0 5 -25 -6 -55 -25 -30 -19 -58 -34 -62
-33 -12 2 -63 -24 -63 -33 0 -4 -7 -10 -16 -13 -14 -5 -16 -1 -10 25 4 22 2
29 -7 26 -6 -2 -11 -13 -10 -23 2 -19 -36 -84 -49 -84 -4 0 -14 -7 -23 -16
-52 -52 -114 -73 -70 -23 9 9 17 33 18 53 2 21 9 41 17 46 8 6 11 10 5 10 -17
-1 -45 -26 -45 -41 -1 -8 -10 -25 -21 -39 -19 -22 -22 -23 -33 -9 -9 13 -15
14 -29 5 -13 -8 -20 -8 -26 3 -7 11 -12 7 -24 -15 -9 -16 -35 -49 -58 -74 -33
-35 -44 -41 -47 -28 -2 9 2 27 9 40 l12 23 -25 -23 c-15 -13 -25 -34 -25 -49
0 -14 -10 -35 -22 -46 -18 -19 -21 -19 -21 -4 0 23 -9 21 -37 -5 -29 -27 -39
-18 -25 21 7 19 7 33 1 36 -5 4 -9 1 -9 -6 0 -20 -31 -48 -46 -42 -8 3 -17 -3
-22 -16 -9 -24 -71 -73 -84 -65 -4 3 -26 -8 -47 -25 -22 -17 -46 -29 -54 -25
-9 3 -16 -3 -20 -16 -3 -12 -18 -26 -34 -32 -36 -13 -83 -74 -83 -106 0 -27
-36 -92 -51 -92 -5 0 -12 7 -16 16 -5 13 -9 12 -29 -7 -25 -23 -44 -18 -44 12
0 10 -4 19 -10 19 -11 0 -14 33 -3 44 4 3 8 26 9 51 l3 44 -35 -6 c-31 -5 -34
-3 -34 18 0 16 14 37 42 61 39 34 41 38 18 35 -21 -2 -25 2 -22 22 1 14 -3 28
-9 32 -7 4 -8 12 -3 20 5 8 7 54 6 102 -2 58 1 94 9 103 6 8 10 17 7 20 -3 2
-18 -12 -34 -33 -61 -82 -78 -81 -71 2 4 56 3 63 -8 48 -10 -13 -17 -15 -25
-7 -8 8 -5 21 10 48 12 20 26 36 30 36 4 0 16 12 25 27 l18 26 -31 -21 c-16
-12 -35 -22 -41 -22 -6 0 -29 -16 -51 -36 -39 -35 -40 -36 -40 -12 0 13 6 32
13 43 8 11 17 35 21 54 6 34 6 34 -14 16 -11 -10 -20 -26 -20 -35 0 -25 -29
-48 -39 -31 -6 9 -13 5 -24 -13 -12 -18 -25 -24 -47 -24 -18 1 -30 6 -30 15 0
32 -77 -9 -93 -50 -4 -9 -8 -8 -16 3 -9 13 -16 12 -51 -7 -29 -15 -40 -18 -40
-8 0 7 6 16 13 19 10 5 10 7 0 12 -19 8 -16 25 9 51 12 13 17 23 12 23 -5 0
-15 -9 -22 -20 -14 -23 -32 -26 -32 -5 0 11 -5 12 -25 5 -23 -9 -25 -7 -25 20
0 16 5 32 10 35 14 9 12 22 -4 28 -7 3 -27 -7 -44 -23 -18 -16 -40 -30 -49
-32 -10 -2 -17 -11 -15 -20 1 -8 -5 -22 -15 -29 -15 -12 -16 -12 -11 7 5 19 3
21 -21 15 -30 -8 -71 -3 -71 8 0 4 7 16 15 27 8 10 15 27 15 37 0 16 -6 14
-42 -12 -23 -17 -50 -31 -59 -31 -9 0 -19 -6 -22 -14 -3 -8 -16 -16 -29 -18
-13 -2 -27 -13 -33 -25 -5 -13 -13 -23 -16 -23 -12 0 3 44 22 65 18 20 17 20
-26 17 -24 -2 -49 -10 -56 -18 -6 -8 -19 -14 -29 -14 -9 0 -29 -9 -43 -20 -25
-20 -67 -27 -67 -12 0 10 38 46 64 60 17 9 14 11 -25 19 -43 9 -44 10 -41 43
l3 35 -23 -23 c-20 -19 -21 -24 -8 -32 13 -8 11 -13 -9 -32 l-23 -23 4 27 c5
29 -1 29 -34 0 -15 -13 -19 -12 -33 1 -8 9 -15 25 -15 37 l0 21 -25 -19 c-14
-11 -34 -18 -44 -15 -11 3 -21 -2 -24 -11 -4 -9 -14 -16 -23 -16 -12 0 -15 7
-12 23 4 21 1 24 -24 21 -15 -2 -28 1 -28 6 0 6 6 10 14 10 7 0 19 7 26 15 18
22 -5 19 -55 -7z m-175 -118 c0 -5 -5 -10 -11 -10 -5 0 -7 5 -4 10 3 6 8 10
11 10 2 0 4 -4 4 -10z m408 -12 c-2 -6 -10 -14 -16 -16 -7 -2 -10 2 -6 12 7
18 28 22 22 4z m2732 2 c0 -5 -4 -10 -10 -10 -5 0 -10 5 -10 10 0 6 5 10 10
10 6 0 10 -4 10 -10z m-1990 -20 c0 -11 -7 -23 -15 -27 -21 -8 -24 -2 -14 25
10 28 29 29 29 2z m320 6 c0 -2 -7 -7 -16 -10 -8 -3 -12 -2 -9 4 6 10 25 14
25 6z m-220 -65 c0 -22 -15 -35 -30 -26 -7 4 -7 13 0 26 14 25 30 25 30 0z
m2330 -10 c0 -16 -31 -41 -42 -34 -7 4 -3 13 11 25 26 20 31 22 31 9z m-1970
-25 c0 -16 -26 -46 -41 -46 -12 0 -11 17 1 41 12 22 40 26 40 5z m980 -34 c0
-4 -14 -23 -32 -42 -21 -23 -33 -30 -36 -22 -2 8 8 27 24 43 27 28 44 37 44
21z m-2980 -146 c0 -3 -4 -8 -10 -11 -5 -3 -10 -1 -10 4 0 6 5 11 10 11 6 0
10 -2 10 -4z m2715 -46 c-3 -5 -11 -10 -16 -10 -6 0 -7 5 -4 10 3 6 11 10 16
10 6 0 7 -4 4 -10z m-2741 -35 c-4 -8 -8 -15 -10 -15 -2 0 -4 7 -4 15 0 8 4
15 10 15 5 0 7 -7 4 -15z m-71 -20 c-3 -9 -8 -14 -10 -11 -3 3 -2 9 2 15 9 16
15 13 8 -4z m2737 0 c0 -8 -4 -15 -10 -15 -5 0 -10 7 -10 15 0 8 5 15 10 15 6
0 10 -7 10 -15z m-60 -44 c0 -5 -7 -11 -15 -15 -15 -5 -20 5 -8 17 9 10 23 9
23 -2z m-460 -107 c0 -13 -21 -44 -30 -44 -11 0 -14 33 -3 43 8 8 33 9 33 1z
m3140 -74 c0 -5 -5 -10 -11 -10 -5 0 -7 5 -4 10 3 6 8 10 11 10 2 0 4 -4 4
-10z m-50 -20 c0 -11 -4 -20 -9 -20 -5 0 -7 9 -4 20 3 11 7 20 9 20 2 0 4 -9
4 -20z m-3120 -14 c0 -3 -4 -8 -10 -11 -5 -3 -10 -1 -10 4 0 6 5 11 10 11 6 0
10 -2 10 -4z m3100 -25 c0 -12 -20 -25 -27 -18 -7 7 6 27 18 27 5 0 9 -4 9 -9z
m-5290 -411 c0 -5 -5 -10 -11 -10 -5 0 -7 5 -4 10 3 6 8 10 11 10 2 0 4 -4 4
-10z m2760 -120 c0 -5 -4 -10 -10 -10 -5 0 -10 5 -10 10 0 6 5 10 10 10 6 0
10 -4 10 -10z m3054 -35 c-4 -8 -10 -15 -15 -15 -5 0 -9 7 -9 15 0 8 7 15 15
15 9 0 12 -6 9 -15z m-5654 -113 c0 -4 -5 -13 -12 -20 -9 -9 -8 -15 6 -25 18
-13 18 -15 -4 -35 -13 -12 -20 -27 -17 -36 7 -19 -1 -46 -14 -46 -5 0 -8 17
-7 38 0 22 -2 44 -5 50 -9 13 10 64 26 74 16 10 27 10 27 0z m5720 -102 c0 -5
-5 -10 -11 -10 -5 0 -7 5 -4 10 3 6 8 10 11 10 2 0 4 -4 4 -10z m0 -65 c-8
-21 -14 -25 -22 -17 -9 9 -8 18 1 38 17 37 36 18 21 -21z m-2432 -347 c-4 -27
-28 -36 -28 -10 0 20 8 32 22 32 5 0 8 -10 6 -22z m-193 -53 c0 -16 -6 -30
-12 -32 -9 -3 -13 7 -13 32 0 25 4 35 13 33 6 -3 12 -17 12 -33z m115 10 c0
-8 -4 -15 -10 -15 -5 0 -10 7 -10 15 0 8 5 15 10 15 6 0 10 -7 10 -15z m115
-34 c-3 -12 -11 -21 -16 -21 -10 0 -12 21 -3 45 10 24 27 2 19 -24z m-3355 20
c0 -6 -4 -13 -10 -16 -5 -3 -10 1 -10 9 0 9 5 16 10 16 6 0 10 -4 10 -9z
m2350 -5 c0 -3 -4 -8 -10 -11 -5 -3 -10 -1 -10 4 0 6 5 11 10 11 6 0 10 -2 10
-4z m1057 -30 c-3 -20 -1 -36 5 -38 13 -5 -9 -118 -23 -118 -12 0 -12 36 1 80
7 23 7 36 0 38 -11 4 -14 55 -3 65 16 17 25 4 20 -27z m-3448 -28 c-8 -14 -14
-18 -17 -10 -4 13 17 46 25 38 3 -2 -1 -15 -8 -28z m3521 9 c0 -12 -8 -27 -19
-34 -18 -11 -18 -10 -8 23 12 39 27 45 27 11z m-380 -3 c0 -8 -5 -12 -10 -9
-6 4 -8 11 -5 16 9 14 15 11 15 -7z m-3140 -68 c0 -24 -16 -43 -27 -32 -8 8 6
56 17 56 6 0 10 -11 10 -24z m90 -26 c0 -5 -5 -10 -11 -10 -5 0 -7 5 -4 10 3
6 8 10 11 10 2 0 4 -4 4 -10z m3720 -40 c0 -5 -5 -10 -11 -10 -5 0 -7 5 -4 10
3 6 8 10 11 10 2 0 4 -4 4 -10z m-1420 -30 c0 -5 -2 -10 -4 -10 -3 0 -8 5 -11
10 -3 6 -1 10 4 10 6 0 11 -4 11 -10z m1456 -36 c4 -14 2 -30 -5 -37 -14 -14
-21 -6 -27 32 -7 39 22 44 32 5z m-3886 -28 c0 -3 -4 -8 -10 -11 -5 -3 -10 -1
-10 4 0 6 5 11 10 11 6 0 10 -2 10 -4z m40 -317 c-12 -22 -30 -25 -30 -6 0 17
21 38 32 31 4 -3 3 -14 -2 -25z m10 -65 c0 -27 -29 -84 -42 -84 -15 0 -8 73 9
92 22 25 33 23 33 -8z m6030 6 c0 -5 -4 -10 -10 -10 -5 0 -10 5 -10 10 0 6 5
10 10 10 6 0 10 -4 10 -10z m-5964 -56 c-9 -13 -21 -24 -26 -24 -20 0 -20 22
1 51 19 27 23 29 31 15 7 -12 5 -25 -6 -42z m5964 -8 c0 -16 -18 -31 -27 -22
-8 8 5 36 17 36 5 0 10 -6 10 -14z m-3942 -8 c-6 -18 -28 -21 -28 -4 0 9 7 16
16 16 9 0 14 -5 12 -12z m1972 9 c0 -13 -33 -67 -41 -67 -15 0 -10 32 8 52 14
16 33 24 33 15z m1990 -67 c0 -11 -6 -20 -14 -20 -9 0 -12 7 -9 20 3 11 9 20
14 20 5 0 9 -9 9 -20z m-2020 -119 c0 -6 -4 -13 -10 -16 -5 -3 -10 1 -10 9 0
9 5 16 10 16 6 0 10 -4 10 -9z m-2006 -132 c-3 -5 -10 -7 -15 -3 -5 3 -7 10
-3 15 3 5 10 7 15 3 5 -3 7 -10 3 -15z m-2044 -20 c-6 -11 -15 -17 -21 -14 -5
4 -5 14 1 26 6 11 15 17 21 14 5 -4 5 -14 -1 -26z m68 -164 c-4 -30 -23 -34
-21 -5 1 29 2 30 14 30 6 0 9 -11 7 -25z m2072 -4 c0 -10 -6 -24 -14 -30 -8
-7 -17 -23 -20 -36 -4 -14 -14 -25 -22 -25 -9 0 -14 6 -11 13 32 80 41 97 53
97 8 0 14 -8 14 -19z m-2192 -98 c-5 -25 -28 -28 -28 -4 0 12 6 21 16 21 9 0
14 -7 12 -17z m6120 -95 c-4 -41 -21 -46 -35 -9 -9 24 -8 34 5 52 13 19 16 20
24 5 5 -9 8 -31 6 -48z m-3968 -28 c0 -5 -4 -10 -10 -10 -5 0 -10 5 -10 10 0
6 5 10 10 10 6 0 10 -4 10 -10z m-2054 -47 c-10 -10 -19 5 -10 18 6 11 8 11
12 0 2 -7 1 -15 -2 -18z m2060 -132 c-8 -13 -36 -15 -36 -3 0 4 5 13 12 20 14
14 34 0 24 -17z m1925 -174 c-8 -8 -11 -7 -11 4 0 9 3 19 7 23 4 4 9 2 11 -4
3 -7 -1 -17 -7 -23z m49 5 c0 -9 -13 -30 -30 -45 -35 -33 -39 -23 -9 27 23 39
39 46 39 18z m1950 -52 c0 -5 -4 -10 -10 -10 -5 0 -10 5 -10 10 0 6 5 10 10
10 6 0 10 -4 10 -10z m-6063 -74 c-4 -9 -10 -16 -16 -16 -11 0 -22 40 -14 53
9 14 36 -20 30 -37z m6083 14 c0 -5 -4 -10 -10 -10 -5 0 -10 5 -10 10 0 6 5
10 10 10 6 0 10 -4 10 -10z m0 -55 c0 -15 -42 -85 -51 -85 -12 0 -3 35 19 68
13 20 32 30 32 17z m10 -234 c0 -12 -20 -25 -27 -18 -7 7 6 27 18 27 5 0 9 -4
9 -9z m-4008 -65 c-2 -16 2 -26 10 -26 7 0 2 -6 -12 -14 -31 -16 -43 -11 -30
14 5 10 10 28 10 40 0 13 5 20 13 17 6 -2 11 -16 9 -31z m-2036 -62 c-4 -12
-10 -14 -17 -7 -5 5 -7 17 -3 27 4 12 10 14 17 7 5 -5 7 -17 3 -27z m2064 -19
c0 -17 -43 -38 -48 -23 -5 12 18 38 34 38 8 0 14 -7 14 -15z m-2076 -24 c3 -5
-1 -11 -9 -15 -9 -3 -15 0 -15 9 0 16 16 20 24 6z m4087 -174 c-8 -8 -11 -7
-11 4 0 20 13 34 18 19 3 -7 -1 -17 -7 -23z m-4100 -10 c-8 -8 -11 -7 -11 4 0
20 13 34 18 19 3 -7 -1 -17 -7 -23z m-21 -36 c0 -20 -27 -48 -37 -37 -9 8 14
56 27 56 5 0 10 -8 10 -19z m2066 -49 c-12 -11 -18 7 -10 30 l8 23 4 -23 c2
-13 1 -26 -2 -30z m-1966 14 c0 -14 -4 -27 -9 -30 -12 -8 -22 20 -15 39 9 23
24 18 24 -9z m3990 -66 c0 -16 -33 -80 -42 -80 -17 0 -19 29 -3 59 14 29 45
43 45 21z m-1976 -35 c-4 -8 -12 -15 -20 -15 -8 0 -11 6 -8 15 4 8 12 15 20
15 8 0 11 -6 8 -15z m3836 -125 c0 -5 -4 -10 -10 -10 -5 0 -10 5 -10 10 0 6 5
10 10 10 6 0 10 -4 10 -10z m-1800 -69 c0 -10 -7 -24 -15 -31 -12 -10 -16 -9
-21 4 -6 16 11 46 27 46 5 0 9 -8 9 -19z m-4100 -135 c0 -34 -23 -66 -34 -47
-6 9 1 56 11 74 10 18 23 4 23 -27z m5961 -199 c-16 -16 -26 0 -10 19 9 11 15
12 17 4 2 -6 -1 -17 -7 -23z m-1868 -82 c-3 -8 -9 -15 -14 -15 -10 0 -12 24
-3 33 11 11 24 -3 17 -18z m-3 -44 c0 -21 -13 -41 -26 -41 -17 0 -17 5 -4 31
11 20 30 26 30 10z m-4060 -105 c0 -8 -4 -18 -10 -21 -5 -3 -10 3 -10 14 0 12
5 21 10 21 6 0 10 -6 10 -14z m-10 -105 c0 -12 -20 -25 -27 -18 -7 7 6 27 18
27 5 0 9 -4 9 -9z m-85 -21 c3 -5 1 -10 -4 -10 -6 0 -11 5 -11 10 0 6 2 10 4
10 3 0 8 -4 11 -10z m67 -72 c-16 -16 -21 -8 -15 27 6 29 6 29 16 7 7 -16 7
-26 -1 -34z m5955 20 c-3 -8 -6 -5 -6 6 -1 11 2 17 5 13 3 -3 4 -12 1 -19z
m-6026 -165 c-12 -20 -14 -14 -5 12 4 9 9 14 11 11 3 -2 0 -13 -6 -23z m4172
-23 c-6 -21 -31 -46 -39 -38 -2 3 1 17 7 32 14 31 40 36 32 6z m-27 -106 c-3
-9 -6 -27 -6 -40 0 -13 -6 -24 -13 -24 -16 0 -21 49 -6 66 16 19 32 18 25 -2z
m-4156 -43 c0 -6 -4 -13 -10 -16 -5 -3 -10 1 -10 9 0 9 5 16 10 16 6 0 10 -4
10 -9z m60 -5 c0 -16 -18 -31 -27 -22 -8 8 5 36 17 36 5 0 10 -6 10 -14z
m6030 10 c0 -3 -4 -8 -10 -11 -5 -3 -10 -1 -10 4 0 6 5 11 10 11 6 0 10 -2 10
-4z m-1982 -28 c-3 -7 -13 -15 -24 -17 -16 -3 -17 -1 -5 13 16 19 34 21 29 4z
m62 -54 c0 -17 -23 -31 -28 -16 -2 6 -10 8 -18 5 -10 -3 -12 0 -9 10 8 18 55
19 55 1z m-2078 -366 c-7 -7 -12 -8 -12 -2 0 14 12 26 19 19 2 -3 -1 -11 -7
-17z m1998 -12 c0 -3 -4 -8 -10 -11 -5 -3 -10 -1 -10 4 0 6 5 11 10 11 6 0 10
-2 10 -4z m-4034 -71 c7 -17 -33 -105 -47 -105 -20 0 -20 30 0 74 20 47 37 58
47 31z m5944 -88 c0 -14 -20 -37 -32 -37 -12 0 -10 24 4 38 16 16 28 15 28 -1z
m-5980 -57 c0 -5 -4 -10 -10 -10 -5 0 -10 5 -10 10 0 6 5 10 10 10 6 0 10 -4
10 -10z m40 -89 c0 -19 -26 -48 -36 -39 -7 7 17 58 28 58 4 0 8 -8 8 -19z
m2099 -22 c-19 -37 -39 -16 -23 25 5 13 10 14 20 5 10 -8 11 -16 3 -30z m2121
-98 c0 -6 -4 -13 -10 -16 -5 -3 -10 1 -10 9 0 9 5 16 10 16 6 0 10 -4 10 -9z
m1800 -31 c0 -5 -5 -10 -11 -10 -5 0 -7 5 -4 10 3 6 8 10 11 10 2 0 4 -4 4
-10z m-1848 -45 c-5 -28 -23 -48 -34 -37 -15 15 2 63 21 60 10 -2 15 -11 13
-23z m-4042 -9 c0 -8 -4 -17 -9 -21 -12 -7 -24 12 -16 25 9 15 25 12 25 -4z
m5402 -76 l-10 -25 -12 27 c-11 23 -10 31 6 55 l19 28 3 -30 c2 -17 -1 -42 -6
-55z m448 47 c0 -7 -7 -22 -15 -33 -14 -18 -14 -17 -15 14 0 22 5 32 15 32 8
0 15 -6 15 -13z m-1808 -39 c-15 -15 -26 -4 -18 18 5 13 9 15 18 6 9 -9 9 -15
0 -24z m-4030 -43 c-2 -14 -8 -25 -13 -25 -10 0 -12 43 -3 53 13 12 21 -3 16
-28z m4238 15 c0 -5 -2 -10 -4 -10 -3 0 -8 5 -11 10 -3 6 -1 10 4 10 6 0 11
-4 11 -10z m830 0 c0 -5 -5 -10 -11 -10 -5 0 -7 5 -4 10 3 6 8 10 11 10 2 0 4
-4 4 -10z m701 -43 c-8 -8 -11 -7 -11 4 0 20 13 34 18 19 3 -7 -1 -17 -7 -23z
m76 11 c-3 -8 -6 -5 -6 6 -1 11 2 17 5 13 3 -3 4 -12 1 -19z m-171 -15 c-10
-10 -19 5 -10 18 6 11 8 11 12 0 2 -7 1 -15 -2 -18z m-5446 0 c0 -10 -5 -25
-10 -33 -13 -21 -34 2 -25 29 8 25 35 28 35 4z m1133 -10 c6 -31 0 -46 -14
-38 -12 8 -12 65 0 65 5 0 11 -12 14 -27z m-863 -13 c0 -16 -4 -30 -10 -30
-11 0 -14 43 -3 53 11 12 13 8 13 -23z m4090 11 c0 -22 -16 -36 -24 -22 -8 12
3 41 15 41 5 0 9 -9 9 -19z m-3502 -27 c-5 -28 -28 -29 -28 -1 0 13 3 27 7 31
10 10 25 -10 21 -30z m69 4 c-3 -7 -5 -2 -5 12 0 14 2 19 5 13 2 -7 2 -19 0
-25z m523 -10 c0 -16 -3 -19 -11 -11 -6 6 -8 16 -5 22 11 17 16 13 16 -11z
m3171 -1 c-13 -13 -26 -3 -16 12 3 6 11 8 17 5 6 -4 6 -10 -1 -17z m-4051 -47
c0 -5 -4 -10 -10 -10 -5 0 -10 5 -10 10 0 6 5 10 10 10 6 0 10 -4 10 -10z"/>
<path d="M3860 8951 c-57 -41 -70 -43 -70 -10 0 24 -12 24 -35 -1 -10 -11 -27
-22 -39 -26 -11 -3 -31 -16 -43 -27 -31 -28 -39 -15 -23 33 7 22 11 42 9 45
-3 2 -24 -3 -48 -11 -33 -11 -46 -12 -51 -3 -8 12 -49 9 -82 -6 -14 -5 -18 -2
-18 15 0 22 0 22 -31 -4 -17 -14 -34 -24 -39 -21 -4 3 -13 -2 -20 -10 -19 -23
-33 -18 -28 10 6 30 2 31 -37 5 -36 -24 -55 -25 -55 -5 0 21 -14 19 -36 -6
-10 -12 -31 -27 -46 -35 -24 -13 -27 -12 -22 1 4 9 0 15 -9 15 -8 0 -17 6 -20
13 -3 7 -26 -9 -61 -42 -30 -30 -58 -52 -61 -50 -3 3 2 28 10 55 8 27 15 59
15 72 0 23 -2 22 -42 -12 -23 -20 -49 -36 -58 -36 -10 0 -29 -9 -43 -20 -14
-11 -31 -20 -38 -20 -15 0 41 59 57 60 11 0 44 32 44 43 0 3 -12 0 -27 -7 -16
-8 -53 -22 -83 -31 -30 -10 -62 -23 -70 -30 -8 -7 -31 -16 -50 -20 -19 -4 -55
-20 -79 -36 -51 -33 -54 -34 -71 -14 -10 12 -8 22 9 51 12 20 20 38 18 40 -5
5 -47 -35 -47 -46 0 -5 -20 -23 -45 -41 -25 -18 -45 -38 -45 -44 0 -7 -7 -18
-15 -25 -11 -9 -15 -9 -15 -1 0 21 31 85 52 108 l20 22 -40 -20 c-25 -12 -39
-26 -36 -33 3 -7 -10 -26 -27 -41 -31 -25 -34 -26 -40 -9 -5 16 -9 13 -21 -16
-8 -19 -11 -36 -6 -38 12 -5 10 -70 -3 -78 -8 -4 -7 -9 2 -15 11 -6 11 -16 2
-51 -8 -30 -8 -47 -1 -55 6 -7 8 -19 5 -28 -10 -25 10 -25 21 0 7 14 16 25 22
25 19 0 10 -49 -15 -76 -23 -24 -26 -52 -4 -39 5 4 9 -11 9 -32 0 -41 -34
-108 -50 -98 -6 3 -15 -6 -21 -22 -6 -15 -18 -36 -26 -45 -11 -13 -12 -18 -3
-18 8 0 11 -12 8 -40 l-3 -40 32 32 c39 38 54 31 24 -10 -12 -17 -21 -41 -21
-55 0 -13 -7 -41 -16 -62 -17 -42 -13 -55 12 -34 16 13 17 10 12 -33 -3 -27
-2 -48 3 -48 14 0 10 -43 -6 -63 -18 -25 -8 -49 16 -42 29 9 24 -21 -8 -51
-14 -13 -23 -27 -19 -31 3 -4 12 -1 18 5 7 7 16 12 20 12 13 0 9 -28 -4 -34
-10 -5 -10 -7 0 -12 17 -8 15 -44 -3 -44 -8 0 -15 5 -15 11 0 5 -3 8 -7 6 -10
-6 -9 -117 1 -138 4 -10 1 -22 -8 -32 -18 -17 -39 -67 -29 -67 4 0 14 7 24 16
17 15 19 14 34 -22 11 -28 15 -61 12 -124 -4 -86 -20 -132 -69 -203 -27 -37
-18 -44 15 -11 26 25 47 25 47 0 0 -8 -7 -19 -15 -26 -17 -14 -20 -50 -5 -50
15 0 12 -38 -4 -47 -16 -10 -27 -98 -13 -112 18 -18 10 -60 -17 -92 -20 -23
-24 -34 -15 -40 7 -4 18 -5 26 -2 16 6 18 -39 2 -68 -7 -15 -7 -24 1 -34 14
-17 3 -103 -15 -125 -15 -17 -45 -76 -45 -86 0 -4 11 3 25 16 14 13 25 31 25
41 0 9 7 19 15 23 8 3 15 14 15 25 0 11 9 25 20 31 18 9 20 8 20 -15 0 -14 -9
-34 -19 -44 -20 -20 -20 -45 1 -88 6 -12 8 -33 4 -47 -3 -14 -9 -38 -12 -53
-4 -16 -12 -35 -19 -43 -20 -25 -25 -60 -9 -60 8 0 17 -7 20 -15 11 -27 23
-16 18 18 -6 40 9 68 27 50 10 -10 15 -9 25 5 12 15 13 14 14 -10 0 -15 -4
-30 -10 -33 -5 -3 -10 -13 -10 -22 0 -9 -10 -35 -22 -59 -19 -38 -20 -47 -8
-68 15 -29 8 -65 -20 -98 -36 -41 -71 -100 -65 -107 4 -3 12 2 19 12 18 24 39
22 31 -3 -3 -11 -3 -20 2 -20 4 0 14 -14 22 -31 10 -24 11 -39 3 -66 -6 -20
-7 -44 -3 -57 5 -11 4 -50 -1 -86 -5 -36 -7 -76 -4 -90 3 -18 -5 -40 -25 -69
-16 -24 -29 -53 -29 -65 1 -23 -2 -26 54 49 14 19 15 19 22 2 4 -12 -3 -32
-23 -60 -17 -23 -33 -58 -35 -77 -3 -19 -9 -44 -13 -55 -8 -18 -6 -18 17 3 13
12 27 22 30 22 17 0 17 -61 -1 -115 -13 -43 -16 -65 -9 -79 7 -13 5 -31 -8
-64 -9 -25 -18 -61 -20 -79 -1 -18 -12 -53 -23 -76 -12 -24 -21 -48 -21 -54 0
-18 49 -2 55 18 4 10 11 19 16 19 16 0 10 -29 -10 -49 -10 -10 -21 -29 -24
-42 -3 -13 -9 -34 -12 -46 -5 -15 -3 -23 4 -23 6 0 11 9 11 19 0 14 7 18 24
17 14 0 22 -6 19 -13 -3 -7 -9 -11 -13 -8 -8 5 -25 -31 -36 -77 -3 -14 -21
-50 -39 -78 -29 -45 -32 -55 -23 -81 7 -20 7 -38 0 -57 -6 -15 -13 -36 -17
-47 -5 -16 -8 -17 -15 -5 -13 21 -21 9 -47 -73 -27 -84 -25 -77 -14 -77 5 0
19 21 31 46 39 80 82 71 55 -11 -14 -39 -14 -49 -4 -56 10 -6 11 -19 3 -58 -8
-41 -8 -51 3 -51 7 0 13 9 13 20 0 34 51 102 72 97 11 -3 18 0 18 8 0 19 20
29 32 17 13 -13 1 -65 -12 -57 -6 3 -10 -4 -10 -17 0 -30 -13 -49 -36 -52 -11
-2 -21 -14 -25 -32 -3 -16 -11 -39 -18 -51 -9 -18 -9 -28 0 -45 12 -23 13 -22
26 12 35 93 58 108 58 37 1 -39 -37 -127 -54 -127 -3 0 -11 -15 -17 -32 -6
-18 -15 -42 -19 -52 -15 -35 14 -7 33 31 19 40 30 45 45 23 7 -12 2 -26 -17
-54 -14 -21 -26 -44 -26 -50 1 -6 8 1 16 17 8 15 19 27 24 27 17 0 11 -40 -11
-70 -12 -16 -23 -43 -24 -60 -2 -26 0 -30 16 -25 15 5 19 1 19 -18 0 -14 -7
-30 -15 -37 -9 -7 -15 -29 -15 -53 0 -27 -10 -56 -30 -89 -34 -55 -35 -59 -16
-52 11 4 16 -4 18 -28 2 -24 8 -33 21 -32 22 2 23 -42 2 -66 -16 -18 -10 -54
6 -44 14 8 39 -16 39 -38 0 -28 -57 -136 -80 -150 -21 -14 -26 -43 -11 -67 8
-12 11 -10 19 10 5 13 15 36 21 52 6 15 18 27 27 27 11 0 14 -5 9 -18 -4 -9
-11 -34 -15 -55 -4 -21 -13 -44 -19 -50 -6 -6 -11 -15 -11 -20 0 -6 12 3 26
18 36 39 53 21 36 -38 -25 -84 -25 -84 -9 -65 32 40 52 4 21 -40 -20 -28 -34
-28 -35 1 0 14 -5 7 -14 -21 -7 -23 -16 -50 -20 -60 -4 -9 -7 -37 -6 -62 2
-31 -7 -67 -28 -117 -37 -87 -38 -93 -6 -63 l25 24 -7 -35 c-6 -33 -33 -89
-65 -139 -10 -14 -24 -43 -33 -65 l-16 -40 23 30 c40 53 80 95 89 95 4 0 -5
-28 -21 -62 -16 -34 -27 -65 -24 -70 10 -15 22 -8 28 17 4 14 11 23 16 20 16
-10 11 -43 -8 -57 -22 -15 -39 -112 -22 -123 7 -4 14 2 17 14 5 19 39 39 49
28 3 -2 0 -24 -7 -48 -6 -24 -12 -55 -13 -69 -1 -14 -12 -41 -24 -60 -21 -33
-21 -36 -5 -50 10 -8 25 -28 33 -43 14 -28 14 -28 30 -8 11 15 22 19 39 14 21
-5 22 -10 17 -46 -6 -36 -5 -39 10 -26 14 12 19 10 34 -9 25 -31 30 -28 30 18
0 46 15 53 25 13 3 -15 12 -31 18 -35 9 -5 9 -10 -1 -20 -17 -17 -16 -88 2
-88 9 0 23 27 38 73 16 49 29 73 41 75 13 3 17 -3 17 -27 0 -34 2 -36 31 -21
11 6 19 21 19 35 0 42 25 28 49 -28 20 -46 24 -50 32 -32 10 19 80 75 94 75 4
0 5 -17 3 -37 -1 -21 2 -39 7 -41 6 -1 11 15 13 35 4 69 23 124 41 121 11 -2
17 -16 19 -43 1 -22 8 -50 14 -62 6 -12 8 -28 5 -36 -3 -9 1 -17 12 -20 14 -3
20 5 29 39 13 48 32 59 32 19 0 -14 5 -25 10 -25 6 0 10 19 10 43 0 24 7 52
15 63 14 18 14 17 15 -12 0 -16 4 -34 8 -40 5 -5 14 -29 21 -54 8 -25 15 -51
17 -59 9 -28 14 -2 16 68 0 39 3 71 6 71 10 0 31 -35 32 -51 0 -27 27 -44 45
-29 21 18 37 8 52 -31 l13 -34 -5 50 c-2 28 -7 68 -10 91 -8 52 12 73 51 55
24 -11 25 -15 19 -61 -8 -57 -1 -77 21 -59 8 6 14 20 14 30 0 10 9 33 20 51
11 18 20 44 20 57 0 50 20 5 23 -51 2 -32 6 -61 10 -64 4 -4 7 -16 7 -26 0
-36 18 -17 26 29 9 47 34 73 34 34 0 -22 19 -40 21 -19 1 7 1 30 0 50 -3 41
15 82 30 72 6 -3 9 -17 6 -30 -2 -14 0 -27 4 -30 5 -3 9 -23 9 -45 0 -21 5
-39 10 -39 6 0 16 -11 22 -25 12 -26 28 -33 28 -12 1 20 36 60 56 63 11 2 25
-4 32 -13 11 -15 12 -15 12 4 0 12 -5 23 -10 25 -15 5 -17 60 -2 65 7 3 15 -7
18 -26 4 -17 11 -29 18 -28 6 1 12 -14 14 -33 4 -39 15 -55 40 -55 11 0 18
-10 20 -29 3 -21 0 -26 -9 -20 -7 4 -3 -6 9 -24 13 -17 29 -29 36 -26 8 3 16
-4 21 -18 6 -20 8 -21 12 -5 3 10 -2 26 -10 35 -8 9 -17 34 -21 54 -4 20 -12
38 -18 40 -7 3 -3 13 10 26 12 12 22 31 22 41 0 26 17 36 37 20 13 -11 17 -10
29 6 13 18 14 18 14 -6 0 -22 18 -66 44 -108 7 -11 10 -11 18 3 13 24 25 20
37 -14 18 -54 34 -36 26 30 -7 64 8 86 20 30 5 -22 12 -30 25 -28 10 2 27 -8
39 -22 l22 -25 -6 31 c-17 90 -11 204 12 211 7 3 17 -14 24 -39 7 -24 17 -47
22 -53 7 -7 7 -3 3 10 -5 11 -15 66 -23 123 -14 92 -14 105 0 120 8 9 17 25
18 35 6 28 23 23 41 -14 20 -40 24 -21 6 29 -12 32 -11 35 19 62 l32 29 -36
-6 -36 -6 5 47 c3 26 13 55 22 65 20 22 21 35 0 27 -28 -11 -32 3 -17 51 8 27
15 55 15 63 -1 8 6 39 15 68 18 62 12 76 -18 39 -11 -15 -25 -27 -30 -27 -13
0 -11 21 5 39 7 9 18 32 25 51 9 28 9 35 -4 42 -9 6 -15 24 -15 48 0 26 -6 43
-17 50 -15 10 -15 11 -1 6 9 -2 24 4 34 15 15 17 16 22 4 29 -12 8 -11 16 7
53 21 43 21 44 2 60 -11 10 -19 31 -20 49 -3 124 0 158 15 179 20 29 20 39 1
39 -14 0 -14 4 -1 35 14 33 14 35 -6 35 -15 0 -18 4 -13 18 4 9 9 37 10 62 0
25 6 54 12 65 11 20 6 85 -6 85 -4 0 -12 -5 -18 -11 -6 -6 -19 -9 -28 -7 -15
3 -13 7 9 31 14 15 26 36 26 45 0 10 7 27 15 39 13 18 13 22 0 33 -7 6 -11 19
-8 27 4 11 3 14 -6 9 -6 -4 -9 -16 -6 -25 6 -19 -20 -49 -32 -37 -3 3 -1 17 5
31 11 23 9 27 -11 34 -21 8 -20 10 18 27 26 13 41 27 43 41 3 18 0 22 -14 16
-14 -5 -16 -3 -10 13 19 46 20 58 3 51 -30 -11 -18 10 25 47 37 32 39 36 19
36 -13 0 -34 -9 -48 -20 -37 -29 -57 -7 -34 38 13 24 24 56 23 64 -1 3 5 12
13 18 8 7 15 17 15 23 0 6 7 19 17 29 22 24 9 35 -27 21 -24 -9 -30 -9 -30 2
0 8 5 17 11 21 6 3 8 17 4 32 -4 17 1 39 16 67 15 28 20 48 15 61 -8 18 -8 18
-19 1 -7 -10 -17 -26 -24 -35 -11 -15 -12 -15 -13 6 0 13 10 33 23 45 12 12
28 35 35 51 l13 29 -40 -7 -40 -6 2 42 c2 40 4 43 28 40 25 -2 25 -2 21 58 -3
41 -1 60 7 60 6 0 14 -7 17 -15 4 -8 10 -15 15 -15 5 0 3 13 -5 28 -8 16 -11
34 -6 41 5 8 0 21 -11 32 -26 26 -24 41 11 74 35 34 38 45 10 45 -11 0 -23 8
-26 18 -3 9 -10 25 -15 34 -11 22 -2 46 22 59 11 5 19 16 19 24 0 17 -26 20
-35 5 -3 -5 -13 -10 -22 -10 -11 0 -5 14 21 50 41 57 42 60 21 60 -18 0 -18 5
-5 30 8 15 6 20 -9 25 -16 5 -18 11 -11 33 16 55 22 63 40 57 15 -5 17 -2 13
17 -3 13 -10 28 -15 35 -7 8 -5 18 6 28 9 9 16 29 16 44 0 15 5 32 11 38 7 7
3 9 -15 6 -21 -4 -26 -1 -26 14 0 10 6 25 13 32 10 11 10 14 0 18 -20 7 -16
26 16 74 l29 43 -19 28 c-11 15 -25 26 -32 24 -7 -1 -9 -1 -4 1 4 3 7 27 7 53
0 35 5 52 17 58 13 8 14 17 8 48 -14 74 -9 147 14 184 27 45 27 64 1 57 -12
-3 -24 1 -30 11 -9 15 -10 14 -16 -5 -3 -13 -13 -23 -21 -23 -20 0 -9 47 19
77 16 17 18 25 9 41 -14 26 -14 42 -1 42 5 0 12 -11 16 -25 3 -14 10 -25 15
-25 12 0 11 7 -3 47 -9 26 -10 38 -1 52 10 16 9 20 -6 24 -16 4 -19 16 -20 90
0 47 4 89 9 92 6 3 10 17 10 30 0 13 4 27 10 30 13 8 13 62 0 70 -5 3 -17 -6
-26 -20 -28 -43 -42 -32 -42 33 0 38 7 69 20 94 28 49 19 72 -24 63 l-33 -7
19 21 c11 12 20 37 20 56 2 40 13 55 26 35 8 -12 10 -10 10 9 0 18 -4 22 -17
16 -15 -5 -16 -4 -5 6 6 7 12 30 12 50 0 21 10 55 22 75 l22 37 -37 -6 c-51
-8 -56 9 -15 47 38 33 55 82 37 106 -8 11 -12 12 -16 3 -7 -20 -25 -15 -21 5
2 9 8 17 14 17 6 0 25 17 43 38 34 38 34 45 0 27 -15 -8 -21 -7 -25 3 -3 9
-14 12 -31 9 -24 -5 -25 -3 -19 24 4 16 8 46 9 66 2 20 10 45 20 56 21 23 22
33 2 26 -26 -11 -36 5 -20 35 7 15 12 37 9 49 -4 13 2 28 18 44 12 12 22 26
21 29 -1 3 2 22 7 42 10 46 -12 52 -32 10 -7 -15 -21 -29 -32 -31 -16 -3 -17
1 -11 30 8 37 22 58 39 58 15 0 37 58 25 66 -5 3 -16 -2 -25 -10 -35 -36 -49
-13 -22 36 16 27 19 41 11 46 -6 4 -16 34 -22 66 -12 63 -4 99 39 189 25 51
25 51 -5 31 -13 -8 -29 -13 -35 -9 -12 8 -3 103 12 122 6 7 7 21 3 30 -15 35
-15 56 0 79 19 29 19 34 0 34 -24 0 -18 17 21 60 42 46 31 51 -42 20 -26 -11
-49 -18 -52 -15 -3 3 1 17 9 31 7 15 12 37 11 50 -2 14 3 26 11 30 18 6 31 50
21 66 -4 7 -6 37 -5 67 2 41 8 61 23 75 15 14 17 21 8 26 -10 6 -10 15 -2 39
14 40 4 39 -30 -1 l-27 -33 -1 39 c0 27 7 47 22 63 12 13 16 23 10 23 -6 0
-14 -4 -17 -10 -10 -15 -35 -12 -29 4 3 8 0 17 -5 21 -6 3 -9 12 -5 18 3 7 -3
1 -14 -13 -12 -14 -24 -22 -27 -18 -11 11 5 48 21 48 8 0 14 4 14 8 0 5 10 14
23 20 12 7 15 11 7 10 -8 -1 -25 1 -37 6 -34 11 -79 -14 -75 -42 2 -12 -2 -22
-8 -22 -7 0 -10 7 -6 15 10 27 -34 17 -64 -15 -27 -29 -53 -43 -31 -17 6 8 7
17 2 23 -17 17 0 75 26 87 17 7 20 13 11 18 -7 5 -19 2 -28 -5 -8 -7 -27 -16
-42 -18 -21 -4 -28 -1 -30 14 -3 16 -10 14 -58 -21z m-399 -64 c-13 -13 -26
-3 -16 12 3 6 11 8 17 5 6 -4 6 -10 -1 -17z m-1074 -161 c-8 -78 -49 -122 -46
-48 2 50 18 92 36 92 11 0 13 -10 10 -44z m1791 -28 c-2 -13 -7 -23 -13 -23
-5 0 -11 10 -13 23 -2 15 2 22 13 22 11 0 15 -7 13 -22z m-68 -67 c0 -6 -4
-13 -10 -16 -5 -3 -10 1 -10 9 0 9 5 16 10 16 6 0 10 -4 10 -9z m-1774 -367
c-3 -9 -6 -18 -6 -20 0 -2 -4 -4 -9 -4 -5 0 -7 9 -4 20 3 11 10 20 15 20 6 0
7 -7 4 -16z m4 -188 c0 -15 -18 -31 -26 -23 -7 7 7 37 17 37 5 0 9 -6 9 -14z
m1915 -66 c-3 -5 -10 -10 -16 -10 -5 0 -9 5 -9 10 0 6 7 10 16 10 8 0 12 -4 9
-10z m-1919 -47 c-10 -10 -19 5 -10 18 6 11 8 11 12 0 2 -7 1 -15 -2 -18z m34
-313 c0 -5 -5 -10 -11 -10 -5 0 -7 5 -4 10 3 6 8 10 11 10 2 0 4 -4 4 -10z
m1811 -73 c-10 -9 -11 -8 -5 6 3 10 9 15 12 12 3 -3 0 -11 -7 -18z m-1803
-294 c-5 -25 -28 -28 -28 -4 0 12 6 21 16 21 9 0 14 -7 12 -17z m-26 -105
c-15 -15 -26 -4 -18 18 5 13 9 15 18 6 9 -9 9 -15 0 -24z m-2 -254 c0 -24 -19
-54 -35 -54 -17 0 -19 23 -5 51 13 23 40 25 40 3z m1880 -48 c0 -3 -4 -8 -10
-11 -5 -3 -10 -1 -10 4 0 6 5 11 10 11 6 0 10 -2 10 -4z m30 -44 c0 -10 -7
-28 -16 -40 -13 -18 -19 -21 -30 -11 -20 16 -17 36 6 59 23 23 40 19 40 -8z
m-1860 1 c0 -5 -4 -15 -10 -23 -11 -18 -25 -7 -17 15 6 15 27 21 27 8z m-30
-102 c0 -6 -4 -13 -10 -16 -5 -3 -10 1 -10 9 0 9 5 16 10 16 6 0 10 -4 10 -9z
m20 -56 c0 -20 -34 -83 -52 -94 -20 -12 -21 -12 -14 20 8 42 32 79 51 79 8 0
15 -2 15 -5z m16 -152 c-10 -10 -19 5 -10 18 6 11 8 11 12 0 2 -7 1 -15 -2
-18z m-20 -79 c-3 -8 -1 -14 4 -14 14 0 12 -31 -4 -59 -14 -26 -33 -13 -22 16
4 8 1 21 -5 29 -7 9 -7 19 1 34 12 22 35 17 26 -6z m-12 -617 c-8 -23 -24 -21
-24 2 0 11 -5 21 -12 23 -7 3 -8 10 -4 17 12 19 49 -20 40 -42z m-4 -107 c0
-5 -4 -10 -10 -10 -5 0 -10 5 -10 10 0 6 5 10 10 10 6 0 10 -4 10 -10z m20
-399 c0 -5 -7 -24 -15 -42 l-14 -34 -1 36 c0 20 3 39 7 42 9 10 23 9 23 -2z
m-10 -298 c0 -23 -17 -49 -26 -41 -9 10 4 58 16 58 6 0 10 -8 10 -17z m-79
-492 c-7 -12 -16 -21 -21 -21 -14 0 -12 34 2 48 18 18 32 -2 19 -27z m1934
-201 c-3 -5 -11 -10 -16 -10 -6 0 -7 5 -4 10 3 6 11 10 16 10 6 0 7 -4 4 -10z
m-1960 -122 c-11 -36 -25 -45 -25 -17 0 27 7 39 22 39 5 0 6 -10 3 -22z m105
-457 c0 -17 -12 -41 -21 -41 -10 0 -12 33 -2 43 9 10 23 9 23 -2z m-80 -376
c0 -8 -7 -15 -15 -15 -9 0 -12 6 -9 15 4 8 10 15 15 15 5 0 9 -7 9 -15z m64
-308 c-3 -9 -10 -17 -15 -17 -11 0 -12 34 -2 44 11 11 24 -9 17 -27z m6 -86
c0 -6 -4 -13 -10 -16 -5 -3 -10 1 -10 9 0 9 5 16 10 16 6 0 10 -4 10 -9z
m1860 -135 c0 -16 -18 -31 -27 -22 -8 8 5 36 17 36 5 0 10 -6 10 -14z m-1908
-248 c-7 -7 -12 -8 -12 -2 0 14 12 26 19 19 2 -3 -1 -11 -7 -17z m-32 -338 c0
-5 -5 -10 -11 -10 -5 0 -7 5 -4 10 3 6 8 10 11 10 2 0 4 -4 4 -10z m970 -309
c0 -12 -20 -25 -27 -18 -7 7 6 27 18 27 5 0 9 -4 9 -9z m-870 -16 c0 -8 -7
-15 -15 -15 -9 0 -12 6 -9 15 4 8 10 15 15 15 5 0 9 -7 9 -15z m751 -68 c-8
-8 -11 -1 -11 24 0 46 14 60 18 19 2 -18 -1 -37 -7 -43z m645 26 c-10 -10 -19
5 -10 18 6 11 8 11 12 0 2 -7 1 -15 -2 -18z m114 -4 c0 -11 -4 -17 -10 -14 -5
3 -10 13 -10 21 0 8 5 14 10 14 6 0 10 -9 10 -21z m-820 -3 c0 -8 -4 -18 -10
-21 -5 -3 -10 3 -10 14 0 12 5 21 10 21 6 0 10 -6 10 -14z m-770 -36 c-8 -15
-15 -19 -22 -12 -7 7 -6 17 2 32 8 15 15 19 22 12 7 -7 6 -17 -2 -32z m645 0
c0 -44 -21 -50 -28 -8 -5 37 0 51 16 45 7 -2 12 -19 12 -37z m-240 20 c-3 -5
0 -10 9 -10 8 0 16 6 19 13 2 6 7 9 11 6 11 -11 -29 -124 -44 -124 -11 0 -14
8 -10 30 2 17 4 45 4 63 0 17 3 32 8 32 5 0 6 -4 3 -10z m1360 -20 c0 -13 -6
-25 -12 -27 -9 -3 -13 6 -13 27 0 21 4 30 13 28 6 -3 12 -15 12 -28z m-495
-36 c13 -34 2 -53 -17 -29 -15 22 -17 55 -3 55 6 0 15 -12 20 -26z m190 -45
c0 -11 -4 -17 -10 -14 -5 3 -10 13 -10 21 0 8 5 14 10 14 6 0 10 -9 10 -21z"/>
<path d="M3370 8970 c-9 -6 -10 -10 -3 -10 6 0 15 5 18 10 8 12 4 12 -15 0z"/>
<path d="M5174 8837 c-23 -18 -47 -42 -53 -55 -10 -21 -10 -22 12 -11 19 10
97 87 97 96 0 8 -19 -1 -56 -30z"/>
<path d="M5246 8823 c-6 -14 -5 -15 5 -6 7 7 10 15 7 18 -3 3 -9 -2 -12 -12z"/>
<path d="M8040 8705 c-14 -16 -3 -20 19 -6 8 5 9 11 3 15 -5 3 -15 -1 -22 -9z"/>
<path d="M2250 8689 c0 -5 5 -7 10 -4 6 3 10 8 10 11 0 2 -4 4 -10 4 -5 0 -10
-5 -10 -11z"/>
<path d="M4950 8650 c-6 -11 -8 -20 -6 -20 3 0 10 9 16 20 6 11 8 20 6 20 -3
0 -10 -9 -16 -20z"/>
<path d="M2207 8549 c-4 -16 -3 -18 9 -8 16 13 19 29 5 29 -5 0 -11 -9 -14
-21z"/>
<path d="M7618 8501 c-18 -16 -30 -32 -27 -35 3 -3 21 10 39 29 41 42 33 46
-12 6z"/>
<path d="M5002 8200 c0 -14 2 -19 5 -12 2 6 2 18 0 25 -3 6 -5 1 -5 -13z"/>
<path d="M4996 8159 c-11 -35 -15 -79 -7 -79 5 0 11 19 14 42 6 42 2 64 -7 37z"/>
<path d="M2222 8090 c-20 -19 -33 -54 -48 -130 -5 -24 -4 -31 4 -26 7 4 12 14
12 22 0 8 13 46 30 85 16 38 28 69 26 69 -1 0 -12 -9 -24 -20z"/>
<path d="M2240 7940 c-6 -12 -9 -24 -7 -27 3 -2 11 5 17 17 6 12 9 24 7 27 -3
2 -11 -5 -17 -17z"/>
<path d="M2210 7400 c0 -5 4 -10 9 -10 6 0 13 5 16 10 3 6 -1 10 -9 10 -9 0
-16 -4 -16 -10z"/>
<path d="M11200 7020 c-8 -5 -12 -12 -9 -15 4 -3 12 1 19 10 14 17 11 19 -10
5z"/>
<path d="M5003 6898 c-14 -18 -35 -58 -30 -58 3 0 17 16 31 35 15 19 23 35 18
35 -5 0 -14 -6 -19 -12z"/>
<path d="M7968 6859 c-22 -12 -24 -44 -4 -36 10 4 18 -4 25 -21 l9 -27 0 25
c0 14 -3 35 -6 47 -6 17 -11 20 -24 12z"/>
<path d="M2191 6669 c-16 -46 -14 -48 9 -11 22 37 24 42 11 42 -5 0 -14 -14
-20 -31z"/>
<path d="M4270 6685 c0 -8 5 -15 10 -15 6 0 10 7 10 15 0 8 -4 15 -10 15 -5 0
-10 -7 -10 -15z"/>
<path d="M8535 6680 c3 -5 8 -10 11 -10 2 0 4 5 4 10 0 6 -5 10 -11 10 -5 0
-7 -4 -4 -10z"/>
<path d="M4286 6641 c-3 -5 1 -14 9 -21 13 -10 15 -9 15 9 0 21 -14 28 -24 12z"/>
<path d="M2251 6624 c0 -11 3 -14 6 -6 3 7 2 16 -1 19 -3 4 -6 -2 -5 -13z"/>
<path d="M7361 6244 c0 -11 3 -14 6 -6 3 7 2 16 -1 19 -3 4 -6 -2 -5 -13z"/>
<path d="M5031 6184 c0 -11 3 -14 6 -6 3 7 2 16 -1 19 -3 4 -6 -2 -5 -13z"/>
<path d="M7381 6135 c1 -28 14 -61 21 -49 3 5 -1 23 -8 39 -10 22 -13 25 -13
10z"/>
<path d="M5020 6013 c0 -22 2 -25 10 -13 13 20 13 40 0 40 -5 0 -10 -12 -10
-27z"/>
<path d="M5103 6028 c-24 -32 -24 -41 0 -19 15 14 27 26 27 28 0 8 -19 2 -27
-9z"/>
<path d="M5000 5914 c0 -8 5 -12 10 -9 6 3 10 10 10 16 0 5 -4 9 -10 9 -5 0
-10 -7 -10 -16z"/>
<path d="M2276 5833 c-6 -14 -5 -15 5 -6 7 7 10 15 7 18 -3 3 -9 -2 -12 -12z"/>
<path d="M9095 5829 c-10 -30 0 -33 13 -4 6 14 7 25 2 25 -5 0 -12 -9 -15 -21z"/>
<path d="M2248 5793 c-21 -24 -32 -79 -19 -88 13 -7 32 37 36 78 2 32 2 32
-17 10z"/>
<path d="M9081 5764 c0 -11 3 -14 6 -6 3 7 2 16 -1 19 -3 4 -6 -2 -5 -13z"/>
<path d="M4326 5571 c-3 -5 1 -14 9 -21 13 -10 15 -9 15 9 0 21 -14 28 -24 12z"/>
<path d="M7335 5559 c-4 -6 -5 -12 -2 -15 2 -3 7 2 10 11 7 17 1 20 -8 4z"/>
<path d="M2230 5488 l1 -33 14 25 c18 32 18 40 0 40 -10 0 -15 -10 -15 -32z"/>
<path d="M5040 4593 c1 -18 18 -35 24 -24 4 6 4 16 1 21 -7 12 -25 13 -25 3z"/>
<path d="M5050 4516 c0 -9 5 -16 10 -16 6 0 10 4 10 9 0 6 -4 13 -10 16 -5 3
-10 -1 -10 -9z"/>
<path d="M2180 4451 c-6 -13 -6 -22 -1 -26 9 -5 31 24 31 39 0 14 -20 4 -30
-13z"/>
<path d="M2142 4384 c-23 -16 -57 -72 -48 -81 2 -3 14 13 26 36 11 23 27 41
35 41 8 0 15 5 15 10 0 13 -2 13 -28 -6z"/>
<path d="M9149 3964 c-5 -15 -12 -31 -15 -35 -3 -5 -1 -9 5 -9 5 0 17 14 25
32 19 37 19 38 6 38 -6 0 -15 -12 -21 -26z"/>
<path d="M4260 3804 c0 -8 5 -12 10 -9 6 3 10 10 10 16 0 5 -4 9 -10 9 -5 0
-10 -7 -10 -16z"/>
<path d="M11267 3805 c-4 -8 -2 -17 3 -20 6 -4 10 3 10 14 0 25 -6 27 -13 6z"/>
<path d="M5070 3799 c0 -5 5 -7 10 -4 6 3 10 8 10 11 0 2 -4 4 -10 4 -5 0 -10
-5 -10 -11z"/>
<path d="M5010 3745 c0 -8 2 -15 4 -15 2 0 6 7 10 15 3 8 1 15 -4 15 -6 0 -10
-7 -10 -15z"/>
<path d="M2246 3695 c-3 -8 -1 -15 4 -15 6 0 10 7 10 15 0 8 -2 15 -4 15 -2 0
-6 -7 -10 -15z"/>
<path d="M7291 3494 c0 -11 3 -14 6 -6 3 7 2 16 -1 19 -3 4 -6 -2 -5 -13z"/>
<path d="M9176 3355 c-3 -8 -1 -15 4 -15 6 0 10 7 10 15 0 8 -2 15 -4 15 -2 0
-6 -7 -10 -15z"/>
<path d="M9106 2864 c-4 -9 -4 -19 -1 -22 2 -3 7 3 11 12 4 9 4 19 1 22 -2 3
-7 -3 -11 -12z"/>
<path d="M5067 2774 c-21 -19 -27 -33 -23 -48 3 -11 6 -27 6 -33 0 -25 17 -12
34 26 10 21 16 48 14 60 -3 21 -3 21 -31 -5z"/>
<path d="M5056 2653 c-11 -11 -6 -23 9 -23 8 0 15 4 15 9 0 13 -16 22 -24 14z"/>
<path d="M5053 2558 c-24 -27 -36 -58 -23 -58 5 0 19 18 30 40 23 46 22 49 -7
18z"/>
<path d="M5091 2454 c0 -11 3 -14 6 -6 3 7 2 16 -1 19 -3 4 -6 -2 -5 -13z"/>
<path d="M5050 1891 c0 -47 14 -60 31 -30 8 16 8 27 -2 45 -18 35 -29 29 -29
-15z"/>
<path d="M2167 1843 c-7 -39 -1 -40 18 -4 13 26 13 31 1 31 -7 0 -16 -12 -19
-27z"/>
<path d="M7151 1764 c0 -11 3 -14 6 -6 3 7 2 16 -1 19 -3 4 -6 -2 -5 -13z"/>
<path d="M9100 1736 c0 -9 5 -16 10 -16 6 0 10 4 10 9 0 6 -4 13 -10 16 -5 3
-10 -1 -10 -9z"/>
<path d="M3327 1733 c-4 -3 -7 -20 -6 -37 l1 -31 9 34 c10 33 8 47 -4 34z"/>
<path d="M3692 1723 c5 -25 28 -28 28 -4 0 12 -6 21 -16 21 -9 0 -14 -7 -12
-17z"/>
<path d="M7188 1724 c-12 -18 -2 -64 17 -82 17 -16 17 -16 11 8 -4 14 -11 38
-15 55 -4 16 -10 25 -13 19z"/>
<path d="M10937 1677 c-4 -10 -7 -26 -7 -35 1 -15 2 -15 11 1 6 10 9 25 7 35
-3 16 -4 15 -11 -1z"/>
<path d="M3680 1660 c0 -5 5 -10 11 -10 5 0 7 5 4 10 -3 6 -8 10 -11 10 -2 0
-4 -4 -4 -10z"/>
<path d="M5811 1604 c0 -11 3 -14 6 -6 3 7 2 16 -1 19 -3 4 -6 -2 -5 -13z"/>
<path d="M6591 1584 c0 -11 3 -14 6 -6 3 7 2 16 -1 19 -3 4 -6 -2 -5 -13z"/>
</g>
</svg>
