<?xml version="1.0" standalone="no"?>
<!DOCTYPE svg PUBLIC "-//W3C//DTD SVG 20010904//EN"
 "http://www.w3.org/TR/2001/REC-SVG-20010904/DTD/svg10.dtd">
<svg version="1.0" xmlns="http://www.w3.org/2000/svg"
 width="1280.000000pt" height="1280.000000pt" viewBox="0 0 1280.000000 1280.000000"
 preserveAspectRatio="xMidYMid meet">
<metadata>
Created by potrace 1.15, written by Peter Selinger 2001-2017
</metadata>
<g transform="translate(0.000000,1280.000000) scale(0.100000,-0.100000)"
fill="#e91e63" stroke="none">
<path d="M8470 10922 c-54 -26 -110 -62 -169 -110 -29 -24 -59 -41 -67 -38 -7
3 -14 2 -16 -2 -2 -5 -21 -18 -43 -31 l-40 -23 26 24 c14 12 41 36 60 51 25
21 27 25 7 13 -15 -9 -34 -16 -41 -16 -8 0 -22 -9 -32 -20 -25 -28 -30 -18
-10 22 l16 33 -36 -40 c-20 -22 -33 -34 -29 -26 6 11 3 13 -12 7 -44 -18 -57
-20 -49 -5 6 10 3 9 -11 -2 -10 -9 -30 -22 -42 -29 -51 -26 13 41 99 103 l24
18 -25 -12 c-30 -15 -160 -120 -160 -130 0 -4 -15 -13 -32 -20 -18 -7 -37 -15
-43 -17 -5 -3 19 23 55 58 57 55 59 59 21 31 -25 -17 -48 -31 -52 -31 -11 0
40 101 74 145 21 27 24 34 9 21 -13 -11 -32 -35 -43 -53 -11 -18 -25 -31 -29
-28 -5 3 -12 0 -16 -6 -4 -8 -3 -9 4 -5 7 4 12 4 12 1 0 -13 -42 -87 -46 -82
-3 3 2 19 11 36 8 17 13 31 10 31 -2 0 -14 -18 -25 -40 -11 -22 -28 -41 -38
-42 -9 0 -22 -2 -29 -2 -7 -1 -18 -7 -25 -14 -6 -6 -17 -12 -23 -12 -6 0 -36
-18 -65 -40 -29 -22 -56 -40 -58 -40 -2 0 8 16 22 35 28 37 25 46 -6 18 -17
-15 -18 -15 -18 5 0 11 4 23 9 26 12 8 21 46 10 46 -7 0 -54 -81 -50 -87 5
-10 -1 -23 -10 -23 -8 0 -7 6 2 18 7 9 -1 4 -19 -12 -39 -36 -42 -20 -5 26 21
25 22 28 5 14 -12 -11 -22 -15 -22 -10 -1 5 -6 0 -13 -12 -7 -11 -25 -37 -41
-58 -26 -34 -31 -36 -37 -20 -7 17 -8 17 -8 2 -1 -10 -5 -18 -11 -18 -5 0 -7
-6 -4 -14 5 -13 -30 -46 -48 -46 -17 0 -7 28 15 39 12 6 14 9 5 7 -22 -6 -22
0 -3 54 8 24 13 45 11 47 -5 5 -36 -74 -36 -93 0 -8 -8 -17 -17 -21 -10 -3
-31 -15 -47 -26 l-28 -20 6 24 c4 14 -1 10 -11 -11 -10 -19 -25 -35 -33 -36
-8 -1 -17 -2 -20 -3 -3 -2 -12 -4 -21 -6 -34 -6 -163 -93 -215 -145 -48 -47
-54 -51 -44 -26 6 16 9 31 6 33 -2 2 -11 -17 -19 -42 -9 -25 -36 -68 -60 -95
-25 -27 -64 -86 -87 -132 -24 -45 -45 -77 -48 -70 -2 7 -15 -3 -32 -25 -15
-21 -40 -49 -55 -63 l-27 -25 6 25 c4 15 -4 6 -21 -22 -15 -25 -49 -72 -75
-105 -60 -73 -127 -204 -134 -260 -6 -54 6 -55 28 -2 10 22 21 38 26 35 5 -3
17 11 26 32 9 20 32 55 51 77 28 33 34 36 35 20 0 -23 -37 -81 -87 -138 -33
-37 -41 -57 -24 -57 5 0 19 16 31 35 29 47 42 44 23 -5 -10 -25 -30 -49 -57
-66 -87 -58 -220 -204 -201 -222 4 -4 15 4 24 18 26 39 82 102 135 150 56 51
56 47 2 -32 -42 -63 -117 -267 -109 -298 3 -12 -7 -40 -24 -67 -56 -91 -84
-144 -81 -154 2 -6 18 12 36 40 19 28 34 51 35 51 1 0 1 -27 1 -60 -2 -49 -8
-69 -34 -110 -18 -28 -29 -54 -25 -58 4 -4 10 -2 12 4 7 20 63 78 63 66 0 -23
17 -11 34 24 9 20 19 34 22 31 3 -3 -6 -29 -19 -59 -37 -79 -41 -98 -23 -98
29 0 17 -46 -28 -112 -60 -88 -108 -191 -104 -225 2 -23 8 -14 31 48 15 42 45
103 65 135 34 54 37 57 43 34 4 -19 -3 -37 -29 -73 -19 -26 -31 -51 -27 -55 3
-4 10 0 15 9 5 9 18 27 29 40 l20 24 1 -48 c0 -38 -7 -57 -33 -95 -18 -26 -41
-75 -51 -109 -16 -52 -23 -63 -53 -77 -20 -9 -38 -14 -41 -12 -3 3 -11 1 -19
-5 -10 -9 -13 -7 -13 8 0 10 5 24 12 31 9 9 9 12 0 12 -18 0 -14 35 6 52 9 9
31 23 47 31 40 22 25 21 -20 0 -19 -9 -37 -14 -41 -11 -6 6 10 47 47 122 12
24 14 35 6 28 -7 -6 -26 -36 -41 -66 -15 -30 -52 -77 -81 -105 -29 -27 -55
-57 -58 -65 -4 -9 -11 -16 -18 -16 -6 0 1 21 15 47 31 55 28 70 -4 19 -15 -25
-29 -36 -45 -36 -13 0 -27 -4 -30 -10 -3 -5 -13 -10 -21 -10 -22 0 33 57 62
64 13 4 24 11 24 17 0 6 -6 6 -19 -1 -11 -5 -30 -10 -43 -10 -16 0 -19 -3 -10
-9 10 -6 6 -15 -20 -34 -20 -17 -34 -22 -37 -15 -2 6 6 20 19 30 13 10 17 18
9 18 -26 0 36 49 114 89 43 23 74 41 70 41 -16 0 -119 -42 -152 -63 l-34 -21
6 35 c3 19 8 43 12 54 3 11 -1 7 -11 -10 -9 -16 -29 -39 -43 -50 -14 -11 -45
-39 -68 -62 -41 -40 -79 -61 -90 -49 -6 6 41 107 69 149 11 15 17 27 13 27 -7
0 -95 -135 -95 -147 0 -14 -50 -33 -50 -20 0 7 -6 1 -13 -12 -13 -26 -43 -49
-52 -40 -10 10 6 39 22 39 8 0 12 4 9 9 -7 11 20 35 31 28 5 -3 13 5 19 18
l11 23 -34 -20 c-37 -22 -40 -19 -17 20 l16 27 -21 -25 c-11 -14 -23 -32 -26
-41 -5 -16 -54 -44 -62 -35 -6 6 27 56 38 56 5 0 9 5 9 12 0 6 -9 3 -20 -7
-20 -18 -20 -17 -20 14 0 18 7 46 16 62 25 49 9 44 -20 -6 -15 -25 -28 -45
-30 -45 -1 0 -1 28 0 63 2 34 1 54 -2 44 -3 -10 -36 -33 -74 -52 -38 -19 -72
-40 -76 -47 -5 -8 -1 -8 12 2 19 14 19 14 0 -8 -20 -23 -32 -30 -20 -10 5 8 2
9 -11 4 -16 -6 -16 -4 -4 11 7 10 24 31 38 48 29 32 8 21 -41 -24 -40 -36 -34
-14 13 48 22 29 38 55 36 58 -3 2 -14 -9 -26 -24 -54 -70 -63 -79 -56 -58 5
16 0 14 -24 -9 -17 -17 -31 -25 -31 -19 0 7 17 26 38 43 21 18 28 28 17 24
-11 -4 -38 -23 -60 -43 -21 -20 -34 -29 -27 -20 6 9 9 19 5 22 -3 4 -12 -1
-19 -11 -9 -11 -13 -13 -14 -4 0 7 15 27 33 44 17 18 24 26 15 19 -20 -15 -24
-1 -6 17 9 9 9 12 0 12 -7 0 -15 -8 -19 -17 -3 -10 -14 -27 -24 -38 -10 -11
-18 -22 -18 -25 0 -16 -15 -39 -29 -45 -11 -4 -8 2 8 20 22 23 22 25 4 22 -10
-1 -25 -6 -32 -11 -7 -4 -16 -6 -18 -3 -3 3 12 17 33 31 21 15 38 32 38 39 0
6 21 22 48 35 26 12 47 26 47 31 0 12 -78 -27 -122 -61 -21 -16 -42 -27 -47
-24 -5 4 -19 -6 -30 -20 -24 -31 -29 -19 -5 14 8 12 21 22 27 20 15 -2 77 34
77 46 0 4 -8 5 -17 1 -40 -16 -103 -33 -103 -28 0 3 17 21 38 40 l37 34 -36
-25 c-20 -14 -39 -26 -42 -26 -8 0 -1 140 9 185 3 17 3 27 0 24 -4 -3 -13 -38
-20 -77 -12 -64 -18 -76 -61 -117 -26 -26 -49 -44 -52 -41 -6 6 34 82 62 116
11 14 2 8 -21 -13 -41 -38 -53 -39 -55 -3 -1 15 -3 13 -10 -10 -6 -21 -28 -44
-72 -76 l-64 -45 2 26 c1 15 5 33 9 39 9 16 4 15 -30 -3 -15 -8 -30 -13 -31
-11 -4 4 42 92 59 115 7 8 0 5 -17 -8 -16 -12 -30 -26 -30 -29 -1 -13 -30 -52
-39 -52 -4 0 0 12 9 28 l18 27 -32 -29 c-17 -16 -34 -27 -37 -23 -4 4 -13 2
-21 -4 -9 -9 -13 -8 -13 0 0 10 14 15 24 9 5 -4 46 48 46 57 0 3 -12 -3 -26
-14 -31 -24 -41 -26 -41 -8 0 7 28 24 61 37 33 13 56 25 50 27 -6 2 -32 -6
-58 -17 -26 -11 -50 -20 -53 -20 -2 0 -2 15 1 33 5 29 4 29 -7 -6 -12 -36 -30
-56 -51 -57 -5 0 -7 33 -4 73 3 39 4 62 1 49 -6 -32 -40 -48 -48 -23 -9 29 13
66 56 92 22 13 47 30 57 37 15 11 15 11 -3 5 -11 -3 -32 -15 -47 -25 -30 -21
-33 -18 -18 15 10 20 9 21 -2 2 -16 -24 -85 -95 -93 -95 -11 0 18 43 57 86 22
24 44 41 48 39 5 -3 11 -1 15 5 3 5 -1 10 -9 10 -16 0 -100 -85 -129 -131 -21
-33 -31 -37 -23 -11 15 54 14 62 -3 26 -10 -23 -34 -52 -52 -64 l-32 -24 6 48
c7 51 27 75 82 98 38 16 122 68 109 68 -5 0 -45 -18 -89 -40 -89 -45 -92 -46
-76 -26 8 10 9 16 1 21 -5 3 -10 2 -10 -4 0 -5 -12 -24 -27 -41 -25 -30 -27
-31 -34 -13 -10 28 10 113 28 120 11 4 11 8 3 13 -13 8 20 34 104 82 28 17 42
27 31 23 -50 -16 -146 -79 -213 -139 -40 -36 -75 -66 -78 -66 -9 0 16 38 28
43 9 4 8 6 -2 6 -9 1 -21 -4 -28 -11 -21 -21 -13 4 13 38 14 18 21 35 16 38
-5 4 -24 -19 -41 -49 -17 -30 -36 -55 -42 -55 -13 0 -1 50 17 70 7 8 15 22 17
30 2 8 18 36 36 63 17 26 32 50 32 54 0 14 -60 -62 -77 -97 -14 -30 -67 -104
-96 -135 -15 -16 24 58 42 79 9 11 10 16 4 12 -27 -15 -12 14 20 38 22 18 27
26 15 26 -9 0 -20 -5 -23 -10 -10 -16 -105 -90 -116 -90 -13 0 1 32 30 65 l26
30 -30 -25 c-16 -14 -36 -33 -43 -43 -7 -9 -18 -15 -23 -12 -11 8 17 64 36 71
7 3 19 20 25 37 l10 32 -35 -40 -35 -39 4 38 c3 21 10 44 17 52 6 7 9 19 7 26
-4 12 -27 -29 -42 -74 -3 -10 -11 -18 -17 -18 -8 0 -7 5 2 16 11 14 10 15 -6
12 -22 -3 -30 20 -21 57 4 16 19 28 48 39 26 10 31 13 13 10 -16 -4 -38 -7
-47 -8 -10 0 -18 -3 -18 -7 0 -4 -15 -12 -32 -20 -18 -7 -50 -23 -70 -36 l-38
-23 -1 22 c-1 20 -2 20 -9 -5 -8 -25 -50 -70 -59 -62 -1 2 4 14 13 27 23 32
19 48 -4 18 -11 -14 -20 -20 -20 -14 0 14 22 41 40 47 11 4 11 6 -3 6 -14 1
-17 6 -12 24 6 18 1 15 -25 -13 l-31 -35 5 43 c2 27 13 54 27 68 24 25 34 54
19 54 -15 0 -21 -18 -8 -22 8 -3 6 -7 -4 -11 -14 -5 -16 1 -13 35 3 22 11 53
19 70 10 19 11 28 4 26 -6 -2 -17 -19 -23 -38 -13 -37 -52 -58 -81 -42 -13 7
-11 12 18 30 34 23 32 30 -4 11 -17 -9 -16 -5 8 27 25 34 21 32 -34 -18 -58
-53 -82 -68 -82 -52 0 12 43 79 69 108 23 25 23 27 4 15 -12 -7 -27 -23 -33
-35 -13 -23 -110 -99 -110 -86 0 5 11 21 25 36 13 14 19 26 12 26 -7 0 -1 9
12 19 24 19 16 37 -9 20 -47 -29 -16 24 54 94 l41 40 -41 -31 c-23 -18 -59
-54 -80 -82 -21 -27 -44 -50 -52 -50 -19 0 37 100 63 111 31 12 -7 11 -41 -1
-39 -15 -42 -4 -4 15 18 9 29 19 27 22 -3 3 -16 -2 -29 -11 -30 -21 -41 -20
-28 3 5 11 10 23 10 28 -1 4 -9 -8 -19 -26 -14 -27 -26 -36 -52 -39 -18 -2
-41 -8 -51 -13 -21 -11 -24 1 -5 21 6 7 -6 -1 -27 -18 -42 -33 -61 -35 -33 -4
10 10 17 24 17 30 0 6 10 20 22 32 12 11 18 20 14 20 -4 0 -20 -15 -37 -32
-19 -21 -29 -27 -29 -17 0 18 28 45 85 83 47 31 41 35 -9 5 -46 -27 -47 -9 -1
25 70 54 33 44 -52 -13 -48 -33 -90 -57 -93 -55 -2 3 2 9 9 13 11 7 11 10 0
14 -10 4 -9 6 3 6 9 1 19 5 22 10 4 5 -16 3 -44 -4 -27 -7 -50 -10 -50 -7 0 3
17 24 37 46 37 39 37 39 -19 -7 -56 -46 -82 -61 -58 -32 9 11 9 15 1 15 -7 0
-9 5 -5 11 5 8 9 8 14 -1 5 -9 9 -9 14 -1 4 6 2 11 -4 11 -6 0 -8 5 -5 10 10
16 -8 11 -35 -10 -37 -29 -61 -24 -25 5 l30 25 -25 0 -25 1 30 24 c17 14 35
25 42 25 6 0 15 4 18 10 4 6 -5 6 -22 -1 -43 -17 -93 -28 -93 -20 0 9 38 44
65 60 18 11 18 11 -5 5 -14 -4 -26 -11 -28 -15 -2 -5 -8 -9 -13 -9 -6 0 -5 8
1 20 13 25 3 26 -24 3 -20 -17 -20 -17 -6 2 15 19 14 19 -10 2 -46 -31 -60
-38 -60 -28 0 15 54 50 118 76 69 29 44 33 -30 5 -29 -11 -55 -20 -57 -20 -2
0 9 17 24 38 22 30 18 27 -24 -15 -28 -29 -57 -53 -63 -53 -7 0 -6 5 2 15 7 8
9 15 5 15 -4 0 3 17 14 38 l22 37 -30 -35 c-17 -19 -31 -38 -31 -42 0 -5 -54
-28 -66 -28 -1 0 -1 11 0 25 4 29 23 55 42 55 7 0 16 5 20 11 4 8 -1 9 -17 4
l-24 -7 25 26 c21 24 22 26 5 20 -20 -7 -20 -7 0 16 11 12 42 38 70 56 27 19
46 34 41 34 -5 0 -31 -16 -58 -36 -53 -38 -73 -39 -42 -2 17 21 16 21 -9 -1
-15 -14 -29 -22 -32 -19 -3 3 4 27 15 54 l21 48 -21 -19 c-21 -19 -21 -19 -11
9 6 15 16 37 22 48 8 15 8 19 0 13 -7 -4 -19 -24 -27 -45 -9 -22 -30 -48 -47
-59 -18 -12 -27 -21 -22 -21 6 0 16 5 23 12 9 9 12 9 12 1 0 -7 -5 -15 -10
-18 -6 -4 -8 -10 -5 -15 3 -4 -3 -14 -13 -21 -15 -13 -16 -12 -3 4 19 24 -2
22 -24 -3 -10 -11 -22 -20 -27 -20 -16 0 -8 28 14 42 19 13 20 15 5 21 -11 4
-20 -1 -27 -13 -6 -11 -20 -24 -31 -30 -20 -11 -20 -11 -5 19 9 16 24 32 35
36 11 3 27 17 36 32 18 27 7 25 -27 -5 -10 -8 -18 -11 -18 -5 0 19 58 96 81
109 13 7 18 13 11 14 -8 0 -10 5 -6 13 4 6 -4 2 -17 -9 -24 -21 -62 -44 -74
-44 -3 0 0 10 6 23 11 21 10 21 -13 -3 -32 -32 -70 -60 -81 -60 -4 0 -6 -4 -3
-9 3 -5 -7 -17 -22 -26 -27 -18 -27 -18 -9 2 9 11 14 22 11 26 -4 3 5 12 20
18 14 7 26 16 26 20 0 4 9 11 21 14 11 4 18 9 15 12 -3 3 -17 -2 -30 -11 -28
-18 -40 -21 -32 -7 4 5 -3 7 -15 4 -13 -4 -17 -8 -9 -13 8 -5 7 -9 -5 -14 -24
-9 -25 -8 -18 11 4 11 3 14 -5 9 -14 -9 -16 0 -2 17 5 7 30 39 56 72 l47 60
-42 -40 c-23 -22 -56 -61 -74 -87 -18 -26 -42 -51 -54 -57 -32 -15 -29 -5 10
31 17 18 23 25 13 17 -15 -11 -20 -11 -23 -1 -3 8 -11 5 -24 -10 l-20 -23 16
39 c13 34 13 37 0 26 -13 -11 -14 -10 -9 4 3 9 12 16 19 16 15 0 64 39 50 40
-6 0 -16 -5 -23 -12 -9 -9 -12 -9 -12 3 0 8 21 39 47 69 43 51 41 49 -29 -17
-68 -66 -98 -86 -98 -66 0 3 8 15 18 26 16 19 16 19 -3 14 -11 -4 -26 -2 -34
2 -12 8 -7 14 22 31 20 12 37 26 37 32 0 5 -10 2 -22 -6 -39 -28 -43 -17 -7
20 18 19 30 35 24 34 -32 -7 -38 0 -19 22 24 27 -57 -26 -99 -66 -15 -14 -32
-26 -38 -26 -5 0 -9 -6 -9 -14 0 -7 -7 -19 -15 -26 -12 -10 -15 -10 -15 3 0
15 57 77 72 77 4 0 12 9 18 20 9 17 5 17 -34 -7 -25 -15 -47 -35 -49 -45 -3
-10 -10 -18 -17 -18 -6 0 -8 5 -4 12 11 17 12 48 2 42 -4 -3 -8 -1 -8 5 0 9
48 49 106 89 11 7 3 5 -16 -4 -19 -9 -45 -26 -57 -37 -28 -25 -32 -21 -21 20
8 33 35 53 103 80 44 17 15 16 -35 -2 -24 -8 -45 -13 -48 -10 -9 9 21 35 52
44 l31 9 -29 1 c-28 1 -28 2 -13 19 10 10 14 22 10 27 -5 4 -3 5 3 2 7 -4 17
0 24 8 11 13 10 14 -5 9 -13 -5 -16 -4 -11 4 4 7 5 12 2 12 -3 0 -18 -18 -33
-41 -22 -31 -41 -45 -81 -59 -29 -10 -50 -14 -47 -9 4 5 1 9 -5 9 -16 0 21 51
44 60 21 9 21 9 -1 9 -18 1 -69 -19 -146 -57 -5 -2 -1 8 9 23 10 16 19 35 20
43 4 23 34 48 99 82 33 17 49 28 35 25 -14 -2 -2 6 25 20 65 32 36 32 -33 0
-30 -14 -56 -25 -59 -25 -11 0 23 34 52 52 17 10 25 18 20 18 -6 0 -43 -20
-83 -45 -40 -24 -74 -43 -76 -42 -4 3 -115 -124 -132 -153 -9 -14 -27 -33 -40
-43 -23 -17 -24 -17 -24 1 0 19 35 131 52 167 9 20 9 20 -7 0 -14 -18 -64
-160 -66 -188 0 -7 -21 -29 -46 -50 -57 -48 -123 -127 -123 -147 1 -9 9 -3 22
15 12 17 48 57 80 90 l58 60 0 -31 c0 -20 -15 -52 -45 -94 -25 -35 -45 -70
-45 -77 0 -20 18 -15 25 7 8 25 53 80 66 80 5 0 9 -7 9 -16 0 -23 17 -8 25 23
8 33 45 96 52 89 3 -3 -6 -26 -21 -52 -14 -25 -26 -52 -26 -59 0 -6 -9 -20
-21 -31 -28 -25 -52 -72 -43 -85 14 -23 -9 -81 -55 -136 -66 -79 -117 -171
-103 -185 8 -8 13 -3 18 16 9 39 26 32 20 -9 -7 -43 4 -45 27 -5 10 17 24 30
31 30 21 0 14 -56 -11 -82 -34 -36 -93 -140 -93 -162 0 -13 13 3 34 42 45 82
89 139 94 123 2 -7 -5 -31 -18 -52 -12 -22 -20 -45 -17 -52 2 -6 11 4 20 24
16 40 43 66 34 33 -4 -11 -11 -41 -18 -69 -9 -40 -24 -63 -74 -115 -64 -66
-94 -110 -76 -110 6 0 16 10 22 22 18 33 110 128 124 128 7 0 20 10 28 23 15
21 16 21 16 2 1 -11 -5 -29 -13 -40 -7 -11 -16 -31 -20 -45 -7 -24 -6 -24 8
-6 25 31 29 12 8 -31 -11 -21 -29 -68 -41 -104 -12 -36 -28 -75 -36 -85 -8
-10 -14 -26 -14 -34 0 -12 2 -12 10 2 5 9 16 15 23 12 26 -10 -25 -128 -81
-187 -28 -29 -55 -63 -62 -75 -16 -31 4 -28 25 3 9 14 22 25 29 25 6 0 17 11
23 25 6 14 16 25 20 25 5 0 7 -11 4 -25 -2 -14 0 -25 5 -25 13 0 33 45 33 72
0 33 29 59 51 47 27 -14 24 -24 -21 -91 -22 -33 -40 -68 -40 -77 0 -9 14 7 30
36 32 55 50 73 50 49 0 -8 5 -16 10 -18 7 -2 7 -14 1 -36 -6 -20 -6 -32 0 -32
5 0 9 8 9 17 0 11 3 14 10 7 6 -6 0 -28 -17 -62 -28 -57 -26 -70 6 -52 19 10
21 8 21 -17 0 -15 -9 -43 -21 -62 -27 -45 -41 -81 -30 -81 4 0 16 17 25 38 10
20 29 51 43 67 l25 30 -20 -35 c-33 -56 -62 -139 -52 -145 5 -3 12 6 16 20 6
25 27 36 23 13 -1 -7 3 -25 11 -40 12 -25 10 -31 -13 -67 -14 -21 -26 -47 -26
-57 1 -11 -2 -36 -6 -56 -5 -26 -4 -38 4 -38 6 0 11 10 11 23 1 24 38 110 39
90 1 -7 6 -13 11 -13 6 0 8 10 4 24 -3 14 -1 33 5 43 9 16 10 15 11 -9 0 -38
17 -35 34 5 14 32 14 32 15 5 1 -34 -22 -135 -49 -213 -23 -65 -39 -187 -23
-170 5 6 15 44 22 85 6 41 21 92 31 113 11 21 20 43 20 50 0 7 4 18 9 26 8 12
11 12 23 0 17 -16 13 -43 -14 -82 -11 -15 -18 -33 -15 -40 2 -7 8 -3 16 11 6
12 18 22 25 22 7 0 18 10 24 23 10 21 11 21 11 -9 1 -16 -6 -39 -14 -50 -22
-29 -18 -43 9 -38 21 3 24 0 23 -18 -1 -13 -11 -37 -22 -53 -11 -17 -24 -38
-30 -47 -5 -9 -23 -35 -39 -58 -16 -22 -26 -44 -21 -48 4 -4 15 4 24 18 23 35
92 110 102 110 4 0 9 -10 11 -22 2 -12 9 -24 17 -26 10 -3 12 0 8 11 -3 9 -2
19 3 22 6 4 10 -3 10 -14 0 -12 5 -21 11 -21 8 0 10 14 6 40 -3 23 -1 43 5 46
8 5 9 -22 4 -86 -6 -70 -14 -107 -34 -147 -14 -29 -30 -53 -35 -53 -14 0 -129
-81 -174 -123 l-42 -39 4 31 c2 18 0 29 -6 26 -5 -4 -9 -15 -9 -25 0 -10 -11
-31 -24 -47 -12 -15 -21 -33 -19 -39 2 -6 -3 -17 -12 -24 -9 -8 -15 -8 -15 -2
0 6 4 13 10 17 5 3 6 13 3 21 -3 9 4 28 16 44 25 34 27 48 5 29 -14 -11 -15
-9 -12 16 2 23 13 34 52 54 27 14 44 27 38 29 -6 2 -25 -4 -42 -13 -40 -21
-46 -15 -25 25 9 18 14 34 11 37 -4 5 -36 -60 -36 -76 0 -3 -28 -24 -61 -46
-61 -41 -169 -145 -169 -164 0 -6 35 24 78 67 42 42 92 85 111 96 l34 19 -43
-54 c-61 -76 -127 -229 -100 -229 5 0 10 9 10 21 0 30 62 160 93 193 28 30 34
29 18 -2 -64 -123 -106 -239 -102 -278 1 -11 -11 -56 -27 -100 -33 -90 -45
-144 -33 -144 4 0 16 30 27 68 l18 67 8 -53 c8 -51 6 -57 -27 -111 -36 -57
-41 -71 -27 -71 4 0 18 20 31 45 13 24 27 42 31 40 4 -3 10 -22 13 -42 3 -30
-3 -51 -29 -99 -19 -33 -34 -66 -34 -72 0 -21 18 -13 25 11 7 23 90 153 104
161 4 3 5 -44 3 -105 -3 -73 -1 -109 6 -109 6 0 14 20 18 45 3 25 11 45 16 45
5 0 6 9 3 20 -4 11 -3 35 1 53 8 31 8 31 15 -18 4 -27 8 -86 8 -130 1 -44 8
-98 15 -120 l14 -40 20 46 c24 56 45 74 32 29 -5 -17 -23 -52 -40 -78 -21 -31
-27 -48 -19 -53 9 -5 9 -15 0 -40 -6 -18 -9 -34 -7 -37 9 -8 35 14 58 48 13
19 28 34 33 32 5 -2 12 5 16 15 7 16 8 16 8 -4 1 -27 11 -53 20 -53 4 0 6 24
3 54 -3 35 0 56 8 61 22 14 33 -14 43 -112 9 -91 8 -102 -12 -147 -12 -27 -19
-51 -17 -53 11 -11 46 20 46 40 0 13 5 28 12 35 9 9 15 2 24 -35 11 -42 10
-54 -6 -99 -10 -29 -19 -75 -18 -104 0 -55 8 -56 26 -4 5 17 22 51 38 75 l27
44 10 -28 c11 -34 22 -34 44 1 37 57 58 56 50 -3 -4 -24 -2 -47 3 -50 5 -3 7
-20 4 -38 -4 -28 -3 -29 5 -9 19 41 24 22 17 -62 -6 -81 5 -124 18 -71 8 31
21 32 31 3 3 -13 9 -18 11 -11 3 7 12 9 19 6 12 -4 12 -9 0 -33 -8 -16 -15
-37 -14 -47 0 -10 9 1 19 25 11 23 21 42 23 42 3 0 2 -20 -1 -45 -8 -76 13
-50 25 29 6 47 19 86 33 106 12 17 24 29 27 27 2 -3 -3 -29 -11 -58 -18 -59
-21 -109 -7 -109 6 0 12 15 14 33 l4 32 1 -34 c2 -28 5 -33 22 -28 25 6 26
-15 5 -66 -19 -47 -20 -63 -2 -48 8 6 17 8 20 4 4 -3 7 4 7 16 0 24 29 81 41
81 13 0 19 -51 9 -71 -17 -31 -40 -111 -40 -138 0 -38 15 -13 30 49 15 63 56
147 62 128 3 -7 -6 -37 -20 -66 -13 -29 -21 -56 -17 -60 3 -3 10 0 15 8 7 11
10 12 10 2 0 -24 18 -3 25 29 5 23 9 28 16 18 5 -8 9 -24 9 -37 0 -13 7 -31
16 -39 16 -16 15 -54 -1 -95 -4 -10 -3 -18 3 -18 6 0 16 16 22 35 13 38 31 57
28 28 -2 -25 22 -83 34 -83 7 0 8 14 5 38 -4 20 -3 32 1 26 4 -6 15 -13 25
-17 14 -5 17 -1 17 23 0 33 17 41 26 13 14 -45 38 -93 46 -93 11 0 10 7 -8 41
-19 37 -27 129 -12 146 14 17 28 16 28 -1 0 -8 5 -18 11 -22 8 -5 10 1 5 19
-12 50 13 37 29 -15 17 -59 19 -101 5 -127 -16 -31 -29 -101 -19 -107 5 -3 11
1 13 8 28 101 39 128 52 128 11 0 13 -9 8 -41 -6 -36 -5 -40 12 -37 16 3 27
-10 48 -57 3 -5 12 -1 20 9 9 11 16 16 16 10 1 -5 7 4 13 20 l13 30 13 -32
c13 -31 49 -48 37 -17 -3 8 -2 15 3 15 5 0 14 -21 21 -47 8 -27 15 -41 17 -31
2 9 10 15 18 12 7 -3 16 3 18 13 3 10 4 -7 2 -37 -2 -30 -4 -58 -5 -62 0 -4
-10 -12 -22 -19 -18 -10 -20 -9 -14 6 6 16 4 16 -11 4 -15 -12 -16 -12 -9 5 6
18 5 19 -11 4 -24 -20 -53 -30 -53 -17 0 5 7 23 15 39 24 46 10 35 -19 -15
-29 -48 -66 -77 -66 -51 0 8 4 17 9 20 5 3 11 21 13 41 l4 34 -32 -24 c-18
-14 -35 -25 -38 -25 -3 0 -22 -11 -42 -25 -52 -35 -72 -32 -32 6 52 48 91 77
149 109 30 16 50 30 45 30 -19 0 -128 -65 -184 -110 -33 -27 -63 -46 -66 -43
-3 4 -6 1 -6 -5 0 -13 -49 -72 -61 -72 -13 0 1 31 35 75 l30 40 -32 -29 c-22
-21 -32 -25 -32 -15 0 19 19 43 45 58 18 11 18 11 -5 5 -14 -3 -32 -12 -40
-19 -33 -27 -44 -27 -20 1 14 15 17 22 8 15 -25 -19 -22 -5 9 48 16 28 20 41
10 33 -9 -8 -28 -37 -41 -65 -14 -29 -46 -74 -72 -102 l-46 -50 7 40 c4 21 13
53 21 70 12 24 12 27 1 13 -19 -25 -30 -23 -17 3 6 11 26 29 43 39 18 11 26
20 19 20 -8 0 -10 5 -6 13 4 6 -1 5 -12 -4 -10 -9 -44 -27 -74 -40 -131 -54
-310 -210 -310 -268 0 -10 7 -6 19 12 39 60 191 204 191 182 0 -16 -27 -54
-71 -102 -27 -28 -49 -58 -49 -65 0 -7 13 2 28 21 54 68 54 68 48 46 -3 -11
-8 -32 -12 -48 -3 -15 -20 -37 -38 -49 -46 -31 -136 -120 -136 -135 0 -6 24
13 52 44 98 102 150 124 59 23 -54 -59 -87 -110 -72 -110 5 0 19 15 30 33 21
31 67 87 73 87 10 0 -1 -223 -12 -249 -7 -18 -10 -34 -7 -37 7 -8 41 25 53 51
7 16 9 10 12 -28 3 -50 22 -57 22 -7 0 15 6 30 14 33 10 4 15 -7 19 -39 4 -37
-1 -57 -25 -106 -21 -40 -27 -63 -20 -70 7 -7 14 2 21 25 7 20 19 41 27 47 12
10 14 8 14 -17 0 -29 15 -53 33 -53 5 0 6 7 3 16 -6 15 18 84 29 84 4 0 4 -18
0 -39 -4 -23 -2 -48 4 -58 10 -17 10 -17 11 2 1 19 1 19 11 2 6 -10 9 -27 6
-37 -3 -11 1 -24 9 -31 11 -9 16 -7 22 11 11 30 24 11 45 -64 16 -59 44 -112
54 -102 3 3 -8 38 -25 78 -30 73 -37 101 -33 148 1 23 3 24 15 8 7 -10 18 -18
25 -18 7 0 11 -19 11 -50 0 -27 5 -50 10 -50 6 0 10 -21 10 -46 0 -25 4 -43 9
-40 9 6 31 -36 31 -59 0 -19 8 -19 26 -1 8 8 14 26 14 40 0 18 4 24 15 20 9
-4 15 -20 15 -43 0 -46 10 -81 22 -81 5 0 7 12 4 28 -3 15 -8 50 -10 77 l-6
50 18 -55 c10 -30 26 -70 36 -87 9 -18 16 -35 15 -39 0 -3 1 -8 4 -10 2 -2 12
14 22 36 21 46 40 43 30 -6 -8 -43 11 -45 20 -2 9 40 43 117 44 99 1 -7 -4
-31 -10 -52 -10 -31 -9 -40 4 -53 14 -15 17 -13 34 14 23 39 34 38 22 -2 -17
-62 -5 -94 19 -45 9 19 11 15 11 -30 1 -29 6 -53 11 -53 6 0 10 10 10 23 0 13
3 27 7 31 4 4 6 24 4 45 -1 22 2 42 8 45 24 15 46 -137 27 -197 -5 -18 -5 -27
3 -27 6 0 11 9 11 20 0 11 5 20 10 20 6 0 10 -6 10 -13 0 -18 27 -53 35 -45 4
3 -1 20 -10 38 -9 17 -14 37 -11 43 2 7 5 4 5 -5 1 -10 5 -18 11 -18 5 0 7 13
4 28 -4 20 0 34 12 46 17 17 18 17 31 0 17 -23 28 -12 14 14 -14 26 -14 35 -1
27 5 -3 10 4 11 17 1 13 5 6 11 -19 7 -35 6 -49 -12 -83 -25 -48 -20 -64 9
-29 l20 24 1 -27 c0 -39 18 -80 33 -75 6 2 13 9 13 15 1 7 2 17 3 24 2 17 30
-24 31 -44 0 -10 5 -18 10 -18 10 0 15 35 12 80 -1 14 0 36 4 49 10 44 24 2
24 -71 0 -65 14 -93 22 -46 4 22 5 22 18 -5 17 -35 47 -35 63 1 11 25 12 21
15 -45 2 -43 7 -73 14 -73 6 0 8 -13 4 -35 -7 -33 7 -50 17 -22 2 6 12 -7 22
-31 21 -51 37 -55 30 -7 -5 45 31 137 45 115 6 -8 10 -25 10 -37 0 -37 17 -26
25 15 4 20 10 32 12 25 2 -6 -3 -35 -11 -64 -18 -59 -20 -89 -7 -89 4 0 11 18
14 41 10 73 30 66 31 -11 1 -58 9 -63 26 -17 l12 32 14 -68 c17 -88 33 -137
45 -137 12 0 12 17 0 38 -5 10 -16 52 -25 93 -16 76 -16 76 10 129 31 64 41
60 16 -6 -18 -48 -19 -94 -2 -94 5 0 11 14 15 31 8 38 22 27 27 -21 l3 -35 20
40 19 40 4 -39 c3 -35 20 -66 36 -66 4 0 3 19 0 41 -6 33 -4 41 7 37 16 -5 37
-69 38 -115 1 -18 6 -33 11 -33 15 0 11 -52 -5 -74 -8 -10 -12 -23 -8 -29 3
-6 1 -7 -5 -3 -6 3 -20 -11 -33 -31 -12 -21 -34 -51 -48 -66 -29 -32 -81 -63
-81 -48 0 13 40 51 54 51 5 0 6 3 3 7 -4 4 5 20 20 37 30 32 13 22 -50 -30
-21 -18 -47 -34 -57 -37 -17 -4 -16 -2 3 32 15 24 16 32 6 24 -9 -7 -24 -29
-35 -48 -29 -54 -42 -45 -33 22 4 32 6 59 4 61 -3 4 -25 -91 -25 -113 0 -16
-99 -80 -101 -65 -1 6 -2 14 -3 20 -1 5 14 21 33 35 19 14 32 26 28 26 -4 1
-13 2 -19 3 -7 1 -12 8 -10 16 1 10 -3 8 -13 -4 -8 -11 -15 -16 -15 -11 0 20
44 131 58 148 8 9 13 19 10 22 -7 8 -168 -151 -168 -166 0 -7 25 16 56 50 31
34 58 60 61 58 7 -8 -27 -81 -50 -105 -12 -13 -33 -30 -47 -37 -25 -13 -26
-13 -27 26 -1 21 7 65 17 96 25 76 18 80 -10 7 -11 -32 -24 -62 -28 -68 -3 -6
-5 -21 -3 -34 3 -23 -26 -78 -35 -69 -3 3 2 21 10 41 8 20 11 34 6 31 -4 -3
-16 -25 -25 -48 -16 -41 -88 -115 -127 -130 -22 -8 -23 6 -3 23 8 7 15 17 15
23 0 6 -7 2 -16 -9 -14 -18 -15 -18 -8 6 3 14 18 41 32 60 22 30 23 32 4 16
-29 -25 -28 -7 3 38 24 35 20 51 -5 21 -11 -13 -15 -13 -21 -3 -7 10 -9 10 -9
0 0 -20 -82 -103 -97 -98 -7 3 -17 -3 -23 -14 -7 -13 -6 -20 3 -23 7 -2 4 -8
-10 -15 -17 -9 -22 -9 -26 3 -4 10 -1 12 11 8 14 -5 15 -3 5 8 -20 21 -16 41
26 125 30 60 34 72 15 49 -13 -16 -36 -60 -51 -98 -14 -37 -32 -72 -40 -78
-16 -14 -17 -5 -2 24 10 21 10 21 -5 3 -9 -11 -16 -23 -16 -26 0 -8 -171 -120
-228 -149 l-42 -21 10 25 c5 14 6 25 1 25 -5 0 -11 -9 -14 -19 -2 -11 -31 -36
-62 -58 -51 -33 -59 -36 -68 -22 -9 14 -14 12 -39 -15 -18 -19 -26 -23 -20
-11 16 32 53 62 112 90 49 23 45 25 -15 8 -18 -5 -17 -3 5 22 25 28 24 28 -16
-3 -23 -18 -46 -32 -51 -32 -5 0 -24 -13 -43 -30 -19 -16 -41 -29 -48 -30 -7
0 -15 -7 -18 -15 -4 -8 -10 -15 -15 -15 -17 0 2 26 32 44 39 23 31 33 -10 11
-35 -18 -36 -17 -17 30 18 42 12 46 -8 6 -11 -20 -25 -30 -48 -34 -18 -2 -34
-3 -36 -2 -2 2 4 16 14 32 15 24 13 23 -15 -7 -18 -19 -29 -28 -26 -20 4 8 -2
5 -12 -6 -20 -24 -119 -77 -133 -72 -16 5 22 68 55 94 18 13 56 38 86 54 79
44 50 36 -39 -10 -43 -22 -93 -55 -112 -75 -19 -19 -37 -35 -42 -35 -14 0 4
65 23 82 19 17 19 17 -1 15 -11 -1 -20 -4 -20 -8 0 -13 -72 -94 -84 -94 -6 0
-17 -4 -24 -8 -7 -5 -12 -3 -12 3 0 23 20 48 50 60 37 15 34 25 -4 11 -19 -8
-26 -7 -26 2 0 6 -5 4 -10 -5 -9 -15 -94 -78 -105 -78 -3 0 0 11 5 25 5 14 7
25 5 25 -3 0 -12 -18 -21 -39 -14 -36 -84 -105 -84 -83 0 16 38 129 55 164 13
27 13 29 1 13 -9 -11 -20 -26 -26 -33 -6 -6 -9 -12 -6 -12 2 0 -6 -26 -18 -57
-14 -38 -31 -63 -49 -73 -36 -20 -43 -7 -16 31 18 26 20 31 6 26 -9 -3 -17 -3
-17 1 0 11 51 58 70 65 11 4 10 6 -4 6 -11 1 -44 -13 -74 -30 -30 -17 -56 -28
-59 -26 -7 7 93 85 139 108 21 11 38 22 38 25 0 19 -137 -71 -196 -129 l-71
-69 9 57 c9 60 5 87 -6 38 -11 -46 -38 -73 -81 -80 l-39 -6 39 47 c21 26 59
65 84 86 25 22 42 42 39 45 -3 4 -48 -36 -100 -88 -91 -92 -144 -135 -154
-125 -7 7 77 119 127 168 36 35 38 39 12 21 -18 -12 -54 -47 -80 -79 -26 -31
-53 -63 -60 -69 -6 -7 -14 -22 -18 -33 -3 -10 -37 -40 -74 -64 -76 -51 -211
-187 -211 -213 0 -20 0 -20 68 63 45 54 169 160 178 151 6 -5 -35 -106 -72
-177 -19 -36 -34 -75 -34 -86 0 -12 8 -4 19 21 l18 40 -5 -47 c-4 -39 -2 -48
11 -48 9 0 18 9 22 19 3 11 13 25 23 33 15 12 16 11 1 -12 -8 -14 -19 -31 -23
-38 -10 -17 -14 -102 -5 -102 3 0 14 19 23 43 9 23 26 58 37 77 22 35 22 35
31 11 4 -13 5 -40 2 -60 -8 -42 5 -35 23 12 6 18 12 24 12 15 1 -9 -4 -29 -10
-45 -15 -41 -22 -103 -11 -103 5 0 12 12 15 28 3 15 22 52 41 82 49 75 47 38
-3 -65 -42 -85 -57 -135 -42 -135 5 0 12 12 16 28 9 39 56 142 65 142 4 0 10
-32 13 -72 3 -39 11 -76 18 -82 8 -8 10 -2 7 23 -4 25 0 41 13 55 19 20 19 20
19 -4 0 -19 3 -21 12 -12 23 23 30 12 23 -38 -4 -31 -3 -50 3 -50 5 0 13 20
16 45 11 71 34 52 27 -22 -3 -33 14 -28 29 7 l12 30 17 -33 c9 -18 22 -51 29
-74 15 -49 39 -73 28 -27 -19 78 -24 147 -11 160 10 11 14 4 19 -38 7 -53 22
-55 28 -3 2 17 7 28 13 25 5 -3 8 -14 7 -25 -2 -18 -1 -18 10 -3 7 9 18 25 24
35 9 14 10 9 4 -24 -7 -42 -7 -43 19 -38 21 3 30 -2 48 -29 13 -21 20 -43 17
-57 l-6 -24 21 24 c23 25 24 22 21 -45 -1 -23 3 -45 9 -49 7 -4 11 5 11 24 0
16 4 32 9 35 4 3 6 27 4 53 -4 39 -1 53 17 75 12 16 28 28 35 28 8 0 16 9 20
19 3 11 13 25 23 33 15 11 15 10 -1 -15 -10 -16 -16 -35 -13 -43 5 -13 1 -25
-38 -103 -9 -18 -15 -35 -13 -38 6 -5 37 8 37 16 0 4 13 22 29 41 l30 35 -24
-70 c-30 -90 -38 -132 -28 -138 5 -3 17 25 27 64 16 65 36 100 36 65 0 -32 16
-15 28 29 7 25 16 45 22 45 14 0 12 -20 -5 -50 -18 -32 -19 -44 -1 -37 11 4
13 -5 10 -44 -4 -54 6 -64 23 -21 l11 27 1 -27 c1 -16 4 -28 9 -28 17 1 32 18
27 32 -4 9 0 18 9 21 9 4 16 17 16 29 0 13 4 29 9 36 7 12 31 -128 31 -186 0
-11 4 -23 9 -27 6 -3 13 21 17 55 4 33 11 60 15 60 5 0 9 -7 9 -15 0 -8 4 -15
10 -15 6 0 6 9 0 26 -13 34 -12 54 1 31 6 -11 12 -24 14 -30 7 -37 36 -97 46
-97 4 0 10 8 13 18 3 9 3 -7 0 -35 -4 -35 -2 -53 5 -53 6 0 11 14 11 30 0 38
12 38 27 0 6 -16 16 -30 21 -30 6 0 2 23 -9 50 -23 61 -24 80 -3 54 13 -16 15
-16 10 -2 -4 13 0 18 16 18 19 0 20 -4 15 -50 -3 -27 -4 -50 -2 -50 3 0 17 18
31 40 15 22 30 40 34 40 4 0 10 -36 13 -79 3 -44 10 -87 16 -98 12 -21 13 -16
11 55 -2 59 8 65 33 22 10 -16 22 -30 28 -30 11 0 12 13 1 26 -16 17 -42 95
-36 105 3 6 12 5 21 -3 14 -12 15 -9 10 22 -4 23 -2 41 7 53 12 15 13 12 8
-28 -4 -39 -2 -44 11 -39 12 4 18 -2 23 -20 3 -14 10 -26 14 -26 4 0 13 -22
20 -49 6 -27 18 -58 25 -68 18 -23 18 -8 0 42 -13 38 -21 99 -8 65 3 -8 10
-19 15 -25 5 -5 15 -19 22 -30 13 -17 14 -14 9 30 l-4 50 21 -44 c26 -56 120
-146 120 -116 0 3 -8 17 -17 31 -15 23 -15 34 -5 97 12 68 35 112 53 101 5 -2
4 -16 -1 -30 -6 -14 -10 -51 -9 -82 l1 -57 12 60 c12 58 12 59 20 28 4 -18 6
-47 4 -65 -3 -27 0 -32 20 -33 17 -1 21 2 16 14 -4 9 -9 30 -11 46 -3 23 -2
27 6 15 9 -12 12 -13 20 -1 6 9 11 10 15 2 14 -22 35 -11 38 22 3 24 7 13 16
-43 14 -80 27 -121 50 -157 20 -32 35 -18 17 17 -8 16 -15 44 -14 62 0 30 1
31 9 11 16 -39 22 -26 15 31 -6 44 -4 54 10 60 31 12 52 -9 47 -49 -4 -35 -4
-37 18 -25 12 6 22 10 23 8 1 -2 7 -12 13 -23 8 -14 8 -42 2 -93 -9 -70 -4
-132 10 -118 3 4 5 24 4 44 -4 47 16 174 29 186 5 6 9 -6 9 -32 0 -23 4 -42 9
-42 5 0 6 -29 3 -65 -3 -45 -1 -65 7 -65 6 0 11 16 11 38 0 53 20 154 33 170
17 21 28 -10 17 -49 -12 -42 -12 -49 0 -49 6 0 10 6 10 14 0 8 6 21 13 28 6 7
13 24 14 38 1 14 9 43 18 65 14 33 18 36 27 22 6 -12 5 -37 -2 -73 -7 -31 -8
-59 -5 -62 4 -4 10 -1 12 6 8 22 30 13 54 -23 28 -40 39 -44 39 -13 0 30 16
12 27 -31 5 -19 15 -37 22 -39 11 -4 12 1 7 19 -4 13 -9 47 -12 74 l-4 50 20
-55 c21 -57 46 -97 55 -89 2 3 -4 23 -15 44 -11 21 -17 41 -13 44 3 3 8 0 10
-6 10 -28 23 -11 24 30 0 23 3 36 6 30 2 -7 9 -13 14 -13 5 0 3 11 -3 25 -12
28 -2 48 12 25 7 -11 10 -9 10 12 0 15 5 30 10 33 13 8 13 1 -2 -46 -13 -45
-5 -62 17 -33 21 28 19 0 -5 -71 -21 -62 -25 -95 -11 -95 4 0 11 19 14 41 7
50 27 77 27 36 0 -15 4 -27 9 -27 5 0 7 18 4 40 -5 35 -3 39 11 34 19 -7 19
-4 6 30 -6 17 -6 26 0 26 6 0 10 10 10 22 0 18 13 18 16 0 0 -4 4 -14 8 -23
10 -22 10 -92 1 -186 -6 -61 -5 -83 4 -83 6 0 11 17 11 43 0 45 18 155 28 171
3 5 10 -1 15 -15 l9 -24 9 29 c4 16 13 32 20 36 6 4 12 19 12 33 1 14 5 23 9
19 13 -15 14 -48 1 -74 -9 -18 -10 -28 -3 -28 6 0 13 7 16 15 9 23 21 9 29
-32 13 -74 28 -114 41 -109 7 3 15 0 17 -7 9 -26 16 1 8 34 -17 64 -22 121
-11 114 5 -3 10 -15 10 -25 0 -37 21 -118 36 -136 14 -18 15 -17 9 11 -4 17
-8 41 -10 55 -2 14 -7 44 -11 67 -5 35 -3 44 10 49 9 3 16 13 16 21 0 26 19 3
26 -32 4 -22 12 -35 21 -35 11 0 13 5 8 18 -4 9 -9 31 -11 47 -3 22 1 17 13
-18 9 -26 22 -47 30 -47 17 0 17 0 -7 -51 -21 -48 -25 -69 -11 -69 5 0 11 12
14 28 9 37 27 61 34 45 6 -17 24 -17 17 0 -2 7 -1 24 4 37 l9 25 7 -23 c4 -12
11 -22 16 -22 5 0 2 16 -6 36 -13 32 -14 39 -1 51 21 21 43 -5 51 -60 7 -44
29 -87 40 -77 3 3 -1 26 -8 50 -21 70 -30 166 -16 175 17 11 22 0 28 -57 3
-29 10 -56 17 -60 7 -4 16 -20 20 -35 3 -16 13 -38 21 -50 19 -30 39 -30 23
-1 -9 16 -9 23 -1 26 8 2 5 16 -7 40 -16 31 -17 41 -7 55 12 15 14 15 24 -8 6
-14 16 -25 22 -25 7 0 5 9 -4 22 -19 27 -21 54 -4 64 8 5 9 2 5 -10 -5 -13 -3
-17 7 -13 11 5 16 -5 21 -41 3 -26 10 -55 16 -65 7 -12 5 -34 -6 -69 -8 -28
-15 -58 -15 -65 0 -23 20 -14 21 10 1 12 6 1 11 -25 14 -66 31 -62 24 4 l-6
53 19 -38 c26 -54 45 -71 37 -32 -19 85 -18 112 2 151 19 35 21 37 22 13 0
-24 16 -49 32 -49 4 0 3 12 -3 26 -10 27 -4 64 10 64 5 0 6 11 4 24 -6 27 13
44 30 27 19 -19 26 -12 20 24 -9 54 4 41 17 -17 12 -55 60 -158 73 -158 10 0
10 2 -18 63 -23 50 -25 87 -5 87 5 0 11 -8 13 -17 3 -10 6 0 7 22 2 36 4 33
16 -30 18 -88 33 -135 44 -135 5 0 3 19 -6 41 -8 23 -17 74 -20 113 -5 64 -4
69 10 52 11 -13 12 -25 5 -43 -11 -31 -11 -33 1 -33 6 0 10 8 10 18 1 13 4 11
15 -8 8 -15 12 -39 9 -60 -5 -31 -3 -36 15 -37 15 -1 21 4 22 20 0 12 3 16 6
10 12 -31 22 -9 17 39 -3 38 -2 47 5 33 5 -11 10 -36 10 -55 2 -46 11 -80 23
-80 5 0 6 22 2 50 -6 44 -5 50 10 44 13 -5 16 1 16 27 0 42 15 24 31 -39 6
-23 15 -44 19 -47 4 -2 22 25 40 62 27 54 31 69 22 84 -15 24 -15 61 0 94 12
27 31 35 21 8 -5 -12 -2 -15 10 -10 24 9 22 -19 -3 -50 -11 -14 -20 -31 -20
-37 0 -6 10 0 21 14 l20 25 -15 -32 c-17 -34 -23 -99 -7 -74 7 11 9 11 14 0 3
-8 6 -1 6 14 1 18 6 27 14 25 8 -3 14 -37 19 -94 7 -86 23 -153 34 -141 3 3 1
31 -5 63 -14 72 -14 169 -1 193 5 10 17 21 25 25 10 3 14 2 9 -5 -9 -15 5 -99
18 -99 6 0 8 13 4 36 -4 20 -4 49 -1 65 10 46 31 14 40 -62 10 -98 25 -139 48
-139 15 0 18 5 13 23 -3 12 -9 40 -13 61 -5 33 -4 38 10 33 12 -4 17 2 19 26
2 19 8 31 16 29 6 -1 12 7 12 17 0 11 5 23 10 26 6 4 10 -12 10 -39 0 -25 4
-46 9 -46 5 0 14 -20 20 -45 6 -25 16 -43 21 -40 5 3 5 18 0 36 -8 27 -7 29
10 24 17 -5 19 -3 12 16 -9 24 -4 69 8 69 4 0 17 -27 29 -60 12 -33 27 -60 33
-60 11 0 11 2 -25 104 -14 39 -23 76 -20 82 6 16 33 6 33 -12 0 -21 20 -17 20
4 1 9 9 32 19 51 l18 34 5 -33 c3 -21 -2 -49 -13 -75 -10 -22 -18 -49 -18 -60
0 -13 7 -6 19 20 l18 40 7 -28 c8 -31 18 -28 20 6 4 74 6 87 13 87 13 0 32
-64 32 -111 0 -24 5 -51 10 -59 7 -10 8 2 4 40 -4 40 -2 60 9 74 13 18 15 16
31 -29 9 -27 16 -64 16 -82 0 -31 2 -34 23 -27 29 9 28 6 15 41 -6 16 -8 39
-4 49 6 16 9 14 22 -15 21 -50 28 -31 10 29 -13 45 -14 56 -2 83 12 27 15 28
15 10 1 -12 5 -24 10 -27 4 -3 11 -24 15 -46 3 -22 11 -40 17 -40 6 0 8 8 5
18 -3 10 3 35 13 55 l19 38 21 -22 c11 -12 18 -26 15 -30 -3 -5 6 -19 19 -31
13 -13 32 -38 41 -55 28 -55 35 -37 11 25 -28 68 -41 132 -28 132 6 0 15 -11
21 -25 6 -14 16 -25 21 -25 5 0 11 -10 14 -22 4 -12 9 -20 12 -16 3 3 0 26 -7
52 -9 35 -9 49 0 58 9 9 13 5 18 -20 4 -18 11 -35 17 -39 7 -4 8 5 4 26 -5 24
-3 31 6 29 6 -3 13 -17 15 -31 5 -44 18 -31 15 15 -3 41 -2 40 20 -24 13 -37
26 -71 30 -74 16 -16 16 5 0 44 -18 46 -13 73 28 169 26 62 34 50 9 -15 -20
-52 -29 -111 -10 -67 4 11 15 38 23 59 l14 39 17 -33 c9 -18 16 -43 16 -55 0
-13 7 -25 15 -29 8 -3 15 -11 15 -18 1 -20 40 -102 46 -96 3 3 -4 32 -15 64
-11 33 -16 63 -11 69 5 6 2 21 -5 35 -8 14 -14 32 -14 40 0 8 6 0 15 -19 21
-49 28 -31 10 23 -9 26 -16 56 -16 68 0 40 27 0 34 -51 7 -54 26 -115 33 -108
2 3 0 22 -6 43 -16 63 -24 171 -13 191 8 14 11 4 11 -41 0 -32 4 -62 8 -65 5
-3 15 -21 22 -39 15 -36 19 -36 26 -1 11 60 18 84 33 118 l16 36 11 -65 12
-65 7 40 c4 22 11 54 15 70 8 26 9 24 10 -23 1 -62 15 -62 26 0 l7 43 14 -54
c15 -58 20 -68 30 -59 3 4 1 15 -4 25 -6 10 -13 41 -16 68 -3 28 -3 42 0 33
11 -38 20 -15 16 41 -3 40 0 61 8 66 10 6 12 2 7 -15 -6 -24 8 -115 24 -158
16 -43 19 -19 4 33 -8 26 -15 75 -15 107 0 53 2 58 15 44 9 -9 12 -22 8 -33
-6 -16 -5 -17 12 -3 17 14 17 13 10 -9 -6 -20 -4 -23 10 -18 15 6 16 -1 13
-70 -2 -48 1 -77 8 -80 6 -2 9 7 6 25 -2 15 0 43 5 62 l9 35 18 -50 c18 -54
42 -92 52 -83 3 4 -2 20 -10 36 -11 22 -13 37 -7 54 9 22 10 22 10 2 1 -22 34
-67 44 -58 3 3 1 20 -3 37 -15 58 -19 107 -9 107 5 0 9 -7 9 -15 0 -8 3 -15 8
-15 4 0 15 36 25 80 10 44 22 80 26 80 5 0 11 -22 15 -50 8 -64 26 -65 23 -2
-3 59 14 70 28 19 6 -21 15 -41 20 -45 6 -4 20 -28 32 -55 13 -26 27 -47 33
-47 6 0 2 17 -8 37 -33 66 -62 162 -61 201 2 36 2 36 8 7 7 -35 49 -105 62
-105 13 0 12 6 -12 51 -11 22 -18 46 -16 52 2 7 10 0 17 -16 7 -15 17 -27 22
-27 11 0 10 11 -7 40 -17 30 -19 50 -5 50 6 0 10 -7 10 -16 0 -8 5 -12 10 -9
6 3 10 16 10 28 0 17 2 19 9 7 6 -8 8 -28 5 -45 -3 -21 -2 -25 4 -11 6 14 12
5 25 -43 11 -38 22 -61 31 -61 8 0 18 -9 21 -20 3 -11 11 -20 17 -20 6 0 7 7
3 18 -38 87 -43 127 -21 135 10 4 17 -4 21 -24 7 -31 26 -46 44 -35 6 4 2 23
-9 49 -11 23 -20 57 -20 76 l0 34 19 -24 c10 -13 26 -48 35 -77 10 -28 22 -52
28 -52 6 0 7 8 3 17 -10 24 -19 109 -11 102 3 -3 15 -40 26 -83 22 -88 54
-166 68 -166 6 0 -3 31 -18 68 -47 116 -63 219 -36 241 12 10 17 6 27 -23 7
-20 19 -36 25 -36 7 0 18 -24 24 -55 6 -30 16 -55 22 -55 6 0 7 7 3 18 -4 9
-10 37 -13 61 -4 35 -2 42 8 36 10 -6 11 -2 6 16 -9 31 -18 99 -10 79 3 -8 12
-34 20 -58 9 -23 20 -42 24 -42 5 0 3 15 -5 34 -12 29 -12 40 -1 72 13 38 13
38 19 -51 4 -50 11 -91 17 -93 5 -2 10 -8 10 -14 0 -21 53 -127 61 -123 4 3
-3 29 -16 58 -48 104 -59 199 -20 167 19 -15 20 1 4 32 -8 15 -8 22 1 28 7 5
10 19 6 36 -10 50 9 60 27 14 8 -22 20 -40 26 -40 7 0 6 13 -4 36 -8 20 -15
39 -15 43 1 11 40 -41 40 -54 0 -6 10 -20 22 -31 21 -19 21 -19 14 1 -4 11
-10 36 -13 55 -4 31 -3 33 10 18 8 -10 18 -14 22 -10 4 4 5 -4 1 -18 -14 -55
-19 -170 -7 -170 6 0 11 16 12 38 0 20 4 55 8 77 6 31 10 36 16 22 5 -12 14
-16 26 -12 11 4 19 2 19 -4 0 -6 4 -11 9 -11 4 0 -1 28 -13 61 -16 47 -18 63
-9 66 10 3 10 10 2 24 -7 14 -7 30 1 54 18 54 27 49 29 -13 2 -72 19 -160 33
-168 11 -7 10 -1 -7 82 l-6 29 16 -28 c20 -36 31 -28 17 12 -6 18 -7 44 -2 67
6 27 5 45 -6 66 -8 16 -13 39 -11 51 3 18 5 17 12 -10 4 -18 11 -33 15 -33 5
0 14 -15 20 -34 11 -36 52 -86 69 -86 6 0 6 12 0 32 -5 18 -9 49 -9 68 1 33 2
31 21 -24 21 -61 48 -110 56 -102 3 3 -4 25 -16 49 -22 46 -28 97 -11 97 6 0
10 10 10 23 0 42 12 66 30 64 16 -1 17 -8 13 -56 -5 -39 -3 -52 5 -47 7 4 12
27 12 51 0 55 8 75 26 68 12 -4 13 0 4 23 -8 20 -8 30 -1 32 6 2 11 13 11 25
0 36 16 5 29 -55 7 -32 17 -61 23 -64 8 -5 9 -1 4 11 -4 11 -9 39 -12 63 -6
50 11 73 32 44 11 -14 12 -7 7 42 -8 78 12 68 28 -14 6 -33 15 -60 20 -60 4 0
13 -26 19 -57 14 -64 29 -103 42 -103 10 0 11 -5 -11 65 -10 33 -22 92 -26
130 -7 66 -6 69 10 50 16 -20 16 -20 11 5 -4 14 -9 54 -12 90 l-5 65 22 -47
c12 -27 26 -48 31 -48 5 0 4 9 -2 21 -7 11 -10 22 -8 24 8 8 24 -11 41 -48 9
-21 22 -35 27 -32 6 4 4 18 -6 36 -8 17 -14 47 -12 67 3 36 4 35 16 -20 7 -32
18 -61 24 -64 8 -5 9 3 3 27 -11 49 -15 209 -5 184 5 -11 9 -30 9 -42 1 -14 7
-23 16 -23 11 0 15 12 15 50 0 40 4 51 21 60 25 14 22 17 43 -47 10 -29 22
-56 28 -60 8 -4 9 0 4 13 -31 76 -38 106 -27 117 9 9 15 8 22 -6 14 -24 32
-22 24 3 -4 14 -2 20 9 20 16 0 20 -11 31 -75 7 -43 33 -100 42 -92 3 3 -2 25
-11 49 -9 24 -18 59 -20 78 -3 19 -8 49 -12 67 -8 39 3 106 17 98 5 -4 9 -14
9 -24 0 -23 40 -121 50 -121 8 0 4 170 -5 203 -6 21 -6 21 9 3 9 -11 16 -28
16 -37 0 -10 4 -20 8 -23 5 -3 7 17 4 44 -2 27 -1 62 3 77 6 24 11 16 30 -62
23 -93 53 -165 67 -165 11 0 11 -4 -17 65 -26 64 -31 95 -15 95 6 0 10 -7 10
-15 0 -8 5 -15 11 -15 7 0 8 11 4 31 -4 17 -4 56 1 88 7 55 7 56 17 24 5 -18
14 -33 18 -33 5 0 15 -16 23 -35 8 -19 20 -35 25 -35 6 0 2 17 -10 39 -11 21
-22 64 -24 95 -2 31 -6 60 -9 65 -3 5 1 14 9 21 15 13 25 -4 41 -66 9 -37 27
-43 19 -5 -8 36 7 42 23 9 9 -19 10 -12 7 37 l-4 60 16 -62 c12 -54 18 -63 37
-63 12 0 27 -5 34 -12 22 -22 23 0 2 41 -33 66 -54 171 -40 206 12 30 12 29
49 -64 20 -52 43 -97 50 -99 10 -3 11 0 2 17 -8 13 -8 21 -2 21 7 0 7 9 0 27
-15 39 -22 197 -7 165 6 -12 17 -22 23 -22 7 0 15 -7 19 -15 3 -8 10 -15 16
-15 7 0 5 10 -3 28 -23 43 -30 72 -18 72 6 0 11 -9 11 -19 0 -28 11 -52 20
-46 5 3 4 20 -1 38 -11 40 -11 47 0 47 5 0 12 -13 16 -30 11 -51 22 -33 17 28
-6 85 15 54 33 -48 8 -46 20 -89 26 -94 8 -8 10 -1 4 29 -4 22 -9 64 -11 94
-2 29 -7 57 -9 62 -3 4 -3 20 1 34 10 39 30 14 37 -45 8 -65 28 -130 40 -130
5 0 6 10 3 23 -25 87 -46 317 -29 317 6 0 13 -21 17 -47 9 -71 28 -92 20 -23
l-6 55 36 -39 c20 -22 38 -48 42 -58 3 -10 9 -18 14 -18 5 0 0 21 -10 46 -21
48 -18 69 7 60 11 -5 13 -2 8 11 -30 76 -30 106 2 138 15 16 18 15 34 -7 10
-12 19 -29 19 -35 0 -7 6 -13 14 -13 12 0 12 6 -1 40 -17 44 -11 65 11 35 12
-17 13 -17 18 8 3 15 1 27 -5 27 -14 0 -1 80 20 124 13 29 19 33 26 21 12 -23
27 -8 27 28 1 28 2 30 12 13 6 -10 18 -27 27 -37 9 -11 25 -45 37 -76 11 -31
26 -59 33 -61 9 -3 9 3 -2 24 -16 32 -33 89 -42 144 -3 19 -8 48 -11 64 -4 19
-3 26 5 22 6 -4 11 -16 11 -26 0 -23 12 -31 30 -20 10 6 20 -4 37 -38 13 -26
20 -36 17 -22 -3 14 -8 39 -10 55 -2 17 -10 57 -18 90 -19 75 -19 75 -2 75 8
0 24 -16 35 -36 25 -42 40 -40 18 3 -20 38 -32 84 -18 63 16 -23 30 4 24 47
-4 25 -2 33 7 28 6 -4 9 -13 6 -21 -3 -8 -2 -14 3 -14 5 0 14 -13 21 -30 7
-16 19 -35 28 -42 14 -11 14 -10 8 12 -12 37 -17 118 -6 100 5 -8 12 -11 16
-7 4 3 1 13 -6 22 -7 9 -11 18 -8 20 3 3 16 -10 29 -30 23 -33 39 -44 39 -27
0 4 -6 16 -14 27 -14 20 -21 90 -17 155 l3 35 15 -42 c8 -24 19 -43 25 -43 5
0 6 9 2 23 -12 34 -10 80 3 84 11 4 17 -6 39 -66 11 -31 12 -2 2 33 -11 34
-10 40 7 52 16 12 16 14 3 14 -26 0 -33 22 -13 37 17 12 17 13 2 13 -21 0 -22
19 -2 26 21 8 19 25 -2 18 -14 -4 -12 -1 5 14 12 11 17 22 11 24 -6 2 -2 14
10 29 11 15 17 30 13 35 -4 5 1 2 11 -5 24 -19 31 -8 18 30 -9 25 -8 34 1 41
9 5 8 8 -4 8 -10 0 -18 4 -18 10 0 5 6 7 14 4 9 -4 16 2 18 17 2 12 9 24 16
27 11 3 12 -9 6 -59 -17 -144 -1 -351 26 -334 4 3 4 22 -2 43 -16 54 -16 275
-1 294 7 8 10 18 6 21 -8 8 27 137 37 137 4 0 11 -11 14 -25 4 -14 11 -25 17
-25 6 0 6 6 -1 19 -13 25 -13 98 0 106 6 3 10 12 9 18 0 9 -2 9 -6 0 -13 -33
-22 -6 -22 62 0 75 11 98 23 50 4 -14 4 -31 0 -37 -4 -7 -3 -8 5 -4 6 4 18 3
25 -3 10 -9 14 6 19 76 4 47 10 89 14 92 4 3 15 15 23 26 14 19 14 19 -3 6
-17 -13 -18 -12 -12 15 14 62 17 66 28 55 20 -20 26 -12 21 26 -4 33 0 40 43
82 26 25 37 38 23 29 -52 -37 -60 -40 -53 -21 11 32 51 85 75 102 22 15 39 49
18 36 -21 -13 -9 10 23 44 l32 35 -43 -37 c-47 -41 -66 -40 -60 4 3 15 1 26
-3 23 -4 -2 -11 1 -15 7 -10 17 32 49 65 49 20 0 23 2 11 10 -8 5 -26 7 -40 3
-38 -9 -13 13 35 31 28 10 33 15 18 15 -17 1 -24 9 -30 39 -8 44 -5 71 10 92
11 13 10 13 -5 1 -17 -12 -18 -10 -18 26 0 31 5 43 23 52 12 6 14 9 5 7 -10
-3 -20 -1 -23 4 -6 10 33 50 48 50 5 0 6 10 2 23 -13 41 -13 76 0 87 7 6 11
21 9 33 -5 22 -5 22 5 -1 11 -23 37 -39 48 -28 3 3 -1 24 -10 46 -16 42 -7 61
18 40 12 -10 15 -9 15 7 0 10 5 24 11 30 9 9 7 10 -10 6 -16 -4 -21 -1 -22 13
0 11 -3 30 -5 44 -3 16 2 30 13 39 17 13 17 13 1 8 -10 -4 -18 -2 -18 3 0 6 6
10 13 10 8 0 9 3 1 8 -15 10 -24 51 -13 58 5 3 7 9 5 13 -3 4 11 15 30 24 42
21 44 21 44 3 0 -14 39 -67 40 -53 0 4 -7 21 -15 38 -9 16 -13 34 -10 38 3 5
1 11 -4 13 -5 1 -12 15 -16 29 -6 23 -2 28 22 38 l28 11 -32 -5 c-18 -2 -33
-3 -34 -2 0 1 -2 20 -5 43 -5 39 -4 41 35 59 51 23 47 32 -4 10 -43 -17 -54
-14 -34 12 9 11 10 14 2 9 -9 -5 -13 1 -13 18 0 14 5 26 10 26 6 0 10 -4 10
-10 0 -5 4 -10 9 -10 4 0 6 11 4 23 -4 19 -1 24 18 23 12 -1 24 5 26 12 3 6 0
12 -7 12 -6 0 -8 -4 -5 -10 7 -12 -2 -12 -30 0 -19 7 -19 8 5 17 14 6 32 13
40 16 8 3 -4 3 -27 0 -36 -5 -41 -3 -39 13 3 21 21 30 31 15 13 -21 27 -11 21
14 -6 23 -2 28 36 45 l43 20 -35 -4 c-19 -2 -43 -7 -52 -11 -10 -4 -18 -3 -18
2 0 12 55 53 72 53 10 0 10 2 -1 9 -11 7 -7 12 15 25 16 8 26 15 21 16 -4 0
-32 -14 -62 -31 -37 -21 -55 -27 -55 -17 1 14 29 37 93 74 23 13 37 24 31 24
-5 0 -30 -13 -55 -28 -68 -43 -69 -44 -69 -35 0 11 47 61 90 97 37 30 23 25
-22 -8 -30 -21 -49 -16 -29 8 15 18 102 55 154 66 29 5 34 8 16 9 -14 1 -59
-8 -100 -18 l-74 -20 27 24 c18 15 23 25 15 28 -9 4 -9 6 1 6 6 1 12 5 12 11
0 5 -7 7 -16 3 -11 -4 -15 -1 -12 13 2 12 -2 18 -10 16 -9 -2 -7 6 5 22 l18
25 19 -22 19 -22 -6 25 c-5 22 -5 23 7 8 7 -10 17 -18 21 -18 4 0 5 8 2 18 -3
9 -10 32 -15 50 -6 17 -7 32 -3 32 4 0 11 -14 16 -32 6 -17 16 -34 24 -36 11
-4 12 0 6 14 -14 34 -18 84 -6 84 7 0 9 9 5 24 -3 14 -1 32 4 42 8 15 11 13
17 -14 9 -44 28 -41 19 3 -10 57 16 119 29 68 3 -10 5 -2 6 17 2 33 2 34 16
16 14 -19 15 -19 15 7 0 19 8 31 30 42 38 20 37 20 44 -20 4 -19 11 -35 16
-35 5 0 4 14 -2 32 -9 24 -8 33 0 36 7 2 12 14 12 27 0 37 18 75 35 75 8 0 15
-6 16 -12 1 -7 4 -2 8 12 4 16 25 35 56 53 28 16 41 26 30 22 -44 -16 -55 -17
-55 -7 0 6 6 17 13 24 8 7 12 19 9 26 -4 14 15 42 29 42 5 0 6 -7 3 -15 -4 -8
-1 -15 5 -15 6 0 11 7 11 16 0 11 6 15 20 11 18 -5 20 0 20 40 0 38 2 42 14
31 8 -8 16 -23 19 -34 2 -10 5 1 6 26 2 43 30 116 31 78 0 -9 -4 -19 -8 -22
-5 -3 -9 -22 -10 -42 -2 -40 15 -36 23 5 16 82 34 78 57 -13 9 -37 19 -70 23
-74 7 -6 5 6 -12 76 -3 12 -1 22 4 22 5 0 14 -10 19 -22 6 -13 8 -16 6 -8 -11
42 -14 81 -7 97 7 17 8 17 15 -2 7 -15 9 -11 9 19 1 37 2 38 15 21 13 -19 15
-17 22 20 4 22 9 34 11 28 3 -7 10 -13 17 -13 8 0 11 12 8 35 -3 21 0 35 7 35
6 0 11 -9 11 -20 0 -11 4 -20 9 -20 6 0 6 12 1 31 -12 40 9 68 28 38 18 -28
33 -24 22 5 -4 13 -7 41 -5 62 2 30 11 45 41 72 23 20 30 29 16 22 -33 -16
-36 -8 -10 25 22 29 11 27 -26 -4 -11 -9 -16 -10 -12 -4 7 13 16 46 19 73 1 8
7 18 12 22 6 5 6 8 -2 8 -22 0 -102 -60 -97 -74 3 -7 -2 -19 -11 -26 -14 -12
-15 -10 -11 14 7 37 31 73 79 119 52 48 44 47 -23 -3 -61 -45 -142 -137 -171
-192 -25 -49 -43 -50 -34 -2 l6 37 -37 -39 c-28 -30 -36 -34 -32 -18 4 17 -3
13 -33 -17 -22 -22 -43 -39 -49 -39 -14 0 -13 23 2 38 22 22 -3 12 -48 -18
-27 -19 -44 -26 -44 -18 0 7 -9 -2 -20 -19 -11 -18 -25 -33 -32 -33 -9 0 -9 3
-1 11 6 6 9 17 6 24 -2 8 6 19 19 26 22 12 22 12 3 19 -13 5 -27 2 -40 -10
-11 -9 -26 -20 -33 -25 -22 -12 -10 37 13 57 20 17 20 17 -5 11 -14 -3 -30
-10 -36 -15 -20 -15 -53 49 -38 74 5 7 7 29 5 50 -2 31 1 38 16 38 16 0 18 6
15 33 -2 22 2 38 12 46 14 12 16 10 16 -18 0 -19 4 -30 10 -26 6 4 8 11 4 16
-11 18 6 99 21 99 7 0 16 8 18 18 3 9 5 0 6 -20 0 -20 5 -39 10 -42 5 -3 9 0
8 7 0 6 1 37 3 67 2 51 3 53 10 20 4 -19 8 -27 9 -17 2 27 17 12 24 -23 4 -16
10 -30 15 -30 5 0 3 23 -4 52 -8 29 -13 66 -13 83 1 31 3 26 14 -40 6 -32 9
-36 15 -20 4 11 10 42 14 68 7 45 9 47 23 30 13 -16 14 -16 9 0 -3 9 -9 25
-12 35 -5 16 -5 16 8 0 13 -15 14 -11 14 32 0 30 6 56 16 67 8 10 13 23 11 30
-2 6 5 14 16 18 11 3 20 9 19 13 -1 4 4 20 10 35 7 16 10 32 7 37 -3 4 2 13 9
19 10 8 16 9 21 1 3 -5 2 -10 -3 -10 -12 0 -22 -36 -13 -47 4 -4 13 -28 20
-51 7 -24 14 -42 17 -39 2 2 0 16 -6 31 -5 15 -10 42 -10 59 l1 32 20 -35 c11
-19 18 -28 15 -19 -2 10 -10 35 -17 57 -9 33 -9 47 1 71 7 17 16 29 19 26 4
-2 8 2 8 10 0 7 -8 12 -19 10 -20 -4 -19 0 14 47 24 35 23 50 -2 18 -11 -14
-20 -19 -20 -12 0 8 -5 10 -12 6 -7 -4 0 7 17 25 24 25 26 31 10 25 -18 -6
-17 -4 5 21 l25 28 -27 -18 c-24 -15 -28 -15 -28 -2 0 8 12 24 28 36 24 18 25
19 5 14 -15 -3 -23 -1 -23 8 0 10 -3 10 -12 1 -18 -18 -30 -14 -23 8 10 30 -3
24 -25 -12 -11 -18 -20 -27 -20 -20 0 18 -18 15 -24 -5 -4 -10 -15 -29 -26
-43 -16 -20 -19 -21 -13 -5 9 27 31 61 72 115 l35 45 -38 -35 c-21 -19 -52
-62 -68 -95 -17 -33 -46 -76 -65 -95 l-35 -35 17 35 c10 19 26 49 37 65 l20
30 -26 -30 c-14 -16 -31 -30 -38 -30 -25 -1 -83 -17 -95 -27 -18 -15 -16 3 4
32 l17 25 -22 -19 c-12 -11 -22 -25 -22 -31 0 -7 -7 -19 -17 -26 -15 -13 -15
-12 -4 9 7 13 -12 -1 -42 -32 -59 -61 -84 -73 -65 -31 12 27 2 48 -12 25 -5
-8 -26 -39 -47 -68 -30 -42 -43 -52 -60 -49 -13 2 -23 0 -23 -5 0 -14 -88 -98
-102 -98 -7 0 5 16 27 36 l40 36 -37 -26 c-20 -14 -38 -26 -41 -26 -2 0 -2 15
0 33 3 31 3 32 -7 6 -6 -15 -29 -46 -51 -70 -36 -39 -40 -41 -37 -19 2 14 6
30 10 35 3 6 3 26 -1 45 l-8 35 -8 -35 c-7 -30 -9 -32 -16 -15 -6 15 -8 16 -8
4 -1 -9 -11 -24 -23 -33 -17 -12 -18 -16 -5 -12 15 5 14 1 -5 -24 -21 -29 -38
-39 -38 -21 0 5 7 14 15 21 8 7 12 16 9 21 -2 5 2 23 11 40 9 17 12 29 7 25
-5 -3 -21 -30 -36 -59 -27 -55 -61 -95 -72 -84 -4 4 -1 14 7 23 16 19 21 47 7
38 -6 -4 -8 1 -5 12 3 11 11 39 17 64 7 25 26 65 42 90 29 43 29 44 4 21 -21
-20 -61 -94 -125 -231 -11 -24 -11 -24 -5 5 3 17 10 53 14 81 5 28 16 68 24
89 9 21 15 40 12 42 -6 6 -43 -89 -56 -144 -6 -29 -16 -53 -21 -53 -4 0 -6 -6
-3 -14 3 -8 -2 -29 -12 -48 -20 -39 -31 -22 -15 24 15 42 14 51 -3 36 -8 -7
-12 -16 -10 -20 3 -4 0 -25 -5 -46 -10 -36 -19 -44 -74 -70 -14 -7 13 40 42
73 14 16 18 23 9 16 -13 -9 -18 -10 -18 -2 0 6 7 14 15 17 8 4 15 10 15 15 0
4 -21 -1 -46 -12 -26 -11 -49 -18 -51 -15 -2 2 4 22 13 45 9 23 14 44 11 47
-3 3 -14 -19 -25 -48 -14 -38 -29 -58 -51 -72 -45 -26 -52 -10 -11 25 27 23
29 27 10 18 -14 -6 -33 -20 -43 -31 -10 -10 -22 -16 -28 -13 -5 4 -12 -1 -15
-9 -3 -9 -20 -22 -37 -31 -37 -18 -37 -18 -37 -2 0 25 66 74 149 112 45 20 34
29 -12 10 -25 -10 -37 -12 -37 -4 0 8 -4 8 -13 1 -7 -6 -25 -16 -41 -21 -25
-10 -27 -9 -21 10 5 15 4 19 -4 15 -6 -4 -11 -2 -11 5 0 10 -3 10 -12 1 -7 -7
-19 -12 -28 -12 -13 0 -13 1 0 10 26 17 1 11 -42 -10 -47 -22 -57 -21 -31 5
16 17 16 17 -7 10 l-25 -7 23 21 c12 12 22 27 22 33 0 6 8 21 17 32 9 12 -4 0
-29 -26 -43 -45 -68 -59 -68 -39 0 4 17 30 37 57 l37 49 -37 -32 c-21 -18 -44
-33 -53 -33 -24 0 2 38 42 62 37 22 41 38 5 18 -29 -15 -26 -2 7 34 15 17 18
24 8 16 -18 -14 -19 -13 -12 5 7 18 5 18 -17 -3 -34 -32 -40 -27 -17 18 24 46
4 46 -24 0 -19 -33 -83 -86 -92 -77 -3 3 -2 12 2 19 12 19 14 39 3 32 -14 -8
-11 14 4 23 6 5 25 24 42 43 16 19 1 8 -33 -25 -38 -36 -61 -52 -57 -40 5 15
0 12 -20 -10 l-26 -30 10 27 c6 15 20 46 31 69 12 22 20 43 17 45 -2 2 -15
-20 -30 -49 -28 -58 -49 -81 -68 -75 -7 2 -1 17 17 38 16 19 36 44 44 55 15
20 14 20 -8 1 -24 -21 -28 -16 -11 17 7 15 2 12 -15 -8 -30 -36 -36 -13 -6 25
11 14 20 29 20 34 0 4 -19 -17 -43 -47 -27 -35 -48 -53 -55 -48 -9 5 -1 20 24
49 35 42 37 57 2 25 -14 -13 -18 -13 -18 -2 0 8 -11 -10 -25 -39 -21 -46 -48
-73 -60 -60 -2 2 0 21 5 43 9 42 3 65 -7 26 -3 -14 -9 -18 -13 -12 -7 13 -42
-16 -77 -64 -12 -16 -24 -27 -28 -23 -4 4 5 19 19 33 26 26 26 26 4 19 l-23
-7 20 23 c11 13 39 32 63 42 48 22 52 35 6 18 -26 -9 -25 -7 16 32 25 24 56
51 70 61 24 17 23 17 -8 0 -19 -10 -56 -37 -84 -60 -27 -24 -54 -43 -59 -43
-10 0 0 61 12 75 5 5 9 17 9 26 0 18 73 89 92 89 6 0 8 3 5 6 -4 4 -18 -1 -32
-10 -14 -9 -25 -12 -25 -6 0 6 -5 8 -10 5 -6 -4 -8 -10 -6 -14 6 -9 -45 -49
-66 -53 -7 -2 -16 -7 -20 -13 -5 -6 -8 -6 -8 2 0 6 12 21 26 32 15 12 23 21
19 21 -4 0 -2 7 5 15 31 37 -34 1 -68 -37 -13 -16 -29 -28 -35 -28 -6 0 2 14
19 32 l29 32 -27 -17 c-29 -18 -31 -16 -29 28 0 13 -3 9 -11 -10 -12 -33 -36
-65 -50 -65 -5 0 -18 -9 -30 -20 -23 -21 -51 -29 -30 -8 22 22 13 31 -14 13
-25 -16 -25 -16 -14 4 6 12 15 21 19 21 5 0 14 14 20 32 6 18 21 44 33 58 12
14 -1 3 -28 -25 -27 -27 -55 -50 -62 -51 -7 -1 -35 -18 -62 -38 -51 -37 -68
-32 -27 7 12 12 28 30 36 40 12 15 12 17 -3 11 -9 -3 -16 -10 -16 -14 0 -4 -7
-10 -15 -14 -25 -9 8 46 48 80 18 16 27 25 20 20 -8 -5 -16 -7 -19 -4 -6 6 45
45 106 81 25 15 41 27 36 27 -15 0 -119 -60 -143 -83 -32 -29 -29 -9 5 27 15
17 19 24 10 17 -24 -18 -23 -6 3 38 27 47 -3 11 -44 -54 -18 -27 -37 -50 -42
-50 -6 0 -16 -4 -23 -9 -7 -4 -16 -5 -19 -2 -3 3 -12 1 -20 -5 -7 -7 -32 -15
-56 -19 l-42 -8 25 20 25 21 -25 -8 c-24 -7 -23 -6 8 31 19 21 52 56 75 78
l42 39 -48 -34 c-52 -37 -150 -89 -156 -83 -3 2 7 17 20 32 52 58 61 75 18 35
-41 -40 -69 -54 -69 -35 1 13 35 48 75 75 22 15 36 27 31 27 -4 0 -22 -10 -39
-22 -18 -13 -33 -21 -34 -18 -4 7 -143 -130 -143 -141 0 -4 -9 -13 -19 -19
-18 -9 -19 -7 -11 18 16 54 16 76 -1 52 -8 -12 -10 -11 -7 5 2 11 7 19 12 17
5 -2 14 7 20 20 7 13 34 33 66 46 36 15 45 22 25 18 -16 -2 -38 -8 -48 -12
-15 -5 -17 -2 -13 21 4 22 3 25 -9 15 -8 -7 -13 -16 -10 -20 3 -4 -3 -14 -13
-21 -15 -13 -16 -12 -3 4 10 13 11 17 1 17 -9 0 -7 7 6 22 13 15 6 12 -21 -9
-45 -34 -105 -67 -111 -60 -3 2 14 21 36 41 48 43 51 52 10 31 -37 -19 -44
-19 -36 3 5 13 2 12 -11 -4 -22 -26 -63 -49 -63 -35 0 5 9 13 20 16 11 3 25
15 30 26 6 10 17 19 25 19 7 0 15 4 17 9 2 4 26 20 53 34 55 29 51 35 -5 9z
m34 -115 c-2 -7 -14 -19 -27 -26 -21 -13 -21 -12 2 13 27 29 33 32 25 13z
m-134 -15 c0 -14 -36 -43 -43 -35 -4 3 -7 1 -7 -5 0 -13 -59 -46 -67 -38 -11
10 57 68 73 62 8 -3 13 -2 9 3 -3 5 1 12 7 14 20 8 28 8 28 -1z m50 -39 c0 -5
-12 -16 -25 -26 -19 -14 -25 -15 -25 -4 0 8 10 19 23 25 28 14 27 13 27 5z
m-376 -39 c-10 -8 -12 -13 -4 -9 13 5 13 4 0 -7 -9 -7 -24 -24 -33 -38 -11
-16 -17 -19 -17 -9 0 8 5 20 12 27 19 19 -3 14 -26 -5 -20 -18 -20 -18 -5 6
16 25 79 65 88 56 2 -3 -4 -12 -15 -21z m159 11 c-5 -15 -53 -45 -70 -45 -9 0
59 59 69 60 4 0 5 -7 1 -15z m97 -12 c0 -5 -15 -16 -33 -26 l-32 -17 28 25
c30 26 37 30 37 18z m-514 -28 c-11 -8 -25 -15 -30 -15 -6 1 0 7 14 15 32 19
40 18 16 0z m914 -20 c-7 -9 -15 -13 -18 -11 -3 3 -18 -4 -33 -15 -33 -23 -39
-11 -9 16 10 9 26 15 35 12 8 -4 15 -2 15 3 0 6 5 10 11 10 8 0 7 -5 -1 -15z
m-800 -25 c-12 -16 -24 -30 -26 -30 -3 0 4 14 16 30 12 17 24 30 26 30 3 0 -4
-13 -16 -30z m-180 16 c0 -3 -13 -14 -30 -26 -16 -12 -30 -18 -30 -13 0 5 12
16 28 25 30 19 32 20 32 14z m57 -11 c0 -8 -6 -16 -14 -19 -16 -7 -17 6 -1 22
15 15 15 15 15 -3z m163 -6 c-7 -11 -14 -18 -17 -15 -3 3 0 12 7 21 18 21 23
19 10 -6z m905 -15 c-20 -38 -54 -82 -55 -68 0 14 60 108 66 102 2 -3 -3 -18
-11 -34z m-661 -8 c-3 -9 -10 -16 -15 -16 -6 0 -5 9 1 21 13 24 24 20 14 -5z
m598 17 c-6 -2 -10 -8 -7 -12 2 -5 -7 -19 -20 -31 -20 -18 -25 -20 -25 -8 0 9
7 19 16 22 8 3 13 10 10 15 -6 9 10 19 29 19 6 0 4 -2 -3 -5z m-1241 -64 c-10
-28 -48 -65 -57 -56 -4 4 -2 13 4 20 7 8 9 16 6 19 -3 3 7 15 22 27 32 25 38
23 25 -10z m143 6 c-4 -8 -11 -15 -16 -15 -6 0 -5 6 2 15 7 8 14 15 16 15 2 0
1 -7 -2 -15z m476 11 c0 -2 -7 -7 -16 -10 -8 -3 -12 -2 -9 4 6 10 25 14 25 6z
m248 -18 c-8 -12 -20 -24 -27 -26 -9 -3 -7 5 4 22 10 14 22 26 27 26 6 0 4
-10 -4 -22z m581 -5 c-8 -10 -23 -19 -33 -20 -15 -1 -13 3 10 22 33 26 43 25
23 -2z m202 -16 l-24 -22 19 27 c10 14 21 24 23 22 3 -3 -6 -15 -18 -27z m89
9 c0 -2 -7 -9 -15 -16 -13 -11 -14 -10 -9 4 5 14 24 23 24 12z m-565 -26 c-3
-5 -11 -10 -16 -10 -6 0 -7 5 -4 10 3 6 11 10 16 10 6 0 7 -4 4 -10z m-1271
-32 c-10 -20 -19 -28 -22 -20 -2 7 4 22 14 33 25 27 27 24 8 -13z m1216 23 c0
-5 -7 -14 -15 -21 -16 -14 -18 -10 -9 14 6 17 24 22 24 7z m422 -23 c-7 -7
-12 -8 -12 -2 0 14 12 26 19 19 2 -3 -1 -11 -7 -17z m178 17 c0 -12 -29 -75
-34 -75 -8 0 -1 53 8 68 7 12 26 17 26 7z m-1936 -32 c-10 -40 -25 -58 -35
-41 -7 10 -9 9 -9 -3 0 -9 -7 -19 -15 -23 -11 -4 -15 2 -15 22 0 19 10 33 33
49 42 29 49 28 41 -4z m1596 2 c-7 -9 -15 -13 -19 -10 -3 3 1 10 9 15 21 14
24 12 10 -5z m2208 -1 c-2 -9 -19 -27 -39 -39 l-36 -23 2 21 c1 12 15 29 31
39 36 22 46 23 42 2z m-3888 -50 c0 -5 -6 -17 -12 -25 -18 -21 -88 -72 -93
-67 -2 2 15 26 38 53 25 29 35 46 24 42 -10 -4 -16 -3 -13 2 8 12 56 8 56 -5z
m-109 -52 c-23 -26 -41 -52 -41 -57 0 -13 -51 -97 -56 -92 -5 5 19 59 52 115
31 53 25 55 -10 2 -14 -22 -32 -40 -38 -40 -7 0 -32 -19 -57 -42 -36 -35 -40
-37 -24 -13 27 40 142 149 150 142 3 -3 17 5 31 18 42 39 38 20 -7 -33z m3967
38 c-7 -10 -14 -17 -17 -15 -4 4 18 35 25 35 2 0 -1 -9 -8 -20z m-9163 -9 c-3
-5 -24 -24 -48 -41 l-42 -32 42 41 c40 38 62 53 48 32z m5365 -21 c-6 -12 -14
-19 -17 -17 -2 3 1 15 7 27 6 12 14 19 17 17 2 -3 -1 -15 -7 -27z m2048 -6
c-7 -15 -14 -21 -16 -15 -5 16 5 41 17 41 7 0 6 -10 -1 -26z m-28 -9 c0 -8 -4
-15 -10 -15 -5 0 -7 7 -4 15 4 8 8 15 10 15 2 0 4 -7 4 -15z m130 -4 c0 -5 -7
-14 -15 -21 -12 -10 -15 -10 -15 2 0 8 3 18 7 21 9 10 23 9 23 -2z m1381 -24
l-24 -22 19 27 c10 14 21 24 23 22 3 -3 -6 -15 -18 -27z m-3615 -5 c-18 -16
-18 -16 -6 6 6 13 14 21 18 18 3 -4 -2 -14 -12 -24z m2240 -29 c-8 -15 -15
-22 -16 -15 0 17 20 55 27 49 2 -3 -2 -18 -11 -34z m164 27 c0 -5 -5 -10 -11
-10 -5 0 -7 5 -4 10 3 6 8 10 11 10 2 0 4 -4 4 -10z m-110 -35 c-7 -8 -17 -15
-22 -15 -6 0 -5 7 2 15 7 8 17 15 22 15 6 0 5 -7 -2 -15z m95 5 c-3 -5 -11
-10 -16 -10 -6 0 -7 5 -4 10 3 6 11 10 16 10 6 0 7 -4 4 -10z m-2589 -65 c-15
-25 -29 -45 -32 -45 -6 0 24 71 38 87 23 28 19 2 -6 -42z m2635 37 c-13 -25
-40 -46 -48 -38 -7 7 36 56 49 56 5 0 4 -8 -1 -18z m1129 14 c0 -2 -8 -10 -17
-17 -16 -13 -17 -12 -4 4 13 16 21 21 21 13z m-8870 -57 c-14 -11 -33 -27 -43
-35 -21 -17 -30 -14 -22 8 6 14 60 46 80 47 6 0 -1 -9 -15 -20z m-90 -3 c0 -2
-8 -10 -17 -17 -16 -13 -17 -12 -4 4 13 16 21 21 21 13z m220 -23 c-1 -20
-120 -127 -120 -109 0 10 24 48 45 71 31 33 75 56 75 38z m7682 -27 c-14 -28
-18 -30 -20 -14 -4 20 14 48 29 48 5 0 1 -15 -9 -34z m-7802 15 c0 -5 -7 -12
-16 -15 -14 -5 -15 -4 -4 9 14 17 20 19 20 6z m5022 -13 c-7 -7 -12 -8 -12 -2
0 14 12 26 19 19 2 -3 -1 -11 -7 -17z m-5132 -6 c0 -5 -11 -22 -25 -38 -14
-16 -25 -24 -25 -18 0 6 10 23 23 37 25 29 27 30 27 19z m8542 -14 c-7 -7 -12
-8 -12 -2 0 14 12 26 19 19 2 -3 -1 -11 -7 -17z m-587 -7 c-3 -6 -11 -11 -17
-11 -6 0 -6 6 2 15 14 17 26 13 15 -4z m-8094 -18 c-8 -15 -10 -15 -11 -2 0
17 10 32 18 25 2 -3 -1 -13 -7 -23z m7983 -27 c-3 -21 -9 -35 -11 -32 -3 3 -2
21 1 42 4 20 10 34 12 31 3 -3 2 -21 -2 -41z m262 16 c-3 -5 -16 -12 -28 -15
-22 -6 -22 -6 2 13 25 19 37 20 26 2z m-86 -6 c0 -2 -8 -10 -17 -17 -16 -13
-17 -12 -4 4 13 16 21 21 21 13z m512 -18 c-7 -7 -12 -8 -12 -2 0 14 12 26 19
19 2 -3 -1 -11 -7 -17z m-608 -1 c-2 -7 -13 -18 -24 -25 -17 -10 -20 -10 -20
2 0 8 8 20 18 25 23 14 32 13 26 -2z m425 -26 c-26 -36 -39 -39 -39 -11 0 11
12 26 28 34 36 19 38 14 11 -23z m-249 26 c0 -2 -17 -20 -39 -41 -33 -32 -38
-34 -37 -17 1 13 15 29 36 40 38 22 40 22 40 18z m-7970 -26 c0 -13 -49 -65
-55 -59 -4 4 45 68 53 68 1 0 2 -4 2 -9z m243 -29 c-7 -30 -48 -75 -63 -70 -9
3 -2 17 24 46 43 47 46 49 39 24z m7917 -2 c0 -11 -4 -20 -9 -20 -5 0 -7 9 -4
20 3 11 7 20 9 20 2 0 4 -9 4 -20z m-8337 -5 c-3 -9 -8 -14 -10 -11 -3 3 -2 9
2 15 9 16 15 13 8 -4z m8311 -7 c-8 -26 -22 -38 -46 -38 -24 0 -23 7 8 35 33
31 47 32 38 3z m1102 -14 c-4 -14 -9 -24 -12 -21 -3 2 -2 17 2 31 3 15 9 25
11 22 3 -3 2 -17 -1 -32z m-1356 22 c0 -3 -4 -8 -10 -11 -5 -3 -10 -1 -10 4 0
6 5 11 10 11 6 0 10 -2 10 -4z m-119 -33 c-8 -15 -10 -15 -11 -2 0 17 10 32
18 25 2 -3 -1 -13 -7 -23z m512 3 c-3 -13 -16 -29 -30 -35 -18 -8 -23 -8 -17
1 5 8 1 9 -12 5 -11 -4 -4 6 16 23 41 36 49 37 43 6z m-120 -21 c-3 -9 -8 -14
-10 -11 -3 3 -2 9 2 15 9 16 15 13 8 -4z m-8330 -15 c-3 -12 -8 -19 -11 -16
-5 6 5 36 12 36 2 0 2 -9 -1 -20z m8228 -13 c-16 -16 -26 0 -10 19 9 11 15 12
17 4 2 -6 -1 -17 -7 -23z m59 20 c0 -2 -10 -12 -22 -23 l-23 -19 19 23 c18 21
26 27 26 19z m-7860 -30 c0 -2 -10 -12 -22 -23 l-23 -19 19 23 c18 21 26 27
26 19z m4551 -30 c-10 -9 -11 -8 -5 6 3 10 9 15 12 12 3 -3 0 -11 -7 -18z
m-5070 -35 c-21 -41 -41 -62 -41 -42 0 20 49 94 57 86 3 -2 -5 -22 -16 -44z
m8194 19 c-8 -17 -20 -33 -26 -37 -11 -7 5 29 24 54 17 21 18 13 2 -17z m125
-1 c0 -5 -5 -10 -11 -10 -5 0 -7 5 -4 10 3 6 8 10 11 10 2 0 4 -4 4 -10z
m-7933 -20 c1 -11 -2 -20 -7 -20 -6 0 -7 17 -1 38 3 8 7 -1 8 -18z m4600 -42
c-4 -13 -23 -36 -43 -52 -34 -27 -35 -27 -24 -5 20 38 62 91 67 85 3 -3 3 -15
0 -28z m-4155 -40 c-18 -19 -22 -20 -22 -6 0 9 8 21 17 27 27 15 29 3 5 -21z
m4078 -9 c-7 -11 -14 -18 -17 -15 -3 3 0 12 7 21 18 21 23 19 10 -6z m-4127
-37 c-8 -23 -20 -39 -24 -36 -5 3 -18 -10 -29 -30 -19 -30 -47 -52 -56 -43 -2
2 6 21 17 43 18 36 97 119 105 111 2 -2 -4 -22 -13 -45z m4091 -9 c-4 -16 -32
-59 -62 -98 -75 -96 -80 -99 -42 -30 35 62 99 155 106 155 2 0 1 -12 -2 -27z
m-3913 -26 c-10 -9 -11 -8 -5 6 3 10 9 15 12 12 3 -3 0 -11 -7 -18z m-306 -6
c-3 -6 -11 -11 -17 -11 -6 0 -6 6 2 15 14 17 26 13 15 -4z m9195 15 c0 -2 -13
-20 -30 -41 -16 -21 -30 -43 -30 -50 0 -6 -9 -20 -20 -30 -39 -35 -15 13 44
88 27 34 36 43 36 33z m65 -26 c-15 -16 -32 -27 -36 -24 -10 6 40 53 55 54 6
0 -3 -13 -19 -30z m-9972 5 c-3 -9 -8 -14 -10 -11 -3 3 -2 9 2 15 9 16 15 13
8 -4z m4952 -32 c-12 -17 -20 -23 -23 -15 -4 14 28 56 36 47 3 -2 -3 -17 -13
-32z m-4932 -8 c-3 -9 -8 -14 -10 -11 -3 3 -2 9 2 15 9 16 15 13 8 -4z m1037
11 c0 -2 -8 -10 -17 -17 -16 -13 -17 -12 -4 4 13 16 21 21 21 13z m-180 -60
l-22 -21 17 28 c9 15 14 27 11 27 -4 0 -4 6 1 13 5 9 9 7 11 -7 2 -10 -6 -28
-18 -40z m-884 18 c-4 -9 -9 -15 -11 -12 -3 3 -3 13 1 22 4 9 9 15 11 12 3 -3
3 -13 -1 -22z m4994 22 c0 -2 -7 -9 -15 -16 -13 -11 -14 -10 -9 4 5 14 24 23
24 12z m-4030 -26 c-6 -11 -15 -20 -21 -20 -6 0 -6 7 1 20 6 11 15 20 21 20 6
0 6 -7 -1 -20z m8362 -41 c20 -21 35 -50 33 -64 -4 -24 -18 -44 -27 -39 -5 3
-4 13 4 22 12 15 11 16 -4 3 -10 -7 -16 -16 -14 -20 3 -4 0 -13 -6 -21 -8 -13
-9 -12 -5 1 3 9 1 21 -4 26 -6 6 -12 41 -14 79 -3 56 -1 65 8 50 7 -11 20 -27
29 -37z m-52 -47 c0 -15 4 -33 9 -41 12 -18 -19 -51 -35 -36 -8 7 -6 14 8 24
14 9 17 16 9 24 -14 14 -15 70 -1 62 6 -3 10 -18 10 -33z m452 6 c-7 -7 -12
-8 -12 -2 0 14 12 26 19 19 2 -3 -1 -11 -7 -17z m-9735 -10 c-3 -8 -6 -5 -6 6
-1 11 2 17 5 13 3 -3 4 -12 1 -19z m9257 -23 c3 -8 1 -15 -4 -15 -6 0 -10 7
-10 15 0 8 2 15 4 15 2 0 6 -7 10 -15z m326 -10 c-7 -9 -15 -13 -17 -11 -7 7
7 26 19 26 6 0 6 -6 -2 -15z m-8517 -20 c-3 -9 -8 -14 -10 -11 -3 3 -2 9 2 15
9 16 15 13 8 -4z m8492 -24 c-3 -6 -11 -11 -17 -11 -6 0 -6 6 2 15 14 17 26
13 15 -4z m-8345 0 c0 -5 -12 -17 -27 -26 l-28 -18 24 27 c26 28 31 31 31 17z
m-1169 -42 l-10 -24 0 26 c-1 14 2 29 6 33 12 12 14 -9 4 -35z m4805 -37 c-9
-17 -21 -34 -27 -38 -7 -4 -2 12 11 34 27 47 40 50 16 4z m-4826 8 c0 -5 -4
-10 -10 -10 -5 0 -10 5 -10 10 0 6 5 10 10 10 6 0 10 -4 10 -10z m1250 -75
c-7 -8 -17 -15 -23 -15 -5 0 -2 9 8 20 21 23 35 19 15 -5z m220 -9 c0 -2 -8
-10 -17 -17 -16 -13 -17 -12 -4 4 13 16 21 21 21 13z m3316 -28 c-18 -26 -22
-17 -5 14 6 11 13 17 16 15 3 -3 -2 -16 -11 -29z m4874 8 c0 -3 -4 -8 -10 -11
-5 -3 -10 -1 -10 4 0 6 5 11 10 11 6 0 10 -2 10 -4z m-8280 -10 c0 -2 -8 -10
-17 -17 -16 -13 -17 -12 -4 4 13 16 21 21 21 13z m-50 -30 c0 -2 -8 -10 -17
-17 -16 -13 -17 -12 -4 4 13 16 21 21 21 13z m350 -32 c0 -13 -47 -73 -53 -67
-13 13 -7 52 11 62 19 11 42 14 42 5z m-1692 -35 c-6 -16 -12 -28 -14 -26 -5
5 13 57 20 57 3 0 0 -14 -6 -31z m1622 -3 c0 -8 -13 -21 -30 -29 -28 -15 -29
-14 -20 3 8 16 36 38 48 40 1 0 2 -6 2 -14z m-106 -17 c-10 -11 -28 -25 -39
-31 -12 -5 -7 3 13 21 37 35 55 42 26 10z m8086 7 c0 -3 -4 -8 -10 -11 -5 -3
-10 -1 -10 4 0 6 5 11 10 11 6 0 10 -2 10 -4z m-7875 -46 c-3 -5 -11 -10 -16
-10 -6 0 -7 5 -4 10 3 6 11 10 16 10 6 0 7 -4 4 -10z m-165 -20 c0 -5 -5 -10
-11 -10 -5 0 -7 5 -4 10 3 6 8 10 11 10 2 0 4 -4 4 -10z m140 -15 c-7 -9 -15
-13 -17 -11 -7 7 7 26 19 26 6 0 6 -6 -2 -15z m58 -27 c-9 -13 -24 -24 -34
-26 -15 -2 -13 2 9 23 35 31 44 32 25 3z m7762 -19 c0 -9 -7 -19 -15 -23 -11
-4 -15 2 -15 23 0 15 3 31 7 34 8 9 23 -13 23 -34z m-7580 0 c0 -17 -97 -105
-106 -96 -2 2 7 16 21 31 30 33 32 40 5 26 -11 -6 -20 -7 -20 -2 0 5 12 14 28
21 15 8 34 17 42 22 21 11 30 11 30 -2z m7477 -71 c-2 -13 -4 -5 -4 17 -1 22
1 32 4 23 2 -10 2 -28 0 -40z m58 43 c3 -5 1 -12 -5 -16 -5 -3 -10 1 -10 9 0
18 6 21 15 7z m-7755 -16 c-7 -8 -17 -15 -22 -15 -6 0 -5 7 2 15 7 8 17 15 22
15 6 0 5 -7 -2 -15z m-1733 -27 c-3 -7 -5 -2 -5 12 0 14 2 19 5 13 2 -7 2 -19
0 -25z m4700 -30 c-3 -7 -5 -2 -5 12 0 14 2 19 5 13 2 -7 2 -19 0 -25z m4676
-30 c-16 -18 -18 -19 -21 -3 -4 19 16 37 31 28 4 -3 0 -14 -10 -25z m67 16 c0
-8 -5 -12 -10 -9 -6 4 -8 11 -5 16 9 14 15 11 15 -7z m-7526 -9 c-4 -8 -11
-15 -16 -15 -6 0 -5 6 2 15 7 8 14 15 16 15 2 0 1 -7 -2 -15z m271 -12 c-2
-10 -7 -39 -10 -64 -5 -40 -10 -48 -41 -62 -43 -21 -43 -21 -37 2 3 10 14 23
26 29 22 11 22 11 -2 11 -19 1 -22 4 -14 12 6 6 9 17 7 24 -3 7 10 24 28 39
39 30 47 32 43 9z m7225 2 c0 -8 -10 -19 -21 -26 -17 -9 -20 -8 -16 3 2 7 10
12 16 11 6 -2 11 4 11 12 0 8 2 15 5 15 3 0 5 -7 5 -15z m-4742 -50 c-1 -42
-12 -65 -24 -52 -8 8 7 97 16 97 5 0 8 -20 8 -45z m-2756 13 c-7 -7 -12 -8
-12 -2 0 14 12 26 19 19 2 -3 -1 -11 -7 -17z m-30 -10 c-7 -7 -12 -8 -12 -2 0
14 12 26 19 19 2 -3 -1 -11 -7 -17z m212 -2 c-3 -8 -15 -16 -27 -19 -21 -6
-21 -6 2 14 28 23 32 24 25 5z m-19 -46 c-3 -5 -11 -10 -16 -10 -6 0 -7 5 -4
10 3 6 11 10 16 10 6 0 7 -4 4 -10z m-163 -22 c-7 -7 -12 -8 -12 -2 0 14 12
26 19 19 2 -3 -1 -11 -7 -17z m304 -23 c-3 -8 -10 -15 -16 -15 -14 0 -12 37 3
43 15 5 21 -8 13 -28z m7034 5 c0 -5 -5 -10 -11 -10 -5 0 -7 5 -4 10 3 6 8 10
11 10 2 0 4 -4 4 -10z m-7115 -27 c-11 -10 -26 -24 -32 -32 -11 -13 -13 -12
-13 6 0 11 10 25 23 31 34 16 44 14 22 -5z m446 -35 c-21 -52 -40 -92 -41 -84
0 6 -13 -3 -30 -19 -16 -16 -33 -25 -37 -22 -3 4 -1 7 6 7 7 0 10 4 7 8 -3 5
8 24 24 43 16 19 29 38 30 43 0 12 31 46 41 46 5 0 5 -10 0 -22z m-2495 -53
c-9 -19 -10 -19 -14 -2 -2 10 0 31 4 45 l7 27 7 -25 c4 -14 2 -34 -4 -45z
m2094 45 c0 -5 -5 -10 -11 -10 -5 0 -7 5 -4 10 3 6 8 10 11 10 2 0 4 -4 4 -10z
m145 -9 c-3 -6 -11 -11 -17 -11 -6 0 -6 6 2 15 14 17 26 13 15 -4z m-245 5 c0
-3 -4 -8 -10 -11 -5 -3 -10 -1 -10 4 0 6 5 11 10 11 6 0 10 -2 10 -4z m372
-48 c-7 -7 -12 -8 -12 -2 0 14 12 26 19 19 2 -3 -1 -11 -7 -17z m-42 -9 c-7
-11 -14 -18 -17 -15 -8 8 5 36 17 36 7 0 7 -6 0 -21z m-130 -33 c0 -3 -4 -8
-10 -11 -5 -3 -10 -1 -10 4 0 6 5 11 10 11 6 0 10 -2 10 -4z m2431 -29 c-10
-9 -11 -8 -5 6 3 10 9 15 12 12 3 -3 0 -11 -7 -18z m-2101 -33 c-18 -21 -24
-10 -8 15 7 12 14 17 16 11 2 -6 -2 -17 -8 -26z m173 16 c-3 -11 -9 -20 -15
-20 -5 0 -4 9 2 20 6 11 12 20 14 20 2 0 2 -9 -1 -20z m-2653 -45 c-14 -51
-37 -76 -26 -29 10 43 28 85 34 80 2 -3 -1 -26 -8 -51z m2360 51 c0 -3 -4 -8
-10 -11 -5 -3 -10 -1 -10 4 0 6 5 11 10 11 6 0 10 -2 10 -4z m360 -45 c0 -33
-19 -71 -35 -71 -21 0 -20 48 2 72 21 23 33 23 33 -1z m1891 -64 c-10 -9 -11
-8 -5 6 3 10 9 15 12 12 3 -3 0 -11 -7 -18z m-1991 -8 c-7 -11 -14 -18 -17
-15 -3 3 0 12 7 21 18 21 23 19 10 -6z m-2598 -21 c-7 -7 -12 -8 -12 -2 0 14
12 26 19 19 2 -3 -1 -11 -7 -17z m2728 7 c-7 -9 -15 -13 -17 -11 -7 7 7 26 19
26 6 0 6 -6 -2 -15z m-40 -30 c0 -8 -7 -15 -16 -15 -14 0 -14 3 -4 15 7 8 14
15 16 15 2 0 4 -7 4 -15z m495 -7 c-8 -25 -35 -51 -44 -42 -3 4 0 9 7 11 6 3
9 9 6 14 -6 11 13 39 28 39 5 0 6 -10 3 -22z m-150 -17 c-3 -6 -11 -11 -17
-11 -6 0 -6 6 2 15 14 17 26 13 15 -4z m-136 -13 c-19 -37 -49 -51 -49 -24 0
15 36 46 53 46 4 0 2 -10 -4 -22z m221 -32 c0 -3 -4 -8 -10 -11 -5 -3 -10 -1
-10 4 0 6 5 11 10 11 6 0 10 -2 10 -4z m542 -31 c-3 -16 -22 -38 -50 -57 -25
-18 -41 -33 -34 -36 13 -4 7 -22 -7 -22 -26 0 15 87 55 119 35 27 42 26 36 -4z
m-667 -5 c-3 -5 -11 -10 -16 -10 -6 0 -7 5 -4 10 3 6 11 10 16 10 6 0 7 -4 4
-10z m441 -38 c-18 -16 -18 -16 -6 6 6 13 14 21 18 18 3 -4 -2 -14 -12 -24z
m614 -7 c-21 -26 -31 -16 -13 11 9 15 19 21 21 15 2 -6 -2 -18 -8 -26z m440
-26 c-35 -74 -45 -85 -36 -39 8 45 37 100 53 100 8 0 2 -22 -17 -61z m-1088
19 c-7 -7 -12 -8 -12 -2 0 14 12 26 19 19 2 -3 -1 -11 -7 -17z m242 -45 c-10
-7 -21 -13 -25 -13 -13 0 -1 42 18 63 18 19 18 19 21 -9 3 -18 -2 -33 -14 -41z
m47 15 c-3 -21 -6 -26 -9 -15 -3 17 3 47 11 47 2 0 1 -15 -2 -32z m589 -12
l-23 -21 19 33 c10 18 20 28 23 21 2 -6 -7 -21 -19 -33z m-744 6 c-17 -16 -18
-16 -5 5 7 12 15 20 18 17 3 -2 -3 -12 -13 -22z m-731 8 c-3 -5 -11 -10 -16
-10 -6 0 -7 5 -4 10 3 6 11 10 16 10 6 0 7 -4 4 -10z m1185 -25 c-7 -9 -15
-13 -19 -10 -3 3 1 10 9 15 21 14 24 12 10 -5z m317 -27 c-3 -8 -6 -5 -6 6 -1
11 2 17 5 13 3 -3 4 -12 1 -19z m-667 4 c0 -11 -38 -42 -53 -42 -8 0 -7 4 3
10 8 5 11 10 5 10 -12 1 25 30 37 30 4 0 8 -3 8 -8z m220 -2 c0 -5 -5 -10 -11
-10 -5 0 -7 5 -4 10 3 6 8 10 11 10 2 0 4 -4 4 -10z m420 -13 c0 -12 -39 -42
-46 -35 -6 6 26 48 37 48 5 0 9 -6 9 -13z m-120 -7 c0 -12 -42 -31 -50 -23 -6
5 30 33 42 33 4 0 8 -5 8 -10z m-440 -4 c0 -3 -4 -8 -10 -11 -5 -3 -10 -1 -10
4 0 6 5 11 10 11 6 0 10 -2 10 -4z m288 -16 c-14 -22 -24 -19 -15 5 4 8 11 15
17 15 6 0 6 -7 -2 -20z m-91 4 c-3 -3 -12 -4 -19 -1 -8 3 -5 6 6 6 11 1 17 -2
13 -5z m181 -6 c-3 -7 -15 -14 -29 -16 -23 -2 -23 -2 -5 13 24 18 39 20 34 3z
m212 -8 c0 -11 -4 -20 -10 -20 -5 0 -10 9 -10 20 0 11 5 20 10 20 6 0 10 -9
10 -20z m-340 6 c0 -3 -4 -8 -10 -11 -5 -3 -10 -1 -10 4 0 6 5 11 10 11 6 0
10 -2 10 -4z m-290 -15 c0 -6 -4 -13 -10 -16 -5 -3 -10 1 -10 9 0 9 5 16 10
16 6 0 10 -4 10 -9z m576 -17 c-30 -21 -44 -16 -17 7 13 11 27 17 30 13 3 -3
-3 -12 -13 -20z m-4094 -6 c-7 -7 -12 -8 -12 -2 0 14 12 26 19 19 2 -3 -1 -11
-7 -17z m3484 -4 c-4 -9 -9 -15 -11 -12 -3 3 -3 13 1 22 4 9 9 15 11 12 3 -3
3 -13 -1 -22z m474 1 c-27 -29 -37 -27 -20 4 6 12 18 21 27 21 13 0 12 -5 -7
-25z m-530 -36 c-7 -11 -14 -18 -17 -15 -3 3 0 12 7 21 18 21 23 19 10 -6z
m625 11 c-3 -5 -12 -10 -18 -10 -7 0 -6 4 3 10 19 12 23 12 15 0z m145 -5 c-7
-9 -15 -13 -19 -10 -3 3 1 10 9 15 21 14 24 12 10 -5z m4521 -78 c-11 -29 -31
-45 -31 -25 0 16 30 61 36 55 3 -2 0 -16 -5 -30z m-8576 -27 c-3 -54 -15 -64
-15 -13 0 33 6 53 15 53 1 0 1 -18 0 -40z m-36 -102 c-16 -30 -21 -16 -13 43
l8 54 8 -38 c5 -24 4 -46 -3 -59z m8611 37 c-7 -9 -15 -13 -18 -10 -3 2 1 11
8 20 7 9 15 13 18 10 3 -2 -1 -11 -8 -20z m-8573 -47 c-3 -7 -5 -2 -5 12 0 14
2 19 5 13 2 -7 2 -19 0 -25z m8585 0 c-7 -7 -12 -8 -12 -2 0 14 12 26 19 19 2
-3 -1 -11 -7 -17z m-8676 -27 c-6 -9 -46 -22 -46 -16 0 2 5 15 11 29 10 21 14
23 26 10 8 -7 12 -18 9 -23z m95 -61 c4 0 10 8 12 18 4 13 5 11 6 -5 0 -13 6
-23 11 -23 18 0 11 -16 -36 -86 -49 -73 -71 -92 -60 -53 6 21 5 22 -6 8 -17
-21 -78 -52 -78 -40 0 4 7 14 15 21 8 7 15 17 15 22 0 6 -8 4 -17 -3 -15 -12
-16 -12 -8 1 4 8 19 31 33 50 l25 35 -36 -34 c-21 -19 -37 -31 -37 -25 -1 5
-7 -6 -15 -24 -8 -18 -22 -35 -32 -39 -10 -3 -31 -17 -47 -30 -18 -15 -32 -21
-38 -15 -19 19 4 53 58 89 60 40 67 56 10 22 -20 -12 -39 -20 -41 -17 -2 2 16
31 42 63 40 52 41 56 11 27 -19 -18 -37 -30 -40 -27 -3 3 -16 -10 -28 -30 -21
-33 -57 -62 -66 -52 -8 7 87 107 96 102 5 -3 14 3 19 13 6 11 38 33 71 50 58
29 92 33 87 10 -5 -26 20 -15 32 14 l14 33 10 -37 c6 -21 14 -38 18 -38z
m8594 59 c4 -6 -4 -22 -16 -37 -21 -24 -22 -25 -2 -8 12 10 27 15 34 11 14 -9
-25 -34 -54 -35 -15 0 -16 3 -7 21 7 11 9 23 6 26 -7 7 13 33 25 33 4 0 11 -5
14 -11z m-8469 -43 c-21 -33 -20 -39 6 -30 18 5 14 -3 -20 -44 -23 -27 -42
-55 -42 -61 0 -6 -5 -11 -11 -11 -5 0 -7 -4 -4 -10 3 -6 -1 -7 -9 -4 -9 3 -13
11 -9 17 4 6 -8 1 -25 -12 -40 -28 -42 -11 -4 44 42 62 64 84 78 78 8 -3 14 1
14 9 0 25 25 67 34 58 5 -5 2 -19 -8 -34z m8394 -46 c0 -5 -5 -10 -11 -10 -5
0 -7 5 -4 10 3 6 8 10 11 10 2 0 4 -4 4 -10z m-8400 -105 c0 -5 -56 -35 -66
-35 -12 0 41 39 54 40 6 0 12 -2 12 -5z m46 -79 l-13 -31 -1 48 c-3 59 9 83
19 43 5 -18 3 -41 -5 -60z m-136 49 c-7 -8 -18 -15 -24 -15 -6 0 -2 7 8 15 25
19 32 19 16 0z m94 -54 c-4 -17 -10 -28 -14 -26 -5 3 -6 15 -4 28 3 17 2 16
-6 -4 -6 -15 -20 -29 -30 -32 -21 -5 -27 7 -10 18 6 4 8 11 5 16 -4 5 6 21 21
36 23 22 28 24 35 11 5 -9 6 -30 3 -47z m8416 39 c0 -5 -2 -10 -4 -10 -3 0 -8
5 -11 10 -3 6 -1 10 4 10 6 0 11 -4 11 -10z m-8912 -30 c-12 -37 -34 -54 -23
-19 7 23 24 49 31 49 1 0 -2 -14 -8 -30z m607 -17 c-10 -15 -20 -22 -22 -16
-4 11 28 53 36 47 2 -2 -4 -16 -14 -31z m-749 -11 c-18 -16 -18 -16 -6 6 6 13
14 21 18 18 3 -4 -2 -14 -12 -24z m477 -8 c-17 -23 -29 -31 -32 -23 -2 7 8 23
23 36 38 33 41 29 9 -13z m-291 1 c-4 -26 -22 -45 -22 -25 0 12 18 50 24 50 2
0 1 -11 -2 -25z m203 15 c-3 -5 -16 -15 -28 -21 -22 -12 -22 -12 -3 10 19 21
43 30 31 11z m8665 -20 c0 -5 -4 -10 -10 -10 -5 0 -10 5 -10 10 0 6 5 10 10
10 6 0 10 -4 10 -10z m-8378 -22 c-7 -7 -12 -8 -12 -2 0 14 12 26 19 19 2 -3
-1 -11 -7 -17z m-696 -26 c-22 -22 -26 -23 -20 -7 8 22 35 48 43 40 3 -3 -7
-18 -23 -33z m116 16 c-7 -7 -12 -8 -12 -2 0 14 12 26 19 19 2 -3 -1 -11 -7
-17z m502 -3 c-4 -9 -15 -20 -25 -26 -17 -9 -18 -7 -7 16 12 27 42 36 32 10z
m-51 -22 c-4 -10 -17 -29 -30 -43 -19 -20 -23 -22 -23 -8 0 10 9 22 20 28 11
6 20 17 20 25 0 8 4 15 10 15 5 0 6 -8 3 -17z m113 -9 c-11 -7 -22 -11 -25 -8
-3 3 3 12 13 20 11 7 22 11 25 8 3 -3 -3 -12 -13 -20z m51 4 c-3 -8 -6 -5 -6
6 -1 11 2 17 5 13 3 -3 4 -12 1 -19z m-487 8 c0 -3 -4 -8 -10 -11 -5 -3 -10
-1 -10 4 0 6 5 11 10 11 6 0 10 -2 10 -4z m-253 -59 c-18 -41 -38 -58 -29 -25
6 27 33 70 39 64 2 -2 -2 -20 -10 -39z m703 24 c0 -5 -7 -12 -16 -15 -14 -5
-15 -4 -4 9 14 17 20 19 20 6z m-671 -81 c0 -14 -4 -34 -9 -45 -6 -14 -9 -3
-9 40 -1 42 2 56 9 45 5 -8 9 -26 9 -40z m-28 -55 c1 -29 -5 -64 -15 -85 l-16
-35 6 65 c5 67 14 113 20 108 1 -2 4 -26 5 -53z m9019 4 c0 -14 -17 -10 -23 5
-4 10 -1 13 9 9 7 -3 14 -9 14 -14z m-9053 -21 c-3 -7 -5 -2 -5 12 0 14 2 19
5 13 2 -7 2 -19 0 -25z m164 -81 c-10 -9 -11 -8 -5 6 3 10 9 15 12 12 3 -3 0
-11 -7 -18z m8826 -59 c-3 -8 -6 -5 -6 6 -1 11 2 17 5 13 3 -3 4 -12 1 -19z
m-8927 -39 c-16 -29 -23 -17 -15 22 6 26 9 29 17 16 6 -11 5 -24 -2 -38z m-29
-42 c-14 -14 -26 17 -16 41 6 15 8 14 16 -7 6 -16 6 -28 0 -34z m8979 -37 c0
-5 -4 -10 -10 -10 -5 0 -10 5 -10 10 0 6 5 10 10 10 6 0 10 -4 10 -10z m-30
-10 c0 -5 -4 -10 -10 -10 -5 0 -10 5 -10 10 0 6 5 10 10 10 6 0 10 -4 10 -10z
m-8789 -77 c-10 -17 -10 -16 -11 3 0 23 13 41 18 25 2 -6 -1 -18 -7 -28z m56
-15 c-3 -8 -6 -5 -6 6 -1 11 2 17 5 13 3 -3 4 -12 1 -19z m8703 -35 c0 -32 -7
-27 -14 10 -3 16 -1 25 5 22 5 -4 9 -18 9 -32z m-8775 -34 c-4 -11 -3 -19 1
-19 11 0 33 34 34 52 0 22 19 33 26 15 5 -14 -65 -137 -78 -137 -10 0 -10 134
-1 144 11 10 24 -34 18 -55z m8800 -29 c-3 -5 -12 -7 -20 -3 -21 7 -19 13 6
13 11 0 18 -4 14 -10z m-8572 -25 c-3 -9 -8 -14 -10 -11 -3 3 -2 9 2 15 9 16
15 13 8 -4z m8534 -50 c-7 -13 -14 -20 -15 -14 -2 5 2 16 8 24 18 21 20 18 7
-10z m-8727 -89 l-22 -21 18 35 c10 21 19 30 22 21 2 -7 -6 -23 -18 -35z m-30
4 c-6 -12 -14 -19 -17 -17 -2 3 1 15 7 27 6 12 14 19 17 17 2 -3 -1 -15 -7
-27z m220 -96 c0 -8 -5 -12 -10 -9 -6 4 -8 11 -5 16 9 14 15 11 15 -7z m6 -61
c-10 -10 -19 5 -10 18 6 11 8 11 12 0 2 -7 1 -15 -2 -18z m24 -53 c-16 -31
-23 -19 -9 16 6 16 13 24 16 17 2 -7 -1 -22 -7 -33z m77 20 c-1 -22 -17 -28
-17 -7 0 12 9 27 16 27 2 0 2 -9 1 -20z m33 -39 c0 -17 -49 -116 -55 -109 -1
2 -5 15 -9 30 -5 22 -3 26 9 22 11 -4 13 -2 9 9 -6 16 22 67 37 67 5 0 9 -8 9
-19z m-90 -31 c0 -24 -16 -34 -24 -15 -7 19 3 47 15 39 5 -3 9 -14 9 -24z
m180 -5 c0 -8 -4 -15 -10 -15 -5 0 -7 7 -4 15 4 8 8 15 10 15 2 0 4 -7 4 -15z
m-210 -45 c0 -5 -9 -24 -20 -42 -23 -37 -26 -30 -8 19 11 31 28 45 28 23z
m8341 -43 c-6 -6 -14 -7 -18 -2 -5 4 -2 10 5 12 6 3 13 12 13 21 1 14 2 14 6
-2 3 -10 0 -23 -6 -29z m-8121 21 c0 -7 -9 -31 -19 -53 l-19 -40 -1 33 c-1 36
14 72 29 72 6 0 10 -6 10 -12z m8115 -114 c-10 -8 -25 -14 -32 -14 -21 0 -15
48 9 72 l22 22 10 -33 c8 -28 7 -36 -9 -47z m-7955 47 c0 -6 -4 -13 -10 -16
-5 -3 -10 1 -10 9 0 9 5 16 10 16 6 0 10 -4 10 -9z m57 -13 c-3 -8 -6 -5 -6 6
-1 11 2 17 5 13 3 -3 4 -12 1 -19z m-123 -12 c-8 -20 -24 -21 -24 0 0 8 5 12
10 9 6 -3 10 -1 10 6 0 7 2 10 5 7 3 -3 3 -13 -1 -22z m-104 -28 c0 -21 -3
-29 -10 -22 -5 5 -7 19 -4 32 9 31 14 27 14 -10z m134 13 c3 -5 -1 -14 -8 -20
-12 -10 -13 -8 -9 8 6 23 9 25 17 12z m96 -45 c0 -25 -4 -47 -9 -51 -12 -7
-26 58 -17 80 11 30 26 14 26 -29z m-147 12 c7 -25 -21 -91 -34 -82 -13 8 -11
78 3 92 17 17 25 15 31 -10z m8044 -25 c-8 -15 -18 -43 -22 -60 -10 -48 -24
-40 -23 12 0 33 7 52 26 72 29 32 40 18 19 -24z m-7770 -15 c-3 -8 -6 -5 -6 6
-1 11 2 17 5 13 3 -3 4 -12 1 -19z m7713 -18 c0 -5 -2 -10 -4 -10 -3 0 -8 5
-11 10 -3 6 -1 10 4 10 6 0 11 -4 11 -10z m-7873 -32 c-3 -8 -6 -5 -6 6 -1 11
2 17 5 13 3 -3 4 -12 1 -19z m133 4 c0 -13 -12 -22 -22 -16 -10 6 -1 24 13 24
5 0 9 -4 9 -8z m-158 -44 c-9 -9 -12 -7 -12 12 0 19 3 21 12 12 9 -9 9 -15 0
-24z m163 -18 c-5 -16 -10 -19 -18 -11 -7 7 -6 15 3 26 17 20 24 13 15 -15z
m7652 -127 l-24 -25 0 25 c0 16 7 29 21 35 31 14 33 -5 3 -35z m-7427 7 c0 -5
-5 -10 -11 -10 -5 0 -7 5 -4 10 3 6 8 10 11 10 2 0 4 -4 4 -10z m-173 -82 c-3
-7 -5 -2 -5 12 0 14 2 19 5 13 2 -7 2 -19 0 -25z m87 4 c3 -5 1 -22 -4 -38 -4
-16 -9 -22 -9 -14 -1 8 -4 25 -7 38 -6 21 9 32 20 14z m409 -112 c-3 -11 -7
-20 -9 -20 -2 0 -4 9 -4 20 0 11 4 20 9 20 5 0 7 -9 4 -20z m-49 -6 c3 -8 2
-12 -4 -9 -6 3 -10 10 -10 16 0 14 7 11 14 -7z m7111 -7 c1 -12 -14 -27 -27
-27 -12 0 -9 25 4 38 13 13 23 8 23 -11z m-6946 -159 c-6 -20 -15 -35 -19 -33
-8 5 3 77 17 110 14 35 17 -34 2 -77z m-660 -28 c-6 -16 -14 -28 -19 -25 -4 3
-13 -2 -20 -10 -7 -8 -19 -15 -28 -15 -8 0 -25 -8 -36 -17 l-20 -18 20 35 c12
21 38 44 64 57 25 13 46 23 47 23 1 0 -3 -13 -8 -30z m605 -37 c-11 -8 -13
-13 -5 -13 7 0 11 -6 8 -12 -2 -7 -11 -12 -20 -10 -8 1 -18 -2 -22 -8 -3 -5
-18 -10 -33 -10 l-26 0 34 30 c19 16 41 29 48 30 6 0 12 12 13 28 l0 27 10
-25 c8 -19 6 -27 -7 -37z m-204 39 c0 -10 -22 -32 -32 -32 -5 0 -3 9 4 20 13
20 28 27 28 12z m-260 -54 c0 -28 -16 -55 -26 -45 -4 3 -1 14 7 24 12 15 12
16 -3 10 -10 -3 -18 -2 -18 3 0 7 27 28 38 30 1 0 2 -10 2 -22z m-169 -10
c-29 -74 -52 -118 -61 -118 -15 0 -13 5 22 76 30 60 58 90 39 42z m18 -30 c-7
-23 -19 -50 -27 -58 -13 -13 -14 -13 -8 5 15 45 41 103 44 100 2 -2 -2 -23 -9
-47z m391 49 c0 -2 -14 -16 -32 -33 -18 -16 -26 -21 -19 -11 7 9 10 17 6 17
-4 0 -2 7 5 15 11 13 40 21 40 12z m111 -11 c-6 -8 -21 -16 -32 -19 -20 -5
-20 -5 -3 14 20 23 54 28 35 5z m-581 -67 c-15 -33 -31 -63 -34 -66 -10 -10
25 101 36 115 26 31 25 7 -2 -49z m406 43 c-3 -5 -16 -12 -28 -15 l-23 -6 24
20 c23 19 39 20 27 1z m354 8 c0 -5 -5 -10 -11 -10 -5 0 -7 5 -4 10 3 6 8 10
11 10 2 0 4 -4 4 -10z m50 -10 c-6 -11 -15 -20 -20 -20 -16 0 -11 18 8 29 24
14 24 14 12 -9z m-470 -4 c0 -2 -12 -11 -27 -20 l-28 -17 24 20 c23 21 31 25
31 17z m170 0 c0 -3 -4 -8 -10 -11 -5 -3 -10 -1 -10 4 0 6 5 11 10 11 6 0 10
-2 10 -4z m170 -6 c0 -5 -9 -14 -20 -20 -24 -13 -26 -7 -4 14 18 18 24 20 24
6z m-716 -56 c-18 -53 -34 -78 -34 -52 0 33 36 115 46 105 2 -2 -3 -26 -12
-53z m176 26 c-8 -5 -17 -7 -19 -4 -3 3 1 9 9 14 8 5 17 7 19 4 3 -3 -1 -9 -9
-14z m471 -13 l-23 -22 17 28 c10 15 20 25 23 22 3 -3 -5 -16 -17 -28z m-236
13 c-3 -5 -14 -10 -23 -10 -15 0 -15 2 -2 10 20 13 33 13 25 0z m386 -23 c-10
-9 -11 -8 -5 6 3 10 9 15 12 12 3 -3 0 -11 -7 -18z m-639 -39 c-7 -7 -12 -8
-12 -2 0 14 12 26 19 19 2 -3 -1 -11 -7 -17z m400 -10 c-7 -7 -12 -8 -12 -2 0
14 12 26 19 19 2 -3 -1 -11 -7 -17z m-522 -15 c0 -5 -9 -19 -20 -33 -16 -20
-19 -21 -14 -5 11 31 34 58 34 38z m-60 -17 c0 -3 -4 -8 -10 -11 -5 -3 -10 -1
-10 4 0 6 5 11 10 11 6 0 10 -2 10 -4z m7441 -49 c-8 -8 -11 -7 -11 4 0 9 3
19 7 23 4 4 9 2 11 -4 3 -7 -1 -17 -7 -23z m-7453 -29 l-13 -23 -3 23 c-4 28
21 66 26 39 2 -9 -3 -26 -10 -39z m63 -6 c-5 -10 -18 -25 -27 -33 -16 -12 -17
-12 -9 1 10 18 37 50 42 50 2 0 -1 -8 -6 -18z m42 3 c-3 -9 -8 -14 -10 -11 -3
3 -2 9 2 15 9 16 15 13 8 -4z m7354 -7 c-3 -8 -6 -5 -6 6 -1 11 2 17 5 13 3
-3 4 -12 1 -19z m-7404 -48 c-5 -21 -33 -49 -33 -33 0 9 29 53 35 53 2 0 1 -9
-2 -20z m-72 -17 c-8 -15 -10 -15 -11 -2 0 17 10 32 18 25 2 -3 -1 -13 -7 -23z
m120 -36 c-25 -26 -28 -10 -3 21 9 12 19 16 21 11 2 -6 -6 -21 -18 -32z m7245
-28 c-9 -19 -15 -26 -16 -16 0 17 21 59 27 53 2 -2 -3 -18 -11 -37z m-7359
-21 c-3 -8 -6 -5 -6 6 -1 11 2 17 5 13 3 -3 4 -12 1 -19z m7289 -115 c-11 -11
-19 6 -11 24 8 17 8 17 12 0 3 -10 2 -21 -1 -24z m-7079 -80 c-3 -10 -5 -2 -5
17 0 19 2 27 5 18 2 -10 2 -26 0 -35z m-100 -10 c-3 -10 -5 -2 -5 17 0 19 2
27 5 18 2 -10 2 -26 0 -35z m190 -10 c-3 -10 -5 -2 -5 17 0 19 2 27 5 18 2
-10 2 -26 0 -35z m52 -90 c0 -5 -4 -17 -9 -28 -8 -18 -9 -17 -9 8 -1 15 4 27
9 27 6 0 10 -3 9 -7z m6758 -60 c-3 -10 -5 -4 -5 12 0 17 2 24 5 18 2 -7 2
-21 0 -30z m-6557 -18 c0 -8 -4 -17 -10 -20 -6 -4 -10 5 -10 20 0 15 4 24 10
20 6 -3 10 -12 10 -20z m6515 -5 c3 -5 1 -10 -4 -10 -6 0 -11 5 -11 10 0 6 2
10 4 10 3 0 8 -4 11 -10z m-6546 -79 c-14 -38 -5 -66 9 -31 l11 25 0 -26 c1
-14 -4 -41 -10 -59 -10 -27 -13 -30 -21 -16 -5 9 -11 43 -14 76 -4 50 -2 59
10 54 11 -4 13 0 10 18 -5 19 -4 20 5 7 8 -12 8 -26 0 -48z m362 -18 c-8 -15
-10 -15 -11 -2 0 17 10 32 18 25 2 -3 -1 -13 -7 -23z m-205 -37 c3 -8 -5 -29
-18 -46 -26 -36 -35 -25 -18 25 12 37 27 45 36 21z m6294 -51 c0 -5 -5 -3 -10
5 -5 8 -10 20 -10 25 0 6 5 3 10 -5 5 -8 10 -19 10 -25z m-6160 -21 c0 -14 -4
-22 -10 -19 -5 3 -10 17 -10 31 0 14 4 22 10 19 6 -3 10 -17 10 -31z m6040 -8
c0 -3 -4 -8 -10 -11 -5 -3 -10 -1 -10 4 0 6 5 11 10 11 6 0 10 -2 10 -4z
m-5865 -140 c-8 -52 -25 -53 -25 -1 0 44 10 69 22 57 5 -5 7 -30 3 -56z m145
-40 c0 -3 -4 -8 -10 -11 -5 -3 -10 -1 -10 4 0 6 5 11 10 11 6 0 10 -2 10 -4z
m137 -18 c-3 -8 -6 -5 -6 6 -1 11 2 17 5 13 3 -3 4 -12 1 -19z m-117 -12 c-5
-14 -5 -27 0 -32 5 -5 5 -15 1 -23 -16 -25 -33 23 -19 53 14 33 31 34 18 2z
m5481 -66 c5 0 9 -30 9 -67 -1 -75 -13 -69 -25 12 -5 28 -9 56 -11 64 -1 7 1
21 4 30 5 12 8 9 10 -11 2 -16 8 -28 13 -28z m-5314 -2 c-3 -8 -6 -5 -6 6 -1
11 2 17 5 13 3 -3 4 -12 1 -19z m-78 -45 c1 -13 -3 -23 -9 -23 -5 0 -10 19 -9
43 0 32 2 37 9 22 5 -11 9 -30 9 -42z m229 3 c-17 -33 -18 -32 -18 9 0 32 2
36 15 25 11 -9 12 -17 3 -34z m-191 -38 c-3 -8 -6 -5 -6 6 -1 11 2 17 5 13 3
-3 4 -12 1 -19z m287 -33 c6 -23 -7 -65 -19 -65 -3 0 -5 20 -5 45 0 49 14 60
24 20z m-317 -7 c-3 -8 -6 -5 -6 6 -1 11 2 17 5 13 3 -3 4 -12 1 -19z m176
-29 c-6 -6 -7 3 -4 23 4 28 6 29 9 9 2 -13 0 -27 -5 -32z m5004 -11 c-3 -8 -6
-5 -6 6 -1 11 2 17 5 13 3 -3 4 -12 1 -19z m90 -70 c-2 -13 -4 -5 -4 17 -1 22
1 32 4 23 2 -10 2 -28 0 -40z m-4820 -10 c-3 -7 -5 -2 -5 12 0 14 2 19 5 13 2
-7 2 -19 0 -25z m4711 -20 c12 -27 17 -48 12 -48 -11 0 -40 64 -40 88 0 21 4
15 28 -40z m-4663 -29 c-4 -67 -15 -93 -15 -37 0 37 10 98 16 98 2 0 1 -27 -1
-61z m-34 -34 c-5 -33 -9 -46 -10 -30 -1 36 11 114 16 100 1 -6 -1 -37 -6 -70z
m60 48 c-12 -20 -14 -14 -5 12 4 9 9 14 11 11 3 -2 0 -13 -6 -23z m4612 -46
c-9 -16 -23 6 -23 36 l1 32 13 -30 c7 -16 11 -33 9 -38z m144 41 c-3 -8 -6 -5
-6 6 -1 11 2 17 5 13 3 -3 4 -12 1 -19z m-177 -39 c0 -11 -4 -17 -10 -14 -5 3
-10 15 -10 26 0 11 5 17 10 14 6 -3 10 -15 10 -26z m-4670 -148 c-24 -49 -38
-59 -36 -27 0 13 4 22 7 20 4 -2 14 7 23 21 25 38 29 30 6 -14z m-60 -61 c-6
-11 -13 -20 -16 -20 -2 0 0 9 6 20 6 11 13 20 16 20 2 0 0 -9 -6 -20z m-367
-60 c-5 -17 -43 -50 -43 -36 0 4 43 55 47 56 0 0 -1 -9 -4 -20z m203 -21 c-14
-17 -26 -35 -26 -40 0 -5 -4 -9 -10 -9 -18 0 -10 18 21 49 39 40 48 40 15 0z
m4651 -21 c-3 -7 -5 -2 -5 12 0 14 2 19 5 13 2 -7 2 -19 0 -25z m-4923 -9
c-12 -13 -20 -16 -22 -9 -3 7 2 16 9 21 25 16 32 9 13 -12z m-234 -17 c-10
-36 -43 -96 -37 -67 3 11 8 29 12 40 7 18 6 18 -14 -2 -21 -22 -31 -28 -31
-18 0 8 62 75 70 75 5 0 5 -13 0 -28z m284 -1 c-3 -9 -7 -27 -8 -41 -1 -18 -7
-25 -23 -26 -23 -1 -31 10 -14 20 5 4 11 1 13 -6 3 -7 7 -5 11 6 4 10 3 15 -3
11 -6 -3 -10 -2 -10 4 0 5 5 13 10 16 6 3 10 12 10 18 -1 7 -12 -1 -25 -18
-14 -16 -25 -25 -25 -18 0 7 9 21 20 31 25 23 54 25 44 3z m-133 -38 c-8 -15
-10 -15 -11 -2 0 17 10 32 18 25 2 -3 -1 -13 -7 -23z m-31 -23 c0 -5 -7 -10
-16 -10 -8 0 -12 5 -9 10 3 6 10 10 16 10 5 0 9 -4 9 -10z m4817 -44 c-9 -13
-17 -38 -20 -57 -3 -24 -4 -17 -5 21 -1 40 1 51 9 40 8 -12 9 -12 7 5 -1 11 2
27 7 35 8 13 10 12 13 -3 2 -10 -3 -28 -11 -41z m53 22 c0 -18 -5 -40 -10 -48
-7 -11 -10 -2 -10 33 0 26 5 47 10 47 6 0 10 -15 10 -32z m-5040 8 c0 -20 -11
-46 -19 -46 -3 0 -7 14 -8 30 -2 21 2 30 12 30 8 0 15 -6 15 -14z m230 -1 c0
-8 -7 -15 -16 -15 -14 0 -14 3 -4 15 7 8 14 15 16 15 2 0 4 -7 4 -15z m-350
-14 c-10 -21 -30 -37 -30 -26 0 14 21 45 31 45 6 0 6 -7 -1 -19z m32 -33 c-7
-7 -12 -8 -12 -2 0 6 3 14 7 17 3 4 9 5 12 2 2 -3 -1 -11 -7 -17z m34 -4 c-4
-9 -9 -15 -11 -12 -3 3 -3 13 1 22 4 9 9 15 11 12 3 -3 3 -13 -1 -22z m-113
-3 c-2 -10 -19 -29 -36 -41 -18 -13 -30 -20 -27 -17 3 3 19 22 35 42 17 19 31
35 32 35 0 0 -1 -8 -4 -19z m37 -31 c0 -11 -7 -20 -15 -20 -18 0 -19 12 -3 28
16 16 18 15 18 -8z m-120 -15 c-7 -8 -17 -15 -23 -15 -5 0 -2 9 8 20 21 23 35
19 15 -5z m193 10 c-3 -9 -8 -14 -10 -11 -3 3 -2 9 2 15 9 16 15 13 8 -4z
m4827 1 c0 -7 -7 -19 -15 -26 -9 -8 -15 -9 -15 -2 0 6 5 14 10 17 6 4 8 11 5
16 -4 5 -1 9 4 9 6 0 11 -6 11 -14z m-14 -83 c-8 -15 -15 -22 -16 -15 0 14 22
53 28 47 2 -2 -3 -16 -12 -32z m-5196 3 c0 -2 -8 -10 -17 -17 -16 -13 -17 -12
-4 4 13 16 21 21 21 13z m5349 -54 c1 -7 -3 -10 -9 -7 -5 3 -10 21 -9 38 1 31
1 31 9 7 4 -14 8 -31 9 -38z m-5923 36 c-3 -7 -7 -25 -10 -40 -4 -17 -18 -34
-36 -43 -38 -19 -38 -13 0 35 17 21 30 43 30 49 0 6 4 11 10 11 5 0 8 -6 6
-12z m294 3 c0 -5 -21 -26 -46 -46 -43 -35 -46 -36 -39 -14 12 41 85 93 85 60z
m-418 -34 c-7 -8 -10 -16 -7 -19 3 -2 -10 -18 -28 -34 -26 -23 -28 -24 -9 -3
29 33 29 48 0 22 -48 -42 -51 -32 -4 12 27 25 51 43 54 41 3 -3 0 -12 -6 -19z
m-244 -8 c-16 -12 -25 -26 -21 -34 3 -8 -2 -18 -11 -21 -9 -3 -13 -10 -10 -15
7 -11 -25 -63 -33 -55 -3 3 2 17 11 31 9 14 13 25 10 25 -4 0 1 9 11 20 14 15
15 20 4 20 -8 1 -1 11 16 25 17 14 35 25 40 25 6 -1 -2 -10 -17 -21z m1037 11
c-3 -5 -11 -10 -16 -10 -6 0 -7 5 -4 10 3 6 11 10 16 10 6 0 7 -4 4 -10z
m-534 -40 c-24 -21 -47 -38 -52 -37 -4 1 -14 -6 -21 -16 -13 -17 -14 -17 -15
1 -2 23 17 42 72 71 60 32 65 25 16 -19z m239 15 c-7 -9 -15 -13 -18 -10 -3 2
1 11 8 20 7 9 15 13 18 10 3 -2 -1 -11 -8 -20z m-100 -5 c0 -5 -8 -10 -17 -10
-15 0 -16 2 -3 10 19 12 20 12 20 0z m-700 -13 c0 -2 -12 -14 -26 -28 l-27
-24 18 28 c14 22 35 36 35 24z m6067 -19 c-3 -8 -6 -5 -6 6 -1 11 2 17 5 13 3
-3 4 -12 1 -19z m-5395 -10 c-6 -6 -15 -8 -19 -4 -4 4 -1 11 7 16 19 12 27 3
12 -12z m-793 -44 c-17 -21 -21 -11 -8 22 10 23 13 25 16 11 3 -10 -1 -25 -8
-33z m-26 7 c-3 -15 -9 -33 -14 -41 -9 -19 -67 -80 -94 -100 -19 -14 -19 -14
-5 5 8 11 0 7 -18 -9 -18 -17 -32 -27 -32 -24 0 24 50 109 86 144 46 47 49 54
9 28 -28 -18 -33 -13 -10 9 8 8 30 15 49 14 33 -1 35 -3 29 -26z m-120 -22
c-10 -17 -26 -35 -36 -41 -18 -9 -18 -8 -1 19 l18 28 -22 -19 c-12 -11 -22
-14 -22 -9 0 15 27 36 38 29 6 -3 15 1 22 9 21 25 22 17 3 -16z m187 10 c-7
-11 -14 -18 -17 -15 -3 3 0 12 7 21 18 21 23 19 10 -6z m167 -9 c-12 -32 -53
-77 -62 -68 -3 3 6 21 20 41 15 23 20 37 12 38 -7 0 -3 4 8 9 32 14 34 12 22
-20z m6093 -22 c12 -37 4 -35 -15 2 -9 17 -13 36 -9 42 6 9 9 8 12 -2 2 -8 7
-27 12 -42z m-6240 -18 c0 -5 -5 -10 -11 -10 -5 0 -7 5 -4 10 3 6 8 10 11 10
2 0 4 -4 4 -10z m5880 -5 c-7 -9 -15 -13 -17 -11 -7 7 7 26 19 26 6 0 6 -6 -2
-15z m-5859 -55 c-16 -48 -41 -80 -41 -51 0 31 46 118 57 108 1 -1 -6 -27 -16
-57z m-310 23 c-12 -20 -14 -14 -5 12 4 9 9 14 11 11 3 -2 0 -13 -6 -23z
m6139 3 c0 -7 -7 -19 -15 -26 -12 -10 -15 -9 -15 7 0 11 3 23 7 26 11 12 23 8
23 -7z m50 -36 c0 -27 -2 -50 -5 -50 -8 0 -24 72 -18 86 11 30 23 12 23 -36z
m-6159 3 c-10 -17 -10 -16 -11 3 0 23 13 41 18 25 2 -6 -1 -18 -7 -28z m6062
17 c3 -11 1 -20 -4 -20 -5 0 -9 9 -9 20 0 11 2 20 4 20 2 0 6 -9 9 -20z m-41
-29 c2 -22 0 -37 -4 -35 -8 5 -11 74 -4 74 2 0 6 -18 8 -39z m-162 -36 c-6
-15 -13 -25 -17 -22 -3 4 0 21 8 38 16 39 24 24 9 -16z m-5899 -58 c-13 -13
-15 50 -3 80 5 13 8 5 10 -26 2 -24 -2 -49 -7 -54z m83 38 c-20 -25 -41 -45
-47 -45 -6 0 9 20 33 45 24 25 46 45 48 45 2 0 -13 -20 -34 -45z m5913 13 c-3
-8 -6 -5 -6 6 -1 11 2 17 5 13 3 -3 4 -12 1 -19z m-5900 -91 c-35 -58 -47 -62
-47 -19 0 21 2 22 15 12 8 -7 15 -9 15 -4 0 14 40 77 46 72 2 -3 -11 -30 -29
-61z m-120 16 c-3 -10 -5 -4 -5 12 0 17 2 24 5 18 2 -7 2 -21 0 -30z m-25 -45
c-7 -7 -12 -8 -12 -2 0 14 12 26 19 19 2 -3 -1 -11 -7 -17z m188 3 c0 -10 -9
-29 -20 -42 l-21 -24 16 39 c8 21 15 40 15 42 0 2 2 4 5 4 3 0 5 -9 5 -19z
m80 5 c0 -3 -4 -8 -10 -11 -5 -3 -10 -1 -10 4 0 6 5 11 10 11 6 0 10 -2 10 -4z
m5464 -85 c-21 -74 -31 -73 -14 1 14 57 20 72 26 65 3 -2 -3 -32 -12 -66z
m-5464 -18 c-11 -17 -11 -17 -6 0 3 10 6 24 7 30 0 9 2 9 5 0 3 -7 0 -20 -6
-30z m-28 -76 c-9 -18 -11 -11 -10 38 0 59 0 60 10 22 7 -27 7 -45 0 -60z
m5414 21 c-10 -83 -20 -100 -35 -58 -15 45 -14 66 5 95 28 42 37 30 30 -37z
m-5329 -10 c-3 -8 -6 -5 -6 6 -1 11 2 17 5 13 3 -3 4 -12 1 -19z m403 -20 c0
-7 -5 -20 -10 -28 -8 -12 -10 -9 -10 13 0 15 5 27 10 27 6 0 10 -6 10 -12z
m242 -20 c-7 -7 -12 -8 -12 -2 0 14 12 26 19 19 2 -3 -1 -11 -7 -17z m14 -37
c-15 -15 -16 -13 -4 19 9 26 13 30 16 16 2 -10 -3 -26 -12 -35z m-601 30 c3
-5 1 -12 -5 -16 -5 -3 -10 1 -10 9 0 18 6 21 15 7z m4955 -8 c0 -14 -19 -38
-25 -32 -8 8 5 39 16 39 5 0 9 -3 9 -7z m-4683 -85 c7 -16 9 -28 4 -28 -5 0
-14 14 -20 31 -11 32 -14 68 -4 39 3 -8 12 -27 20 -42z m4626 15 c-8 -52 -13
-54 -13 -5 0 23 4 42 9 42 6 0 7 -17 4 -37z m28 -20 c-9 -16 -10 -15 -11 8 0
14 3 29 8 33 12 12 14 -22 3 -41z m-4428 2 c-3 -9 -8 -14 -10 -11 -3 3 -2 9 2
15 9 16 15 13 8 -4z m80 -27 c-7 -41 -23 -61 -23 -30 0 19 19 62 27 62 1 0 0
-15 -4 -32z m94 -20 c-3 -7 -5 -2 -5 12 0 14 2 19 5 13 2 -7 2 -19 0 -25z
m409 -36 c-11 -10 -15 4 -8 28 l7 25 3 -23 c2 -13 1 -26 -2 -30z m3156 26 c-7
-7 -12 -8 -12 -2 0 14 12 26 19 19 2 -3 -1 -11 -7 -17z m418 2 c0 -5 -5 -10
-11 -10 -5 0 -7 5 -4 10 3 6 8 10 11 10 2 0 4 -4 4 -10z m40 -7 c-1 -5 -7 -19
-15 -33 -10 -18 -14 -20 -15 -8 0 23 11 48 21 48 5 0 9 -3 9 -7z m-395 -64
c-4 -5 -1 -9 4 -9 13 0 14 -32 2 -45 -5 -6 -11 -19 -14 -30 -3 -11 -5 8 -6 43
-1 41 3 61 9 57 6 -4 8 -11 5 -16z m-117 -1 c-2 -6 -10 -14 -16 -16 -7 -2 -10
2 -6 12 7 18 28 22 22 4z m462 -18 c0 -16 -2 -30 -4 -30 -2 0 -6 14 -8 30 -3
17 -1 30 4 30 4 0 8 -13 8 -30z m-3493 -12 c-3 -8 -6 -5 -6 6 -1 11 2 17 5 13
3 -3 4 -12 1 -19z m2840 0 c-3 -8 -6 -5 -6 6 -1 11 2 17 5 13 3 -3 4 -12 1
-19z m553 8 c0 -8 -4 -18 -10 -21 -5 -3 -10 3 -10 14 0 12 5 21 10 21 6 0 10
-6 10 -14z m-356 -45 c-5 -22 -10 -29 -17 -22 -7 7 -7 19 2 37 15 34 23 26 15
-15z m256 -24 c0 -31 -3 -38 -10 -27 -13 20 -13 83 0 75 6 -3 10 -25 10 -48z
m-3550 27 c0 -8 -4 -12 -10 -9 -5 3 -10 10 -10 16 0 5 5 9 10 9 6 0 10 -7 10
-16z m2464 -9 c3 -8 1 -15 -4 -15 -6 0 -10 7 -10 15 0 8 2 15 4 15 2 0 6 -7
10 -15z m1015 3 c0 -7 -4 -22 -9 -33 -7 -17 -9 -15 -9 13 -1 17 4 32 9 32 6 0
10 -6 9 -12z m150 -36 c1 -7 -3 -10 -9 -7 -5 3 -10 18 -9 33 0 24 1 25 9 7 5
-11 9 -26 9 -33z m-3305 6 c4 -17 2 -28 -4 -28 -5 0 -10 14 -10 32 0 36 4 35
14 -4z m2679 -10 c4 -31 2 -47 -9 -58 -12 -12 -14 -12 -14 8 0 12 4 22 9 22 5
0 5 15 1 35 -4 19 -4 35 0 35 4 0 10 -19 13 -42z m347 15 c0 -20 -3 -24 -11
-16 -7 7 -9 19 -6 27 10 24 17 19 17 -11z m-3318 -5 c-7 -7 -12 -8 -12 -2 0
14 12 26 19 19 2 -3 -1 -11 -7 -17z m2394 -26 c-12 -11 -18 7 -10 30 l8 23 4
-23 c2 -13 1 -26 -2 -30z m-1602 4 c-3 -9 -10 -16 -15 -16 -6 0 -5 9 1 21 13
24 24 20 14 -5z m1463 -8 c-3 -8 -6 -5 -6 6 -1 11 2 17 5 13 3 -3 4 -12 1 -19z
m588 -36 c-8 -8 -26 39 -19 50 5 8 11 1 16 -17 4 -16 6 -31 3 -33z m-2483 13
c-5 -16 -11 -25 -14 -20 -6 11 10 61 17 53 2 -2 1 -17 -3 -33z m2572 -6 c8
-50 -12 -87 -26 -48 -6 15 -5 25 3 30 6 4 9 19 7 33 -3 14 -2 26 2 26 4 0 10
-19 14 -41z m-1993 -10 l-10 -24 0 26 c-1 14 2 29 6 33 12 12 14 -9 4 -35z
m1849 21 c-6 -11 -12 -20 -14 -20 -2 0 -2 9 1 20 3 11 9 20 15 20 5 0 4 -9 -2
-20z m-474 -45 c-4 -18 -13 -38 -20 -44 -11 -9 -16 -5 -25 20 -13 38 -14 59
-2 59 5 0 12 -15 16 -32 l8 -33 4 30 c2 17 6 37 10 45 9 25 16 -7 9 -45z m220
7 c-12 -11 -18 7 -10 30 l8 23 4 -23 c2 -13 1 -26 -2 -30z m801 11 c-3 -10 -5
-4 -5 12 0 17 2 24 5 18 2 -7 2 -21 0 -30z m-2478 -48 l-20 -70 5 52 c5 48 22
100 31 91 2 -2 -5 -35 -16 -73z m1751 36 c0 -22 5 -41 12 -43 9 -3 9 -15 -1
-51 -13 -43 -31 -64 -31 -34 0 6 -3 22 -6 35 -5 16 -3 22 7 20 8 -2 12 3 10
12 -7 30 -7 100 1 100 4 0 8 -18 8 -39z m-1816 5 c-6 -16 -24 -23 -24 -8 0 10
22 33 27 28 2 -2 1 -11 -3 -20z m376 20 c0 -3 -4 -8 -10 -11 -5 -3 -10 -1 -10
4 0 6 5 11 10 11 6 0 10 -2 10 -4z m840 -4 c0 -5 -9 -17 -20 -27 -16 -14 -20
-15 -20 -4 0 16 19 39 32 39 4 0 8 -4 8 -8z m-513 -34 c-3 -7 -5 -2 -5 12 0
14 2 19 5 13 2 -7 2 -19 0 -25z m936 -27 c-4 -26 -9 -38 -13 -30 -10 19 0 93
11 82 4 -4 5 -28 2 -52z m-360 29 c-3 -12 -8 -19 -11 -16 -5 6 5 36 12 36 2 0
2 -9 -1 -20z m664 -17 c-3 -10 -5 -4 -5 12 0 17 2 24 5 18 2 -7 2 -21 0 -30z
m-1347 -23 c0 -21 -4 -41 -9 -45 -6 -3 -9 15 -9 44 2 58 18 59 18 1z m729 18
c-8 -14 -14 -18 -17 -10 -4 13 17 46 25 38 3 -2 -1 -15 -8 -28z m-940 5 c0 -5
-4 -17 -9 -28 -8 -18 -9 -17 -9 8 -1 15 4 27 9 27 6 0 10 -3 9 -7z m1343 -25
c-9 -9 -12 -7 -12 12 0 19 3 21 12 12 9 -9 9 -15 0 -24z m-1095 -10 c-3 -7 -5
-2 -5 12 0 14 2 19 5 13 2 -7 2 -19 0 -25z m693 -38 c-15 -42 -19 -48 -20 -28
0 28 32 107 37 91 2 -5 -6 -33 -17 -63z m-293 38 c-3 -8 -6 -5 -6 6 -1 11 2
17 5 13 3 -3 4 -12 1 -19z m1050 -15 c-3 -10 -5 -4 -5 12 0 17 2 24 5 18 2 -7
2 -21 0 -30z m-1329 -56 c1 -28 5 -65 7 -82 5 -28 5 -29 -5 -6 -15 34 -25 141
-14 141 5 0 10 -24 12 -53z m179 16 c-3 -10 -5 -4 -5 12 0 17 2 24 5 18 2 -7
2 -21 0 -30z"/>
<path d="M1780 7565 c-7 -9 -11 -17 -9 -20 3 -2 10 5 17 15 14 24 10 26 -8 5z"/>
<path d="M10625 7810 c-3 -5 -2 -10 4 -10 5 0 13 5 16 10 3 6 2 10 -4 10 -5 0
-13 -4 -16 -10z"/>
<path d="M10095 5920 c-3 -5 -1 -10 4 -10 6 0 11 5 11 10 0 6 -2 10 -4 10 -3
0 -8 -4 -11 -10z"/>
<path d="M9559 10483 c-13 -16 -12 -17 4 -4 16 13 21 21 13 21 -2 0 -10 -8
-17 -17z"/>
<path d="M2108 10463 c7 -3 16 -2 19 1 4 3 -2 6 -13 5 -11 0 -14 -3 -6 -6z"/>
<path d="M10641 10342 c-6 -12 -11 -27 -11 -34 0 -7 7 0 15 16 9 16 13 31 11
33 -2 3 -9 -4 -15 -15z"/>
<path d="M10580 10285 c-18 -19 -32 -37 -29 -39 2 -3 19 13 37 35 41 48 37 51
-8 4z"/>
<path d="M2565 9770 c-3 -6 1 -7 9 -4 18 7 21 14 7 14 -6 0 -13 -4 -16 -10z"/>
<path d="M2639 9553 c-13 -15 -12 -15 9 -4 23 12 28 21 13 21 -5 0 -15 -7 -22
-17z"/>
<path d="M11127 9563 c-4 -3 -7 -11 -7 -17 0 -6 5 -5 12 2 6 6 9 14 7 17 -3 3
-9 2 -12 -2z"/>
<path d="M2945 9410 c-3 -6 1 -7 9 -4 18 7 21 14 7 14 -6 0 -13 -4 -16 -10z"/>
<path d="M11451 9304 c0 -11 3 -14 6 -6 3 7 2 16 -1 19 -3 4 -6 -2 -5 -13z"/>
<path d="M3350 9300 c-8 -5 -10 -10 -5 -10 6 0 17 5 25 10 8 5 11 10 5 10 -5
0 -17 -5 -25 -10z"/>
<path d="M11291 9140 c0 -14 6 -38 14 -55 l14 -30 -6 30 c-3 17 -10 41 -14 55
l-7 25 -1 -25z"/>
<path d="M3620 9060 c-9 -6 -10 -10 -3 -10 6 0 15 5 18 10 8 12 4 12 -15 0z"/>
<path d="M3898 8973 c7 -3 16 -2 19 1 4 3 -2 6 -13 5 -11 0 -14 -3 -6 -6z"/>
<path d="M3651 8934 c0 -11 3 -14 6 -6 3 7 2 16 -1 19 -3 4 -6 -2 -5 -13z"/>
<path d="M4124 8848 l-19 -23 23 19 c21 18 27 26 19 26 -2 0 -12 -10 -23 -22z"/>
<path d="M4480 8764 c-30 -11 -32 -13 -10 -13 14 -1 32 3 40 9 24 15 8 17 -30
4z"/>
<path d="M4280 8749 c-7 -11 -10 -23 -7 -25 2 -2 9 7 15 21 14 30 7 33 -8 4z"/>
<path d="M4537 8603 c-4 -3 -7 -13 -7 -22 1 -13 3 -13 11 2 11 19 8 33 -4 20z"/>
<path d="M4679 8493 c-13 -16 -12 -17 4 -4 16 13 21 21 13 21 -2 0 -10 -8 -17
-17z"/>
<path d="M6120 8195 c-17 -10 -20 -14 -9 -15 9 0 22 7 29 15 15 18 12 18 -20
0z"/>
<path d="M2629 5553 c-13 -16 -12 -17 4 -4 16 13 21 21 13 21 -2 0 -10 -8 -17
-17z"/>
<path d="M2691 5551 c-8 -5 -9 -11 -3 -15 5 -3 15 1 22 9 14 16 3 20 -19 6z"/>
<path d="M1955 3360 c-3 -6 1 -7 9 -4 18 7 21 14 7 14 -6 0 -13 -4 -16 -10z"/>
<path d="M2679 3273 c-13 -16 -12 -17 4 -4 9 7 17 15 17 17 0 8 -8 3 -21 -13z"/>
</g>
</svg>
